<?xml version="1.0" encoding="UTF-8" standalone="no"?>
<!-- Created with Inkscape (http://www.inkscape.org/) -->

<svg
   xmlns:dc="http://purl.org/dc/elements/1.1/"
   xmlns:cc="http://creativecommons.org/ns#"
   xmlns:rdf="http://www.w3.org/1999/02/22-rdf-syntax-ns#"
   xmlns:svg="http://www.w3.org/2000/svg"
   xmlns="http://www.w3.org/2000/svg"
   xmlns:xlink="http://www.w3.org/1999/xlink"
   xmlns:sodipodi="http://sodipodi.sourceforge.net/DTD/sodipodi-0.dtd"
   xmlns:inkscape="http://www.inkscape.org/namespaces/inkscape"
   width="48"
   height="48"
   id="svg2"
   version="1.1"
   inkscape:version="0.48.4 r9939"
   sodipodi:docname="kformula.svg">
  <defs
     id="defs4">
    <linearGradient
       id="linearGradient4148">
      <stop
         style="stop-color:#d3e4da;stop-opacity:1"
         offset="0"
         id="stop4150" />
      <stop
         style="stop-color:#f8fcfb;stop-opacity:1"
         offset="1"
         id="stop4152" />
    </linearGradient>
    <linearGradient
       id="linearGradient4104">
      <stop
         id="stop4106"
         offset="0"
         style="stop-color:#2f7562;stop-opacity:1;" />
      <stop
         id="stop4108"
         offset="1"
         style="stop-color:#31c6aa;stop-opacity:1;" />
    </linearGradient>
    <linearGradient
       gradientTransform="matrix(0.83333333,0,0,0.83333333,4.0000001,-171.39371)"
       y2="-1027.3622"
       x2="48"
       y1="-1027.3622"
       x1="-2.1054834e-08"
       gradientUnits="userSpaceOnUse"
       id="linearGradient5984"
       xlink:href="#linearGradient4104"
       inkscape:collect="always" />
    <linearGradient
       inkscape:collect="always"
       xlink:href="#linearGradient4148"
       id="linearGradient4091"
       x1="2.80498"
       y1="1027.1155"
       x2="45.195019"
       y2="1027.1155"
       gradientUnits="userSpaceOnUse"
       gradientTransform="matrix(0.8020752,0,0,0.8020752,4.7501951,203.5383)" />
    <linearGradient
       inkscape:collect="always"
       xlink:href="#linearGradient4283"
       id="linearGradient4289"
       gradientUnits="userSpaceOnUse"
       x1="56.110668"
       y1="1052.3029"
       x2="56.110668"
       y2="1039.3029"
       gradientTransform="translate(-31.11067,-1020.3029)" />
    <linearGradient
       id="linearGradient4283">
      <stop
         style="stop-color:#ffffff;stop-opacity:1;"
         offset="0"
         id="stop4285" />
      <stop
         style="stop-color:#ffffff;stop-opacity:1;"
         offset="1"
         id="stop4287" />
    </linearGradient>
    <linearGradient
       y2="1039.3029"
       x2="56.110668"
       y1="1052.3029"
       x1="56.110668"
       gradientTransform="matrix(1.5015182,0,0,1.5015182,-58.909941,-540.97721)"
       gradientUnits="userSpaceOnUse"
       id="linearGradient3036"
       xlink:href="#linearGradient4283"
       inkscape:collect="always" />
  </defs>
  <sodipodi:namedview
     id="base"
     pagecolor="#ffffff"
     bordercolor="#666666"
     borderopacity="1.0"
     inkscape:pageopacity="0.0"
     inkscape:pageshadow="2"
     inkscape:zoom="3.1156893"
     inkscape:cx="-103.39426"
     inkscape:cy="25.122556"
     inkscape:document-units="px"
     inkscape:current-layer="layer1"
     showgrid="true"
     inkscape:window-width="1871"
     inkscape:window-height="1056"
     inkscape:window-x="49"
     inkscape:window-y="24"
     inkscape:window-maximized="1">
    <inkscape:grid
       type="xygrid"
       id="grid3002" />
  </sodipodi:namedview>
  <metadata
     id="metadata7">
    <rdf:RDF>
      <cc:Work
         rdf:about="">
        <dc:format>image/svg+xml</dc:format>
        <dc:type
           rdf:resource="http://purl.org/dc/dcmitype/StillImage" />
        <dc:title />
      </cc:Work>
    </rdf:RDF>
  </metadata>
  <g
     inkscape:label="Capa 1"
     inkscape:groupmode="layer"
     id="layer1"
     transform="translate(0,-1004.3622)">
    <rect
       style="fill:url(#linearGradient5984);fill-opacity:1;stroke:none"
       id="rect2991-1"
       width="40"
       height="40"
       x="4"
       y="-1048.3622"
       ry="1.9999826"
       transform="scale(1,-1)" />
    <g
       id="g16724"
       transform="matrix(1.0416667,0,0,-1.0416667,-1322.3432,1443.5078)" />
    <g
       id="g16740"
       transform="matrix(1.0416667,0,0,-1.0416667,-1322.3432,1443.5078)" />
    <g
       id="g17256"
       transform="matrix(1.0416667,0,0,-1.0416667,-1322.3432,1443.5078)" />
    <path
       style="opacity:0.5;fill:#000000;fill-opacity:1;stroke:none"
       d="m 6,1048.3622 0,0 c 18,-1 18,-1 36,0 z"
       id="path3257"
       inkscape:connector-curvature="0"
       sodipodi:nodetypes="cccc" />
    <path
       sodipodi:nodetypes="cccc"
       inkscape:connector-curvature="0"
       id="path4027"
       d="m 6,1008.3622 0,0 c 18,1 18,1 36,0 z"
       style="opacity:0.9;fill:#ffffff;fill-opacity:1;stroke:none" />
    <path
       inkscape:connector-curvature="0"
       style="fill:url(#linearGradient3036);fill-opacity:1;stroke:none"
       d="m 35.851876,1019.5639 -12.012146,0 -6.668851,11.5488 -2.334393,-4.047 -0.0058,0 -3.003036,0 0,1.5015 2.143768,0 3.202458,5.5457 0.865132,-1.4987 6.671785,-11.5546 9.639629,0 0,1.5015 1.501518,0 0,-3.003 z m -7.507591,4.5105 c -2.495523,0 -4.504555,2.009 -4.504555,4.5045 0,2.4955 2.009032,4.5046 4.504555,4.5046 1.161124,0 2.205926,-0.4478 3.003036,-1.1643 l 0,1.1643 1.501519,0 0,-4.5046 0,-4.5045 -1.501519,0 0,1.1642 c -0.79711,-0.7165 -1.841912,-1.1642 -3.003036,-1.1642 z m 0,1.5015 c 1.663682,0 3.003036,1.3393 3.003036,3.003 0,1.6637 -1.339354,3.0031 -3.003036,3.0031 -1.663682,0 -3.003036,-1.3394 -3.003036,-3.0031 0,-1.6637 1.339354,-3.003 3.003036,-3.003 z m -16.502036,8.9944 c -0.0085,0 -0.01471,0.3348 -0.01471,0.7508 0,0.4158 0.0062,0.7507 0.01471,0.7507 l 23.994963,0 c 0.0085,0 0.01457,-0.3349 0.01457,-0.7507 0,-0.416 -0.0062,-0.7508 -0.01471,-0.7508 l -23.994963,0 z m 10.510628,3.003 c -0.0085,0 -0.01471,0.3348 -0.01471,0.7508 0,0.4159 0.0062,0.7507 0.01471,0.7507 l 2.973707,0 c 0.0085,0 0.01457,-0.3348 0.01457,-0.7507 0,-0.416 -0.006,-0.7508 -0.01471,-0.7508 l -2.973708,0 z"
       id="rect4151" />
  </g>
</svg>
