<?xml version="1.0" encoding="UTF-8" standalone="no"?>
<!-- Created with Inkscape (http://www.inkscape.org/) -->

<svg
   xmlns:dc="http://purl.org/dc/elements/1.1/"
   xmlns:cc="http://creativecommons.org/ns#"
   xmlns:rdf="http://www.w3.org/1999/02/22-rdf-syntax-ns#"
   xmlns:svg="http://www.w3.org/2000/svg"
   xmlns="http://www.w3.org/2000/svg"
   xmlns:xlink="http://www.w3.org/1999/xlink"
   xmlns:sodipodi="http://sodipodi.sourceforge.net/DTD/sodipodi-0.dtd"
   xmlns:inkscape="http://www.inkscape.org/namespaces/inkscape"
   width="48"
   height="48"
   id="svg5453"
   version="1.1"
   inkscape:version="0.48.4 r9939"
   sodipodi:docname="applications-ruby.svg">
  <defs
     id="defs5455">
    <linearGradient
       id="linearGradient4057">
      <stop
         id="stop4059"
         offset="0"
         style="stop-color:#ebf6e5;stop-opacity:1;" />
      <stop
         id="stop4061"
         offset="1"
         style="stop-color:#fffdf5;stop-opacity:1" />
    </linearGradient>
    <linearGradient
       id="linearGradient4671">
      <stop
         style="stop-color:#9b3131;stop-opacity:1;"
         offset="0"
         id="stop4673" />
      <stop
         style="stop-color:#df6666;stop-opacity:1;"
         offset="1"
         id="stop4675" />
    </linearGradient>
    <linearGradient
       inkscape:collect="always"
       xlink:href="#linearGradient4671"
       id="linearGradient2988"
       x1="384.57144"
       y1="-522.79797"
       x2="434.57144"
       y2="-522.79797"
       gradientUnits="userSpaceOnUse"
       gradientTransform="matrix(0.83333285,0,0,0.83333285,68.095439,-87.299917)" />
  </defs>
  <sodipodi:namedview
     id="base"
     pagecolor="#ffffff"
     bordercolor="#666666"
     borderopacity="1.0"
     inkscape:pageopacity="0"
     inkscape:pageshadow="2"
     inkscape:zoom="2.8284271"
     inkscape:cx="-38.7577"
     inkscape:cy="0.19865026"
     inkscape:document-units="px"
     inkscape:current-layer="layer1"
     showgrid="true"
     fit-margin-top="0"
     fit-margin-left="0"
     fit-margin-right="0"
     fit-margin-bottom="0"
     inkscape:window-width="1255"
     inkscape:window-height="830"
     inkscape:window-x="200"
     inkscape:window-y="105"
     inkscape:window-maximized="0">
    <inkscape:grid
       type="xygrid"
       id="grid3000" />
  </sodipodi:namedview>
  <metadata
     id="metadata5458">
    <rdf:RDF>
      <cc:Work
         rdf:about="">
        <dc:format>image/svg+xml</dc:format>
        <dc:type
           rdf:resource="http://purl.org/dc/dcmitype/StillImage" />
        <dc:title />
      </cc:Work>
    </rdf:RDF>
  </metadata>
  <g
     inkscape:label="Capa 1"
     inkscape:groupmode="layer"
     id="layer1"
     transform="translate(-384.57143,-499.798)">
    <rect
       style="fill:url(#linearGradient2988);fill-opacity:1;stroke:none"
       id="rect2991-1-7"
       width="39.999977"
       height="39.999977"
       x="388.57144"
       y="-543.79797"
       ry="0"
       transform="scale(1,-1)" />
    <path
       style="opacity:0.5;fill:#000000;fill-opacity:1;stroke:none"
       d="m 388.57143,543.798 0,0 c 20,-1 20,-1 40,0 z"
       id="path3257"
       inkscape:connector-curvature="0"
       sodipodi:nodetypes="cccc" />
    <path
       sodipodi:nodetypes="cccc"
       inkscape:connector-curvature="0"
       id="path4027"
       d="m 388.57143,503.798 0,0 c 20,1 20,1 40,0 z"
       style="opacity:0.75;fill:#ffffff;fill-opacity:1;stroke:none" />
    <path
       style="fill:#c54c4c;fill-opacity:1;stroke:none"
       d="m 398.83537,513.05398 -7.18287,8.70613 -3e-5,0 2e-5,0 10e-6,0 17.04394,17.21223 17.04392,-17.21223 2e-5,0 -2e-5,0 -7.18286,-8.70613 -19.72213,0 z"
       id="path4073-4"
       inkscape:connector-curvature="0" />
    <path
       inkscape:transform-center-y="2.8687235"
       transform="matrix(2.6891587,0,0,3.3339043,541.70403,455.49241)"
       d="m -49.460674,25.039731 -2.980764,-5.162834 5.961527,0 z"
       inkscape:randomized="0"
       inkscape:rounded="0"
       inkscape:flatsided="true"
       sodipodi:arg2="2.6179939"
       sodipodi:arg1="1.5707963"
       sodipodi:r2="1.7209446"
       sodipodi:r1="3.4418893"
       sodipodi:cy="21.597841"
       sodipodi:cx="-49.460674"
       sodipodi:sides="3"
       id="path4086-2"
       style="fill:#d54747;fill-opacity:1;stroke:none"
       sodipodi:type="star" />
    <path
       style="fill:#e86363;fill-opacity:1;stroke:none"
       d="m 400.68547,521.75327 -0.005,0 0.008,0 -0.003,0 z m -0.005,0 -9.02822,0 17.02954,17.18159 -8.00127,-17.17475 z"
       id="path4091-2"
       inkscape:connector-curvature="0" />
    <path
       id="path4096-1"
       d="m 416.70731,521.75327 0.005,0 -0.008,0 0.003,0 z m 0.005,0 9.02823,0 -17.02958,17.18159 8.0013,-17.17475 z"
       style="fill:#c54c4c;fill-opacity:1;stroke:none"
       inkscape:connector-curvature="0" />
    <path
       style="fill:#e97070;fill-opacity:1;stroke:none"
       d="m 404.05097,513.1056 -3.37029,8.62646 16.03149,0 -3.38541,-8.66508 z"
       id="path4098-2"
       inkscape:connector-curvature="0"
       sodipodi:nodetypes="ccccc" />
    <path
       inkscape:connector-curvature="0"
       style="fill:#dd5b5b;fill-opacity:1;stroke:none"
       d="m 416.70731,521.73996 0.005,0 -0.008,0 z m 0.005,0 9.02823,0 -7.22704,-8.69115 -5.18948,0.0175 3.38824,8.66545 z"
       id="path4102-9"
       sodipodi:nodetypes="cccccccccc" />
    <path
       sodipodi:nodetypes="cccccccccc"
       id="path4107-9"
       d="m 400.68554,521.73996 -0.005,0 0.008,0 z m -0.005,0 -9.02821,0 7.22703,-8.69115 5.18947,0.0175 -3.38824,8.66545 z"
       style="fill:#f79898;fill-opacity:1;stroke:none"
       inkscape:connector-curvature="0" />
  </g>
</svg>
