<?xml version="1.0" encoding="UTF-8" standalone="no"?>
<!-- Created using Karbon, part of Calligra: http://www.calligra.org/karbon -->

<svg
   xmlns:dc="http://purl.org/dc/elements/1.1/"
   xmlns:cc="http://creativecommons.org/ns#"
   xmlns:rdf="http://www.w3.org/1999/02/22-rdf-syntax-ns#"
   xmlns:svg="http://www.w3.org/2000/svg"
   xmlns="http://www.w3.org/2000/svg"
   xmlns:xlink="http://www.w3.org/1999/xlink"
   xmlns:sodipodi="http://sodipodi.sourceforge.net/DTD/sodipodi-0.dtd"
   xmlns:inkscape="http://www.inkscape.org/namespaces/inkscape"
   width="38.4pt"
   height="38.4pt"
   id="svg2"
   version="1.1"
   inkscape:version="0.48.4 r9939"
   sodipodi:docname="xfce-utils.svg">
  <metadata
     id="metadata12">
    <rdf:RDF>
      <cc:Work
         rdf:about="">
        <dc:format>image/svg+xml</dc:format>
        <dc:type
           rdf:resource="http://purl.org/dc/dcmitype/StillImage" />
        <dc:title></dc:title>
      </cc:Work>
    </rdf:RDF>
  </metadata>
  <sodipodi:namedview
     pagecolor="#ffffff"
     bordercolor="#666666"
     borderopacity="1"
     objecttolerance="10"
     gridtolerance="10"
     guidetolerance="10"
     inkscape:pageopacity="0"
     inkscape:pageshadow="2"
     inkscape:window-width="1040"
     inkscape:window-height="751"
     id="namedview10"
     showgrid="false"
     inkscape:zoom="3.4766082"
     inkscape:cx="-28.279751"
     inkscape:cy="38.308155"
     inkscape:window-x="603"
     inkscape:window-y="86"
     inkscape:window-maximized="0"
     inkscape:current-layer="svg2"
     inkscape:showpageshadow="false"
     borderlayer="true">
    <sodipodi:guide
       position="9.5367432e-07,48.000001"
       orientation="47.999999,0"
       id="guide4062" />
    <sodipodi:guide
       position="9.5367432e-07,1.9073486e-06"
       orientation="0,47.999999"
       id="guide4064" />
    <sodipodi:guide
       position="48,1.9073486e-06"
       orientation="-47.999999,0"
       id="guide4066" />
    <sodipodi:guide
       position="48,48.000001"
       orientation="0,-47.999999"
       id="guide4068" />
    <sodipodi:guide
       position="4.000001,44.000001"
       orientation="39.999999,0"
       id="guide4072" />
    <sodipodi:guide
       position="4.000001,4.0000019"
       orientation="0,39.999999"
       id="guide4074" />
    <sodipodi:guide
       position="44,4.0000019"
       orientation="-39.999999,0"
       id="guide4076" />
    <sodipodi:guide
       position="44,44.000001"
       orientation="0,-39.999999"
       id="guide4078" />
    <sodipodi:guide
       position="15.000001,33.000001"
       orientation="17.999999,0"
       id="guide4080" />
    <sodipodi:guide
       position="15.000001,15.000002"
       orientation="0,17.999999"
       id="guide4082" />
    <sodipodi:guide
       position="33,15.000002"
       orientation="-17.999999,0"
       id="guide4084" />
    <sodipodi:guide
       position="33,33.000001"
       orientation="0,-17.999999"
       id="guide4086" />
  </sodipodi:namedview>
  <defs
     id="defs4">
    <linearGradient
       id="linearGradient3766">
      <stop
         style="stop-color:#36415f;stop-opacity:1;"
         offset="0"
         id="stop3768" />
      <stop
         style="stop-color:#37515e;stop-opacity:1;"
         offset="1"
         id="stop3770" />
    </linearGradient>
    <linearGradient
       inkscape:collect="always"
       xlink:href="#linearGradient3766"
       id="linearGradient3772"
       x1="3.9999998"
       y1="23.999954"
       x2="44.000004"
       y2="23.999954"
       gradientUnits="userSpaceOnUse" />
  </defs>
  <rect
     ry="0"
     y="3.9999523"
     x="3.9999998"
     height="40.000004"
     width="40.000004"
     id="rect3282"
     style="fill:url(#linearGradient3772);fill-opacity:1;fill-rule:evenodd;stroke:none" />
  <path
     inkscape:connector-curvature="0"
     id="path4151"
     d="m 17.467947,21.085484 c -0.568843,0 -1.138013,0.05886 -1.697681,0.165623 l -0.897253,2.178086 0,0.03463 c -0.325429,0.128697 -0.644351,0.270075 -0.94705,0.444355 -0.300944,0.173701 -0.582775,0.377412 -0.853913,0.593991 l -0.02857,-0.01731 -2.337655,-0.311624 c -0.7448998,0.861411 -1.3297659,1.858094 -1.7050578,2.93268 l 1.4459338,1.877658 0.02395,0.01731 c -0.100085,0.689555 -0.09684,1.392791 0.0057,2.082578 l -0.02949,0.01731 -1.4468603,1.880081 c 0.1840319,0.537265 0.4166254,1.057737 0.7008351,1.550392 0.2842021,0.492253 0.6188902,0.954265 0.9922362,1.382347 l 2.350563,-0.313934 0.0295,-0.01731 c 0.54606,0.43339 1.152901,0.786796 1.800041,1.044926 l 0,0.02886 0.902787,2.190321 c 1.118028,0.21179 2.273431,0.203134 3.391673,-0.01731 l 0.899096,-2.180048 0,-0.02886 c 0.323363,-0.125229 0.640552,-0.268922 0.941517,-0.442624 0.302704,-0.174856 0.586823,-0.379145 0.859445,-0.597685 l 0.02863,0.01731 2.33489,0.311623 c 0.745357,-0.86222 1.329483,-1.859881 1.705058,-2.935392 l -1.444089,-1.874021 -0.02394,-0.01731 c 0.100247,-0.688923 0.09731,-1.392157 -0.0047,-2.081426 l 0.02954,-0.01731 1.445013,-1.878407 c -0.183894,-0.537265 -0.414749,-1.058832 -0.698992,-1.551084 -0.284237,-0.49283 -0.620535,-0.953573 -0.99408,-1.381596 l -2.348718,0.312779 -0.02954,0.01731 C 21.320833,24.06959 20.713485,23.715088 20.066627,23.457535 l -9.45e-4,-0.02886 -0.900944,-2.187492 c -0.559604,-0.105608 -1.127916,-0.158127 -1.696757,-0.156384 z m -9.46e-4,3.759815 c 1.359764,0 2.711837,0.560347 3.673853,1.521596 0.962013,0.961537 1.522471,2.312547 1.522471,3.672271 0,1.360014 -0.560458,2.711774 -1.522471,3.673369 -0.962016,0.961478 -2.314089,1.520557 -3.673853,1.520557 -1.359764,0 -2.710298,-0.560348 -3.671086,-1.521366 -0.960788,-0.961594 -1.519708,-2.312892 -1.519708,-3.67256 0,-1.35955 0.558918,-2.710734 1.519708,-3.672271 0.960788,-0.961306 2.311322,-1.521422 3.671086,-1.521596 z"
     style="fill:#ecf0f1;fill-opacity:1;fill-rule:evenodd;stroke:none" />
  <path
     style="fill:#ecf0f1;fill-opacity:1;fill-rule:evenodd;stroke:none"
     d="m 31.929627,5.9491914 c -0.668615,0 -1.337617,0.067959 -1.995448,0.1939332 l -1.05463,2.5600831 0,0.041435 c -0.3825,0.1491792 -0.757366,0.317006 -1.113159,0.5224999 -0.353734,0.2042939 -0.68499,0.4431042 -1.003686,0.6979108 l -0.03361,-0.020723 -2.747671,-0.3663188 c -0.875553,1.0122237 -1.563003,2.1838617 -2.00412,3.4467477 l 1.699546,2.206777 0.02817,0.01657 c -0.117649,0.810416 -0.113827,1.636995 0.0065,2.447618 l -0.03469,0.02072 -1.70063,2.20889 c 0.216309,0.63165 0.489706,1.243368 0.823759,1.822101 0.334054,0.578525 0.727439,1.121704 1.16627,1.624771 l 2.762846,-0.368805 0.03469,-0.02072 c 0.641837,0.509488 1.355114,0.924663 2.115761,1.227994 l 0,0.03316 1.061132,2.574379 c 1.314127,0.249461 2.672183,0.239101 3.986562,-0.01243 l 1.056795,-2.562279 0,-0.0373 c 0.380076,-0.148352 0.7529,-0.316178 1.106655,-0.520181 0.355797,-0.205536 0.689752,-0.445756 1.010189,-0.702468 l 0.03361,0.02072 2.744419,0.366319 c 0.876092,-1.013384 1.562673,-2.18585 2.00412,-3.450021 l -1.697379,-2.202467 -0.02819,-0.01657 c 0.117852,-0.809836 0.114377,-1.636414 -0.0054,-2.446333 l 0.0348,-0.02072 1.698464,-2.207854 C 41.669248,12.39494 41.397895,11.782227 41.063799,11.203618 40.729721,10.624762 40.334424,10.08295 39.895361,9.5798848 l -2.760675,0.3675609 -0.03469,0.020723 C 36.458424,9.4593429 35.744553,9.0429253 34.984237,8.7401332 l -0.0011,-0.033155 -1.058964,-2.570981 C 33.266405,6.0112665 32.598414,5.9503517 31.9298,5.952838 z m -0.0011,4.4189406 c 1.598263,0 3.187484,0.658502 4.318233,1.788618 1.130748,1.129867 1.789508,2.717716 1.789508,4.315882 0,1.598333 -0.65876,3.187216 -1.789508,4.317209 -1.130749,1.130075 -2.71997,1.787375 -4.318233,1.787251 -1.598262,0 -3.185674,-0.658254 -4.314981,-1.788287 -1.129307,-1.129993 -1.786258,-2.71809 -1.786258,-4.316173 0,-1.597918 0.656951,-3.186015 1.786258,-4.315882 1.129307,-1.130116 2.716719,-1.788494 4.314981,-1.788618 z"
     id="path4112"
     inkscape:connector-curvature="0" />
  <path
     style="opacity:0.35;fill:#000000;fill-opacity:1;stroke:none"
     d="M 4.0000043,43.999698 44,43.999998 c -19.999997,-1 -19.999997,-1 -39.9999971,0 z"
     id="path3800"
     inkscape:connector-curvature="0"
     sodipodi:nodetypes="cccc" />
  <path
     sodipodi:nodetypes="cccc"
     inkscape:connector-curvature="0"
     id="path3804"
     d="M 4.0000078,3.9998979 44,3.9996979 c -19.999993,1 -19.999993,1 -39.9999936,0 z"
     style="opacity:0.75;fill:#ffffff;fill-opacity:1;stroke:none" />
</svg>
