<?xml version="1.0" encoding="UTF-8" standalone="no"?>
<!-- Created with Inkscape (http://www.inkscape.org/) -->

<svg
   xmlns:dc="http://purl.org/dc/elements/1.1/"
   xmlns:cc="http://creativecommons.org/ns#"
   xmlns:rdf="http://www.w3.org/1999/02/22-rdf-syntax-ns#"
   xmlns:svg="http://www.w3.org/2000/svg"
   xmlns="http://www.w3.org/2000/svg"
   xmlns:xlink="http://www.w3.org/1999/xlink"
   xmlns:sodipodi="http://sodipodi.sourceforge.net/DTD/sodipodi-0.dtd"
   xmlns:inkscape="http://www.inkscape.org/namespaces/inkscape"
   width="48"
   height="48"
   id="svg2"
   version="1.1"
   inkscape:version="0.48.4 r9939"
   viewBox="0 0 13.546667 13.546667"
   sodipodi:docname="applications-system.svg">
  <defs
     id="defs4">
    <linearGradient
       id="linearGradient3774">
      <stop
         style="stop-color:#34495e;stop-opacity:1;"
         offset="0"
         id="stop3776" />
      <stop
         style="stop-color:#76899c;stop-opacity:1;"
         offset="1"
         id="stop3778" />
    </linearGradient>
    <linearGradient
       inkscape:collect="always"
       xlink:href="#linearGradient3774"
       id="linearGradient3780"
       x1="1.1288881"
       y1="290.22666"
       x2="12.417778"
       y2="290.22666"
       gradientUnits="userSpaceOnUse" />
  </defs>
  <sodipodi:namedview
     id="base"
     pagecolor="#ffffff"
     bordercolor="#666666"
     borderopacity="1.0"
     inkscape:pageopacity="0.0"
     inkscape:pageshadow="2"
     inkscape:zoom="11.540684"
     inkscape:cx="20.175495"
     inkscape:cy="19.094289"
     inkscape:document-units="px"
     inkscape:current-layer="layer1"
     showgrid="true"
     units="px"
     inkscape:showpageshadow="false"
     borderlayer="true"
     inkscape:snap-nodes="true"
     inkscape:window-width="1127"
     inkscape:window-height="846"
     inkscape:window-x="637"
     inkscape:window-y="128"
     inkscape:window-maximized="0">
    <sodipodi:guide
       position="15,40"
       orientation="0,-30.000001"
       id="guide3284" />
    <sodipodi:guide
       position="9.0000064,38.999975"
       orientation="30.000028,0"
       id="guide3286" />
    <sodipodi:guide
       position="9.0000064,8.9999467"
       orientation="0,30.000001"
       id="guide3288" />
    <sodipodi:guide
       position="39.000007,8.9999467"
       orientation="-30.000028,0"
       id="guide3290" />
    <inkscape:grid
       type="xygrid"
       id="grid3794" />
  </sodipodi:namedview>
  <metadata
     id="metadata7">
    <rdf:RDF>
      <cc:Work
         rdf:about="">
        <dc:format>image/svg+xml</dc:format>
        <dc:type
           rdf:resource="http://purl.org/dc/dcmitype/StillImage" />
        <dc:title />
      </cc:Work>
    </rdf:RDF>
  </metadata>
  <g
     inkscape:label="Capa 1"
     inkscape:groupmode="layer"
     id="layer1"
     transform="translate(0,-283.45334)">
    <rect
       style="fill:none;fill-opacity:1;fill-rule:evenodd;stroke:none"
       id="rect3262"
       width="1.128889"
       height="1.128889"
       x="0"
       y="289.66223"
       ry="0.56444448" />
    <rect
       ry="0.56444448"
       y="289.66223"
       x="12.417778"
       height="1.128889"
       width="1.128889"
       id="rect3274"
       style="fill:none;fill-opacity:1;fill-rule:evenodd;stroke:none" />
    <rect
       ry="0.56444448"
       y="-7.3377781"
       x="283.45334"
       height="1.128889"
       width="1.128889"
       id="rect3276"
       style="fill:none;fill-opacity:1;fill-rule:evenodd;stroke:none"
       transform="matrix(0,1,-1,0,0,0)" />
    <rect
       style="fill:none;fill-opacity:1;fill-rule:evenodd;stroke:none"
       id="rect3278"
       width="1.128889"
       height="1.128889"
       x="295.87112"
       y="-7.3377781"
       ry="0.56444448"
       transform="matrix(0,1,-1,0,0,0)" />
    <rect
       style="fill:url(#linearGradient3780);fill-opacity:1;fill-rule:evenodd;stroke:none"
       id="rect3361"
       width="11.28889"
       height="11.28889"
       x="1.1288881"
       y="284.58221"
       ry="0" />
    <rect
       ry="0"
       y="-11.006669"
       x="-294.46002"
       height="8.4666672"
       width="8.4666672"
       id="rect3367"
       style="fill:none;fill-opacity:1;fill-rule:evenodd;stroke:none"
       transform="matrix(0,-1,-1,0,0,0)" />
    <rect
       style="fill:none;fill-opacity:1;fill-rule:evenodd;stroke:none"
       id="rect3365"
       width="1.9755557"
       height="1.9755557"
       x="2.5400019"
       y="285.99335"
       ry="0" />
    <rect
       ry="0"
       y="285.99335"
       x="5.0800023"
       height="1.9755554"
       width="5.9266648"
       id="rect3369"
       style="fill:none;fill-opacity:1;fill-rule:evenodd;stroke:none" />
    <rect
       transform="matrix(0,1,-1,0,0,0)"
       style="fill:none;fill-opacity:1;fill-rule:evenodd;stroke:none"
       id="rect3373"
       width="0.56444448"
       height="0.56444448"
       x="287.14893"
       y="-5.0800023"
       ry="0.28222224" />
    <rect
       ry="0.42333326"
       y="-3.3866684"
       x="285.99335"
       height="0.84666651"
       width="0.84666651"
       id="rect3377"
       style="fill:none;fill-opacity:1;fill-rule:evenodd;stroke:none"
       transform="matrix(0,1,-1,0,0,0)" />
    <rect
       transform="matrix(0,1,-1,0,0,0)"
       style="fill:none;fill-opacity:1;fill-rule:evenodd;stroke:none"
       id="rect3379"
       width="0.84666651"
       height="0.84666651"
       x="286.86664"
       y="-11.006667"
       ry="0.42333326" />
    <rect
       ry="0"
       y="292.48447"
       x="2.5400019"
       height="1.9755557"
       width="1.9755557"
       id="rect3401"
       style="fill:none;fill-opacity:1;fill-rule:evenodd;stroke:none" />
    <rect
       style="fill:none;fill-opacity:1;fill-rule:evenodd;stroke:none"
       id="rect3403"
       width="5.9266648"
       height="1.9755554"
       x="5.0800023"
       y="292.48447"
       ry="0" />
    <rect
       transform="matrix(0,1,-1,0,0,0)"
       style="fill:none;fill-opacity:1;fill-rule:evenodd;stroke:none"
       id="rect3399"
       width="0.84666651"
       height="0.84666651"
       x="293.61334"
       y="-3.3866684"
       ry="0.42333326" />
    <path
       style="fill:#2f3e52;fill-opacity:1;stroke:none"
       d="m 1.1288889,295.87105 11.2888871,7e-5 c -5.6444425,-0.28222 -5.6444425,-0.28222 -11.2888871,0 z"
       id="path3800"
       inkscape:connector-curvature="0"
       sodipodi:nodetypes="cccc" />
    <path
       sodipodi:nodetypes="cccc"
       inkscape:connector-curvature="0"
       id="path3804"
       d="m 1.1288899,284.58223 11.2888871,-7e-5 c -5.6444427,0.28222 -5.6444427,0.28222 -11.2888871,0 z"
       style="opacity:0.75;fill:#ffffff;fill-opacity:1;stroke:none" />
    <path
       style="fill:#ffffff;fill-opacity:1;fill-rule:evenodd;stroke:none"
       d="m 6.8448574,286.1633 c -0.2591129,0 -0.5183759,0.0263 -0.7733097,0.0752 l -0.4087077,0.99212 0,0.0161 c -0.1482328,0.0578 -0.2935076,0.12285 -0.4313902,0.20249 -0.1370846,0.0792 -0.2654588,0.17172 -0.3889653,0.27047 l -0.013024,-0.008 -1.0648236,-0.14197 c -0.3393091,0.39228 -0.6057213,0.84633 -0.7766704,1.33575 l 0.6586366,0.8552 0.01092,0.006 c -0.045593,0.31406 -0.044112,0.63439 0.00254,0.94854 l -0.013441,0.008 -0.6590578,0.85602 c 0.083828,0.24479 0.1897792,0.48186 0.3192368,0.70614 0.1294582,0.2242 0.2819096,0.4347 0.4519727,0.62965 l 1.0707047,-0.14292 0.013441,-0.008 c 0.2487354,0.19745 0.5251565,0.35834 0.8199353,0.47589 l 0,0.0128 0.4112276,0.99767 c 0.5092725,0.0967 1.0355696,0.0927 1.5449395,-0.005 l 0.4095471,-0.99298 0,-0.0145 c 0.1472934,-0.0575 0.2917767,-0.12253 0.4288697,-0.20159 0.1378844,-0.0797 0.2673041,-0.17275 0.3914854,-0.27223 l 0.013024,0.008 1.063563,0.14196 c 0.3395179,-0.39273 0.6055939,-0.8471 0.7766699,-1.33701 l -0.657796,-0.85354 -0.01092,-0.006 c 0.04567,-0.31384 0.04432,-0.63417 -0.0021,-0.94805 l 0.01349,-0.008 0.658218,-0.85562 c -0.08376,-0.24481 -0.18892,-0.48225 -0.318394,-0.70649 -0.129468,-0.22432 -0.28266,-0.4343 -0.4528129,-0.62925 l -1.0698633,0.14244 -0.013441,0.008 c -0.2486337,-0.19719 -0.525285,-0.35857 -0.8199355,-0.47591 l -4.31e-4,-0.0129 -0.4103874,-0.99635 c -0.2549049,-0.0483 -0.5137758,-0.0719 -0.7728883,-0.071 z m -4.313e-4,1.7125 c 0.6193857,0 1.2352674,0.2552 1.6734743,0.69316 0.4382066,0.43786 0.6935007,1.05321 0.6935007,1.67256 0,0.61941 -0.2552941,1.23516 -0.6935007,1.67308 -0.4382069,0.43794 -1.0540886,0.69267 -1.6734743,0.69262 -0.6193854,0 -1.2345658,-0.25509 -1.672214,-0.69302 -0.4376482,-0.43792 -0.6922407,-1.05336 -0.6922407,-1.67268 0,-0.61925 0.2545925,-1.2347 0.6922407,-1.67256 0.4376482,-0.43796 1.0528286,-0.69311 1.672214,-0.69316 z"
       id="path4112"
       inkscape:connector-curvature="0" />
  </g>
</svg>
