<?xml version="1.0" encoding="UTF-8" standalone="no"?>
<!-- Created with Inkscape (http://www.inkscape.org/) -->

<svg
   xmlns:dc="http://purl.org/dc/elements/1.1/"
   xmlns:cc="http://creativecommons.org/ns#"
   xmlns:rdf="http://www.w3.org/1999/02/22-rdf-syntax-ns#"
   xmlns:svg="http://www.w3.org/2000/svg"
   xmlns="http://www.w3.org/2000/svg"
   xmlns:xlink="http://www.w3.org/1999/xlink"
   xmlns:sodipodi="http://sodipodi.sourceforge.net/DTD/sodipodi-0.dtd"
   xmlns:inkscape="http://www.inkscape.org/namespaces/inkscape"
   width="48"
   height="48"
   id="svg5453"
   version="1.1"
   inkscape:version="0.48.4 r9939"
   sodipodi:docname="gba.svg"
   viewBox="0 0 48 48">
  <defs
     id="defs5455">
    <linearGradient
       inkscape:collect="always"
       xlink:href="#linearGradient4159"
       id="linearGradient4417"
       x1="6.0000119"
       y1="24"
       x2="6.0000119"
       y2="7.9999738"
       gradientUnits="userSpaceOnUse"
       gradientTransform="matrix(1.580485,0,0,1.580485,383.63979,498.41263)" />
    <linearGradient
       inkscape:collect="always"
       xlink:href="#linearGradient4219"
       id="linearGradient4449"
       x1="393.57144"
       y1="532.79797"
       x2="393.57144"
       y2="526.79797"
       gradientUnits="userSpaceOnUse"
       gradientTransform="matrix(1.580485,0,0,1.580485,-224.16959,-316.79838)" />
    <linearGradient
       inkscape:collect="always"
       xlink:href="#linearGradient4159"
       id="linearGradient4467"
       x1="400.57144"
       y1="533.79797"
       x2="400.57144"
       y2="523.79797"
       gradientUnits="userSpaceOnUse"
       gradientTransform="matrix(1.580485,0,0,1.580485,-224.16959,-316.79838)" />
    <linearGradient
       inkscape:collect="always"
       xlink:href="#linearGradient4159"
       id="linearGradient4499"
       x1="399.57141"
       y1="536.79797"
       x2="399.57141"
       y2="532.79797"
       gradientUnits="userSpaceOnUse"
       gradientTransform="matrix(1.580485,0,0,1.580485,-222.58906,-316.79838)" />
    <linearGradient
       inkscape:collect="always"
       xlink:href="#linearGradient4219"
       id="linearGradient4529"
       x1="16.000011"
       y1="20"
       x2="16.000011"
       y2="18"
       gradientUnits="userSpaceOnUse"
       gradientTransform="matrix(1.580485,0,0,1.580485,383.63979,498.41263)" />
    <linearGradient
       id="linearGradient4219"
       inkscape:collect="always">
      <stop
         id="stop4221"
         offset="0"
         style="stop-color:#999a9c;stop-opacity:1" />
      <stop
         id="stop4223"
         offset="1"
         style="stop-color:#f4f5f5;stop-opacity:1" />
    </linearGradient>
    <linearGradient
       id="linearGradient4159"
       inkscape:collect="always">
      <stop
         id="stop4161"
         offset="0"
         style="stop-color:#2a2c2f;stop-opacity:1" />
      <stop
         id="stop4163"
         offset="1"
         style="stop-color:#424649;stop-opacity:1" />
    </linearGradient>
    <linearGradient
       inkscape:collect="always"
       xlink:href="#linearGradient4159"
       id="linearGradient4620"
       x1="16.000011"
       y1="8"
       x2="16.000011"
       y2="24"
       gradientUnits="userSpaceOnUse"
       gradientTransform="matrix(1.580485,0,0,-1.580485,383.63979,536.34427)" />
    <linearGradient
       id="linearGradient4347"
       inkscape:collect="always">
      <stop
         id="stop4349"
         offset="0"
         style="stop-color:#f33777;stop-opacity:1" />
      <stop
         id="stop4351"
         offset="1"
         style="stop-color:#fd2d65;stop-opacity:1" />
    </linearGradient>
    <linearGradient
       id="linearGradient4280"
       inkscape:collect="always">
      <stop
         id="stop4282"
         offset="0"
         style="stop-color:#c0392b;stop-opacity:1" />
      <stop
         id="stop4284"
         offset="1"
         style="stop-color:#e74c3c;stop-opacity:1" />
    </linearGradient>
    <linearGradient
       id="linearGradient4264"
       inkscape:collect="always">
      <stop
         id="stop4266"
         offset="0"
         style="stop-color:#2980b9;stop-opacity:1" />
      <stop
         id="stop4268"
         offset="1"
         style="stop-color:#3498db;stop-opacity:1" />
    </linearGradient>
    <linearGradient
       id="linearGradient4255"
       inkscape:collect="always">
      <stop
         id="stop4257"
         offset="0"
         style="stop-color:#27ae60;stop-opacity:1" />
      <stop
         id="stop4259"
         offset="1"
         style="stop-color:#2ecc71;stop-opacity:1" />
    </linearGradient>
    <linearGradient
       inkscape:collect="always"
       xlink:href="#linearGradient4264"
       id="linearGradient4725"
       x1="407.57144"
       y1="532.79797"
       x2="407.57144"
       y2="530.79797"
       gradientUnits="userSpaceOnUse"
       gradientTransform="matrix(1.580485,0,0,1.580485,-224.16959,-316.79838)" />
    <linearGradient
       inkscape:collect="always"
       xlink:href="#linearGradient4255"
       id="linearGradient4733"
       x1="407.57147"
       y1="528.79797"
       x2="407.57147"
       y2="526.79797"
       gradientUnits="userSpaceOnUse"
       gradientTransform="matrix(1.580485,0,0,1.580485,-224.16959,-316.79838)" />
    <linearGradient
       inkscape:collect="always"
       xlink:href="#linearGradient4280"
       id="linearGradient4741"
       x1="409.57144"
       y1="530.79797"
       x2="409.57144"
       y2="528.79797"
       gradientUnits="userSpaceOnUse"
       gradientTransform="matrix(1.580485,0,0,1.580485,-224.16959,-316.79838)" />
    <linearGradient
       inkscape:collect="always"
       xlink:href="#linearGradient4347"
       id="linearGradient4749"
       x1="405.57144"
       y1="530.79797"
       x2="405.57144"
       y2="528.79797"
       gradientUnits="userSpaceOnUse"
       gradientTransform="matrix(1.580485,0,0,1.580485,-224.16959,-316.79838)" />
  </defs>
  <sodipodi:namedview
     id="base"
     pagecolor="#ffffff"
     bordercolor="#666666"
     borderopacity="1.0"
     inkscape:pageopacity="0"
     inkscape:pageshadow="2"
     inkscape:zoom="5.6568543"
     inkscape:cx="-64.820585"
     inkscape:cy="6.4159046"
     inkscape:document-units="px"
     inkscape:current-layer="layer1"
     showgrid="true"
     fit-margin-top="0"
     fit-margin-left="0"
     fit-margin-right="0"
     fit-margin-bottom="0"
     inkscape:window-width="1871"
     inkscape:window-height="1056"
     inkscape:window-x="49"
     inkscape:window-y="24"
     inkscape:window-maximized="1"
     inkscape:showpageshadow="false"
     borderlayer="true"
     showguides="true"
     inkscape:snap-bbox="true"
     inkscape:bbox-nodes="true"
     inkscape:snap-global="true"
     inkscape:object-nodes="true"
     inkscape:snap-nodes="true">
    <inkscape:grid
       type="xygrid"
       id="grid4063"
       empspacing="5"
       visible="true"
       enabled="true"
       snapvisiblegridlinesonly="true" />
    <sodipodi:guide
       position="4.2167969e-05,32.000026"
       orientation="32,0"
       id="guide4625" />
    <sodipodi:guide
       position="4.2167969e-05,2.6367188e-05"
       orientation="0,31.999969"
       id="guide4627" />
    <sodipodi:guide
       position="32,18"
       orientation="-32,0"
       id="guide4629" />
    <sodipodi:guide
       position="32.000012,32.000026"
       orientation="0,-31.999969"
       id="guide4631" />
    <sodipodi:guide
       position="2,26"
       orientation="28,0"
       id="guide4633" />
    <sodipodi:guide
       position="2.0000422,2.0000264"
       orientation="0,27.999969"
       id="guide4635" />
    <sodipodi:guide
       position="30,17"
       orientation="-28,0"
       id="guide4637" />
    <sodipodi:guide
       position="30.000012,30.000026"
       orientation="0,-27.999969"
       id="guide4639" />
    <sodipodi:guide
       position="9,17"
       orientation="14,0"
       id="guide4429" />
    <sodipodi:guide
       position="23.000042,10.000271"
       orientation="-14,0"
       id="guide4433" />
    <sodipodi:guide
       position="16.000012,-3.4667969e-05"
       orientation="-16,0"
       id="guide4188" />
    <sodipodi:guide
       position="13,15.999965"
       orientation="0,-16"
       id="guide4190" />
    <sodipodi:guide
       position="4e-05,6"
       orientation="0,31.99997"
       id="guide4204" />
    <sodipodi:guide
       position="32.00001,26"
       orientation="0,-33.00001"
       id="guide4208" />
    <sodipodi:guide
       position="2.0000117,24.000026"
       orientation="16,0"
       id="guide4212" />
    <sodipodi:guide
       position="2.0000117,8.0000264"
       orientation="0,28"
       id="guide4214" />
    <sodipodi:guide
       position="30.000012,8.0000264"
       orientation="-16,0"
       id="guide4216" />
    <sodipodi:guide
       position="30.000012,24.000026"
       orientation="0,-28"
       id="guide4218" />
    <sodipodi:guide
       position="6.0000117,15.000026"
       orientation="-6,0"
       id="guide4250" />
    <sodipodi:guide
       position="6.0000117,21.000026"
       orientation="0,6"
       id="guide4252" />
    <sodipodi:guide
       position="12.000012,21.000026"
       orientation="6,0"
       id="guide4254" />
    <sodipodi:guide
       position="12.000012,15.000026"
       orientation="0,-6"
       id="guide4256" />
    <sodipodi:guide
       position="20.000012,15.000026"
       orientation="-6,0"
       id="guide4260" />
    <sodipodi:guide
       position="20.000012,21.000026"
       orientation="0,6"
       id="guide4262" />
    <sodipodi:guide
       position="26.000012,21.000026"
       orientation="6,0"
       id="guide4264" />
    <sodipodi:guide
       position="26.000012,15.000026"
       orientation="0,-6"
       id="guide4266" />
  </sodipodi:namedview>
  <metadata
     id="metadata5458">
    <rdf:RDF>
      <cc:Work
         rdf:about="">
        <dc:format>image/svg+xml</dc:format>
        <dc:type
           rdf:resource="http://purl.org/dc/dcmitype/StillImage" />
        <dc:title></dc:title>
      </cc:Work>
    </rdf:RDF>
  </metadata>
  <g
     inkscape:label="Capa 1"
     inkscape:groupmode="layer"
     id="layer1"
     transform="translate(-384.57143,-499.798)">
    <path
       style="fill:url(#linearGradient4417);fill-opacity:1;stroke:none"
       d="m 389.96173,520.53942 -1.48788,11.89377 c -0.0607,0.24543 -0.0918,0.49726 -0.0926,0.75011 0,1.74576 1.41521,3.16097 3.16097,3.16097 0.93927,-8.7e-4 1.82949,-0.4194 2.42938,-1.14215 l 0.003,0.006 8.63093,-9.92741 z m 37.93164,0 -12.64388,4.74146 8.63094,9.92742 0.003,-0.006 c 0.59981,0.72274 1.49003,1.14127 2.4293,1.14214 1.74575,0 3.16097,-1.41521 3.16097,-3.16097 -7.6e-4,-0.25284 -0.0319,-0.50468 -0.0926,-0.75011 z"
       id="path4220"
       inkscape:connector-curvature="0"
       sodipodi:nodetypes="cccccccccccccccc" />
    <path
       style="fill:url(#linearGradient4467);fill-opacity:1;stroke:none"
       d="m 399.44464,511.05651 c -5.23727,0 -9.48291,4.24564 -9.48291,9.48291 0,5.23727 4.24564,9.48291 9.48291,9.48291 1.8614,-0.002 3.68109,-0.55156 5.23228,-1.58048 l 8.50127,0 c 1.55118,1.02892 3.37087,1.5786 5.23227,1.58048 5.23727,0 9.48291,-4.24564 9.48291,-9.48291 0,-5.23727 -4.24564,-9.48291 -9.48291,-9.48291 l -7.90242,0 -3.16097,0 z"
       id="rect4234"
       inkscape:connector-curvature="0"
       sodipodi:nodetypes="ssccccssccs" />
    <ellipse
       r="6"
       cy="529.79797"
       cx="393.57144"
       id="ellipse4246"
       style="fill:#e3dbdb;fill-opacity:1;stroke:none"
       rx="0"
       ry="0"
       sodipodi:cx="393.57144"
       sodipodi:cy="529.79797"
       sodipodi:rx="0"
       sodipodi:ry="0" />
    <path
       style="fill:url(#linearGradient4733);fill-opacity:1;stroke:none"
       d="m 419.99095,515.79797 a 1.580485,1.580485 0 0 0 -1.58049,1.58048 1.580485,1.580485 0 0 0 1.58049,1.58049 1.580485,1.580485 0 0 0 1.58048,-1.58049 1.580485,1.580485 0 0 0 -1.58048,-1.58048 z"
       id="path4717"
       inkscape:connector-curvature="0" />
    <path
       style="fill:url(#linearGradient4749);fill-opacity:1;stroke:none"
       d="m 416.82998,518.95894 a 1.580485,1.580485 0 0 0 -1.58049,1.58048 1.580485,1.580485 0 0 0 1.58049,1.58049 1.580485,1.580485 0 0 0 1.58048,-1.58049 1.580485,1.580485 0 0 0 -1.58048,-1.58048 z"
       id="path4715"
       inkscape:connector-curvature="0" />
    <path
       style="fill:url(#linearGradient4741);fill-opacity:1;stroke:none"
       d="m 423.15192,518.95894 a 1.580485,1.580485 0 0 0 -1.58049,1.58048 1.580485,1.580485 0 0 0 1.58049,1.58049 1.580485,1.580485 0 0 0 1.58048,-1.58049 1.580485,1.580485 0 0 0 -1.58048,-1.58048 z"
       id="path4713"
       inkscape:connector-curvature="0" />
    <path
       style="fill:url(#linearGradient4725);fill-opacity:1;stroke:none"
       d="m 419.99095,522.11991 a 1.580485,1.580485 0 0 0 -1.58049,1.58048 1.580485,1.580485 0 0 0 1.58049,1.58049 1.580485,1.580485 0 0 0 1.58048,-1.58049 1.580485,1.580485 0 0 0 -1.58048,-1.58048 z"
       id="path4268"
       inkscape:connector-curvature="0" />
    <path
       style="fill:url(#linearGradient4449);fill-opacity:1;stroke:none"
       d="m 396.28367,515.79797 0,3.16097 -3.16097,0 0,3.16097 3.16097,0 0,3.16097 3.16097,0 0,-3.16097 3.16097,0 0,-3.16097 -3.16097,0 0,-3.16097 -3.16097,0 z"
       id="rect4297"
       inkscape:connector-curvature="0" />
    <path
       style="fill:url(#linearGradient4499);fill-opacity:1;stroke:none"
       d="m 404.1861,525.28088 a 3.16097,3.16097 0 0 0 -3.16097,3.16097 3.16097,3.16097 0 0 0 3.16097,3.16097 3.16097,3.16097 0 0 0 3.16097,-3.16097 3.16097,3.16097 0 0 0 -3.16097,-3.16097 z m 9.48291,0 a 3.16097,3.16097 0 0 0 -3.16097,3.16097 3.16097,3.16097 0 0 0 3.16097,3.16097 3.16097,3.16097 0 0 0 3.16097,-3.16097 3.16097,3.16097 0 0 0 -3.16097,-3.16097 z"
       id="circle4489"
       inkscape:connector-curvature="0" />
    <path
       style="fill:url(#linearGradient4529);fill-opacity:1;stroke:none"
       d="m 404.1861,526.86136 a 1.5804755,1.5804755 0 0 0 -1.58049,1.58049 1.5804755,1.5804755 0 0 0 1.58049,1.58048 1.5804755,1.5804755 0 0 0 1.58048,-1.58048 1.5804755,1.5804755 0 0 0 -1.58048,-1.58049 z m 9.48291,0 a 1.5804945,1.5804945 0 0 0 -1.58049,1.58049 1.5804945,1.5804945 0 0 0 1.58049,1.58048 1.5804945,1.5804945 0 0 0 1.58048,-1.58048 1.5804945,1.5804945 0 0 0 -1.58048,-1.58049 z"
       id="path4518"
       inkscape:connector-curvature="0" />
    <path
       style="fill:url(#linearGradient4620);fill-opacity:1;stroke:none"
       d="m 408.13731,522.11991 c -0.43644,0 -0.79024,-0.35381 -0.79024,-0.79025 0,-0.43643 0.3538,-0.79024 0.79024,-0.79024 0.43643,0 0.79024,0.35381 0.79024,0.79024 0,0.43644 -0.35381,0.79025 -0.79024,0.79025 z m 2.37073,-1.58049 -1.11745,-1.11745 2.04352,-2.04352 -2.04352,-2.04352 1.11745,-1.11745 2.04352,2.04352 1.11745,1.11745 -1.11745,1.11745 z m -3.95122,-1.58048 c -0.43643,0 -0.79022,-0.35381 -0.79024,-0.79025 2e-5,-0.43643 0.35381,-0.79024 0.79024,-0.79024 0.43644,0 0.79023,0.35381 0.79025,0.79024 -2e-5,0.43644 -0.35381,0.79025 -0.79025,0.79025 z m 1.58049,-3.16097 c -0.43644,0 -0.79024,-0.35381 -0.79024,-0.79025 0,-0.43643 0.3538,-0.79024 0.79024,-0.79024 0.43643,0 0.79024,0.35381 0.79024,0.79024 0,0.43644 -0.35381,0.79025 -0.79024,0.79025 z"
       id="path4601"
       inkscape:connector-curvature="0"
       sodipodi:nodetypes="ssssscccccccccscscssssss" />
  </g>
</svg>
