<?xml version="1.0" encoding="UTF-8" standalone="no"?>
<svg xmlns="http://www.w3.org/2000/svg" version="1.1" width="70" height="70" viewBox="2 2 70 70">
  <defs>
    <mask id="g-cutout" maskUnits="userSpaceOnUse" x="-10" y="70" width="100" height="100">
      <rect x="-10" y="70" width="100" height="100" fill="#ffffff"/>
      <g transform="matrix(0.36986667,0,0,0.36986667,111.31264,-105.97332)">
        <path d="m -147.79092,552.33472 q 0,3.54913 -4.52339,8.55966 -4.5234,5.01053 -11.20411,9.53393 -6.61112,4.5234 -13.15265,7.16784 1.46141,-0.48713 2.9924,-0.48713 5.14972,0 6.81989,1.87895 0.41755,0.41754 0.41755,0.97427 0,0.55672 -1.87895,2.71404 -19.555,22.61699 -35.90882,44.88602 6.68071,-5.21931 11.83042,-9.95147 2.85322,-2.57486 6.95908,-2.57486 2.9924,0 3.68831,0.7655 0.6959,0.76549 0.6959,1.32222 0,0.48714 -0.90468,1.18304 -11.62165,10.16025 -37.92695,29.64565 -4.52339,5.08013 -22.82576,24.21758 -3.27076,3.34035 -7.23743,3.34035 -7.72457,0 -7.72457,-4.31462 0,-1.87895 2.9924,-5.9848 4.31462,-6.33276 21.08599,-19.13746 3.68831,-4.10585 12.7351,-13.91814 17.11932,-18.65032 20.66845,-23.93921 -9.46434,8.9772 -14.33569,12.66551 -4.87135,3.68831 -9.04679,6.40235 -4.10586,2.71404 -7.58539,4.38421 -16.84096,8.07253 -24.00881,0.0696 -3.61871,-3.96667 -3.61871,-11.62165 0,-7.72457 4.24503,-16.98014 4.24503,-9.25556 11.34329,-18.23277 7.09825,-9.04679 16.84096,-17.60645 9.7427,-8.55966 20.2509,-15.0316 10.5082,-6.47194 22.12985,-10.36902 11.62166,-3.96667 21.92108,-3.96667 3.54913,0 6.68071,1.18304 3.13159,1.18304 4.45381,2.50527 3.13158,3.13158 3.13158,10.71697 z m -40.22344,14.54446 -0.34795,1.39182 q 0,1.18304 1.60058,1.18304 4.24504,0 11.62166,-4.10585 7.37661,-4.10586 11.90001,-8.42048 4.5234,-4.31463 4.5234,-7.16785 0,-2.43567 -4.31463,-2.43567 -7.65498,0 -17.2585,3.75789 -9.53393,3.7579 -18.65031,9.74271 -9.11639,5.9848 -17.95441,13.77896 -8.83803,7.72457 -15.44915,15.51874 -6.54153,7.72457 -10.57779,15.17078 -4.03626,7.4462 -4.03626,12.7351 0,2.08772 1.18304,3.68831 1.25264,1.60059 3.61872,1.60059 7.30703,0 23.52167,-11.20411 16.28423,-11.20411 37.37022,-30.55033 0.27836,-0.27837 0.97427,-1.04387 1.531,-1.87895 3.13158,-2.71403 -5.70644,2.29649 -9.32515,2.29649 -3.61872,0 -5.98481,-1.60059 -2.36608,-1.60058 -2.36608,-4.31462 0,-2.78363 2.43567,-5.21931 2.43568,-2.43567 3.40995,-2.43567 0.97427,0 0.97427,0.34795 z" fill="#000000"/>
      </g>
    </mask>
  </defs>
  <g transform="translate(0.87737882,-81.432144)">
    <path d="M 71.122626,118.43215 A 35.000001,35.000001 0 0 1 36.122623,153.43214 35.000001,35.000001 0 0 1 1.1226212,118.43215 35.000001,35.000001 0 0 1 36.122623,83.432144 35.000001,35.000001 0 0 1 71.122626,118.43215 Z" fill="#f3f3f3" mask="url(#g-cutout)"/>
  </g>
</svg>
