<?xml version="1.0" encoding="UTF-8" standalone="no"?>
<!-- Created with Inkscape (http://www.inkscape.org/) -->

<svg
   xmlns:dc="http://purl.org/dc/elements/1.1/"
   xmlns:cc="http://creativecommons.org/ns#"
   xmlns:rdf="http://www.w3.org/1999/02/22-rdf-syntax-ns#"
   xmlns:svg="http://www.w3.org/2000/svg"
   xmlns="http://www.w3.org/2000/svg"
   xmlns:xlink="http://www.w3.org/1999/xlink"
   xmlns:sodipodi="http://sodipodi.sourceforge.net/DTD/sodipodi-0.dtd"
   xmlns:inkscape="http://www.inkscape.org/namespaces/inkscape"
   width="48"
   height="48"
   id="svg5453"
   version="1.1"
   inkscape:version="0.48.4 r9939"
   sodipodi:docname="Blender.svg">
  <defs
     id="defs5455">
    <linearGradient
       inkscape:collect="always"
       id="linearGradient4204">
      <stop
         style="stop-color:#fedcba;stop-opacity:1"
         offset="0"
         id="stop4206" />
      <stop
         style="stop-color:#fffbf5;stop-opacity:1"
         offset="1"
         id="stop4208" />
    </linearGradient>
    <linearGradient
       id="linearGradient6589"
       inkscape:collect="always">
      <stop
         id="stop6591"
         offset="0"
         style="stop-color:#f27c05;stop-opacity:1" />
      <stop
         id="stop6593"
         offset="1"
         style="stop-color:#f9ad3e;stop-opacity:1" />
    </linearGradient>
    <linearGradient
       inkscape:collect="always"
       xlink:href="#linearGradient6589"
       id="linearGradient4150"
       x1="384.57144"
       y1="-517.79797"
       x2="434.57144"
       y2="-517.79797"
       gradientUnits="userSpaceOnUse"
       gradientTransform="matrix(0.83333285,0,0,0.83333285,68.095439,-87.299917)" />
    <linearGradient
       inkscape:collect="always"
       xlink:href="#linearGradient4204"
       id="linearGradient4202"
       x1="493.26706"
       y1="396.87317"
       x2="493.26706"
       y2="383.06616"
       gradientUnits="userSpaceOnUse" />
    <linearGradient
       inkscape:collect="always"
       xlink:href="#linearGradient4204"
       id="linearGradient3007"
       gradientUnits="userSpaceOnUse"
       x1="483.50958"
       y1="389.49066"
       x2="497.43225"
       y2="389.49066" />
    <linearGradient
       id="linearGradient39155">
      <stop
         id="stop39157"
         style="stop-color:#ffffff;stop-opacity:1"
         offset="0" />
      <stop
         id="stop39159"
         style="stop-color:#dadada;stop-opacity:1"
         offset="1" />
    </linearGradient>
    <linearGradient
       inkscape:collect="always"
       xlink:href="#linearGradient4949"
       id="linearGradient3861"
       gradientUnits="userSpaceOnUse"
       gradientTransform="matrix(0.32402403,0,0,0.32402403,1.7867285,2.2169506)"
       x1="5.3609648"
       y1="64.287422"
       x2="111.17322"
       y2="64.287422" />
    <linearGradient
       id="linearGradient4949">
      <stop
         id="stop4951"
         style="stop-color:#f0812a;stop-opacity:1;"
         offset="0" />
      <stop
         id="stop4953"
         style="stop-color:#ffa629;stop-opacity:1;"
         offset="1" />
    </linearGradient>
  </defs>
  <sodipodi:namedview
     id="base"
     pagecolor="#ffffff"
     bordercolor="#666666"
     borderopacity="1.0"
     inkscape:pageopacity="0"
     inkscape:pageshadow="2"
     inkscape:zoom="11.313708"
     inkscape:cx="33.402111"
     inkscape:cy="16.225563"
     inkscape:document-units="px"
     inkscape:current-layer="layer1"
     showgrid="true"
     fit-margin-top="0"
     fit-margin-left="0"
     fit-margin-right="0"
     fit-margin-bottom="0"
     inkscape:window-width="1871"
     inkscape:window-height="1056"
     inkscape:window-x="49"
     inkscape:window-y="24"
     inkscape:window-maximized="1">
    <inkscape:grid
       type="xygrid"
       id="grid3005" />
  </sodipodi:namedview>
  <metadata
     id="metadata5458">
    <rdf:RDF>
      <cc:Work
         rdf:about="">
        <dc:format>image/svg+xml</dc:format>
        <dc:type
           rdf:resource="http://purl.org/dc/dcmitype/StillImage" />
        <dc:title></dc:title>
      </cc:Work>
    </rdf:RDF>
  </metadata>
  <g
     inkscape:label="Capa 1"
     inkscape:groupmode="layer"
     id="layer1"
     transform="translate(-384.57143,-499.798)">
    <rect
       style="fill:url(#linearGradient4150);fill-opacity:1;stroke:none"
       id="rect2991-1-7"
       width="39.999977"
       height="39.999977"
       x="388.57144"
       y="-543.79797"
       ry="0"
       transform="scale(1,-1)" />
    <g
       transform="matrix(0.83333285,0,0,0.83333285,336.67915,507.96305)"
       id="layer2-2"
       inkscape:label="Capa 2" />
    <path
       style="opacity:0.5;fill:#000000;fill-opacity:1;stroke:none"
       d="m 388.57143,543.798 0,0 c 20,-1 20,-1 40,0 z"
       id="path3257"
       inkscape:connector-curvature="0"
       sodipodi:nodetypes="cccc" />
    <path
       sodipodi:nodetypes="cccc"
       inkscape:connector-curvature="0"
       id="path4027"
       d="m 388.57143,503.798 0,0 c 20,1 20,1 40,0 z"
       style="opacity:0.75;fill:#ffffff;fill-opacity:1;stroke:none" />
    <path
       style="fill:#4d4d4d;fill-opacity:1;fill-rule:evenodd;stroke:none"
       id="path2482"
       inkscape:connector-curvature="0"
       d="m 401.20292,525.9744 c 0.007,0.39541 0.135,1.1642 0.32371,1.76727 0.39961,1.27133 1.07662,2.44967 2.01955,3.48767 0.96712,1.06493 2.15655,1.9221 3.53135,2.52997 1.44665,0.63876 3.01291,0.96508 4.63819,0.96251 1.62528,-0.003 3.19142,-0.33508 4.63738,-0.97847 1.37426,-0.61387 2.56369,-1.47309 3.53014,-2.54077 0.94081,-1.04212 1.61651,-2.22235 2.01608,-3.49437 0.2022,-0.6434 0.3277,-1.2955 0.38014,-1.95095 0.0504,-0.64406 0.0289,-1.29147 -0.0631,-1.9362 -0.17864,-1.25862 -0.61586,-2.43883 -1.28674,-3.51584 -0.61535,-0.98854 -1.4071,-1.85443 -2.34809,-2.58292 0,0 0.001,-10e-4 0.001,-10e-4 0,0 -9.50189,-7.28166 -9.50189,-7.28166 -0.008,-0.007 -0.0155,-0.0134 -0.0242,-0.0194 -0.6246,-0.47718 -1.67299,-0.47584 -2.35802,0.003 -0.69446,0.48388 -0.75022,1.24056 -0.13436,1.74724 1.30539,1.02835 2.60563,2.10367 3.91825,3.13189 0,0 -12.06021,-0.008 -12.06021,-0.008 -1.37059,0 -2.17699,0.64997 -2.3468,1.60015 -0.14985,0.83846 0.51392,1.87746 1.70409,1.87746 2.03153,0.003 4.08297,-0.005 6.12174,-0.009 0,0 -10.92648,8.06637 -10.92648,8.06637 -0.0141,0.0107 -0.0282,0.0201 -0.0423,0.0308 -1.02892,0.78742 -1.3627,2.0977 -0.7146,2.92672 0.65953,0.8431 2.05985,0.84378 3.10219,0.004 0,0 5.96259,-4.86972 5.96259,-4.86972 0,0 -0.086,0.65813 -0.0799,1.05288 z" />
    <path
       inkscape:connector-curvature="0"
       style="fill:#ffffff;fill-opacity:1;fill-rule:nonzero;stroke:none;stroke-width:1;marker:none;visibility:visible;display:inline;overflow:visible;enable-background:accumulate"
       id="path39153"
       d="m 418.34772,524.19614 a 6.527685,5.8282207 0 0 1 -13.05537,0 6.527685,5.8282207 0 1 1 13.05537,0 z" />
  </g>
</svg>
