<?xml version="1.0" encoding="UTF-8" standalone="no"?>
<!-- Created with Inkscape (http://www.inkscape.org/) -->

<svg
   xmlns:dc="http://purl.org/dc/elements/1.1/"
   xmlns:cc="http://creativecommons.org/ns#"
   xmlns:rdf="http://www.w3.org/1999/02/22-rdf-syntax-ns#"
   xmlns:svg="http://www.w3.org/2000/svg"
   xmlns="http://www.w3.org/2000/svg"
   xmlns:xlink="http://www.w3.org/1999/xlink"
   xmlns:sodipodi="http://sodipodi.sourceforge.net/DTD/sodipodi-0.dtd"
   xmlns:inkscape="http://www.inkscape.org/namespaces/inkscape"
   width="48"
   height="48"
   id="svg2"
   version="1.1"
   inkscape:version="0.48.4 r9939"
   sodipodi:docname="bluefish.svg">
  <defs
     id="defs4">
    <linearGradient
       id="linearGradient1489">
      <stop
         id="stop1491"
         offset="0"
         style="stop-color:#f9f9f9;stop-opacity:1" />
      <stop
         id="stop1493"
         offset="1"
         style="stop-color:#ffffff;stop-opacity:1" />
    </linearGradient>
    <linearGradient
       id="linearGradient3795">
      <stop
         style="stop-color:#1cc0b1;stop-opacity:1;"
         offset="0"
         id="stop3797" />
      <stop
         style="stop-color:#27a6e8;stop-opacity:1;"
         offset="1"
         id="stop3799" />
    </linearGradient>
    <linearGradient
       inkscape:collect="always"
       xlink:href="#linearGradient1489"
       id="linearGradient1487"
       x1="-31.778173"
       y1="-1056.428"
       x2="-31.778173"
       y2="-1008.8751"
       gradientUnits="userSpaceOnUse"
       gradientTransform="matrix(0.83333333,0,0,-0.83333333,49.485306,167.74553)" />
    <linearGradient
       inkscape:collect="always"
       xlink:href="#linearGradient3795"
       id="linearGradient1587"
       x1="0"
       y1="7.1999998"
       x2="48"
       y2="7.1999998"
       gradientUnits="userSpaceOnUse"
       gradientTransform="matrix(0.83333333,0,0,0.83333333,4,1008.3622)" />
    <linearGradient
       gradientTransform="translate(-4.3197334,-17.735896)"
       inkscape:collect="always"
       xlink:href="#linearGradient3784"
       id="linearGradient3790"
       x1="9.9574633"
       y1="35.6618"
       x2="9.9646463"
       y2="38.9426"
       gradientUnits="userSpaceOnUse" />
    <linearGradient
       id="linearGradient3784">
      <stop
         style="stop-color:#2c3e50;stop-opacity:1;"
         offset="0"
         id="stop3786" />
      <stop
         style="stop-color:#70777e;stop-opacity:1;"
         offset="1"
         id="stop3788" />
    </linearGradient>
    <linearGradient
       inkscape:collect="always"
       xlink:href="#linearGradient3784"
       id="linearGradient3042"
       gradientUnits="userSpaceOnUse"
       gradientTransform="matrix(1.0852672,0,0,1.0852672,-593.28544,812.59079)"
       x1="9.9574633"
       y1="35.6618"
       x2="9.9646463"
       y2="38.9426" />
    <linearGradient
       inkscape:collect="always"
       xlink:href="#linearGradient4089"
       id="linearGradient4517"
       x1="408.57144"
       y1="532.79797"
       x2="408.57144"
       y2="515.79797"
       gradientUnits="userSpaceOnUse"
       gradientTransform="matrix(1.07142,0,0,1.07142,-412.7516,471.14685)" />
    <linearGradient
       id="linearGradient4089"
       inkscape:collect="always">
      <stop
         id="stop4091"
         offset="0"
         style="stop-color:#16597c;stop-opacity:1" />
      <stop
         id="stop4093"
         offset="1"
         style="stop-color:#3ab4f5;stop-opacity:1" />
    </linearGradient>
  </defs>
  <sodipodi:namedview
     id="base"
     pagecolor="#ffffff"
     bordercolor="#666666"
     borderopacity="1.0"
     inkscape:pageopacity="0.0"
     inkscape:pageshadow="2"
     inkscape:zoom="3.1156893"
     inkscape:cx="42.683106"
     inkscape:cy="39.189726"
     inkscape:document-units="px"
     inkscape:current-layer="layer1"
     showgrid="true"
     inkscape:window-width="1126"
     inkscape:window-height="726"
     inkscape:window-x="530"
     inkscape:window-y="153"
     inkscape:window-maximized="0"
     inkscape:snap-bbox="true"
     inkscape:object-nodes="true"
     inkscape:object-paths="true"
     inkscape:snap-smooth-nodes="true"
     inkscape:snap-midpoints="true"
     inkscape:snap-object-midpoints="true"
     inkscape:snap-center="true">
    <inkscape:grid
       type="xygrid"
       id="grid3850" />
  </sodipodi:namedview>
  <metadata
     id="metadata7">
    <rdf:RDF>
      <cc:Work
         rdf:about="">
        <dc:format>image/svg+xml</dc:format>
        <dc:type
           rdf:resource="http://purl.org/dc/dcmitype/StillImage" />
        <dc:title></dc:title>
      </cc:Work>
    </rdf:RDF>
  </metadata>
  <g
     inkscape:label="Capa 1"
     inkscape:groupmode="layer"
     id="layer1"
     transform="translate(0,-1004.3622)">
    <path
       style="fill:url(#linearGradient1487);fill-opacity:1;stroke:none"
       d="m 5.6145833,1008.3622 -1.6145833,0 0,1.6146 0,18.3854 0,18.3854 0,1.6146 1.6145833,0 18.3854167,0 18.385417,0 1.614583,0 0,-1.6146 0,-18.3854 0,-18.3854 0,-1.6146 -1.614583,0 -18.385417,0 z m 0.9635417,1.5886 c 0.5034102,0 0.9114583,0.408 0.9114583,0.9114 0,0.5034 -0.4080481,0.9115 -0.9114583,0.9115 -0.5034103,0 -0.9114583,-0.4081 -0.9114583,-0.9115 0,-0.5034 0.408048,-0.9114 0.9114583,-0.9114 z m 0,5 c 0.5034102,0 0.9114583,0.408 0.9114583,0.9114 0,0.5034 -0.4080481,0.9115 -0.9114583,0.9115 -0.5034103,0 -0.9114583,-0.4081 -0.9114583,-0.9115 0,-0.5034 0.408048,-0.9114 0.9114583,-0.9114 z m 0,5 c 0.5034102,0 0.9114583,0.408 0.9114583,0.9114 0,0.5034 -0.4080481,0.9115 -0.9114583,0.9115 -0.5034103,0 -0.9114583,-0.4081 -0.9114583,-0.9115 0,-0.5034 0.408048,-0.9114 0.9114583,-0.9114 z m 0,5 c 0.5034102,0 0.9114583,0.408 0.9114583,0.9114 0,0.5034 -0.4080481,0.9115 -0.9114583,0.9115 -0.5034103,0 -0.9114583,-0.4081 -0.9114583,-0.9115 0,-0.5034 0.408048,-0.9114 0.9114583,-0.9114 z m 0,5 c 0.5034102,0 0.9114583,0.408 0.9114583,0.9114 0,0.5034 -0.4080481,0.9115 -0.9114583,0.9115 -0.5034103,0 -0.9114583,-0.4081 -0.9114583,-0.9115 0,-0.5034 0.408048,-0.9114 0.9114583,-0.9114 z m 0,5 c 0.5034102,0 0.9114583,0.408 0.9114583,0.9114 0,0.5034 -0.4080481,0.9115 -0.9114583,0.9115 -0.5034103,0 -0.9114583,-0.4081 -0.9114583,-0.9115 0,-0.5034 0.408048,-0.9114 0.9114583,-0.9114 z m 0,5 c 0.5034102,0 0.9114583,0.408 0.9114583,0.9114 0,0.5034 -0.4080481,0.9115 -0.9114583,0.9115 -0.5034103,0 -0.9114583,-0.4081 -0.9114583,-0.9115 0,-0.5034 0.408048,-0.9114 0.9114583,-0.9114 z m 0,5 c 0.5034102,0 0.9114583,0.408 0.9114583,0.9114 0,0.5034 -0.4080481,0.9115 -0.9114583,0.9115 -0.5034103,0 -0.9114583,-0.4081 -0.9114583,-0.9115 0,-0.5034 0.408048,-0.9114 0.9114583,-0.9114 z"
       id="rect2991-1"
       inkscape:connector-curvature="0"
       sodipodi:nodetypes="cccccccccccccccccssssssssssssssssssssssssssssssssssssssss" />
    <path
       style="color:#000000;fill:url(#linearGradient1587);fill-opacity:1;fill-rule:nonzero;stroke:none;stroke-width:0.2;marker:none;visibility:visible;display:inline;overflow:visible;enable-background:accumulate"
       d="m 5.6145833,1008.3622 -1.6145833,0 0,1.6146 0,8.6979 40,0 0,-8.6979 0,-1.6146 -1.614583,0 -18.385417,0 z m 0.9635417,1.5885 c 0.5034102,0 0.9114583,0.4081 0.9114583,0.9115 0,0.5034 -0.4080481,0.9115 -0.9114583,0.9115 -0.5034103,0 -0.9114583,-0.4081 -0.9114583,-0.9115 0,-0.5034 0.408048,-0.9115 0.9114583,-0.9115 z m 0,5 c 0.5034102,0 0.9114583,0.4081 0.9114583,0.9115 0,0.5034 -0.4080481,0.9115 -0.9114583,0.9115 -0.5034103,0 -0.9114583,-0.4081 -0.9114583,-0.9115 0,-0.5034 0.408048,-0.9115 0.9114583,-0.9115 z"
       id="rect1579"
       inkscape:connector-curvature="0"
       sodipodi:nodetypes="ccccccccccssssssssss" />
    <path
       inkscape:connector-curvature="0"
       style="color:#000000;fill:#cfd3df;fill-opacity:1;fill-rule:nonzero;stroke:none;stroke-width:0.2;marker:none;visibility:visible;display:inline;overflow:visible;enable-background:accumulate"
       d="m 4,1045.1591 0,-0.1301 40,0 0,0.1301 -40,0 z"
       id="path1685" />
    <path
       id="path1807"
       d="m 4,1041.8258 0,-0.1303 40,0 0,0.1303 -40,0 z"
       style="color:#000000;fill:#cfd3df;fill-opacity:1;fill-rule:nonzero;stroke:none;stroke-width:0.2;marker:none;visibility:visible;display:inline;overflow:visible;enable-background:accumulate"
       inkscape:connector-curvature="0" />
    <path
       inkscape:connector-curvature="0"
       style="color:#000000;fill:#cfd3df;fill-opacity:1;fill-rule:nonzero;stroke:none;stroke-width:0.2;marker:none;visibility:visible;display:inline;overflow:visible;enable-background:accumulate"
       d="m 4,1038.4925 0,-0.1303 40,0 0,0.1303 -40,0 z"
       id="path1813" />
    <path
       id="path1819"
       d="m 4,1035.1591 0,-0.1302 40,0 0,0.1302 -40,0 z"
       style="color:#000000;fill:#cfd3df;fill-opacity:1;fill-rule:nonzero;stroke:none;stroke-width:0.2;marker:none;visibility:visible;display:inline;overflow:visible;enable-background:accumulate"
       inkscape:connector-curvature="0" />
    <path
       inkscape:connector-curvature="0"
       style="color:#000000;fill:#cfd3df;fill-opacity:1;fill-rule:nonzero;stroke:none;stroke-width:0.2;marker:none;visibility:visible;display:inline;overflow:visible;enable-background:accumulate"
       d="m 4,1031.8258 0,-0.1303 40,0 0,0.1303 -40,0 z"
       id="path1825" />
    <path
       id="path1831"
       d="m 4,1028.4925 0,-0.1303 40,0 0,0.1303 -40,0 z"
       style="color:#000000;fill:#cfd3df;fill-opacity:1;fill-rule:nonzero;stroke:none;stroke-width:0.2;marker:none;visibility:visible;display:inline;overflow:visible;enable-background:accumulate"
       inkscape:connector-curvature="0" />
    <path
       inkscape:connector-curvature="0"
       style="color:#000000;fill:#cfd3df;fill-opacity:1;fill-rule:nonzero;stroke:none;stroke-width:0.2;marker:none;visibility:visible;display:inline;overflow:visible;enable-background:accumulate"
       d="m 4,1025.1591 0,-0.1302 40,0 0,0.1302 -40,0 z"
       id="path1837" />
    <path
       id="path1843"
       d="m 4,1021.8258 0,-0.1303 40,0 0,0.1303 -40,0 z"
       style="color:#000000;fill:#cfd3df;fill-opacity:1;fill-rule:nonzero;stroke:none;stroke-width:0.2;marker:none;visibility:visible;display:inline;overflow:visible;enable-background:accumulate"
       inkscape:connector-curvature="0" />
    <path
       style="fill:#666666;fill-opacity:1;stroke:none"
       d="m 3.9999982,1048.3621 39.9999968,3e-4 c -19.999997,-1 -19.999997,-1 -39.9999982,0 z"
       id="path3800"
       inkscape:connector-curvature="0"
       sodipodi:nodetypes="cccc" />
    <path
       sodipodi:nodetypes="cccc"
       inkscape:connector-curvature="0"
       id="path3804"
       d="m 4.0000017,1008.3623 39.9999963,-2e-4 c -19.999996,1 -19.999996,1 -39.9999976,0 z"
       style="fill:#ececec;fill-opacity:1;stroke:none" />
    <path
       inkscape:connector-curvature="0"
       id="path4594"
       d="m 22.909671,1023.865 a 5.240505,5.240505 0 0 0 -4.778052,3.8727 c -4.54535,0.9531 -8.015998,3.4915 -9.6314765,6.7674 7.5e-4,0 0.00225,0.01 0.003,0.01 -7.5e-4,0 -0.00225,0.01 -0.003,0.01 2.0803325,4.2185 7.2287075,7.2267 13.8000535,7.1815 0.03172,10e-5 0.06225,0 0.09396,0 3.829474,0 8.210697,-1.7017 11.916752,-4.1388 1.341139,-0.01 2.794221,0.54 4.550083,2.0787 1.251349,1.0966 2.084015,0.4508 2.638868,-1.0058 -0.774946,-1.3927 -1.919406,-2.7998 -3.310674,-4.1249 1.391073,-1.325 2.53581,-2.7305 3.310674,-4.123 -0.554853,-1.4567 -1.387519,-2.1025 -2.638868,-1.0059 -1.755862,1.5387 -3.208944,2.0886 -4.550083,2.0787 -3.46887,-2.2811 -7.52935,-3.9172 -11.175158,-4.1174 a 5.240505,5.240505 0 0 1 -0.427084,-2.0573 5.240505,5.240505 0 0 1 0.200983,-1.4199 z"
       style="text-decoration:none;color:#000000;fill:#000000;fill-opacity:0.23529412;fill-rule:nonzero;stroke:none;visibility:visible;display:inline;overflow:visible;enable-background:accumulate" />
    <path
       style="text-decoration:none;color:#000000;fill:url(#linearGradient4517);fill-opacity:1;fill-rule:nonzero;stroke:none;visibility:visible;display:inline;overflow:visible;enable-background:accumulate"
       d="m 22.909671,1023.4368 a 5.240505,5.240505 0 0 0 -4.778052,3.8726 c -4.54535,0.9532 -8.015998,3.4916 -9.6314765,6.7675 7.5e-4,0 0.00225,0.01 0.003,0.01 -7.5e-4,0 -0.00225,0.01 -0.003,0.01 2.0803325,4.2185 7.2287075,7.2266 13.8000535,7.1815 0.03172,10e-5 0.06225,0 0.09396,0 3.829474,0 8.210697,-1.7017 11.916752,-4.1388 1.341139,-0.01 2.794221,0.54 4.550083,2.0787 1.251349,1.0966 2.084015,0.4508 2.638868,-1.0059 -0.774946,-1.3926 -1.919406,-2.7997 -3.310674,-4.1248 1.391073,-1.325 2.53581,-2.7305 3.310674,-4.123 -0.554853,-1.4566 -1.387519,-2.1025 -2.638868,-1.0059 -1.755862,1.5388 -3.208944,2.0885 -4.550083,2.0788 -3.46887,-2.2812 -7.52935,-3.9173 -11.175158,-4.1174 a 5.240505,5.240505 0 0 1 -0.427084,-2.0573 5.240505,5.240505 0 0 1 0.200983,-1.42 z"
       id="path4434"
       inkscape:connector-curvature="0" />
    <path
       style="text-decoration:none;color:#000000;fill:#154a66;fill-opacity:0.31372549;fill-rule:nonzero;stroke:none;visibility:visible;display:inline;overflow:visible;enable-background:accumulate"
       d="m 22.909476,1023.4358 a 5.240505,5.240505 0 0 0 -0.169499,0.017 5.240505,5.240505 0 0 0 -0.03143,0.5462 5.240505,5.240505 0 0 0 0.02303,0.4227 5.240505,5.240505 0 0 1 0.177876,-0.9856 z m 18.371083,6.0205 c -0.765728,1.2756 -1.817834,2.5563 -3.09079,3.7688 0.147711,0.1407 0.280707,0.2844 0.422703,0.4269 1.194913,-1.1984 2.195426,-2.4492 2.887813,-3.6935 -0.06877,-0.1806 -0.142146,-0.3484 -0.219726,-0.5022 z m -32.5422861,4.2082 c -0.076582,0.1386 -0.168831,0.2709 -0.2385579,0.4123 7.5e-4,0 0.003,0.01 0.0045,0.01 -7.5e-4,0 -0.003,0 -0.0045,0.01 2.080332,4.2185 7.229465,7.227 13.800811,7.1818 0.03172,2e-4 0.06247,0.01 0.09416,0.01 3.829474,0 8.209316,-1.7021 11.915364,-4.1392 1.341139,-0.01 2.795578,0.5393 4.551441,2.078 1.251349,1.0966 2.083939,0.4501 2.638792,-1.0066 -0.06562,-0.1179 -0.148881,-0.2355 -0.219726,-0.3536 -0.548305,1.0874 -1.322816,1.4629 -2.419066,0.5022 -1.755863,-1.5387 -3.210302,-2.0876 -4.551441,-2.078 -3.706048,2.4372 -8.08589,4.1392 -11.915364,4.1392 -0.03172,0 -0.06248,0 -0.09416,-0.01 -6.341255,0.043 -11.349382,-2.7597 -13.5622531,-6.7465 z"
       id="path4602"
       inkscape:connector-curvature="0" />
  </g>
</svg>
