<?xml version="1.0" encoding="UTF-8" standalone="no"?>
<!-- Created with Inkscape (http://www.inkscape.org/) -->

<svg
   xmlns:dc="http://purl.org/dc/elements/1.1/"
   xmlns:cc="http://creativecommons.org/ns#"
   xmlns:rdf="http://www.w3.org/1999/02/22-rdf-syntax-ns#"
   xmlns:svg="http://www.w3.org/2000/svg"
   xmlns="http://www.w3.org/2000/svg"
   xmlns:xlink="http://www.w3.org/1999/xlink"
   xmlns:sodipodi="http://sodipodi.sourceforge.net/DTD/sodipodi-0.dtd"
   xmlns:inkscape="http://www.inkscape.org/namespaces/inkscape"
   width="48px"
   height="48px"
   id="svg3044"
   version="1.1"
   inkscape:version="0.48.4 r9939"
   sodipodi:docname="calligrasheets.svg">
  <defs
     id="defs3046">
    <linearGradient
       id="linearGradient3905">
      <stop
         style="stop-color:#e4e9eb;stop-opacity:1;"
         offset="0"
         id="stop3907" />
      <stop
         style="stop-color:#ecfffd;stop-opacity:1;"
         offset="1"
         id="stop3909" />
    </linearGradient>
    <linearGradient
       y2="1027.3123"
       x2="45.000134"
       y1="1027.3123"
       x1="3.0000002"
       gradientTransform="matrix(0.95237789,0,0,0.95237799,8.142866,-947.7703)"
       gradientUnits="userSpaceOnUse"
       id="linearGradient3966"
       xlink:href="#linearGradient4001"
       inkscape:collect="always" />
    <linearGradient
       id="linearGradient4001">
      <stop
         style="stop-color:#87d866;stop-opacity:1;"
         offset="0"
         id="stop4003" />
      <stop
         style="stop-color:#35b2ac;stop-opacity:1;"
         offset="1"
         id="stop4005" />
    </linearGradient>
    <linearGradient
       y2="1027.3123"
       x2="45.000134"
       y1="1027.3123"
       x1="3.0000002"
       gradientTransform="matrix(0.95237789,0,0,0.95237799,1.142866,-955.3896)"
       gradientUnits="userSpaceOnUse"
       id="linearGradient3042"
       xlink:href="#linearGradient4001"
       inkscape:collect="always" />
    <linearGradient
       inkscape:collect="always"
       xlink:href="#linearGradient4283"
       id="linearGradient4289"
       gradientUnits="userSpaceOnUse"
       x1="56.110668"
       y1="1052.3029"
       x2="56.110668"
       y2="1039.3029"
       gradientTransform="translate(-31.11067,-1020.3029)" />
    <linearGradient
       inkscape:collect="always"
       id="linearGradient4283">
      <stop
         style="stop-color:#a0aab4;stop-opacity:1"
         offset="0"
         id="stop4285" />
      <stop
         style="stop-color:#d8dce0;stop-opacity:1"
         offset="1"
         id="stop4287" />
    </linearGradient>
    <clipPath
       id="clipPath-022384706">
      <g
         transform="translate(0,-1004.3622)"
         id="g17">
        <path
           style="fill:#1890d0"
           inkscape:connector-curvature="0"
           d="m -24,13 c 0,1.105 -0.672,2 -1.5,2 -0.828,0 -1.5,-0.895 -1.5,-2 0,-1.105 0.672,-2 1.5,-2 0.828,0 1.5,0.895 1.5,2 z"
           transform="matrix(15.333333,0,0,11.5,414.99999,878.8622)"
           id="path19" />
      </g>
    </clipPath>
  </defs>
  <sodipodi:namedview
     id="base"
     pagecolor="#ffffff"
     bordercolor="#666666"
     borderopacity="1.0"
     inkscape:pageopacity="0.0"
     inkscape:pageshadow="2"
     inkscape:zoom="9.8994952"
     inkscape:cx="-2.595614"
     inkscape:cy="18.947458"
     inkscape:current-layer="layer1"
     showgrid="true"
     inkscape:grid-bbox="true"
     inkscape:document-units="px"
     inkscape:window-width="1871"
     inkscape:window-height="1056"
     inkscape:window-x="49"
     inkscape:window-y="24"
     inkscape:window-maximized="1">
    <inkscape:grid
       type="xygrid"
       id="grid3083" />
  </sodipodi:namedview>
  <metadata
     id="metadata3049">
    <rdf:RDF>
      <cc:Work
         rdf:about="">
        <dc:format>image/svg+xml</dc:format>
        <dc:type
           rdf:resource="http://purl.org/dc/dcmitype/StillImage" />
        <dc:title></dc:title>
      </cc:Work>
    </rdf:RDF>
  </metadata>
  <g
     id="layer1"
     inkscape:label="Layer 1"
     inkscape:groupmode="layer">
    <path
       style="fill:url(#linearGradient3042);fill-opacity:1;stroke:none"
       d="M 5.619318,4 C 4.72159,4 4,4.7215 4,5.6192 L 4,42.3807 C 4,43.2784 4.72159,44 5.619318,44 l 36.761363,0 C 43.278409,44 44,43.2784 44,42.3807 L 44,5.6193 C 44,4.7215 43.278409,4 42.380681,4 z"
       id="rect839"
       inkscape:connector-curvature="0"
       sodipodi:nodetypes="sssssssss" />
    <path
       style="opacity:0.5;fill:#000000;fill-opacity:1;stroke:none"
       d="m 6,44 0,0 c 18,-1 18,-1 36,0 z"
       id="path3257"
       inkscape:connector-curvature="0"
       sodipodi:nodetypes="cccc" />
    <path
       sodipodi:nodetypes="cccc"
       inkscape:connector-curvature="0"
       id="path4027"
       d="M 6,4 6,4 C 24,5 24,5 42,4 z"
       style="opacity:0.9;fill:#ffffff;fill-opacity:1;stroke:none" />
    <g
       id="g51"
       style="fill:#f9f9f9"
       transform="translate(-0.90913726,0.50507628)">
      <g
         clip-path="url(#clipPath-022384706)"
         id="g53"
         style="fill:#f9f9f9">
        <!-- color: #ebebeb -->
        <g
           id="g55"
           style="fill:#f9f9f9">
          <path
             style="fill:#f9f9f9;fill-opacity:1;fill-rule:nonzero;stroke:none"
             inkscape:connector-curvature="0"
             d="m 11.637,24 6.727,0 c 0.352,0 0.637,0.352 0.637,0.789 l 0,8.418 c 0,0.438 -0.285,0.789 -0.637,0.789 l -6.727,0 C 11.285,33.996 11,33.644 11,33.207 l 0,-8.418 C 11,24.351 11.285,24 11.637,24 m 0,0"
             id="path57" />
          <path
             style="fill:#f9f9f9;fill-opacity:1;fill-rule:nonzero;stroke:none"
             inkscape:connector-curvature="0"
             d="m 20.637,18 6.727,0 c 0.352,0 0.637,0.566 0.637,1.27 l 0,13.465 c 0,0.699 -0.285,1.266 -0.637,1.266 l -6.727,0 C 20.285,34.001 20,33.435 20,32.735 L 20,19.27 C 20,18.567 20.285,18 20.637,18 m 0,0"
             id="path59" />
          <path
             style="fill:#f9f9f9;fill-opacity:1;fill-rule:nonzero;stroke:none"
             inkscape:connector-curvature="0"
             d="m 29.637,14 6.727,0 c 0.352,0 0.637,0.707 0.637,1.582 l 0,16.832 c 0,0.875 -0.285,1.582 -0.637,1.582 l -6.727,0 C 29.285,33.996 29,33.289 29,32.414 L 29,15.582 C 29,14.707 29.285,14 29.637,14 m 0,0"
             id="path61" />
        </g>
      </g>
    </g>
  </g>
</svg>
