<?xml version="1.0" encoding="UTF-8" standalone="no"?>
<svg
   xmlns:dc="http://purl.org/dc/elements/1.1/"
   xmlns:cc="http://creativecommons.org/ns#"
   xmlns:rdf="http://www.w3.org/1999/02/22-rdf-syntax-ns#"
   xmlns:svg="http://www.w3.org/2000/svg"
   xmlns="http://www.w3.org/2000/svg"
   xmlns:xlink="http://www.w3.org/1999/xlink"
   xmlns:sodipodi="http://sodipodi.sourceforge.net/DTD/sodipodi-0.dtd"
   xmlns:inkscape="http://www.inkscape.org/namespaces/inkscape"
   width="48"
   viewBox="0 0 13.546667 13.546667"
   height="48"
   id="svg2"
   version="1.1"
   inkscape:version="0.91 r13725"
   sodipodi:docname="chess.svg">
  <metadata
     id="metadata22">
    <rdf:RDF>
      <cc:Work
         rdf:about="">
        <dc:format>image/svg+xml</dc:format>
        <dc:type
           rdf:resource="http://purl.org/dc/dcmitype/StillImage" />
        <dc:title></dc:title>
      </cc:Work>
    </rdf:RDF>
  </metadata>
  <sodipodi:namedview
     pagecolor="#ffffff"
     bordercolor="#666666"
     borderopacity="1"
     objecttolerance="10"
     gridtolerance="10"
     guidetolerance="10"
     inkscape:pageopacity="0"
     inkscape:pageshadow="2"
     inkscape:window-width="1530"
     inkscape:window-height="916"
     id="namedview20"
     showgrid="true"
     inkscape:showpageshadow="false"
     borderlayer="true"
     inkscape:zoom="5.6568543"
     inkscape:cx="-6.0286571"
     inkscape:cy="27.316024"
     inkscape:window-x="149"
     inkscape:window-y="76"
     inkscape:window-maximized="0"
     inkscape:current-layer="svg2"
     inkscape:object-paths="true"
     inkscape:object-nodes="true"
     inkscape:snap-smooth-nodes="true">
    <inkscape:grid
       type="xygrid"
       id="grid4252" />
  </sodipodi:namedview>
  <defs
     id="defs4">
    <linearGradient
       id="linearGradient3765">
      <stop
         style="stop-color:#475456;stop-opacity:1;"
         offset="0"
         id="stop3767" />
      <stop
         style="stop-color:#657173;stop-opacity:1;"
         offset="1"
         id="stop3769" />
    </linearGradient>
    <linearGradient
       inkscape:collect="always"
       id="linearGradient4153">
      <stop
         style="stop-color:#e6e6e6;stop-opacity:1"
         offset="0"
         id="stop4155" />
      <stop
         style="stop-color:#f9f9f9;stop-opacity:1"
         offset="1"
         id="stop4157" />
    </linearGradient>
    <linearGradient
       id="linearGradient854">
      <stop
         style="stop-color:#1a1a1a;stop-opacity:1"
         offset="0"
         id="stop856" />
      <stop
         style="stop-color:#333333;stop-opacity:1"
         offset="1"
         id="stop858" />
    </linearGradient>
    <linearGradient
       inkscape:collect="always"
       xlink:href="#linearGradient4153"
       id="linearGradient4159"
       x1="-1.7362217e-05"
       y1="25.200003"
       x2="48.000019"
       y2="25.200003"
       gradientUnits="userSpaceOnUse"
       gradientTransform="matrix(0.23518502,0,0,0.23518502,1.128893,1.1288926)" />
    <linearGradient
       id="linearGradient2507">
      <stop
         id="stop2509"
         offset="0"
         style="stop-color:#000000;stop-opacity:1" />
      <stop
         id="stop2511"
         offset="1"
         style="stop-color:#505070;stop-opacity:1" />
    </linearGradient>
    <linearGradient
       inkscape:collect="always"
       xlink:href="#linearGradient2507"
       id="linearGradient4174"
       x1="1.1288929"
       y1="-6.7733288"
       x2="12.417774"
       y2="-6.7733288"
       gradientUnits="userSpaceOnUse" />
  </defs>
  <rect
     style="opacity:1;fill:#ffffff;fill-opacity:1;stroke:#3a3e54;stroke-opacity:1"
     id="rect2991-1-1"
     width="11.28888"
     height="11.28888"
     x="1.1288936"
     y="-12.417769"
     ry="0.45732749"
     transform="scale(1,-1)" />
  <rect
     style="fill:url(#linearGradient4174);fill-opacity:1.0;stroke:none;opacity:1"
     id="rect2991-1"
     width="11.288881"
     height="11.288881"
     x="1.1288929"
     y="-12.417769"
     ry="0.45732751"
     transform="scale(1,-1)" />
  <path
     style="fill:url(#linearGradient4159);fill-opacity:1;stroke:none"
     d="m 1.5864013,1.1288926 c -0.2533594,0 -0.4575083,0.2041489 -0.4575083,0.4575083 l 0,3.305452 3.7629603,0 0,-3.7629603 -3.305452,0 z m 3.305452,3.7629603 0,3.7629604 3.7629604,0 0,-3.7629604 -3.7629604,0 z m 3.7629604,0 3.7629603,0 0,-3.305452 c 0,-0.2533594 -0.204149,-0.4575083 -0.457509,-0.4575083 l -3.3054513,0 0,3.7629603 z m 0,3.7629604 0,3.7629607 3.3054513,0 c 0.25336,0 0.457509,-0.204149 0.457509,-0.457509 l 0,-3.3054517 -3.7629603,0 z m -3.7629604,0 -3.7629603,0 0,3.3054517 c 0,0.25336 0.2041489,0.457509 0.4575083,0.457509 l 3.305452,0 0,-3.7629607 z"
     id="rect4142"
     inkscape:connector-curvature="0" />
  <path
     style="opacity:0.35;fill:#000000;fill-opacity:1;stroke:none"
     d="m 1.599263,12.417774 0,0 c 5.4092556,-0.235185 5.4092556,-0.235185 10.348141,0 z"
     id="path3773"
     inkscape:connector-curvature="0"
     sodipodi:nodetypes="cccc" />
  <path
     style="opacity:0.75;fill:#ffffff;fill-opacity:1;stroke:none"
     d="m 1.599263,1.1288926 0,0 c 5.4092556,0.235185 5.4092556,0.235185 10.348142,0 z"
     id="path3773-5"
     inkscape:connector-curvature="0"
     sodipodi:nodetypes="cccc" />
  <g
     inkscape:label="Layer 1"
     id="layer1"
     transform="matrix(0.01160709,0,0,0.01160709,4.6530936,3.1597602)"
     style="fill:#000000">
    <path
       sodipodi:nodetypes="ccssscccccsccssc"
       id="path4618"
       d="m 376.2611,88.502852 c -1.68746,116.358558 4.25663,72.416348 -69.17036,18.700768 11.3318,75.90327 3.64011,78.40399 -15.97566,110.88391 -10.73524,17.77547 -20.19586,73.74535 -26.91315,86.08233 -40.70349,74.75601 -134.18443,172.34919 -134.02315,204.16517 0.20415,40.27368 48.10261,76.32362 91.91693,33.73572 -40.99111,60.00605 82.76779,-0.27193 134.6312,-37.28421 68.65135,42.26229 164.56289,-3.98432 166.3457,-71.88869 C 554.31345,586.49379 262.58333,613.17073 247,812.398 464.42322,862.03092 585.52468,700.32376 718.04854,825.37087 785.79431,628.94359 792.04609,300.60649 477.10485,177.50285 434.3,160.77137 416.31792,117.73264 376.2611,88.502852 Z m -1.31388,216.674228 c -7.11785,10.09897 -22.08652,26.58311 -35.22012,24.16942 -12.14321,-2.23168 -17.02916,-6.34756 -17.58952,-20.72806 -0.47181,-12.10788 42.43108,-11.71735 52.80964,-3.44136 z"
       style="fill:#000000;fill-opacity:1;fill-rule:evenodd;stroke:#ffffff;stroke-width:16;stroke-linecap:round;stroke-linejoin:round;stroke-miterlimit:4;stroke-dasharray:none;stroke-opacity:1"
       inkscape:connector-curvature="0" />
  </g>
</svg>
