<?xml version="1.0" encoding="UTF-8" standalone="no"?>
<!-- Created with Inkscape (http://www.inkscape.org/) -->

<svg
   xmlns:dc="http://purl.org/dc/elements/1.1/"
   xmlns:cc="http://creativecommons.org/ns#"
   xmlns:rdf="http://www.w3.org/1999/02/22-rdf-syntax-ns#"
   xmlns:svg="http://www.w3.org/2000/svg"
   xmlns="http://www.w3.org/2000/svg"
   xmlns:xlink="http://www.w3.org/1999/xlink"
   xmlns:sodipodi="http://sodipodi.sourceforge.net/DTD/sodipodi-0.dtd"
   xmlns:inkscape="http://www.inkscape.org/namespaces/inkscape"
   width="48"
   height="48"
   id="svg2"
   version="1.1"
   inkscape:version="0.48.5 r10040"
   viewBox="0 0 13.546666 13.546668"
   sodipodi:docname="screenlets.svg">
  <defs
     id="defs4">
    <linearGradient
       id="linearGradient3825">
      <stop
         style="stop-color:#ff2b2b;stop-opacity:1;"
         offset="0"
         id="stop3827" />
      <stop
         id="stop3839"
         offset="0.17231309"
         style="stop-color:#ffa610;stop-opacity:0.93725491;" />
      <stop
         id="stop3837"
         offset="0.36799067"
         style="stop-color:#fcff12;stop-opacity:0.87450981;" />
      <stop
         id="stop3835"
         offset="0.57710284"
         style="stop-color:#7fff12;stop-opacity:0.74901962;" />
      <stop
         id="stop3833"
         offset="0.81160116"
         style="stop-color:#00fff4;stop-opacity:0.49803922;" />
      <stop
         style="stop-color:#0230ff;stop-opacity:1;"
         offset="1"
         id="stop3829" />
    </linearGradient>
    <linearGradient
       inkscape:collect="always"
       xlink:href="#linearGradient4152"
       id="linearGradient4158"
       x1="414.57144"
       y1="541.79797"
       x2="414.57144"
       y2="489.798"
       gradientUnits="userSpaceOnUse" />
    <linearGradient
       id="linearGradient4152">
      <stop
         style="stop-color:#7f77be;stop-opacity:1;"
         offset="0"
         id="stop4154" />
      <stop
         style="stop-color:#7ac8d4;stop-opacity:1;"
         offset="1"
         id="stop4156" />
    </linearGradient>
    <linearGradient
       gradientTransform="matrix(0.23356324,0,0,0.23852169,-128.6416,281.01748)"
       y2="489.798"
       x2="414.57144"
       y1="541.79797"
       x1="414.57144"
       gradientUnits="userSpaceOnUse"
       id="linearGradient3039"
       xlink:href="#linearGradient4152"
       inkscape:collect="always" />
    <linearGradient
       inkscape:collect="always"
       xlink:href="#linearGradient3825"
       id="linearGradient3831"
       x1="7.150331"
       y1="20.749294"
       x2="41.154125"
       y2="20.749294"
       gradientUnits="userSpaceOnUse" />
    <radialGradient
       gradientUnits="userSpaceOnUse"
       r="20"
       fy="24.000002"
       fx="24.000002"
       cy="24.000002"
       cx="24.000002"
       id="radialGradient3783"
       xlink:href="#linearGradient3777"
       inkscape:collect="always" />
    <linearGradient
       id="linearGradient3777">
      <stop
         id="stop3779"
         offset="0"
         style="stop-color:#ecf0f1;stop-opacity:1;" />
      <stop
         id="stop3781"
         offset="1"
         style="stop-color:#b4d2d9;stop-opacity:1;" />
    </linearGradient>
  </defs>
  <sodipodi:namedview
     id="base"
     pagecolor="#ffffff"
     bordercolor="#666666"
     borderopacity="1.0"
     inkscape:pageopacity="0"
     inkscape:pageshadow="2"
     inkscape:zoom="6.293415"
     inkscape:cx="20.892723"
     inkscape:cy="21.084648"
     inkscape:document-units="px"
     inkscape:current-layer="layer1"
     showgrid="true"
     inkscape:showpageshadow="false"
     borderlayer="true"
     units="px"
     fit-margin-top="0"
     fit-margin-left="0"
     fit-margin-right="0"
     fit-margin-bottom="0"
     showguides="true"
     inkscape:window-width="1060"
     inkscape:window-height="746"
     inkscape:window-x="532"
     inkscape:window-y="150"
     inkscape:window-maximized="0"
     inkscape:snap-nodes="true">
    <sodipodi:guide
       position="-6.6748425e-06,47.999999"
       orientation="47.999977,0"
       id="guide4120" />
    <sodipodi:guide
       position="-6.6748425e-06,2.2810037e-05"
       orientation="0,48.000004"
       id="guide4122" />
    <sodipodi:guide
       position="47.999997,2.2810037e-05"
       orientation="-47.999977,0"
       id="guide4124" />
    <sodipodi:guide
       position="47.999997,47.999999"
       orientation="0,-48.000004"
       id="guide4126" />
    <sodipodi:guide
       position="3.9999733,44.000154"
       orientation="39.999962,0"
       id="guide4138" />
    <sodipodi:guide
       position="3.9999733,4.0001921"
       orientation="0,40.000003"
       id="guide4140" />
    <sodipodi:guide
       position="43.999976,4.0001921"
       orientation="-39.999962,0"
       id="guide4142" />
    <sodipodi:guide
       position="43.999976,44.000154"
       orientation="0,-40.000003"
       id="guide4144" />
    <sodipodi:guide
       position="6.9999922,47.999999"
       orientation="39.999962,0"
       id="guide4148" />
    <sodipodi:guide
       position="6.9999922,8.0000369"
       orientation="0,34.000006"
       id="guide4150" />
    <sodipodi:guide
       position="40.999998,8.0000369"
       orientation="-39.999962,0"
       id="guide4152" />
    <sodipodi:guide
       position="40.999998,47.999999"
       orientation="0,-34.000006"
       id="guide4154" />
    <sodipodi:guide
       position="14.999993,32.999986"
       orientation="17.999951,0"
       id="guide4158" />
    <sodipodi:guide
       position="14.999993,15.000036"
       orientation="0,17.999998"
       id="guide4160" />
    <sodipodi:guide
       position="32.999991,15.000036"
       orientation="-17.999951,0"
       id="guide4162" />
    <sodipodi:guide
       position="32.999991,32.999986"
       orientation="0,-17.999998"
       id="guide4164" />
    <sodipodi:guide
       position="1.9999969,44.000046"
       orientation="39.999962,0"
       id="guide3279" />
    <sodipodi:guide
       position="1.9999969,4.0000839"
       orientation="0,44.000003"
       id="guide3281" />
    <sodipodi:guide
       position="46,4.0000839"
       orientation="-39.999962,0"
       id="guide3283" />
    <sodipodi:guide
       position="46,44.000046"
       orientation="0,-44.000003"
       id="guide3285" />
    <inkscape:grid
       type="xygrid"
       id="grid3385" />
  </sodipodi:namedview>
  <metadata
     id="metadata7">
    <rdf:RDF>
      <cc:Work
         rdf:about="">
        <dc:format>image/svg+xml</dc:format>
        <dc:type
           rdf:resource="http://purl.org/dc/dcmitype/StillImage" />
        <dc:title></dc:title>
      </cc:Work>
    </rdf:RDF>
  </metadata>
  <g
     inkscape:label="Capa 1"
     inkscape:groupmode="layer"
     id="layer1"
     transform="translate(38.119153,-397.84494)">
    <rect
       style="fill:url(#linearGradient3039);fill-opacity:1;stroke:none"
       id="rect4126-7"
       width="13.546672"
       height="12.403128"
       x="-38.119156"
       y="397.84494" />
    <path
       style="fill:#ffffff;fill-opacity:0.78431373;stroke:none"
       d="m -38.084464,409.20848 0,0.83364 0,0.20841 0.233563,0 13.079541,0 0.233564,0 0,-0.20841 0,-0.83364 -13.546668,0 z"
       id="rect4128-7"
       inkscape:connector-curvature="0" />
    <g
       style="font-size:4.07529593px;font-style:normal;font-variant:normal;font-weight:normal;font-stretch:normal;line-height:125%;letter-spacing:0px;word-spacing:0px;fill:#4d4d4d;fill-opacity:1;stroke:none;font-family:Oxygen;-inkscape-font-specification:Oxygen"
       id="text4213"
       transform="matrix(0.16888982,0,0,0.16888982,-99.985047,318.65786)">
      <path
         d="m 434.23853,537.83412 c -0.15893,0.11003 -0.36677,0.22414 -0.54201,0.30157 l 0.0734,0.28934 c 0.14264,-0.0448 0.27305,-0.12225 0.43198,-0.22414 l 0,2.60819 0.35455,0 0,-2.97496 -0.31787,0 z"
         id="path4218"
         inkscape:connector-curvature="0" />
      <path
         d="m 435.20119,538.03381 0.11819,0.29749 c 0.16708,-0.17116 0.41568,-0.24452 0.66427,-0.24452 0.33825,0 0.52571,0.18747 0.52571,0.51757 l 0,0.0204 c -0.004,0.2323 -0.15486,0.46051 -0.38715,0.71726 l -1.02697,1.14108 0.0448,0.32602 1.74016,0 0.0245,-0.30565 -1.38153,0 0.83951,-0.89656 c 0.32603,-0.35048 0.52572,-0.63575 0.52979,-1.01067 l 0,-0.0122 c 0,-0.48904 -0.34232,-0.81098 -0.88434,-0.81098 -0.38715,0 -0.63982,0.10595 -0.80691,0.26082 z"
         id="path4220"
         inkscape:connector-curvature="0" />
      <path
         d="m 437.42599,540.85799 0.4116,0 0,-0.46459 -0.4116,0 0,0.46459 z m 0,-1.82574 0.4116,0 0,-0.46051 -0.4116,0 0,0.46051 z"
         id="path4222"
         inkscape:connector-curvature="0" />
      <path
         d="m 439.75394,539.98995 c 0,0.3627 -0.2649,0.56239 -0.65613,0.56239 -0.30157,0 -0.50941,-0.0978 -0.6602,-0.21599 l -0.1141,0.28934 c 0.11003,0.10596 0.39122,0.22822 0.77838,0.22822 0.57869,0 1.00252,-0.3301 1.00252,-0.85989 0,-0.41975 -0.23229,-0.68872 -0.59499,-0.77023 0.32195,-0.0978 0.52164,-0.3301 0.52164,-0.71317 0,-0.47681 -0.41161,-0.73763 -0.85174,-0.73763 -0.41161,0 -0.6765,0.0897 -0.85581,0.22821 l 0.1141,0.28935 c 0.15894,-0.12634 0.39123,-0.21192 0.66428,-0.21192 0.35047,0 0.54609,0.14671 0.54609,0.47681 0,0.46866 -0.43198,0.52164 -0.88842,0.52164 l 0,0.29342 c 0.55424,0 0.99438,0.0856 0.99438,0.61945 z"
         id="path4224"
         inkscape:connector-curvature="0" />
      <path
         d="m 441.86538,538.2824 0,1.49971 -0.99437,0 0.99437,-1.49971 z m 0.67243,1.78905 0.0285,-0.28934 -0.36678,0 0,-1.94799 -0.37085,0 -1.30817,1.93169 0,0.30564 1.34484,0 0,0.73763 0.33418,0 0,-0.73763 0.33825,0 z"
         id="path4226"
         inkscape:connector-curvature="0" />
    </g>
    <g
       id="g3065"
       transform="matrix(0.19755584,0,0,0.19755584,-36.002494,398.79826)">
      <rect
         style="fill:#b3b3b3;fill-opacity:1;stroke:none"
         id="rect3785"
         width="40"
         height="40"
         x="4.0000019"
         y="5.0000057"
         ry="20" />
      <rect
         ry="20"
         y="4.0000019"
         x="4.0000019"
         height="40"
         width="40"
         id="rect4088"
         style="fill:url(#radialGradient3783);fill-opacity:1;stroke:none" />
      <path
         sodipodi:nodetypes="cccccc"
         inkscape:connector-curvature="0"
         id="path4093"
         d="M 23,34.000004 16,34 l -2,-1.999996 0,-7 9,0 z"
         style="fill:#9b59b6;fill-opacity:1;stroke:none" />
      <path
         inkscape:connector-curvature="0"
         id="path4097"
         d="m 18,19.000004 0,7 2,2 7,0 0,-7 -2,-2 z"
         style="fill:#3498db;fill-opacity:1;stroke:none" />
      <path
         inkscape:connector-curvature="0"
         id="path4100"
         d="m 16,34.000004 -2,-2 0,-7 2,2 z"
         style="fill:#8e44ad;fill-opacity:1;stroke:none" />
      <path
         id="rect4114"
         d="M 23,24 23,29.445312 24.554688,31 30,31 30,25.554688 28.445312,24 23,24 z"
         style="fill:#34495e;fill-opacity:1;stroke:none"
         inkscape:connector-curvature="0" />
      <path
         style="fill:#2980b9;fill-opacity:1;stroke:none"
         d="m 20,28.000004 -2,-2 0,-7 2,2 z"
         id="path4112"
         inkscape:connector-curvature="0" />
      <path
         inkscape:connector-curvature="0"
         id="path4118"
         d="M 24.555556,31.000004 23,29.444448 l 0,-5.444444 1.555556,1.555555 z"
         style="fill:#2c3e50;fill-opacity:1;stroke:none" />
      <path
         id="rect4129"
         d="M 24,17 24,20.888672 25.111328,22 29,22 29,18.111328 27.888672,17 24,17 z"
         style="fill:#2ecc71;fill-opacity:1;stroke:none"
         inkscape:connector-curvature="0" />
      <path
         style="fill:#27ae60;fill-opacity:1;stroke:none"
         d="M 25.111112,22.000004 24,20.888892 l 0,-3.888889 1.111112,1.111111 z"
         id="path4133"
         inkscape:connector-curvature="0" />
      <path
         id="rect4145"
         d="M 27,14 27,19.445312 28.554688,21 34,21 34,15.554688 32.445312,14 27,14 z"
         style="fill:#1abc9c;fill-opacity:1;stroke:none"
         inkscape:connector-curvature="0" />
      <path
         inkscape:connector-curvature="0"
         id="path4149"
         d="M 28.555557,21.000004 27,19.444447 l 0,-5.444444 1.555557,1.555556 z"
         style="fill:#16a085;fill-opacity:1;stroke:none" />
      <path
         id="rect4161"
         d="m 26.75,30.5 0,2.722656 L 27.527344,34 30.25,34 30.25,31.277344 29.472656,30.5 26.75,30.5 z"
         style="fill:#e74c3c;fill-opacity:1;stroke:none"
         inkscape:connector-curvature="0" />
      <path
         style="fill:#c0392b;fill-opacity:1;stroke:none"
         d="M 27.527779,34.000004 26.75,33.222226 l 0,-2.722222 0.777779,0.777778 z"
         id="path4165"
         inkscape:connector-curvature="0" />
      <path
         inkscape:connector-curvature="0"
         id="path4095"
         d="m 17,22.000004 -1,-1 0,-4 4,0 1,1 0,4 z"
         style="fill:#e67e22;fill-opacity:1;stroke:none" />
      <path
         style="fill:#d35400;fill-opacity:1;stroke:none"
         d="M 17.111112,22.000004 16,20.888892 l 0,-3.888889 1.111112,1.111111 z"
         id="path4171"
         inkscape:connector-curvature="0" />
    </g>
  </g>
</svg>
