<?xml version="1.0" encoding="UTF-8" standalone="no"?>
<svg
   xmlns:dc="http://purl.org/dc/elements/1.1/"
   xmlns:cc="http://creativecommons.org/ns#"
   xmlns:rdf="http://www.w3.org/1999/02/22-rdf-syntax-ns#"
   xmlns:svg="http://www.w3.org/2000/svg"
   xmlns="http://www.w3.org/2000/svg"
   xmlns:sodipodi="http://sodipodi.sourceforge.net/DTD/sodipodi-0.dtd"
   xmlns:inkscape="http://www.inkscape.org/namespaces/inkscape"
   viewBox="0 0 48 48"
   id="svg2"
   version="1.1"
   inkscape:version="0.91 r13725"
   sodipodi:docname="distributor-logo-slackware.svg">
  <metadata
     id="metadata93">
    <rdf:RDF>
      <cc:Work
         rdf:about="">
        <dc:format>image/svg+xml</dc:format>
        <dc:type
           rdf:resource="http://purl.org/dc/dcmitype/StillImage" />
        <dc:title></dc:title>
      </cc:Work>
    </rdf:RDF>
  </metadata>
  <sodipodi:namedview
     pagecolor="#ffffff"
     bordercolor="#666666"
     borderopacity="1"
     objecttolerance="10"
     gridtolerance="10"
     guidetolerance="10"
     inkscape:pageopacity="0"
     inkscape:pageshadow="2"
     inkscape:window-width="704"
     inkscape:window-height="480"
     id="namedview91"
     showgrid="false"
     inkscape:zoom="1.2291667"
     inkscape:cx="-0.94434204"
     inkscape:cy="25.823464"
     inkscape:window-x="223"
     inkscape:window-y="173"
     inkscape:window-maximized="0"
     inkscape:current-layer="svg2" />
  <defs
     id="defs4">
    <linearGradient
       id="linearGradient3764"
       x1="1"
       x2="47"
       gradientUnits="userSpaceOnUse"
       gradientTransform="matrix(0,-1,1,0,-1.5e-6,47.999998)">
      <stop
         stop-color="#31446f"
         stop-opacity="1"
         id="stop7" />
      <stop
         offset="1"
         stop-color="#374d7e"
         stop-opacity="1"
         id="stop9" />
    </linearGradient>
    <clipPath
       id="clipPath-714160178">
      <g
         transform="translate(0,-1004.3622)"
         id="g12">
        <path
           d="m -24 13 c 0 1.105 -0.672 2 -1.5 2 -0.828 0 -1.5 -0.895 -1.5 -2 0 -1.105 0.672 -2 1.5 -2 0.828 0 1.5 0.895 1.5 2 z"
           transform="matrix(15.333333,0,0,11.5,414.99999,878.8622)"
           fill="#1890d0"
           id="path14" />
      </g>
    </clipPath>
    <clipPath
       id="clipPath-729006513">
      <g
         transform="translate(0,-1004.3622)"
         id="g17">
        <path
           d="m -24 13 c 0 1.105 -0.672 2 -1.5 2 -0.828 0 -1.5 -0.895 -1.5 -2 0 -1.105 0.672 -2 1.5 -2 0.828 0 1.5 0.895 1.5 2 z"
           transform="matrix(15.333333,0,0,11.5,414.99999,878.8622)"
           fill="#1890d0"
           id="path19" />
      </g>
    </clipPath>
  </defs>
  <g
     id="g21">
    <path
       d="m 36.31 5 c 5.859 4.062 9.688 10.831 9.688 18.5 c 0 12.426 -10.07 22.5 -22.5 22.5 c -7.669 0 -14.438 -3.828 -18.5 -9.688 c 1.037 1.822 2.306 3.499 3.781 4.969 c 4.085 3.712 9.514 5.969 15.469 5.969 c 12.703 0 23 -10.298 23 -23 c 0 -5.954 -2.256 -11.384 -5.969 -15.469 c -1.469 -1.475 -3.147 -2.744 -4.969 -3.781 z m 4.969 3.781 c 3.854 4.113 6.219 9.637 6.219 15.719 c 0 12.703 -10.297 23 -23 23 c -6.081 0 -11.606 -2.364 -15.719 -6.219 c 4.16 4.144 9.883 6.719 16.219 6.719 c 12.703 0 23 -10.298 23 -23 c 0 -6.335 -2.575 -12.06 -6.719 -16.219 z"
       opacity="0.05"
       id="path23" />
    <path
       d="m 41.28 8.781 c 3.712 4.085 5.969 9.514 5.969 15.469 c 0 12.703 -10.297 23 -23 23 c -5.954 0 -11.384 -2.256 -15.469 -5.969 c 4.113 3.854 9.637 6.219 15.719 6.219 c 12.703 0 23 -10.298 23 -23 c 0 -6.081 -2.364 -11.606 -6.219 -15.719 z"
       opacity="0.1"
       id="path25" />
    <path
       d="m 31.25 2.375 c 8.615 3.154 14.75 11.417 14.75 21.13 c 0 12.426 -10.07 22.5 -22.5 22.5 c -9.708 0 -17.971 -6.135 -21.12 -14.75 a 23 23 0 0 0 44.875 -7 a 23 23 0 0 0 -16 -21.875 z"
       opacity="0.2"
       id="path27" />
  </g>
  <g
     id="g29">
    <path
       d="m 24 1 c 12.703 0 23 10.297 23 23 c 0 12.703 -10.297 23 -23 23 -12.703 0 -23 -10.297 -23 -23 0 -12.703 10.297 -23 23 -23 z"
       fill="url(#linearGradient3764)"
       fill-opacity="1"
       id="path31" />
  </g>
  <g
     id="g33" />
  <g
     id="g87">
    <path
       d="m 40.03 7.531 c 3.712 4.084 5.969 9.514 5.969 15.469 0 12.703 -10.297 23 -23 23 c -5.954 0 -11.384 -2.256 -15.469 -5.969 4.178 4.291 10.01 6.969 16.469 6.969 c 12.703 0 23 -10.298 23 -23 0 -6.462 -2.677 -12.291 -6.969 -16.469 z"
       opacity="0.1"
       id="path89" />
  </g>
  <g
     style="font-style:normal;font-variant:normal;font-weight:normal;font-stretch:normal;font-size:62.26086807px;line-height:125%;font-family:'方正超粗黑_GBK';-inkscape-font-specification:'方正超粗黑_GBK';letter-spacing:0px;word-spacing:0px;fill:#333333;fill-opacity:1;stroke:none"
     id="text3149"
     transform="matrix(0.82251888,0,0,0.82251888,2.3549542,2.0326098)">
    <path
       inkscape:connector-curvature="0"
       d="m 15.013863,44.781294 1.645276,0 c 0.31338,-0.626771 0.705112,-0.940157 1.175199,-0.940159 0.313378,2e-6 1.018496,0.156695 2.115357,0.47008 3.447234,0.783465 6.18936,1.175198 8.226386,1.175198 7.991321,-0.313386 12.300376,-3.917323 12.927179,-10.811823 -3.1e-5,-2.820461 -1.175227,-5.484241 -3.525595,-7.991346 -1.880341,-1.880297 -5.014201,-3.917305 -9.401584,-6.111031 -4.857499,-2.663755 -7.286238,-5.014149 -7.286228,-7.051188 0.313375,-2.663748 2.272037,-4.0739844 5.875991,-4.2307131 4.857463,0.1567287 8.148015,2.8205081 9.871663,7.9913471 l 2.350396,0 -1.175197,-9.6366244 -1.175199,0 C 36.324095,7.8017649 36.245748,7.8801113 36.402468,7.8800742 35.932363,8.1934971 35.54063,8.3501901 35.227269,8.3501534 35.070552,8.3501901 34.522126,8.1934971 33.581993,7.8800742 30.761496,7.0966467 28.25441,6.7049144 26.060724,6.7048761 18.382755,7.1749932 14.30874,10.465545 13.838664,16.57654 c 0.940154,5.797667 4.465745,9.71499 10.576783,11.751981 5.170853,2.037024 8.069672,4.935843 8.696467,8.696465 -0.313409,3.760639 -2.585457,5.7193 -6.816149,5.875991 -5.014191,3e-6 -8.461435,-2.977163 -10.341744,-8.931505 l -2.350396,0 1.410238,10.811822"
       style="font-weight:bold;font-family:'刘德华字体叶根友仿版';-inkscape-font-specification:'刘德华字体叶根友仿版 Bold';fill:#333333"
       id="path2998" />
  </g>
  <g
     style="font-style:normal;font-variant:normal;font-weight:normal;font-stretch:normal;font-size:62.26086807px;line-height:125%;font-family:'方正超粗黑_GBK';-inkscape-font-specification:'方正超粗黑_GBK';letter-spacing:0px;word-spacing:0px;fill:#f2f2f2;fill-opacity:1;stroke:none"
     id="text3145"
     transform="matrix(0.82251888,0,0,0.82251888,2.3549542,2.0326098)">
    <path
       inkscape:connector-curvature="0"
       d="m 14.047443,43.814874 1.645277,0 c 0.31338,-0.626771 0.705111,-0.940157 1.175198,-0.940159 0.313378,2e-6 1.018496,0.156695 2.115357,0.47008 3.447234,0.783466 6.18936,1.175198 8.226386,1.175198 7.991321,-0.313386 12.300377,-3.917323 12.927179,-10.811823 -3.1e-5,-2.820461 -1.175227,-5.484241 -3.525594,-7.991346 -1.880342,-1.880297 -5.014201,-3.917305 -9.401585,-6.111031 -4.857498,-2.663754 -7.286238,-5.014149 -7.286228,-7.051188 0.313376,-2.6637481 2.272037,-4.0739843 5.875991,-4.230713 4.857463,0.1567287 8.148015,2.820508 9.871663,7.991347 l 2.350396,0 -1.175197,-9.6366243 -1.175199,0 C 35.357675,6.835345 35.279329,6.9136914 35.436048,6.9136543 34.965943,7.2270772 34.57421,7.3837702 34.26085,7.3837335 34.104132,7.3837702 33.555706,7.2270772 32.615573,6.9136543 29.795076,6.1302268 27.28799,5.7384945 25.094305,5.7384562 17.416335,6.2085733 13.34232,9.4991246 12.872244,15.610121 c 0.940154,5.797666 4.465745,9.714989 10.576783,11.75198 5.170853,2.037024 8.069672,4.935843 8.696467,8.696465 -0.313409,3.760639 -2.585457,5.7193 -6.816149,5.875991 -5.014191,3e-6 -8.461435,-2.977163 -10.341744,-8.931505 l -2.350396,0 1.410238,10.811822"
       style="font-weight:bold;font-family:'刘德华字体叶根友仿版';-inkscape-font-specification:'刘德华字体叶根友仿版 Bold';fill:#f2f2f2"
       id="path3001" />
  </g>
</svg>
