<?xml version="1.0" encoding="UTF-8" standalone="no"?>
<!-- Created using Karbon, part of Calligra: http://www.calligra.org/karbon -->

<svg
   xmlns:dc="http://purl.org/dc/elements/1.1/"
   xmlns:cc="http://creativecommons.org/ns#"
   xmlns:rdf="http://www.w3.org/1999/02/22-rdf-syntax-ns#"
   xmlns:svg="http://www.w3.org/2000/svg"
   xmlns="http://www.w3.org/2000/svg"
   xmlns:sodipodi="http://sodipodi.sourceforge.net/DTD/sodipodi-0.dtd"
   xmlns:inkscape="http://www.inkscape.org/namespaces/inkscape"
   width="48.000004"
   height="48.000004"
   id="svg2"
   version="1.1"
   inkscape:version="0.48.4 r9939"
   sodipodi:docname="lightworks.svg">
  <metadata
     id="metadata12">
    <rdf:RDF>
      <cc:Work
         rdf:about="">
        <dc:format>image/svg+xml</dc:format>
        <dc:type
           rdf:resource="http://purl.org/dc/dcmitype/StillImage" />
        <dc:title></dc:title>
      </cc:Work>
    </rdf:RDF>
  </metadata>
  <sodipodi:namedview
     pagecolor="#ffffff"
     bordercolor="#666666"
     borderopacity="1"
     objecttolerance="10"
     gridtolerance="10"
     guidetolerance="10"
     inkscape:pageopacity="0"
     inkscape:pageshadow="2"
     inkscape:window-width="1871"
     inkscape:window-height="1056"
     id="namedview10"
     showgrid="false"
     inkscape:zoom="6.9532161"
     inkscape:cx="23.877504"
     inkscape:cy="19.285045"
     inkscape:window-x="49"
     inkscape:window-y="24"
     inkscape:window-maximized="1"
     inkscape:current-layer="svg2"
     inkscape:showpageshadow="false"
     borderlayer="true"
     units="px">
    <sodipodi:guide
       position="1.9073486e-06,48.000002"
       orientation="47.999998,0"
       id="guide4062" />
    <sodipodi:guide
       position="1.9073486e-06,3.8146973e-06"
       orientation="0,47.999998"
       id="guide4064" />
    <sodipodi:guide
       position="48,3.8146973e-06"
       orientation="-47.999998,0"
       id="guide4066" />
    <sodipodi:guide
       position="48,48.000002"
       orientation="0,-47.999998"
       id="guide4068" />
    <sodipodi:guide
       position="4.0000019,44.000002"
       orientation="39.999998,0"
       id="guide4072" />
    <sodipodi:guide
       position="4.0000019,4.0000038"
       orientation="0,39.999998"
       id="guide4074" />
    <sodipodi:guide
       position="44,4.0000038"
       orientation="-39.999998,0"
       id="guide4076" />
    <sodipodi:guide
       position="44,44.000002"
       orientation="0,-39.999998"
       id="guide4078" />
    <sodipodi:guide
       position="15.000002,33.000002"
       orientation="17.999998,0"
       id="guide4080" />
    <sodipodi:guide
       position="15.000002,15.000004"
       orientation="0,17.999998"
       id="guide4082" />
    <sodipodi:guide
       position="33,15.000004"
       orientation="-17.999998,0"
       id="guide4084" />
    <sodipodi:guide
       position="33,33.000002"
       orientation="0,-17.999998"
       id="guide4086" />
  </sodipodi:namedview>
  <defs
     id="defs4">
    <linearGradient
       id="linearGradient3790">
      <stop
         style="stop-color:#648996;stop-opacity:1;"
         offset="0"
         id="stop3792" />
      <stop
         style="stop-color:#87a6b0;stop-opacity:1;"
         offset="1"
         id="stop3794" />
    </linearGradient>
    <linearGradient
       id="linearGradient3782">
      <stop
         style="stop-color:#58808e;stop-opacity:1;"
         offset="0"
         id="stop3784" />
      <stop
         style="stop-color:#739aa7;stop-opacity:1;"
         offset="1"
         id="stop3786" />
    </linearGradient>
    <linearGradient
       id="linearGradient3774">
      <stop
         style="stop-color:#2c3e50;stop-opacity:1;"
         offset="0"
         id="stop3776" />
      <stop
         style="stop-color:#53677c;stop-opacity:1;"
         offset="1"
         id="stop3778" />
    </linearGradient>
  </defs>
  <path
     inkscape:connector-curvature="0"
     style="fill:#373e48;fill-opacity:1;stroke:none"
     d="m 4.0000019,4.0000019 0,40.0000001 40.0000001,0 0,-40.0000001 -40.0000001,0 z m 3,3 3.0000001,0 0,3.0000001 -3.0000001,0 0,-3.0000001 z m 31.0000001,0 3,0 0,3.0000001 -3,0 0,-3.0000001 z m -31.0000001,7.5000001 3.0000001,0 0,3 -3.0000001,0 0,-3 z m 31.0000001,0 3,0 0,3 -3,0 0,-3 z m -31.0000001,8 3.0000001,0 0,3 -3.0000001,0 0,-3 z m 31.0000001,0 3,0 0,3 -3,0 0,-3 z m -31.0000001,8 3.0000001,0 0,3 -3.0000001,0 0,-3 z m 31.0000001,0 3,0 0,3 -3,0 0,-3 z m -31.0000001,7.5 3.0000001,0 0,3 -3.0000001,0 0,-3 z m 31.0000001,0 3,0 0,3 -3,0 0,-3 z"
     id="rect4197-0" />
  <rect
     style="fill:#6f8a91;fill-opacity:1;stroke:none"
     id="rect4323-0"
     width="21.99999"
     height="15.499998"
     x="13.000008"
     y="7.0000038" />
  <rect
     style="fill:#6f8a91;fill-opacity:1;stroke:none"
     id="rect4325-1"
     width="21.99999"
     height="15.5"
     x="13.000008"
     y="25.500002" />
  <path
     style="opacity:0.35;fill:#000000;fill-opacity:1;stroke:none"
     d="M 4.0000049,43.9997 44,44 C 24.000003,43 24.000003,43 4.0000035,44 z"
     id="path3800"
     inkscape:connector-curvature="0"
     sodipodi:nodetypes="cccc" />
  <path
     sodipodi:nodetypes="cccc"
     inkscape:connector-curvature="0"
     id="path3804"
     d="M 4.0000084,3.9999004 44,3.9997004 c -19.999993,1 -19.999993,1 -39.999993,0 z"
     style="opacity:0.75;fill:#ffffff;fill-opacity:1;stroke:none" />
  <path
     style="opacity:0.51999996;fill:#ffffff;fill-opacity:0.31372549;fill-rule:evenodd;stroke:#b1e7be;stroke-width:0.07190917;stroke-opacity:1"
     d="m 7.0123863,8.5055831 0,-1.4741379 1.4741379,0 1.4741379,0 0,1.4741379 0,1.4741379 -1.4741379,0 -1.4741379,0 0,-1.4741379 z"
     id="path3016"
     inkscape:connector-curvature="0" />
  <path
     style="opacity:0.51999996;fill:#ffffff;fill-opacity:0.31372549;fill-rule:evenodd;stroke:#b1e7be;stroke-width:0.07190917;stroke-opacity:1"
     d="m 7.0123863,15.984137 0,-1.474138 1.4741379,0 1.4741379,0 0,1.474138 0,1.474137 -1.4741379,0 -1.4741379,0 0,-1.474137 z"
     id="path3018"
     inkscape:connector-curvature="0" />
  <path
     style="opacity:0.51999996000000004;fill:#ffffff;fill-opacity:1;fill-rule:evenodd;stroke:#b1e7be;stroke-width:0.07190916999999999;stroke-opacity:1"
     d="m 7.0123863,24.002009 0,-1.438184 1.4741379,0 1.4741379,0 0,1.438184 0,1.438183 -1.4741379,0 -1.4741379,0 0,-1.438183 z"
     id="path3020"
     inkscape:connector-curvature="0" />
  <path
     style="opacity:0.51999996000000004;fill:#ffffff;fill-opacity:1;fill-rule:evenodd;stroke:#b1e7be;stroke-width:0.07190916999999999;stroke-opacity:1"
     d="m 7.0123863,32.019881 0,-1.474138 1.4741379,0 1.4741379,0 0,1.474138 0,1.474138 -1.4741379,0 -1.4741379,0 0,-1.474138 z"
     id="path3022"
     inkscape:connector-curvature="0" />
  <path
     style="opacity:0.51999996000000004;fill:#ffffff;fill-opacity:1;fill-rule:evenodd;stroke:#b1e7be;stroke-width:0.07190916999999999;stroke-opacity:1"
     d="m 7.0123863,39.498434 0,-1.474138 1.4741379,0 1.4741379,0 0,1.474138 0,1.474138 -1.4741379,0 -1.4741379,0 0,-1.474138 z"
     id="path3024"
     inkscape:connector-curvature="0" />
  <path
     style="opacity:0.51999996000000004;fill:#ffffff;fill-opacity:1;fill-rule:evenodd;stroke:#b1e7be;stroke-width:0.07190916999999999;stroke-opacity:1"
     d="m 38.005237,39.498434 0,-1.474138 1.474138,0 1.474138,0 0,1.474138 0,1.474138 -1.474138,0 -1.474138,0 0,-1.474138 z"
     id="path3026"
     inkscape:connector-curvature="0" />
  <path
     style="opacity:0.51999996000000004;fill:#ffffff;fill-opacity:1;fill-rule:evenodd;stroke:#b1e7be;stroke-width:0.07190916999999999;stroke-opacity:1"
     d="m 38.005237,32.019881 0,-1.474138 1.474138,0 1.474138,0 0,1.474138 0,1.474138 -1.474138,0 -1.474138,0 0,-1.474138 z"
     id="path3028"
     inkscape:connector-curvature="0" />
  <path
     style="opacity:0.51999996000000004;fill:#ffffff;fill-opacity:1;fill-rule:evenodd;stroke:#b1e7be;stroke-width:0.07190916999999999;stroke-opacity:1"
     d="m 38.005237,24.002009 0,-1.438184 1.474138,0 1.474138,0 0,1.438184 0,1.438183 -1.474138,0 -1.474138,0 0,-1.438183 z"
     id="path3030"
     inkscape:connector-curvature="0" />
  <path
     style="opacity:0.51999996000000004;fill:#ffffff;fill-opacity:1;fill-rule:evenodd;stroke:#b1e7be;stroke-width:0.07190916999999999;stroke-opacity:1"
     d="m 38.005237,15.984137 0,-1.474138 1.474138,0 1.474138,0 0,1.474138 0,1.474137 -1.474138,0 -1.474138,0 0,-1.474137 z"
     id="path3032"
     inkscape:connector-curvature="0" />
  <path
     style="opacity:0.51999996000000004;fill:#ffffff;fill-opacity:1;fill-rule:evenodd;stroke:#b1e7be;stroke-width:0.07190916999999999;stroke-opacity:1"
     d="m 38.011251,8.4910748 0,-1.4381833 1.474138,0 1.474138,0 0,1.4381833 0,1.4381834 -1.474138,0 -1.474138,0 0,-1.4381834 z"
     id="path3817"
     inkscape:connector-curvature="0" />
  <path
     style="opacity:0.51999996;fill:#ffffff;fill-opacity:1;fill-rule:evenodd;stroke:#b1e7be;stroke-width:0.07190917;stroke-opacity:1"
     d="m 7.0903095,8.5270294 0,-1.4022287 1.4022288,0 1.4022287,0 0,1.4022287 0,1.4022288 -1.4022287,0 -1.4022288,0 0,-1.4022288 z"
     id="path3819"
     inkscape:connector-curvature="0" />
  <path
     style="opacity:0.51999996;fill:#ffffff;fill-opacity:1;fill-rule:evenodd;stroke:#b1e7be;stroke-width:0.07190917;stroke-opacity:1"
     d="m 7.0903095,16.005583 0,-1.402229 1.4022288,0 1.4022287,0 0,1.402229 0,1.402229 -1.4022287,0 -1.4022288,0 0,-1.402229 z"
     id="path3821"
     inkscape:connector-curvature="0" />
  <path
     style="opacity:0.51999996;fill:#ffffff;fill-opacity:1;fill-rule:evenodd;stroke:#b1e7be;stroke-width:0.07190917;stroke-opacity:1"
     d="m 7.0903095,24.023455 0,-1.366274 1.4022288,0 1.4022287,0 0,1.366274 0,1.366274 -1.4022287,0 -1.4022288,0 0,-1.366274 z"
     id="path3823"
     inkscape:connector-curvature="0" />
  <path
     style="opacity:0.51999996;fill:#ffffff;fill-opacity:1;fill-rule:evenodd;stroke:#b1e7be;stroke-width:0.07190917;stroke-opacity:1"
     d="m 7.0903095,32.041327 0,-1.402229 1.4022288,0 1.4022287,0 0,1.402229 0,1.402229 -1.4022287,0 -1.4022288,0 0,-1.402229 z"
     id="path3825"
     inkscape:connector-curvature="0" />
  <path
     style="opacity:0.51999996;fill:#ffffff;fill-opacity:1;fill-rule:evenodd;stroke:#b1e7be;stroke-width:0.07190917;stroke-opacity:1"
     d="m 7.0903095,39.51988 0,-1.402228 1.4022288,0 1.4022287,0 0,1.402228 0,1.402229 -1.4022287,0 -1.4022288,0 0,-1.402229 z"
     id="path3827"
     inkscape:connector-curvature="0" />
  <path
     style="opacity:0.51999996;fill:#ffffff;fill-opacity:1;fill-rule:evenodd;stroke:#b1e7be;stroke-width:0.07190917;stroke-opacity:1"
     d="m 38.083161,39.51988 0,-1.402228 1.402228,0 1.402229,0 0,1.402228 0,1.402229 -1.402229,0 -1.402228,0 0,-1.402229 z"
     id="path3829"
     inkscape:connector-curvature="0" />
  <path
     style="opacity:0.51999996;fill:#ffffff;fill-opacity:1;fill-rule:evenodd;stroke:#b1e7be;stroke-width:0.07190917;stroke-opacity:1"
     d="m 38.083161,32.041327 0,-1.402229 1.402228,0 1.402229,0 0,1.402229 0,1.402229 -1.402229,0 -1.402228,0 0,-1.402229 z"
     id="path3831"
     inkscape:connector-curvature="0" />
  <path
     style="opacity:0.51999996;fill:#ffffff;fill-opacity:1;fill-rule:evenodd;stroke:#b1e7be;stroke-width:0.07190917;stroke-opacity:1"
     d="m 38.083161,24.023455 0,-1.366274 1.402228,0 1.402229,0 0,1.366274 0,1.366274 -1.402229,0 -1.402228,0 0,-1.366274 z"
     id="path3833"
     inkscape:connector-curvature="0" />
  <path
     style="opacity:0.51999996;fill:#ffffff;fill-opacity:1;fill-rule:evenodd;stroke:#b1e7be;stroke-width:0.07190917;stroke-opacity:1"
     d="m 38.083161,16.005583 0,-1.402229 1.402228,0 1.402229,0 0,1.402229 0,1.402229 -1.402229,0 -1.402228,0 0,-1.402229 z"
     id="path3835"
     inkscape:connector-curvature="0" />
  <path
     style="opacity:0.51999996000000004;fill:#ffffff;fill-opacity:1;fill-rule:evenodd;stroke:#b1e7be;stroke-width:0.07190916999999999;stroke-opacity:1"
     d="m 38.083161,8.4910748 0,-1.3662741 1.402228,0 1.402229,0 0,1.3662741 0,1.3662742 -1.402229,0 -1.402228,0 0,-1.3662742 z"
     id="path3837"
     inkscape:connector-curvature="0" />
  <path
     style="opacity:0.51999996;fill:#ffffff;fill-opacity:1;fill-rule:evenodd;stroke:#b1e7be;stroke-width:0.07190917;stroke-opacity:1"
     d="m 7.1622187,8.5270294 0,-1.3303196 1.3303196,0 1.3303195,0 0,1.3303196 0,1.3303196 -1.3303195,0 -1.3303196,0 0,-1.3303196 z"
     id="path3839"
     inkscape:connector-curvature="0" />
  <path
     style="opacity:0.51999996;fill:#ffffff;fill-opacity:1;fill-rule:evenodd;stroke:#b1e7be;stroke-width:0.07190917;stroke-opacity:1"
     d="m 38.15507,8.4910748 0,-1.294365 1.330319,0 1.33032,0 0,1.294365 0,1.2943651 -1.33032,0 -1.330319,0 0,-1.2943651 z"
     id="path3841"
     inkscape:connector-curvature="0" />
  <path
     style="opacity:0.51999996;fill:#ffffff;fill-opacity:1;fill-rule:evenodd;stroke:#b1e7be;stroke-width:0.07190917;stroke-opacity:1"
     d="m 38.15507,16.005583 0,-1.33032 1.330319,0 1.33032,0 0,1.33032 0,1.330319 -1.33032,0 -1.330319,0 0,-1.330319 z"
     id="path3843"
     inkscape:connector-curvature="0" />
  <path
     style="opacity:0.51999996;fill:#ffffff;fill-opacity:1;fill-rule:evenodd;stroke:#b1e7be;stroke-width:0.07190917;stroke-opacity:1"
     d="m 7.1622187,16.005583 0,-1.33032 1.3303196,0 1.3303195,0 0,1.33032 0,1.330319 -1.3303195,0 -1.3303196,0 0,-1.330319 z"
     id="path3845"
     inkscape:connector-curvature="0" />
  <path
     style="opacity:0.51999996;fill:#ffffff;fill-opacity:1;fill-rule:evenodd;stroke:#b1e7be;stroke-width:0.07190917;stroke-opacity:1"
     d="m 7.1622187,24.023455 0,-1.294365 1.3303196,0 1.3303195,0 0,1.294365 0,1.294365 -1.3303195,0 -1.3303196,0 0,-1.294365 z"
     id="path3847"
     inkscape:connector-curvature="0" />
  <path
     style="opacity:0.51999996;fill:#ffffff;fill-opacity:1;fill-rule:evenodd;stroke:#b1e7be;stroke-width:0.07190917;stroke-opacity:1"
     d="m 38.15507,24.023455 0,-1.294365 1.330319,0 1.33032,0 0,1.294365 0,1.294365 -1.33032,0 -1.330319,0 0,-1.294365 z"
     id="path3849"
     inkscape:connector-curvature="0" />
  <path
     style="opacity:0.51999996;fill:#ffffff;fill-opacity:1;fill-rule:evenodd;stroke:#b1e7be;stroke-width:0.07190917;stroke-opacity:1"
     d="m 38.15507,32.041327 0,-1.33032 1.330319,0 1.33032,0 0,1.33032 0,1.33032 -1.33032,0 -1.330319,0 0,-1.33032 z"
     id="path3851"
     inkscape:connector-curvature="0" />
  <path
     style="opacity:0.51999996;fill:#ffffff;fill-opacity:1;fill-rule:evenodd;stroke:#b1e7be;stroke-width:0.07190917;stroke-opacity:1"
     d="m 7.1622187,32.041327 0,-1.33032 1.3303196,0 1.3303195,0 0,1.33032 0,1.33032 -1.3303195,0 -1.3303196,0 0,-1.33032 z"
     id="path3853"
     inkscape:connector-curvature="0" />
  <path
     style="opacity:0.51999996;fill:#ffffff;fill-opacity:1;fill-rule:evenodd;stroke:#b1e7be;stroke-width:0.07190917;stroke-opacity:1"
     d="m 7.1622187,39.51988 0,-1.330319 1.3303196,0 1.3303195,0 0,1.330319 0,1.33032 -1.3303195,0 -1.3303196,0 0,-1.33032 z"
     id="path3855"
     inkscape:connector-curvature="0" />
  <path
     style="opacity:0.51999996;fill:#ffffff;fill-opacity:1;fill-rule:evenodd;stroke:#b1e7be;stroke-width:0.07190917;stroke-opacity:1"
     d="m 38.15507,39.51988 0,-1.330319 1.330319,0 1.33032,0 0,1.330319 0,1.33032 -1.33032,0 -1.330319,0 0,-1.33032 z"
     id="path3857"
     inkscape:connector-curvature="0" />
  <path
     style="fill:#ecf0f1;fill-opacity:1;stroke:none"
     d="m 37.336114,12.919729 c 0,0 -6.020071,0.936006 -11.858136,4.455224 1.054711,0.86071 1.98249,1.914895 2.705582,3.167328 0.216468,0.374931 0.403904,0.75612 0.574064,1.143133 -1.171682,-1.59703 -2.699068,-2.804731 -4.400315,-3.599122 -0.66128,0.441096 -1.312402,0.921343 -1.949316,1.435156 0.235507,0.324852 0.458698,0.66539 0.663915,1.020833 0.216467,0.374931 0.403903,0.75612 0.574062,1.143133 -0.491014,-0.669263 -1.050834,-1.264037 -1.652301,-1.797065 -4.054245,3.421228 -7.335521,8.410192 -7.335521,15.709346 0,0 4.735909,-6.829245 12.844025,-9.364707 -2.555282,-0.777569 -5.371945,-0.670947 -7.959502,0.466737 0.34087,-0.250083 0.693326,-0.487384 1.068255,-0.703849 3.102166,-1.791037 6.674174,-1.982898 9.77404,-0.826151 6.597252,-3.322982 6.951148,-12.249996 6.951148,-12.249996 z"
     id="path4201"
     inkscape:connector-curvature="0" />
</svg>
