<?xml version="1.0" encoding="UTF-8" standalone="no"?>
<!-- Created with Inkscape (http://www.inkscape.org/) -->

<svg
   xmlns:dc="http://purl.org/dc/elements/1.1/"
   xmlns:cc="http://creativecommons.org/ns#"
   xmlns:rdf="http://www.w3.org/1999/02/22-rdf-syntax-ns#"
   xmlns:svg="http://www.w3.org/2000/svg"
   xmlns="http://www.w3.org/2000/svg"
   xmlns:xlink="http://www.w3.org/1999/xlink"
   xmlns:sodipodi="http://sodipodi.sourceforge.net/DTD/sodipodi-0.dtd"
   xmlns:inkscape="http://www.inkscape.org/namespaces/inkscape"
   width="48px"
   height="48px"
   id="svg3057"
   version="1.1"
   inkscape:version="0.48.4 r9939"
   sodipodi:docname="frozenbubble.svg">
  <defs
     id="defs3059">
    <linearGradient
       inkscape:collect="always"
       id="linearGradient3826">
      <stop
         style="stop-color:#000000;stop-opacity:1;"
         offset="0"
         id="stop3828" />
      <stop
         style="stop-color:#000000;stop-opacity:0;"
         offset="1"
         id="stop3830" />
    </linearGradient>
    <linearGradient
       id="linearGradient3816">
      <stop
         style="stop-color:#000000;stop-opacity:1;"
         offset="0"
         id="stop3818" />
      <stop
         style="stop-color:#ffffff;stop-opacity:0;"
         offset="1"
         id="stop3820" />
    </linearGradient>
    <linearGradient
       id="linearGradient4030">
      <stop
         style="stop-color:#000000;stop-opacity:0;"
         offset="0"
         id="stop4032" />
      <stop
         style="stop-color:#c2c2c2;stop-opacity:0.39215687;"
         offset="1"
         id="stop4034" />
    </linearGradient>
    <linearGradient
       inkscape:collect="always"
       id="linearGradient4000">
      <stop
         style="stop-color:#000000;stop-opacity:1;"
         offset="0"
         id="stop4002" />
      <stop
         style="stop-color:#000000;stop-opacity:0;"
         offset="1"
         id="stop4004" />
    </linearGradient>
    <linearGradient
       id="linearGradient3988">
      <stop
         style="stop-color:#c8d1e9;stop-opacity:1;"
         offset="0"
         id="stop3990" />
      <stop
         style="stop-color:#ffffff;stop-opacity:1;"
         offset="1"
         id="stop3992" />
    </linearGradient>
    <linearGradient
       id="linearGradient3982">
      <stop
         style="stop-color:#2a2a2a;stop-opacity:1;"
         offset="0"
         id="stop3984" />
      <stop
         style="stop-color:#a9a9a9;stop-opacity:1;"
         offset="1"
         id="stop3986" />
    </linearGradient>
    <linearGradient
       inkscape:collect="always"
       xlink:href="#linearGradient5109"
       id="linearGradient3784"
       gradientUnits="userSpaceOnUse"
       gradientTransform="matrix(-1,0,0,0.76825749,356.08886,-433.0247)"
       x1="303.67419"
       y1="578.02942"
       x2="304.45044"
       y2="578.02942" />
    <linearGradient
       inkscape:collect="always"
       id="linearGradient5109">
      <stop
         style="stop-color:#000000;stop-opacity:1;"
         offset="0"
         id="stop5111" />
      <stop
         style="stop-color:#000000;stop-opacity:0;"
         offset="1"
         id="stop5113" />
    </linearGradient>
    <linearGradient
       inkscape:collect="always"
       xlink:href="#linearGradient4372"
       id="linearGradient4370"
       x1="32.466564"
       y1="33.972328"
       x2="32.466564"
       y2="14.033621"
       gradientUnits="userSpaceOnUse"
       gradientTransform="matrix(0.94339624,0,0,0.94339624,0.6896756,10.687172)" />
    <linearGradient
       id="linearGradient4372">
      <stop
         style="stop-color:#f9cebf;stop-opacity:1"
         offset="0"
         id="stop4374" />
      <stop
         style="stop-color:#fef8f6;stop-opacity:1"
         offset="1"
         id="stop4376" />
    </linearGradient>
    <linearGradient
       inkscape:collect="always"
       xlink:href="#linearGradient5336"
       id="linearGradient3770"
       gradientUnits="userSpaceOnUse"
       gradientTransform="matrix(2,0,0,1.585687,-765.3463,36.093896)"
       x1="402.19681"
       y1="617.76288"
       x2="408.92279"
       y2="611.01929" />
    <linearGradient
       inkscape:collect="always"
       id="linearGradient5336">
      <stop
         style="stop-color:#292929;stop-opacity:1"
         offset="0"
         id="stop5338" />
      <stop
         style="stop-color:#878787;stop-opacity:1"
         offset="1"
         id="stop5340" />
    </linearGradient>
    <linearGradient
       inkscape:collect="always"
       xlink:href="#linearGradient5142"
       id="linearGradient3774"
       gradientUnits="userSpaceOnUse"
       gradientTransform="matrix(1.166732,0,0,-1.2359678,-453.08338,769.61853)"
       x1="408.9805"
       y1="617.83386"
       x2="408.9805"
       y2="621.19397" />
    <linearGradient
       id="linearGradient5142"
       inkscape:collect="always">
      <stop
         id="stop5144"
         offset="0"
         style="stop-color:#292929;stop-opacity:1" />
      <stop
         id="stop5146"
         offset="1"
         style="stop-color:#696969;stop-opacity:1" />
    </linearGradient>
    <linearGradient
       inkscape:collect="always"
       xlink:href="#linearGradient5336"
       id="linearGradient3772"
       gradientUnits="userSpaceOnUse"
       gradientTransform="matrix(1.5346585,0,0,1.216744,-602.46494,-739.26239)"
       x1="402.19681"
       y1="617.76288"
       x2="408.92279"
       y2="611.01929" />
    <linearGradient
       y2="611.01929"
       x2="408.92279"
       y1="617.76288"
       x1="402.19681"
       gradientTransform="matrix(1.5346581,0,0,1.216744,-588.65314,-739.26236)"
       gradientUnits="userSpaceOnUse"
       id="linearGradient3141"
       xlink:href="#linearGradient5336"
       inkscape:collect="always" />
    <linearGradient
       inkscape:collect="always"
       xlink:href="#linearGradient3982"
       id="linearGradient3962"
       x1="16"
       y1="4"
       x2="32"
       y2="4"
       gradientUnits="userSpaceOnUse"
       spreadMethod="repeat"
       gradientTransform="matrix(1.1509939,0,0,1.1509939,-3.71456,-1.3340445)" />
    <linearGradient
       inkscape:collect="always"
       xlink:href="#linearGradient3988"
       id="linearGradient3994"
       x1="5"
       y1="28.00198"
       x2="43"
       y2="28"
       gradientUnits="userSpaceOnUse"
       gradientTransform="matrix(1.1509939,0,0,1.1509939,-3.71456,-2.489596)" />
    <linearGradient
       inkscape:collect="always"
       xlink:href="#linearGradient4000"
       id="linearGradient4006"
       x1="16"
       y1="27.982143"
       x2="31.291148"
       y2="27.982143"
       gradientUnits="userSpaceOnUse" />
    <linearGradient
       gradientUnits="userSpaceOnUse"
       y2="1043.8302"
       x2="34.586391"
       y1="1012.8942"
       x1="34.586391"
       id="linearGradient4171"
       xlink:href="#linearGradient4167"
       inkscape:collect="always"
       gradientTransform="matrix(0.57839777,0,0,-0.57839777,9.9603873,624.17099)" />
    <linearGradient
       id="linearGradient4167">
      <stop
         id="stop4169"
         offset="0"
         style="stop-color:#2f333f;stop-opacity:1;" />
      <stop
         id="stop4171"
         offset="1"
         style="stop-color:#929298;stop-opacity:1;" />
    </linearGradient>
    <linearGradient
       inkscape:collect="always"
       xlink:href="#linearGradient3816"
       id="linearGradient3822"
       x1="16.25"
       y1="31.545134"
       x2="31.781136"
       y2="31.545134"
       gradientUnits="userSpaceOnUse"
       gradientTransform="matrix(1.1509939,0,0,1.1509939,-3.71456,-2.489596)" />
    <linearGradient
       inkscape:collect="always"
       xlink:href="#linearGradient3826"
       id="linearGradient3832"
       x1="23"
       y1="29"
       x2="20"
       y2="24"
       gradientUnits="userSpaceOnUse"
       gradientTransform="matrix(1.1509939,0,0,1.1509939,-3.71456,-2.489596)" />
    <linearGradient
       gradientTransform="matrix(1.4285711,0,0,1.4285711,-163.67328,-235.91309)"
       inkscape:collect="always"
       xlink:href="#linearGradient4435"
       id="linearGradient4274"
       x1="400.57138"
       y1="545.79797"
       x2="400.57138"
       y2="517.79797"
       gradientUnits="userSpaceOnUse" />
    <linearGradient
       id="linearGradient4435">
      <stop
         id="stop4437"
         offset="0"
         style="stop-color:#8735d1;stop-opacity:1;" />
      <stop
         id="stop4439"
         offset="1"
         style="stop-color:#60d1d6;stop-opacity:1;" />
    </linearGradient>
    <linearGradient
       y2="517.79797"
       x2="400.57138"
       y1="545.79797"
       x1="400.57138"
       gradientTransform="matrix(1.4285711,0,0,1.4285711,-547.89116,-735.71109)"
       gradientUnits="userSpaceOnUse"
       id="linearGradient3043"
       xlink:href="#linearGradient4435"
       inkscape:collect="always" />
  </defs>
  <sodipodi:namedview
     id="base"
     pagecolor="#ffffff"
     bordercolor="#666666"
     borderopacity="1.0"
     inkscape:pageopacity="0.0"
     inkscape:pageshadow="2"
     inkscape:zoom="8.0000005"
     inkscape:cx="9.1782707"
     inkscape:cy="21.851071"
     inkscape:current-layer="layer1"
     showgrid="true"
     inkscape:grid-bbox="true"
     inkscape:document-units="px"
     inkscape:window-width="1871"
     inkscape:window-height="1056"
     inkscape:window-x="49"
     inkscape:window-y="24"
     inkscape:window-maximized="1"
     inkscape:snap-nodes="false">
    <inkscape:grid
       type="xygrid"
       id="grid3182" />
  </sodipodi:namedview>
  <metadata
     id="metadata3062">
    <rdf:RDF>
      <cc:Work
         rdf:about="">
        <dc:format>image/svg+xml</dc:format>
        <dc:type
           rdf:resource="http://purl.org/dc/dcmitype/StillImage" />
        <dc:title></dc:title>
      </cc:Work>
    </rdf:RDF>
  </metadata>
  <g
     id="layer1"
     inkscape:label="Layer 1"
     inkscape:groupmode="layer">
    <rect
       style="fill:url(#linearGradient3043);fill-opacity:1;stroke:none"
       id="rect4179"
       width="39.999947"
       height="39.999947"
       x="4.3535647"
       y="4.0000038"
       ry="19.999973" />
    <path
       inkscape:connector-curvature="0"
       style="fill:#2c2e31;fill-opacity:0.23529412;stroke:none"
       d="m 4.3652334,23.49995 c -0.004,0.16654 -0.0117,0.33244 -0.0117,0.5 0,11.08 8.9199996,20 19.9999996,20 11.08,0 20,-8.92 20,-20 0,-0.16756 -0.008,-0.33346 -0.0117,-0.5 -0.26467,10.84613 -9.07616,19.5 -19.98828,19.5 -10.91212,0 -19.7236096,-8.65387 -19.9882796,-19.5 z"
       id="rect4409" />
    <path
       sodipodi:type="arc"
       style="opacity:0.89575291;fill:#ffffff;fill-opacity:1;fill-rule:evenodd;stroke:#000000;stroke-width:0.40000001;stroke-miterlimit:4;stroke-opacity:1;stroke-dasharray:none"
       id="path3977"
       sodipodi:cx="24.616154"
       sodipodi:cy="18.213129"
       sodipodi:rx="5.435883"
       sodipodi:ry="4.8613586"
       d="m 30.052037,18.213129 a 5.435883,4.8613586 0 1 1 -10.871766,0 5.435883,4.8613586 0 1 1 10.871766,0 z"
       transform="matrix(1.0199495,0,0,1.231398,-0.53527316,-5.2751424)" />
    <path
       sodipodi:type="arc"
       style="opacity:0.89575291;fill:#ffffff;fill-opacity:1;fill-rule:evenodd;stroke:#000000;stroke-width:0.40000001;stroke-miterlimit:4;stroke-opacity:1;stroke-dasharray:none"
       id="path3977-2"
       sodipodi:cx="24.616154"
       sodipodi:cy="18.213129"
       sodipodi:rx="5.435883"
       sodipodi:ry="4.8613586"
       d="m 30.052037,18.213129 a 5.435883,4.8613586 0 1 1 -10.871766,0 5.435883,4.8613586 0 1 1 10.871766,0 z"
       transform="matrix(0.44004549,0,0,0.63908135,21.341129,6.1391776)" />
    <path
       style="fill:#ffdd55;stroke:#000000;stroke-width:1px;stroke-linecap:butt;stroke-linejoin:miter;stroke-opacity:1"
       d="m 21.920309,23.693206 c 3.447145,4.110058 4.817165,4.949747 4.817165,4.949747 l 3.756504,1.59099 1.414214,-0.08839 c 0,0 1.193242,-1.811961 1.237436,-2.209709 0.04419,-0.397747 0.441942,-5.612659 0.441942,-5.612659 l -0.132582,-1.590991 -2.563262,0.353554 -0.707107,-1.06066 -0.751301,-0.265165 -0.839689,1.546796 -4.198447,1.723572 -1.944543,-0.132582 -0.441942,0 z"
       id="path3997"
       inkscape:connector-curvature="0" />
    <path
       style="fill:#e3d7f4;stroke:#000000;stroke-width:1px;stroke-linecap:butt;stroke-linejoin:miter;stroke-opacity:1"
       d="m 14.849242,27.405516 1.458407,-1.370019 1.635184,-1.193243 2.209709,-0.883883 1.767767,0.176777 2.077126,2.342291 2.784233,2.474873 3.800698,1.502602 1.016466,0.353553 -0.618718,1.944544 -1.767767,-0.176777 -14.4073,-4.684582 z"
       id="path4001"
       inkscape:connector-curvature="0" />
    <path
       style="fill:#aa87de;stroke:#aa87de;stroke-width:1px;stroke-linecap:butt;stroke-linejoin:miter;stroke-opacity:1"
       d="m 6.2493954,19.486165 0.5303301,7.439785 0.8646576,-0.02053 1.9003494,-0.751301 3.0935925,-1.988738 1.988738,-2.165514 0.397747,-0.04419 0.08839,0.22097 -5.170719,4.552 -0.265165,0.220971 4.463612,0.53033 1.635184,-1.944544 3.933281,-1.944543 1.856155,-0.441942 0.176776,-0.574524 -2.386484,-2.916815 -0.397748,-3.49134 0.751301,-2.12132 0.707107,-1.06066 1.149048,-1.193243 1.900349,-0.751301 2.032932,-0.04419 2.077126,0.839689 1.546796,1.502602 0.618718,1.149049 0.397748,0.486135 0.707106,-0.707106 -0.265165,-0.486136 -2.386485,-2.828427 -3.18198,-2.1213203 -3.756504,-1.016466 -1.502601,0.220971 -4.861359,2.6074563 -5.3474955,4.949747 -1.5909902,1.988738 -0.2156092,0.528109 1.0111043,-0.395527 1.1932426,-0.53033 0.088389,0.265165 z"
       id="path4003"
       inkscape:connector-curvature="0"
       sodipodi:nodetypes="cccccccccccccccccccccccccccccccccccccccc" />
    <path
       style="fill:#aa87de;fill-opacity:1;stroke:#aa87de;stroke-width:0.91549294999999997px;stroke-linecap:butt;stroke-linejoin:miter;stroke-opacity:1"
       d="m 33.549734,27.473152 -1.37324,4.520247 c 0,0 0.257483,0.171655 0.572184,0.314701 0.3147,0.143045 2.288732,0.114436 2.288732,0.114436 l 0.286092,-0.629401 -1.087148,-3.976673 -0.429138,-0.514965 z"
       id="path4005"
       inkscape:connector-curvature="0" />
    <path
       style="fill:#1a1a1a;stroke-width:0.40000000000000002;stroke-miterlimit:4;stroke-dasharray:none;stroke:#000000;stroke-opacity:1;opacity:0.89575289999999985;fill-opacity:1"
       d="M 36.211486,37.608916 C 35.039608,36.459011 30.843661,33.860974 27.642732,32.303285 22.053149,29.58326 16.092283,28.075255 8.918424,27.566391 6.8238408,27.417626 5.7955404,27.275786 6.6333143,27.250925 c 0.8377768,-0.02853 1.9802761,-0.281231 2.5388902,-0.570123 1.6227065,-0.838677 4.2998625,-2.91493 4.8590325,-3.76832 0.282701,-0.431384 0.670129,-0.78447 0.860945,-0.78447 0.555863,0 -2.339742,2.796406 -4.002318,3.865203 -0.835742,0.537312 -1.4724497,1.023922 -1.4149025,1.081512 0.057549,0.05787 1.1365805,0.227839 2.3978535,0.378643 l 2.293226,0.273486 0.807766,-1.059057 c 1.020792,-1.338288 3.689204,-2.876494 5.447486,-3.140198 0.742642,-0.111681 1.350259,-0.347257 1.350259,-0.524677 0,-0.177298 -0.490341,-0.864926 -1.089644,-1.528302 -1.807483,-2.000647 -2.174165,-4.179121 -1.108793,-6.587348 0.790925,-1.787809 1.942636,-2.764207 3.868079,-3.279184 1.930138,-0.51624 4.00624,0.239249 5.220913,1.899933 1.293981,1.76906 1.295225,1.769997 1.815068,1.338534 0.420879,-0.349296 0.42454,-0.508742 0.02923,-1.273198 C 29.705793,12.025167 26.714573,9.5780967 24.735512,8.8522782 21.364797,7.6160888 20.657527,7.6386687 17.804534,9.0735949 14.244598,10.864176 11.048902,13.652755 7.8452892,17.764013 7.4359334,18.289384 7.4763922,18.292767 8.5916859,17.826784 10.88157,16.870031 10.193594,17.541887 7.6688625,18.728147 5.7020967,19.652131 5.3116478,19.7623 5.9812677,19.204202 6.4604145,18.804773 7.2155615,17.9782 7.6593691,17.36728 10.099971,14.00772 14.817329,9.9809936 18.1269,8.4322302 c 1.816823,-0.8501709 2.294386,-0.9466858 3.770752,-0.762256 3.228901,0.4035042 7.170678,2.8413618 8.764999,5.4210168 0.410266,0.663826 1.001949,1.134011 1.589403,1.263049 1.305031,0.286529 2.213944,1.681757 2.213944,3.39828 0,0.768817 -0.178525,1.641161 -0.396702,1.93853 -0.612909,0.835417 -0.172153,6.586208 0.680187,8.874728 0.37611,1.00986 0.772302,2.481549 0.880428,3.270419 0.190316,1.388462 0.172292,1.428691 -0.563,1.258608 -0.417779,-0.09661 -1.396912,-0.211534 -2.175854,-0.255553 -2.3172,-0.130425 -2.013658,0.634643 1.087386,2.741098 1.48925,1.011612 2.793733,1.978433 2.898863,2.148557 0.355597,0.575381 -0.02755,0.506215 -0.665823,-0.120237 z M 31.082127,31.41097 c 0.171929,-0.912286 0.112842,-1.031789 -0.511736,-1.034478 -1.933487,-0.0082 -6.149914,-2.78267 -7.898804,-5.196888 -0.796152,-1.099079 -1.085343,-1.27972 -1.910237,-1.19319 -1.571091,0.164662 -3.598515,1.179006 -4.909195,2.45579 l -1.22123,1.189686 3.332294,0.851923 c 4.058736,1.03774 5.626623,1.58357 9.520833,3.314766 3.197216,1.421353 3.258381,1.414751 3.598075,-0.3872 z m 4.335955,0.747543 c 0,-0.490808 -1.231955,-4.618981 -1.520869,-5.096338 -0.100688,-0.166293 -0.495173,0.69048 -0.876649,1.904172 -0.381474,1.213651 -0.794045,2.444053 -0.916825,2.73425 -0.254151,0.600691 0.250018,0.805745 2.124239,0.863702 0.823945,0.02853 1.190104,-0.09945 1.190104,-0.405542 z m -3.366166,-2.508328 c 0.754036,-0.551375 1.450941,-3.657581 1.457042,-6.494338 l 0.0051,-2.30466 -1.234474,0.197676 c -1.009376,0.161402 -1.361396,0.07051 -1.930512,-0.498593 L 29.652995,19.854205 28.58132,21.10621 c -1.382482,1.615116 -2.562515,2.089295 -4.748419,1.908045 -1.905479,-0.158141 -2.088513,0.04442 -1.219881,1.344401 1.526828,2.286401 3.491096,3.880813 6.106452,4.956661 2.063758,0.848989 2.561385,0.899 3.332547,0.33503 z m -4.852818,-7.603933 c 1.963069,-1.304541 3.029668,-4.530536 2.210381,-6.685452 -0.56262,-1.479799 -2.176424,-2.969749 -3.669316,-3.387723 -1.238845,-0.34685 -1.629293,-0.327694 -2.851649,0.138986 -5.534959,2.11379 -4.246618,10.650836 1.607345,10.650836 1.15684,0 1.9355,-0.206642 2.703239,-0.716688 z m -4.267595,-3.35471 c -0.794132,-0.877478 -0.656855,-2.126261 0.318043,-2.893123 1.343511,-1.056814 2.932959,-0.196455 2.954968,1.599466 0.02013,1.64328 -2.172361,2.509877 -3.27301,1.293657 z m 1.733902,-0.451027 c 0.02066,-0.218055 0.0145,-0.575217 -0.01394,-0.793395 -0.02833,-0.218055 0.105999,-0.396575 0.298491,-0.396575 0.192496,0 0.270022,-0.129204 0.172268,-0.287344 -0.241499,-0.390869 -1.518183,-0.05706 -1.980123,0.517545 -0.206211,0.256368 -0.298031,0.66676 -0.204058,0.911593 0.211656,0.551578 1.675757,0.592663 1.727336,0.0485 z m 8.704983,1.778475 c 2.018329,-2.177821 -0.190397,-6.609356 -2.530096,-5.076326 -0.607899,0.398614 -0.766068,0.837577 -0.895077,2.48587 -0.133521,1.705967 -0.06076,2.107718 0.491877,2.716154 0.863022,0.95015 1.980618,0.90226 2.933296,-0.125534 z m -2.698224,-1.205621 c -0.499942,-0.602403 -0.310022,-1.771057 0.355601,-2.188215 1.098568,-0.688443 2.113469,1.305683 1.153234,2.2659 -0.508228,0.508252 -1.045503,0.480577 -1.508835,-0.07785 z"
       id="path3017"
       inkscape:connector-curvature="0" />
  </g>
</svg>
