<?xml version="1.0" encoding="UTF-8" standalone="no"?>
<!-- Created with Inkscape (http://www.inkscape.org/) -->

<svg
   xmlns:dc="http://purl.org/dc/elements/1.1/"
   xmlns:cc="http://creativecommons.org/ns#"
   xmlns:rdf="http://www.w3.org/1999/02/22-rdf-syntax-ns#"
   xmlns:svg="http://www.w3.org/2000/svg"
   xmlns="http://www.w3.org/2000/svg"
   xmlns:xlink="http://www.w3.org/1999/xlink"
   xmlns:sodipodi="http://sodipodi.sourceforge.net/DTD/sodipodi-0.dtd"
   xmlns:inkscape="http://www.inkscape.org/namespaces/inkscape"
   width="48"
   height="48"
   id="svg5453"
   version="1.1"
   inkscape:version="0.91 r13725"
   sodipodi:docname="gnome-software.svg">
  <defs
     id="defs5455">
    <linearGradient
       inkscape:collect="always"
       xlink:href="#linearGradient4143"
       id="linearGradient4158"
       x1="409.57144"
       y1="543.79797"
       x2="409.57144"
       y2="513.79797"
       gradientUnits="userSpaceOnUse"
       gradientTransform="matrix(1.1250015,0,0,1,-51.071966,0)" />
    <linearGradient
       id="linearGradient4143">
      <stop
         style="stop-color:#51a2b9;stop-opacity:1;"
         offset="0"
         id="stop4145" />
      <stop
         style="stop-color:#19a4d7;stop-opacity:1;"
         offset="1"
         id="stop4147" />
    </linearGradient>
    <linearGradient
       inkscape:collect="always"
       xlink:href="#linearGradient4143"
       id="linearGradient4205"
       x1="24"
       y1="43.999973"
       x2="24"
       y2="11"
       gradientUnits="userSpaceOnUse" />
    <linearGradient
       inkscape:collect="always"
       id="linearGradient4159-7">
      <stop
         style="stop-color:#1d1e1e;stop-opacity:1"
         offset="0"
         id="stop4161-4" />
      <stop
         style="stop-color:#44484c;stop-opacity:1"
         offset="1"
         id="stop4163-9" />
    </linearGradient>
    <linearGradient
       inkscape:collect="always"
       xlink:href="#linearGradient4159-7"
       id="linearGradient4302"
       x1="25"
       y1="10"
       x2="25"
       y2="14"
       gradientUnits="userSpaceOnUse" />
    <linearGradient
       inkscape:collect="always"
       xlink:href="#linearGradient4143"
       id="linearGradient4174"
       gradientUnits="userSpaceOnUse"
       x1="24"
       y1="14"
       x2="24"
       y2="10" />
    <linearGradient
       inkscape:collect="always"
       xlink:href="#linearGradient4143"
       id="linearGradient4187"
       x1="408.57144"
       y1="516.79797"
       x2="408.57144"
       y2="503.798"
       gradientUnits="userSpaceOnUse" />
    <linearGradient
       inkscape:collect="always"
       id="linearGradient4303">
      <stop
         style="stop-color:#c6cdd1;stop-opacity:1"
         offset="0"
         id="stop4305" />
      <stop
         style="stop-color:#e0e5e7;stop-opacity:1"
         offset="1"
         id="stop4307" />
    </linearGradient>
    <linearGradient
       inkscape:collect="always"
       xlink:href="#linearGradient4303"
       id="linearGradient4282"
       x1="32"
       y1="17.999973"
       x2="32"
       y2="15"
       gradientUnits="userSpaceOnUse" />
    <linearGradient
       inkscape:collect="always"
       xlink:href="#linearGradient4303"
       id="linearGradient4290"
       x1="400.57144"
       y1="517.79797"
       x2="400.57144"
       y2="514.79797"
       gradientUnits="userSpaceOnUse" />
    <linearGradient
       inkscape:collect="always"
       xlink:href="#linearGradient4227"
       id="linearGradient4507"
       x1="16.000011"
       y1="23"
       x2="32"
       y2="38.999729"
       gradientUnits="userSpaceOnUse" />
    <linearGradient
       inkscape:collect="always"
       id="linearGradient4227">
      <stop
         style="stop-color:#292c2f;stop-opacity:1"
         offset="0"
         id="stop4229" />
      <stop
         style="stop-color:#000000;stop-opacity:0;"
         offset="1"
         id="stop4231" />
    </linearGradient>
  </defs>
  <sodipodi:namedview
     id="base"
     pagecolor="#ffffff"
     bordercolor="#666666"
     borderopacity="1.0"
     inkscape:pageopacity="0"
     inkscape:pageshadow="2"
     inkscape:zoom="11.313708"
     inkscape:cx="37.617466"
     inkscape:cy="-2.5303095"
     inkscape:document-units="px"
     inkscape:current-layer="layer1"
     showgrid="true"
     fit-margin-top="0"
     fit-margin-left="0"
     fit-margin-right="0"
     fit-margin-bottom="0"
     inkscape:window-width="1327"
     inkscape:window-height="877"
     inkscape:window-x="575"
     inkscape:window-y="72"
     inkscape:window-maximized="0"
     inkscape:showpageshadow="false"
     borderlayer="true"
     showguides="true">
    <inkscape:grid
       type="xygrid"
       id="grid4063" />
    <sodipodi:guide
       position="1.1650391e-05,47.999996"
       orientation="4,0"
       id="guide4146" />
    <sodipodi:guide
       position="1.1650391e-05,43.999996"
       orientation="0,48"
       id="guide4148" />
    <sodipodi:guide
       position="48.000012,43.999996"
       orientation="-4,0"
       id="guide4150" />
    <sodipodi:guide
       position="48.000012,47.999996"
       orientation="0,-48"
       id="guide4152" />
    <sodipodi:guide
       position="1.1650391e-05,4.0000264"
       orientation="4,0"
       id="guide4154" />
    <sodipodi:guide
       position="1.1650391e-05,2.6367188e-05"
       orientation="0,48"
       id="guide4156" />
    <sodipodi:guide
       position="48.000012,2.6367188e-05"
       orientation="-4,0"
       id="guide4158" />
    <sodipodi:guide
       position="48.000012,4.0000264"
       orientation="0,-48"
       id="guide4160" />
    <sodipodi:guide
       position="48.000012,48.000026"
       orientation="0,-4"
       id="guide4162" />
    <sodipodi:guide
       position="44.000012,48.000026"
       orientation="48,0"
       id="guide4164" />
    <sodipodi:guide
       position="44.000012,2.6367188e-05"
       orientation="0,4"
       id="guide4166" />
    <sodipodi:guide
       position="48.000012,2.6367188e-05"
       orientation="-48,0"
       id="guide4168" />
    <sodipodi:guide
       position="4.0000422,48.000026"
       orientation="0,-4"
       id="guide4170" />
    <sodipodi:guide
       position="4.2167969e-05,48.000026"
       orientation="48,0"
       id="guide4172" />
    <sodipodi:guide
       position="4.2167969e-05,2.6367188e-05"
       orientation="0,4"
       id="guide4174" />
    <sodipodi:guide
       position="4.0000422,2.6367188e-05"
       orientation="-48,0"
       id="guide4176" />
    <sodipodi:guide
       position="8.0000117,30.000026"
       orientation="0,14"
       id="guide4890" />
    <sodipodi:guide
       position="24,29"
       orientation="-13.999969,0"
       id="guide4892" />
    <sodipodi:guide
       position="22.000012,43.999996"
       orientation="0,-14"
       id="guide4894" />
    <sodipodi:guide
       position="16.000012,25.000271"
       orientation="16,0"
       id="guide4499" />
    <sodipodi:guide
       position="16.000012,9.0002705"
       orientation="0,16"
       id="guide4501" />
    <sodipodi:guide
       position="32.000012,9.0002705"
       orientation="-16,0"
       id="guide4503" />
    <sodipodi:guide
       position="32.000012,25.000271"
       orientation="0,-16"
       id="guide4505" />
  </sodipodi:namedview>
  <metadata
     id="metadata5458">
    <rdf:RDF>
      <cc:Work
         rdf:about="">
        <dc:format>image/svg+xml</dc:format>
        <dc:type
           rdf:resource="http://purl.org/dc/dcmitype/StillImage" />
        <dc:title />
      </cc:Work>
    </rdf:RDF>
  </metadata>
  <g
     inkscape:label="Capa 1"
     inkscape:groupmode="layer"
     id="layer1"
     transform="translate(-384.57143,-499.798)">
    <path
       sodipodi:type="star"
       style="fill:#939dac;fill-opacity:1;stroke:none"
       id="path3002-4-7"
       sodipodi:sides="3"
       sodipodi:cx="407.87448"
       sodipodi:cy="528.34875"
       sodipodi:r1="9.0989246"
       sodipodi:r2="4.5494628"
       sodipodi:arg1="0.52359878"
       sodipodi:arg2="1.5707963"
       inkscape:flatsided="false"
       inkscape:rounded="0"
       inkscape:randomized="0"
       d="m 415.75438,532.89822 -7.8799,0 -7.8799,0 3.93995,-6.8242 3.93995,-6.82419 3.93995,6.82419 z"
       inkscape:transform-center-y="-0.18115787" />
    <path
       sodipodi:type="star"
       style="fill:#6f8a91;fill-opacity:1;stroke:none"
       id="path3002"
       sodipodi:sides="3"
       sodipodi:cx="403.10192"
       sodipodi:cy="531.93957"
       sodipodi:r1="12.381755"
       sodipodi:r2="6.1908779"
       sodipodi:arg1="0.52359878"
       sodipodi:arg2="1.5707963"
       inkscape:flatsided="false"
       inkscape:rounded="0"
       inkscape:randomized="0"
       d="m 413.82484,538.13045 -10.72291,0 -10.72292,0 5.36146,-9.28631 5.36146,-9.28632 5.36146,9.28632 z"
       inkscape:transform-center-y="-3.0954623"
       inkscape:transform-center-x="1.3348064e-05" />
    <path
       sodipodi:type="star"
       style="fill:#93a7ac;fill-opacity:1;stroke:none"
       id="path3002-4"
       sodipodi:sides="3"
       sodipodi:cx="405.72643"
       sodipodi:cy="536.41051"
       sodipodi:r1="7.2955537"
       sodipodi:r2="3.6477771"
       sodipodi:arg1="0.52359878"
       sodipodi:arg2="1.5707963"
       inkscape:flatsided="false"
       inkscape:rounded="0"
       inkscape:randomized="0"
       d="m 412.04458,540.0583 -6.31814,0 -6.31813,0 3.15906,-5.47167 3.15907,-5.47166 3.15907,5.47166 z"
       inkscape:transform-center-y="-0.51475452" />
    <path
       style="fill:url(#linearGradient4205);fill-rule:evenodd;stroke:none;stroke-width:1px;stroke-linecap:butt;stroke-linejoin:miter;stroke-opacity:1;fill-opacity:1"
       d="M 9 11 L 9 13 L 10 12 L 9 11 z M 39 11 L 38 12 L 39 13 L 39 11 z "
       transform="translate(384.57143,499.798)"
       id="path4194" />
    <rect
       style="opacity:1;fill:url(#linearGradient4158);fill-opacity:1;stroke:none"
       id="rect4139"
       width="36"
       height="29.999973"
       x="390.57144"
       y="513.79797"
       ry="0" />
    <rect
       style="opacity:1;fill:#1c5593;fill-opacity:1;stroke:none"
       id="rect4171"
       width="35.999992"
       height="0.9999736"
       x="390.57144"
       y="542.79797" />
    <path
       id="path4172"
       transform="translate(384.57143,499.798)"
       d="M 10 10 L 9 11 L 10 12 L 6 14 L 24 14 L 42 14 L 38 12 L 39 11 L 38 10 L 24 10 L 10 10 z "
       style="fill:url(#linearGradient4174);fill-rule:evenodd;stroke:none;stroke-width:1px;stroke-linecap:butt;stroke-linejoin:miter;stroke-opacity:1;fill-opacity:1" />
    <path
       style="fill:url(#linearGradient4302);fill-rule:evenodd;stroke:none;stroke-width:1px;stroke-linecap:butt;stroke-linejoin:miter;stroke-opacity:1;fill-opacity:1;opacity:0.6"
       d="M 10 10 L 9 11 L 10 12 L 6 14 L 24 14 L 42 14 L 38 12 L 39 11 L 38 10 L 24 10 L 10 10 z "
       transform="translate(384.57143,499.798)"
       id="path4183" />
    <path
       style="opacity:0.2;fill:#000000;fill-opacity:1;stroke:none;stroke-opacity:1"
       d="M 10 10 L 9 11 L 39 11 L 38 10 L 24 10 L 10 10 z "
       transform="translate(384.57143,499.798)"
       id="rect4176" />
    <path
       style="opacity:1;fill:url(#linearGradient4187);fill-opacity:1;stroke:none;stroke-opacity:1"
       d="m 400.57143,516.798 0,-5 c 0,-4.432 3.568,-8 8,-8 4.432,0 8,3.568 8,8 l 0,5 -1,0 0,-5 c 0,-3.878 -3.122,-7 -7,-7 -3.878,0 -7,3.122 -7,7 l 0,5 z"
       id="rect4304"
       inkscape:connector-curvature="0"
       sodipodi:nodetypes="csssccssscc" />
    <path
       style="opacity:1;fill:url(#linearGradient4290);fill-opacity:1;stroke:none;stroke-opacity:1"
       d="m 401.07143,514.798 a 1.5000002,1.5000002 0 0 1 1.5,1.5 1.5000002,1.5000002 0 0 1 -1.5,1.5 1.5000002,1.5000002 0 0 1 -1.5,-1.5 1.5000002,1.5000002 0 0 1 1.5,-1.5 z m 0,1 a 0.50000024,0.50000024 0 0 0 -0.5,0.5 0.50000024,0.50000024 0 0 0 0.5,0.5 0.50000024,0.50000024 0 0 0 0.5,-0.5 0.50000024,0.50000024 0 0 0 -0.5,-0.5 z"
       id="path4189"
       inkscape:connector-curvature="0" />
    <path
       style="opacity:1;fill:url(#linearGradient4282);fill-opacity:1;stroke:none;stroke-opacity:1"
       d="M 31.5 15 A 1.5000002 1.5000002 0 0 0 30 16.5 A 1.5000002 1.5000002 0 0 0 31.5 18 A 1.5000002 1.5000002 0 0 0 33 16.5 A 1.5000002 1.5000002 0 0 0 31.5 15 z M 31.5 16 A 0.50000024 0.50000024 0 0 1 32 16.5 A 0.50000024 0.50000024 0 0 1 31.5 17 A 0.50000024 0.50000024 0 0 1 31 16.5 A 0.50000024 0.50000024 0 0 1 31.5 16 z "
       transform="translate(384.57143,499.798)"
       id="circle4191" />
    <g
       id="g3881"
       transform="matrix(0.54778169,0,0,0.54778169,402.65564,520.13281)"
       style="fill:#ffffff;fill-opacity:1">
      <path
         id="path6"
         d="m 17.743875,30.316553 c 0.224085,-4.917857 0.452171,-9.831713 0.680257,-14.74957 -1.50857,-1.372518 -3.01714,-2.745037 -4.521708,-4.117555 -0.712269,0.07203 -1.120423,0.972367 -1.700642,1.396527 -0.656248,0.452171 -1.044395,1.104417 -0.356135,1.736656 0.676256,1.116421 1.356513,2.232843 2.032768,3.349265 -0.728275,1.028388 -0.656248,2.725029 -2.248849,2.596981 -1.132428,0.276104 -2.3248783,0.404152 -3.4232932,0.776293 -0.098437,1.072405 -0.1016383,2.216837 0,3.289242 1.4585509,0.492186 3.0111372,0.756286 4.5077022,1.160438 0.124047,1.364516 1.700643,2.616989 0.384145,3.749416 -0.60823,1.000378 -1.368517,1.936732 -1.88071,2.981126 0.68826,0.828313 1.492564,1.636618 2.324878,2.32888 0.844319,-0.584221 1.464553,-1.564591 2.220839,-2.304871 0.660249,-0.732276 1.320499,-1.460551 1.98475,-2.192828 z"
         inkscape:connector-curvature="0"
         style="fill:#ffffff;fill-opacity:1" />
      <path
         id="path8"
         d="m 21.177172,13.986386 c 4.213591,2.580974 8.423181,5.165951 12.636772,7.746925 1.976747,-0.432163 3.953494,-0.868328 5.93024,-1.300491 0.308117,-0.644243 -0.244092,-1.460551 -0.308116,-2.176822 -0.04402,-0.792299 -0.400151,-1.464553 -1.29649,-1.204455 -1.308494,0 -2.612987,0 -3.921481,0 -0.500189,-1.160438 -1.984749,-1.980748 -1.052397,-3.269234 0.352133,-1.116422 0.868328,-2.200831 1.120423,-3.329258 C 33.417795,9.8088081 32.445428,9.2125829 31.47306,8.7404046 30.296616,9.7287779 29.264226,10.917227 28.143803,11.98563 26.911338,11.385404 25.022624,12.081667 24.738517,10.36902 24.198313,9.3286267 23.79416,8.1921975 23.169924,7.2118273 c -1.064402,0.1560589 -2.176822,0.4241602 -3.197207,0.7762932 0.04802,1.2244624 0.500189,2.4729335 0.708267,3.7053995 0.164062,0.764289 0.332126,1.532579 0.496188,2.296867 z"
         inkscape:connector-curvature="0"
         style="fill:#ffffff;fill-opacity:1" />
      <path
         id="path10"
         d="m 33.565851,25.214626 c -4.249605,2.332881 -8.49921,4.661761 -12.748815,6.99064 -0.516195,1.944735 -1.028389,3.889469 -1.544584,5.838205 0.416158,0.58022 1.400529,0.484183 2.056777,0.776294 0.720272,0.340128 1.480559,0.352133 1.684637,-0.560212 0.628237,-1.144432 1.256474,-2.288864 1.884711,-3.433297 1.256475,0.116044 2.693017,-0.792299 3.377276,0.652247 0.804304,0.840317 1.50857,1.816686 2.380899,2.576973 0.976369,-0.448169 1.968744,-1.016384 2.849076,-1.636618 -0.300113,-1.50857 -0.844319,-2.989129 -1.240468,-4.485694 1.116421,-0.788298 1.416535,-2.777049 3.053153,-2.204833 1.172443,0.04002 2.364893,0.216082 3.525331,0.144054 0.372141,-1.012382 0.672254,-2.112798 0.856324,-3.1772 -0.928351,-0.448169 -2.084788,-0.50419 -3.101172,-0.800302 -1.012382,-0.224084 -2.024764,-0.452171 -3.033145,-0.680257 z"
         inkscape:connector-curvature="0"
         style="fill:#ffffff;fill-opacity:1" />
    </g>
  </g>
</svg>
