<?xml version="1.0" encoding="UTF-8" standalone="no"?>
<!-- Created with Inkscape (http://www.inkscape.org/) -->

<svg
   xmlns:dc="http://purl.org/dc/elements/1.1/"
   xmlns:cc="http://creativecommons.org/ns#"
   xmlns:rdf="http://www.w3.org/1999/02/22-rdf-syntax-ns#"
   xmlns:svg="http://www.w3.org/2000/svg"
   xmlns="http://www.w3.org/2000/svg"
   xmlns:xlink="http://www.w3.org/1999/xlink"
   xmlns:sodipodi="http://sodipodi.sourceforge.net/DTD/sodipodi-0.dtd"
   xmlns:inkscape="http://www.inkscape.org/namespaces/inkscape"
   width="48"
   height="48"
   id="svg2"
   version="1.1"
   inkscape:version="0.91 r13725"
   sodipodi:docname="aisleriot.svg">
  <defs
     id="defs4">
    <linearGradient
       id="linearGradient3814">
      <stop
         style="stop-color:#61add0;stop-opacity:1;"
         offset="0"
         id="stop3816" />
      <stop
         style="stop-color:#2a94ab;stop-opacity:1;"
         offset="1"
         id="stop3818" />
    </linearGradient>
    <linearGradient
       inkscape:collect="always"
       id="linearGradient954">
      <stop
         style="stop-color:#ffffff;stop-opacity:1;"
         offset="0"
         id="stop956" />
      <stop
         style="stop-color:#ffffff;stop-opacity:0;"
         offset="1"
         id="stop958" />
    </linearGradient>
    <linearGradient
       inkscape:collect="always"
       id="linearGradient936">
      <stop
         style="stop-color:#b33236;stop-opacity:1"
         offset="0"
         id="stop938" />
      <stop
         style="stop-color:#d75756;stop-opacity:1"
         offset="1"
         id="stop940" />
    </linearGradient>
    <linearGradient
       id="linearGradient902">
      <stop
         style="stop-color:#eaeaea;stop-opacity:1;"
         offset="0"
         id="stop904" />
      <stop
         style="stop-color:#ebebeb;stop-opacity:1"
         offset="1"
         id="stop906" />
    </linearGradient>
    <linearGradient
       id="linearGradient887">
      <stop
         style="stop-color:#28784d;stop-opacity:1"
         offset="0"
         id="stop889" />
      <stop
         style="stop-color:#3bee5b;stop-opacity:1;"
         offset="1"
         id="stop891" />
    </linearGradient>
    <linearGradient
       inkscape:collect="always"
       xlink:href="#linearGradient902"
       id="linearGradient1247"
       x1="13.483407"
       y1="42.204094"
       x2="13.483407"
       y2="26.829092"
       gradientUnits="userSpaceOnUse" />
    <linearGradient
       inkscape:collect="always"
       xlink:href="#linearGradient936"
       id="linearGradient1251"
       gradientUnits="userSpaceOnUse"
       x1="13.483407"
       y1="42.204094"
       x2="13.483407"
       y2="26.829092" />
    <linearGradient
       inkscape:collect="always"
       xlink:href="#linearGradient936"
       id="linearGradient1276"
       x1="-4.8125"
       y1="42.21875"
       x2="0.6875"
       y2="42.21875"
       gradientUnits="userSpaceOnUse"
       gradientTransform="matrix(0.56583705,-0.98028634,0.10768424,0.06218599,11.683768,1031.3298)" />
    <linearGradient
       inkscape:collect="always"
       xlink:href="#linearGradient902"
       id="linearGradient1370"
       gradientUnits="userSpaceOnUse"
       x1="13.483407"
       y1="42.204094"
       x2="13.483407"
       y2="26.829092" />
    <linearGradient
       inkscape:collect="always"
       xlink:href="#linearGradient936"
       id="linearGradient1372"
       gradientUnits="userSpaceOnUse"
       x1="13.483407"
       y1="42.204094"
       x2="13.483407"
       y2="26.829092" />
    <linearGradient
       inkscape:collect="always"
       xlink:href="#linearGradient936"
       id="linearGradient1374"
       gradientUnits="userSpaceOnUse"
       gradientTransform="matrix(0.56583705,-0.98028634,0.10768424,0.06218599,11.683768,1031.3298)"
       x1="-4.8125"
       y1="42.21875"
       x2="0.6875"
       y2="42.21875" />
    <linearGradient
       inkscape:collect="always"
       xlink:href="#linearGradient902"
       id="linearGradient1400"
       gradientUnits="userSpaceOnUse"
       x1="13.483407"
       y1="42.204094"
       x2="13.483407"
       y2="26.829092" />
    <linearGradient
       inkscape:collect="always"
       xlink:href="#linearGradient936"
       id="linearGradient1402"
       gradientUnits="userSpaceOnUse"
       x1="13.483407"
       y1="42.204094"
       x2="13.483407"
       y2="26.829092" />
    <linearGradient
       inkscape:collect="always"
       xlink:href="#linearGradient936"
       id="linearGradient1404"
       gradientUnits="userSpaceOnUse"
       gradientTransform="matrix(0.56583705,-0.98028634,0.10768424,0.06218599,11.683768,1031.3298)"
       x1="-4.8125"
       y1="42.21875"
       x2="0.6875"
       y2="42.21875" />
    <linearGradient
       inkscape:collect="always"
       xlink:href="#linearGradient936"
       id="linearGradient3516"
       gradientUnits="userSpaceOnUse"
       gradientTransform="matrix(0.98488368,0,0,0.98488368,6.8005681,17.189999)"
       x1="24.085825"
       y1="1034.0216"
       x2="24.085825"
       y2="1022.6637" />
    <linearGradient
       inkscape:collect="always"
       xlink:href="#linearGradient902"
       id="linearGradient3519"
       gradientUnits="userSpaceOnUse"
       gradientTransform="matrix(0.98488368,0,0,0.98488368,6.800564,17.190002)"
       x1="24.537102"
       y1="1042.2986"
       x2="24.537102"
       y2="1014.5954" />
    <linearGradient
       inkscape:collect="always"
       xlink:href="#linearGradient936"
       id="linearGradient3540"
       gradientUnits="userSpaceOnUse"
       gradientTransform="matrix(0.95132458,-0.25490666,0.25490666,0.95132458,-258.71612,56.467817)"
       x1="24.085825"
       y1="1034.0216"
       x2="24.085825"
       y2="1022.6637" />
    <linearGradient
       inkscape:collect="always"
       xlink:href="#linearGradient902"
       id="linearGradient3543"
       gradientUnits="userSpaceOnUse"
       gradientTransform="matrix(0.98488368,0,0,0.98488368,-264.51553,-12.416936)"
       x1="24.537102"
       y1="1042.2986"
       x2="24.537102"
       y2="1014.5954" />
    <linearGradient
       inkscape:collect="always"
       xlink:href="#linearGradient954"
       id="linearGradient3560"
       gradientUnits="userSpaceOnUse"
       gradientTransform="matrix(0.85293429,-0.49244184,0.49244184,0.85293429,-9.6071742,1019.5677)"
       x1="25.102291"
       y1="37.835339"
       x2="25.102291"
       y2="21.21833" />
    <linearGradient
       inkscape:collect="always"
       xlink:href="#linearGradient936"
       id="linearGradient3564"
       gradientUnits="userSpaceOnUse"
       gradientTransform="matrix(0.85293429,-0.49244184,0.49244184,0.85293429,-504.19714,162.91272)"
       x1="24.085825"
       y1="1034.0216"
       x2="24.085825"
       y2="1022.6637" />
    <linearGradient
       inkscape:collect="always"
       xlink:href="#linearGradient902"
       id="linearGradient3567"
       gradientUnits="userSpaceOnUse"
       gradientTransform="matrix(0.98488368,0,0,0.98488368,-518.1039,-111.01201)"
       x1="24.537102"
       y1="1042.2986"
       x2="24.537102"
       y2="1014.5954" />
    <linearGradient
       inkscape:collect="always"
       xlink:href="#linearGradient902"
       id="linearGradient3571"
       gradientUnits="userSpaceOnUse"
       x1="13.483407"
       y1="42.204094"
       x2="13.483407"
       y2="26.829092" />
    <linearGradient
       inkscape:collect="always"
       xlink:href="#linearGradient936"
       id="linearGradient3573"
       gradientUnits="userSpaceOnUse"
       x1="13.483407"
       y1="42.204094"
       x2="13.483407"
       y2="26.829092" />
    <linearGradient
       inkscape:collect="always"
       xlink:href="#linearGradient936"
       id="linearGradient3580"
       gradientUnits="userSpaceOnUse"
       gradientTransform="matrix(0.56078822,-0.97153947,0.1067234,0.06163112,15.341442,1030.4071)"
       x1="-4.8125"
       y1="42.21875"
       x2="0.6875"
       y2="42.21875" />
    <linearGradient
       inkscape:collect="always"
       xlink:href="#linearGradient936"
       id="linearGradient3593"
       gradientUnits="userSpaceOnUse"
       gradientTransform="matrix(0.56078822,-0.97153947,0.1067234,0.06163112,13.239049,1032.0277)"
       x1="-4.8125"
       y1="42.21875"
       x2="0.6875"
       y2="42.21875" />
    <linearGradient
       inkscape:collect="always"
       xlink:href="#linearGradient936"
       id="linearGradient3606"
       gradientUnits="userSpaceOnUse"
       gradientTransform="matrix(0.56078822,-0.97153947,0.1067234,0.06163112,13.239049,1028.1295)"
       x1="-4.8125"
       y1="42.21875"
       x2="0.6875"
       y2="42.21875" />
    <linearGradient
       inkscape:collect="always"
       xlink:href="#linearGradient936"
       id="linearGradient3619"
       gradientUnits="userSpaceOnUse"
       gradientTransform="matrix(0.56078822,-0.97153947,0.1067234,0.06163112,11.793655,1029.4873)"
       x1="-4.8125"
       y1="42.21875"
       x2="0.6875"
       y2="42.21875" />
    <linearGradient
       inkscape:collect="always"
       xlink:href="#linearGradient3814"
       id="linearGradient3820"
       x1="3.9999967"
       y1="-1028.3622"
       x2="43.999997"
       y2="-1028.3622"
       gradientUnits="userSpaceOnUse" />
  </defs>
  <sodipodi:namedview
     id="base"
     pagecolor="#ffffff"
     bordercolor="#666666"
     borderopacity="1.0"
     inkscape:pageopacity="0.0"
     inkscape:pageshadow="2"
     inkscape:zoom="7.9999996"
     inkscape:cx="20.044437"
     inkscape:cy="44.196797"
     inkscape:document-units="px"
     inkscape:current-layer="layer1"
     showgrid="true"
     inkscape:window-width="1867"
     inkscape:window-height="1056"
     inkscape:window-x="53"
     inkscape:window-y="24"
     inkscape:window-maximized="1">
    <inkscape:grid
       type="xygrid"
       id="grid3629" />
  </sodipodi:namedview>
  <metadata
     id="metadata7">
    <rdf:RDF>
      <cc:Work
         rdf:about="">
        <dc:format>image/svg+xml</dc:format>
        <dc:type
           rdf:resource="http://purl.org/dc/dcmitype/StillImage" />
        <dc:title />
      </cc:Work>
    </rdf:RDF>
  </metadata>
  <g
     inkscape:label="Capa 1"
     inkscape:groupmode="layer"
     id="layer1"
     transform="translate(0,-1004.3622)">
    <rect
       style="fill:url(#linearGradient3820);fill-opacity:1;stroke:none"
       id="rect2991-1"
       width="40"
       height="40"
       x="3.9999967"
       y="-1048.3622"
       ry="0"
       transform="scale(1,-1)" />
    <rect
       ry="1.9758449"
       y="887.98169"
       x="-503.01941"
       height="27.646734"
       width="17.10549"
       id="rect921"
       style="fill:#000000;fill-opacity:0.24454148;stroke:none"
       transform="matrix(0.8660254,-0.5,0.5,0.8660254,0,0)" />
    <rect
       style="fill:url(#linearGradient3567);fill-opacity:1;stroke:none"
       id="rect900"
       width="16.147917"
       height="26.950315"
       x="-502.54065"
       y="888.32996"
       ry="1.9260736"
       transform="matrix(0.8660254,-0.5,0.5,0.8660254,0,0)" />
    <path
       style="fill:url(#linearGradient3564);fill-opacity:1;stroke:none"
       d="m 19.873906,1023.356 -1.452435,7.3947 7.068333,2.3323 1.514272,-7.2876 -7.13017,-2.4394 z"
       id="rect925"
       inkscape:connector-curvature="0" />
    <path
       style="fill:url(#linearGradient3560);fill-opacity:1;stroke:none"
       d="m 9.7149123,1020.7796 c -0.127395,0.4756 -0.05403,1.0144 0.212748,1.4765 l 11.5416157,19.9906 c 0.533522,0.9241 1.697963,1.2586 2.622044,0.7251 l 10.661652,-6.1555 c 0.92408,-0.5336 1.216652,-1.7092 0.683129,-2.6333 l -11.541615,-19.9906 c -0.266848,-0.4622 -0.696703,-0.7951 -1.172319,-0.9225 0.333187,0.1625 0.605127,0.4325 0.805164,0.779 l 11.541615,19.9907 c 0.533522,0.924 0.241021,2.0997 -0.683059,2.6333 l -10.235262,5.9092 c -0.924081,0.5336 -2.088522,0.199 -2.621975,-0.725 L 9.987039,1021.8665 c -0.2001101,-0.3466 -0.2979868,-0.7172 -0.2721267,-1.0869 z"
       id="rect949"
       inkscape:connector-curvature="0" />
    <path
       style="fill:#2b0000;fill-opacity:0.24890831;stroke:none"
       d="m 19.881095,1023.3684 -1.459779,7.382 0.26769,0.094 1.407537,-7.1031 6.855258,2.3326 0.05219,-0.279 -7.122896,-2.4268 z"
       id="path962"
       inkscape:connector-curvature="0" />
    <path
       style="fill:#2b0000;fill-opacity:0.14410484;stroke:none"
       d="m 20.096543,1023.7416 -1.407537,7.1031 0.267569,0.094 1.355416,-6.8241 6.587568,2.2382 0.05224,-0.2788 -6.855258,-2.3326 z"
       id="path967"
       inkscape:connector-curvature="0" />
    <path
       style="fill:#2b0000;fill-opacity:0.06113539;stroke:none"
       d="m 20.311991,1024.1148 -1.355416,6.8241 0.294353,0.079 1.276512,-6.5299 6.293266,2.1595 0.07885,-0.2944 -6.587568,-2.2382 z"
       id="path969"
       inkscape:connector-curvature="0" />
    <path
       style="fill:#ffffff;fill-opacity:0.42358081;stroke:none"
       d="m 19.20474,1030.9378 -0.07885,0.2943 0.168178,0.045 0.03404,-0.126 6.293267,2.1595 1.276511,-6.5299 0.126282,0.034 0.04533,-0.1679 -0.294353,-0.079 -1.276512,6.5299 -6.293896,-2.1601 z"
       id="path981"
       inkscape:connector-curvature="0" />
    <path
       id="path986"
       d="m 19.332539,1031.1592 -0.07878,0.2944 0.168178,0.045 0.03335,-0.1266 6.293336,2.1595 1.276512,-6.5299 0.126212,0.034 0.04533,-0.1679 -0.294283,-0.079 -1.276512,6.5299 -6.29334,-2.1595 z"
       style="fill:#ffffff;fill-opacity:0.20960699;stroke:none"
       inkscape:connector-curvature="0" />
    <path
       inkscape:connector-curvature="0"
       style="fill:#ffffff;fill-opacity:0.07860263;stroke:none"
       d="m 19.456695,1031.3742 -0.07885,0.2943 0.168178,0.045 0.03335,-0.1267 6.293336,2.1595 1.276512,-6.5299 0.126212,0.034 0.04533,-0.1679 -0.294283,-0.079 -1.276512,6.5299 -6.293271,-2.1594 z"
       id="path988" />
    <rect
       ry="1.9758449"
       y="986.57678"
       x="-249.43106"
       height="27.646734"
       width="17.10549"
       id="rect1186"
       style="fill:#000000;fill-opacity:0.24454148;stroke:none"
       transform="matrix(0.96592582,-0.25881905,0.25881905,0.96592582,0,0)" />
    <rect
       style="fill:url(#linearGradient3543);fill-opacity:1;stroke:none"
       id="rect1188"
       width="16.147917"
       height="26.950315"
       x="-248.95229"
       y="986.92499"
       ry="1.9260736"
       transform="matrix(0.96592582,-0.25881905,0.25881905,0.96592582,0,0)" />
    <path
       style="fill:url(#linearGradient3540);fill-opacity:1;stroke:none"
       d="m 24.798545,1023.2318 -3.316831,6.7668 6.223833,4.0822 3.348838,-6.6473 -6.25584,-4.2017 z"
       id="path1190"
       inkscape:connector-curvature="0" />
    <path
       style="fill:#2b0000;fill-opacity:0.24890831;stroke:none"
       d="m 24.802266,1023.2456 -3.320633,6.7527 0.234159,0.1603 3.197999,-6.4967 6.017954,4.0273 0.122608,-0.2559 -6.252087,-4.1877 z"
       id="path1196"
       inkscape:connector-curvature="0" />
    <path
       style="fill:#2b0000;fill-opacity:0.14410484;stroke:none"
       d="m 24.913791,1023.6619 -3.197999,6.4967 0.234085,0.1602 3.07544,-6.2407 5.783793,3.867 0.122635,-0.2559 -6.017954,-4.0273 z"
       id="path1198"
       inkscape:connector-curvature="0" />
    <path
       style="fill:#2b0000;fill-opacity:0.06113539;stroke:none"
       d="m 25.025317,1024.0781 -3.07544,6.2407 0.263894,0.1525 2.923071,-5.977 5.519926,3.7146 0.152342,-0.2638 -5.783793,-3.867 z"
       id="path1200"
       inkscape:connector-curvature="0" />
    <path
       style="fill:#ffffff;fill-opacity:0.42358081;stroke:none"
       d="m 22.189863,1030.382 -0.152342,0.2639 0.150784,0.087 0.06549,-0.1129 5.519925,3.7147 2.92307,-5.977 0.11317,0.066 0.08724,-0.1505 -0.263896,-0.1524 -2.92307,5.977 -5.520373,-3.7155 z"
       id="path1202"
       inkscape:connector-curvature="0" />
    <path
       id="path1204"
       d="m 22.25601,1030.6289 -0.152293,0.264 0.150783,0.087 0.06499,-0.1137 5.519975,3.7147 2.923071,-5.977 0.113121,0.065 0.08724,-0.1504 -0.263846,-0.1524 -2.923071,5.977 -5.519978,-3.7148 z"
       style="fill:#ffffff;fill-opacity:0.20960699;stroke:none"
       inkscape:connector-curvature="0" />
    <path
       inkscape:connector-curvature="0"
       style="fill:#ffffff;fill-opacity:0.07860263;stroke:none"
       d="m 22.320289,1030.8688 -0.152342,0.2638 0.150784,0.087 0.06499,-0.1137 5.519975,3.7147 2.923071,-5.9769 0.113121,0.065 0.08724,-0.1504 -0.263845,-0.1524 -2.923071,5.977 -5.519931,-3.7146 z"
       id="path1206" />
    <rect
       style="fill:#000000;fill-opacity:0.24454148;stroke:none"
       id="rect1140"
       width="17.10549"
       height="27.646734"
       x="21.885038"
       y="1016.1837"
       ry="1.9758449" />
    <rect
       ry="1.9260736"
       y="1016.5319"
       x="22.363804"
       height="26.950315"
       width="16.147917"
       id="rect1142"
       style="fill:url(#linearGradient3519);fill-opacity:1;stroke:none" />
    <path
       inkscape:connector-curvature="0"
       id="path1144"
       d="m 30.43778,1024.3912 -4.955191,5.6778 4.955189,5.554 4.955186,-5.554 -4.955184,-5.6778 z"
       style="fill:url(#linearGradient3516);fill-opacity:1;stroke:none" />
    <path
       inkscape:connector-curvature="0"
       id="path1150"
       d="m 30.43778,1024.4056 -4.955193,5.6631 0.184672,0.2155 4.770523,-5.4477 4.770536,5.4477 0.18467,-0.2155 -4.955208,-5.6631 z"
       style="fill:#2b0000;fill-opacity:0.24890831;stroke:none" />
    <path
       style="opacity:0.5;fill:#000000;fill-opacity:1;stroke:none"
       d="m 4,1048.3622 0,0 c 20,-1 20,-1 40,0 z"
       id="path3257"
       inkscape:connector-curvature="0"
       sodipodi:nodetypes="cccc" />
    <path
       sodipodi:nodetypes="cccc"
       inkscape:connector-curvature="0"
       id="path4027"
       d="m 4,1008.3622 0,0 c 20,1 20,1 40,0 z"
       style="opacity:0.75;fill:#ffffff;fill-opacity:1;stroke:none" />
  </g>
</svg>
