<?xml version="1.0" encoding="UTF-8" standalone="no"?>
<!-- Created using Karbon, part of Calligra: http://www.calligra.org/karbon -->

<svg
   xmlns:dc="http://purl.org/dc/elements/1.1/"
   xmlns:cc="http://creativecommons.org/ns#"
   xmlns:rdf="http://www.w3.org/1999/02/22-rdf-syntax-ns#"
   xmlns:svg="http://www.w3.org/2000/svg"
   xmlns="http://www.w3.org/2000/svg"
   xmlns:xlink="http://www.w3.org/1999/xlink"
   xmlns:sodipodi="http://sodipodi.sourceforge.net/DTD/sodipodi-0.dtd"
   xmlns:inkscape="http://www.inkscape.org/namespaces/inkscape"
   width="38.4pt"
   height="38.4pt"
   id="svg2"
   version="1.1"
   inkscape:version="0.91 r13725"
   sodipodi:docname="gnome-builder.svg">
  <metadata
     id="metadata12">
    <rdf:RDF>
      <cc:Work
         rdf:about="">
        <dc:format>image/svg+xml</dc:format>
        <dc:type
           rdf:resource="http://purl.org/dc/dcmitype/StillImage" />
        <dc:title></dc:title>
      </cc:Work>
    </rdf:RDF>
  </metadata>
  <sodipodi:namedview
     pagecolor="#ffffff"
     bordercolor="#666666"
     borderopacity="1"
     objecttolerance="10"
     gridtolerance="10"
     guidetolerance="10"
     inkscape:pageopacity="0"
     inkscape:pageshadow="2"
     inkscape:window-width="1867"
     inkscape:window-height="1056"
     id="namedview10"
     showgrid="false"
     inkscape:zoom="3.4766082"
     inkscape:cx="-32.311738"
     inkscape:cy="-53.654091"
     inkscape:window-x="53"
     inkscape:window-y="24"
     inkscape:window-maximized="1"
     inkscape:current-layer="svg2"
     inkscape:showpageshadow="false"
     borderlayer="true">
    <sodipodi:guide
       position="9.5367432e-07,48.000001"
       orientation="47.999999,0"
       id="guide4062" />
    <sodipodi:guide
       position="9.5367432e-07,1.9073486e-06"
       orientation="0,47.999999"
       id="guide4064" />
    <sodipodi:guide
       position="48,1.9073486e-06"
       orientation="-47.999999,0"
       id="guide4066" />
    <sodipodi:guide
       position="48,48.000001"
       orientation="0,-47.999999"
       id="guide4068" />
    <sodipodi:guide
       position="4.000001,44.000001"
       orientation="39.999999,0"
       id="guide4072" />
    <sodipodi:guide
       position="4.000001,4.0000019"
       orientation="0,39.999999"
       id="guide4074" />
    <sodipodi:guide
       position="44,4.0000019"
       orientation="-39.999999,0"
       id="guide4076" />
    <sodipodi:guide
       position="44,44.000001"
       orientation="0,-39.999999"
       id="guide4078" />
    <sodipodi:guide
       position="15.000001,33.000001"
       orientation="17.999999,0"
       id="guide4080" />
    <sodipodi:guide
       position="15.000001,15.000002"
       orientation="0,17.999999"
       id="guide4082" />
    <sodipodi:guide
       position="33,15.000002"
       orientation="-17.999999,0"
       id="guide4084" />
    <sodipodi:guide
       position="33,33.000001"
       orientation="0,-17.999999"
       id="guide4086" />
  </sodipodi:namedview>
  <defs
     id="defs4">
    <linearGradient
       id="linearGradient3766">
      <stop
         style="stop-color:#edbc57;stop-opacity:1;"
         offset="0"
         id="stop3768" />
      <stop
         style="stop-color:#dc7a2a;stop-opacity:1;"
         offset="1"
         id="stop3770" />
    </linearGradient>
    <linearGradient
       inkscape:collect="always"
       xlink:href="#linearGradient3766"
       id="linearGradient3772"
       x1="3.9999998"
       y1="23.999954"
       x2="44.000004"
       y2="23.999954"
       gradientUnits="userSpaceOnUse" />
  </defs>
  <rect
     ry="0"
     y="3.9999523"
     x="3.9999998"
     height="40.000004"
     width="40.000004"
     id="rect3282"
     style="fill:url(#linearGradient3772);fill-opacity:1;fill-rule:evenodd;stroke:none" />
  <path
     style="fill:#ecf0f1;fill-opacity:1;fill-rule:evenodd;stroke:none"
     d="m 5.9003913,4.0000038 0,1.9003906 -1.9003906,0 0,0.1992188 1.9003906,0 0,5.8007818 -1.9003906,0 0,0.199218 1.9003906,0 0,5.800782 -1.9003906,0 0,0.199218 1.9003906,0 0,5.800782 -1.9003906,0 0,0.199218 1.9003906,0 0,5.800782 -1.9003906,0 0,0.199218 1.9003906,0 0,5.800782 -1.9003906,0 0,0.199218 1.9003906,0 0,5.800782 -1.9003906,0 0,0.199218 1.9003906,0 0,1.900391 0.1992188,0 0,-1.900391 5.8007819,0 0,1.900391 0.199218,0 0,-1.900391 5.800782,0 0,1.900391 0.199218,0 0,-1.900391 5.800782,0 0,1.900391 0.199218,0 0,-1.900391 5.800782,0 0,1.900391 0.199218,0 0,-1.900391 5.800782,0 0,1.900391 0.199218,0 0,-1.900391 5.800782,0 0,1.900391 0.199218,0 0,-1.900391 1.900391,0 0,-0.199218 -1.900391,0 0,-5.800782 1.900391,0 0,-0.199218 -1.900391,0 0,-5.800782 1.900391,0 0,-0.199218 -1.900391,0 0,-5.800782 1.900391,0 0,-0.199218 -1.900391,0 0,-5.800782 1.900391,0 0,-0.199218 -1.900391,0 0,-5.800782 1.900391,0 0,-0.199218 -1.900391,0 0,-5.8007818 1.900391,0 0,-0.1992188 -1.900391,0 0,-1.9003906 -0.199218,0 0,1.9003906 -5.800782,0 0,-1.9003906 -0.199218,0 0,1.9003906 -5.800782,0 0,-1.9003906 -0.199218,0 0,1.9003906 -5.800782,0 0,-1.9003906 -0.199218,0 0,1.9003906 -5.800782,0 0,-1.9003906 -0.199218,0 0,1.9003906 -5.800782,0 0,-1.9003906 -0.199218,0 0,1.9003906 -5.8007819,0 0,-1.9003906 -0.1992188,0 z m 0.1992188,2.0996094 5.8007819,0 0,5.8007818 -5.8007819,0 0,-5.8007818 z m 5.9999999,0 5.800782,0 0,5.8007818 -5.800782,0 0,-5.8007818 z m 6,0 5.800782,0 0,5.8007818 -5.800782,0 0,-5.8007818 z m 6,0 5.800782,0 0,5.8007818 -5.800782,0 0,-5.8007818 z m 6,0 5.800782,0 0,5.8007818 -5.800782,0 0,-5.8007818 z m 6,0 5.800782,0 0,5.8007818 -5.800782,0 0,-5.8007818 z m -29.9999999,5.9999998 5.8007819,0 0,5.800782 -5.8007819,0 0,-5.800782 z m 5.9999999,0 5.800782,0 0,5.800782 -5.800782,0 0,-5.800782 z m 6,0 5.800782,0 0,5.800782 -5.800782,0 0,-5.800782 z m 6,0 5.800782,0 0,5.800782 -5.800782,0 0,-5.800782 z m 6,0 5.800782,0 0,5.800782 -5.800782,0 0,-5.800782 z m 6,0 5.800782,0 0,5.800782 -5.800782,0 0,-5.800782 z m -29.9999999,6 5.8007819,0 0,5.800782 -5.8007819,0 0,-5.800782 z m 5.9999999,0 5.800782,0 0,5.800782 -5.800782,0 0,-5.800782 z m 6,0 5.800782,0 0,5.800782 -5.800782,0 0,-5.800782 z m 6,0 5.800782,0 0,5.800782 -5.800782,0 0,-5.800782 z m 6,0 5.800782,0 0,5.800782 -5.800782,0 0,-5.800782 z m 6,0 5.800782,0 0,5.800782 -5.800782,0 0,-5.800782 z m -29.9999999,6 5.8007819,0 0,5.800782 -5.8007819,0 0,-5.800782 z m 5.9999999,0 5.800782,0 0,5.800782 -5.800782,0 0,-5.800782 z m 6,0 5.800782,0 0,5.800782 -5.800782,0 0,-5.800782 z m 6,0 5.800782,0 0,5.800782 -5.800782,0 0,-5.800782 z m 6,0 5.800782,0 0,5.800782 -5.800782,0 0,-5.800782 z m 6,0 5.800782,0 0,5.800782 -5.800782,0 0,-5.800782 z m -29.9999999,6 5.8007819,0 0,5.800782 -5.8007819,0 0,-5.800782 z m 5.9999999,0 5.800782,0 0,5.800782 -5.800782,0 0,-5.800782 z m 6,0 5.800782,0 0,5.800782 -5.800782,0 0,-5.800782 z m 6,0 5.800782,0 0,5.800782 -5.800782,0 0,-5.800782 z m 6,0 5.800782,0 0,5.800782 -5.800782,0 0,-5.800782 z m 6,0 5.800782,0 0,5.800782 -5.800782,0 0,-5.800782 z m -29.9999999,6 5.8007819,0 0,5.800782 -5.8007819,0 0,-5.800782 z m 5.9999999,0 5.800782,0 0,5.800782 -5.800782,0 0,-5.800782 z m 6,0 5.800782,0 0,5.800782 -5.800782,0 0,-5.800782 z m 6,0 5.800782,0 0,5.800782 -5.800782,0 0,-5.800782 z m 6,0 5.800782,0 0,5.800782 -5.800782,0 0,-5.800782 z m 6,0 5.800782,0 0,5.800782 -5.800782,0 0,-5.800782 z"
     id="rect3299"
     inkscape:connector-curvature="0" />
  <path
     inkscape:connector-curvature="0"
     id="path4151"
     d="m 14.199338,28.000456 c -0.349271,0 -0.698743,0.03614 -1.042381,0.101693 l -0.550915,1.33735 0,0.02126 c -0.199814,0.07902 -0.395633,0.165827 -0.581491,0.272835 -0.18478,0.106653 -0.357825,0.231732 -0.524305,0.364712 l -0.01754,-0.01063 -1.435326,-0.191338 c -0.45737,0.528909 -0.8164792,1.140874 -1.0469093,1.800673 l 0.8878068,1.152886 0.014705,0.01063 c -0.061452,0.423389 -0.059464,0.855177 0.0035,1.278708 l -0.018106,0.01063 -0.8883758,1.154374 c 0.112996,0.329882 0.255809,0.649453 0.4303144,0.951945 0.1745008,0.302244 0.3799998,0.585921 0.6092351,0.848764 l 1.443252,-0.192756 0.01811,-0.01063 c 0.335282,0.266102 0.707884,0.483094 1.105229,0.641587 l 0,0.01772 0.554314,1.344862 c 0.686472,0.13004 1.395892,0.124725 2.082495,-0.01063 l 0.552047,-1.338555 0,-0.01772 c 0.198546,-0.07689 0.393301,-0.165118 0.578094,-0.271772 0.185861,-0.107362 0.360311,-0.232795 0.527701,-0.36698 l 0.01758,0.01063 1.433628,0.191338 c 0.457651,-0.529405 0.816306,-1.141972 1.04691,-1.802338 l -0.886675,-1.150654 -0.0147,-0.01063 c 0.06155,-0.423 0.05975,-0.854787 -0.0029,-1.278 l 0.01814,-0.01063 0.887241,-1.153346 c -0.112911,-0.329882 -0.254657,-0.650126 -0.429183,-0.95237 -0.174522,-0.302599 -0.38101,-0.585496 -0.610367,-0.848303 l -1.442119,0.192047 -0.01814,0.01063 C 16.565049,29.8327 16.192136,29.615035 15.794963,29.456897 l -5.8e-4,-0.01772 -0.553182,-1.343126 c -0.343598,-0.06484 -0.692543,-0.09709 -1.041813,-0.09602 z m -5.81e-4,2.308535 c 0.834898,0 1.665074,0.344055 2.255754,0.934264 0.590679,0.590386 0.934801,1.419909 0.934801,2.254783 0,0.835052 -0.344122,1.665036 -0.934801,2.255457 -0.59068,0.59035 -1.420856,0.933626 -2.255754,0.933626 -0.834899,0 -1.664129,-0.344055 -2.254056,-0.934122 -0.589926,-0.590421 -0.933104,-1.420122 -0.933104,-2.254961 0,-0.834767 0.343177,-1.664397 0.933104,-2.254783 0.589927,-0.590244 1.419157,-0.934157 2.254056,-0.934264 z"
     style="fill:#ecf0f1;fill-opacity:1;fill-rule:evenodd;stroke:none" />
  <path
     style="fill:#ecf0f1;fill-opacity:1;fill-rule:evenodd;stroke:none"
     d="m 30.487104,9.000039 c -0.571714,0 -1.143759,0.05811 -1.706252,0.1658268 l -0.901784,2.1890552 0,0.03543 c -0.327065,0.127559 -0.647603,0.271063 -0.951831,0.446775 -0.302468,0.174686 -0.585716,0.378886 -0.858224,0.596764 l -0.02874,-0.01772 -2.349456,-0.313229 c -0.748661,0.865524 -1.33648,1.867359 -1.713667,2.947217 l 1.453234,1.886953 0.02409,0.01417 c -0.100598,0.692964 -0.09733,1.399748 0.0056,2.092889 l -0.02966,0.01772 -1.454161,1.88876 c 0.18496,0.540106 0.418734,1.063169 0.704373,1.558027 0.28564,0.494681 0.622013,0.959138 0.997245,1.389296 l 2.362432,-0.315355 0.02966,-0.01772 c 0.548817,0.435649 1.15872,0.790653 1.809128,1.050023 l 0,0.02835 0.907344,2.201279 c 1.123673,0.213307 2.284909,0.204449 3.408797,-0.01063 l 0.903636,-2.190933 0,-0.03189 c 0.324992,-0.126851 0.643784,-0.270355 0.94627,-0.444792 0.304232,-0.175748 0.589787,-0.381153 0.863784,-0.600661 l 0.02874,0.01772 2.346675,0.313229 c 0.749122,-0.866516 1.336198,-1.869059 1.713667,-2.950016 l -1.451381,-1.883268 -0.0241,-0.01417 c 0.100772,-0.692468 0.0978,-1.399252 -0.0046,-2.091791 l 0.02976,-0.01772 1.452309,-1.887874 C 38.81518,14.511618 38.583154,13.987704 38.297478,13.492952 38.011817,12.997988 37.67381,12.5347 37.298379,12.104543 l -2.360575,0.314291 -0.02966,0.01772 c -0.548593,-0.435083 -1.159004,-0.79115 -1.809129,-1.050059 l -9.51e-4,-0.02835 -0.90549,-2.1983737 C 31.630145,9.0531177 31.058965,9.0010311 30.487252,9.0031571 Z m -9.52e-4,3.778512 c 1.36663,0 2.725528,0.563067 3.6924,1.529397 0.966871,0.966118 1.530158,2.323843 1.530158,3.69039 0,1.366689 -0.563287,2.725299 -1.530158,3.691524 -0.966872,0.966295 -2.32577,1.528334 -3.6924,1.528228 -1.366629,0 -2.72398,-0.562854 -3.689619,-1.529114 -0.965639,-0.966225 -1.527379,-2.324162 -1.527379,-3.690638 0,-1.366335 0.56174,-2.724272 1.527379,-3.69039 0.965639,-0.96633 2.32299,-1.529291 3.689619,-1.529397 z"
     id="path4112"
     inkscape:connector-curvature="0" />
  <path
     style="opacity:0.35;fill:#000000;fill-opacity:1;stroke:none"
     d="M 4.0000043,43.999698 44,43.999998 c -19.999997,-1 -19.999997,-1 -39.9999971,0 z"
     id="path3800"
     inkscape:connector-curvature="0"
     sodipodi:nodetypes="cccc" />
  <path
     sodipodi:nodetypes="cccc"
     inkscape:connector-curvature="0"
     id="path3804"
     d="M 4.0000078,3.9998979 44,3.9996979 c -19.999993,1 -19.999993,1 -39.9999936,0 z"
     style="opacity:0.75;fill:#ffffff;fill-opacity:1;stroke:none" />
</svg>
