<?xml version="1.0" encoding="UTF-8" standalone="no"?>
<!-- Created with Inkscape (http://www.inkscape.org/) -->

<svg
   xmlns:dc="http://purl.org/dc/elements/1.1/"
   xmlns:cc="http://creativecommons.org/ns#"
   xmlns:rdf="http://www.w3.org/1999/02/22-rdf-syntax-ns#"
   xmlns:svg="http://www.w3.org/2000/svg"
   xmlns="http://www.w3.org/2000/svg"
   xmlns:xlink="http://www.w3.org/1999/xlink"
   xmlns:sodipodi="http://sodipodi.sourceforge.net/DTD/sodipodi-0.dtd"
   xmlns:inkscape="http://www.inkscape.org/namespaces/inkscape"
   width="48"
   height="48"
   id="svg3018"
   version="1.1"
   inkscape:version="0.48.4 r9939"
   sodipodi:docname="gparted.svg">
  <defs
     id="defs3020">
    <linearGradient
       inkscape:collect="always"
       xlink:href="#linearGradient4143"
       id="linearGradient4149"
       x1="400.57144"
       y1="545.79797"
       x2="400.57144"
       y2="517.79797"
       gradientUnits="userSpaceOnUse"
       gradientTransform="matrix(0.92857108,0,0,0.92857057,28.612354,37.986142)" />
    <linearGradient
       id="linearGradient4143">
      <stop
         style="stop-color:#197cf1;stop-opacity:1"
         offset="0"
         id="stop4145" />
      <stop
         style="stop-color:#20bcfa;stop-opacity:1"
         offset="1"
         id="stop4147" />
    </linearGradient>
    <linearGradient
       id="linearGradient4227"
       inkscape:collect="always">
      <stop
         id="stop4229"
         offset="0"
         style="stop-color:#292c2f;stop-opacity:1" />
      <stop
         id="stop4231"
         offset="1"
         style="stop-color:#000000;stop-opacity:0;" />
    </linearGradient>
    <linearGradient
       id="linearGradient4290">
      <stop
         style="stop-color:#7cbaf8;stop-opacity:1"
         offset="0"
         id="stop4292" />
      <stop
         style="stop-color:#f4fcff;stop-opacity:1"
         offset="1"
         id="stop4294" />
    </linearGradient>
    <linearGradient
       inkscape:collect="always"
       xlink:href="#linearGradient4290"
       id="linearGradient3077"
       gradientUnits="userSpaceOnUse"
       gradientTransform="matrix(1.3793103,0,0,1.3793103,1.2413794,1005.6035)"
       x1="16"
       y1="29.999973"
       x2="16"
       y2="2" />
    <linearGradient
       inkscape:collect="always"
       xlink:href="#linearGradient4227"
       id="linearGradient3080"
       gradientUnits="userSpaceOnUse"
       gradientTransform="matrix(1.3793103,0,0,1.3793103,1.2413794,1005.6035)"
       x1="8.5250006"
       y1="7.8000579"
       x2="25.200001"
       y2="25.200058" />
    <linearGradient
       inkscape:collect="always"
       xlink:href="#linearGradient4143"
       id="linearGradient3083"
       gradientUnits="userSpaceOnUse"
       gradientTransform="matrix(1.2807877,0,0,1.280787,-450.11598,346.31133)"
       x1="400.57144"
       y1="545.79797"
       x2="400.57144"
       y2="517.79797" />
    <linearGradient
       inkscape:collect="always"
       xlink:href="#linearGradient4290"
       id="linearGradient3861"
       x1="24"
       y1="44"
       x2="24"
       y2="4"
       gradientUnits="userSpaceOnUse" />
    <linearGradient
       inkscape:collect="always"
       xlink:href="#linearGradient4290"
       id="linearGradient3870"
       gradientUnits="userSpaceOnUse"
       gradientTransform="matrix(1.3793103,0,0,1.3793103,-18.758621,1005.6035)"
       x1="16"
       y1="29.999973"
       x2="16"
       y2="2" />
    <linearGradient
       inkscape:collect="always"
       xlink:href="#linearGradient4143"
       id="linearGradient3880"
       x1="28.5"
       y1="39"
       x2="28.5"
       y2="9"
       gradientUnits="userSpaceOnUse"
       gradientTransform="matrix(1.0285714,0,0,1.2,-5.3142844,-4.8)" />
    <linearGradient
       inkscape:collect="always"
       xlink:href="#linearGradient4143"
       id="linearGradient3935"
       gradientUnits="userSpaceOnUse"
       gradientTransform="matrix(1.0285714,0,0,1.2,-5.3142844,-4.8)"
       x1="28.5"
       y1="39"
       x2="28.5"
       y2="9" />
    <linearGradient
       gradientTransform="matrix(0.8,0,0,0.8,4.8,1009.1622)"
       inkscape:collect="always"
       xlink:href="#linearGradient4221"
       id="linearGradient4227-9"
       x1="24.000042"
       y1="36"
       x2="24.000042"
       y2="12"
       gradientUnits="userSpaceOnUse" />
    <linearGradient
       id="linearGradient4221">
      <stop
         style="stop-color:#0882d8;stop-opacity:1;"
         offset="0"
         id="stop4223" />
      <stop
         style="stop-color:#4c9de2;stop-opacity:1;"
         offset="1"
         id="stop4225" />
    </linearGradient>
    <linearGradient
       gradientTransform="translate(-4,-4)"
       inkscape:collect="always"
       xlink:href="#linearGradient4400"
       id="linearGradient4265"
       x1="15"
       y1="15"
       x2="44"
       y2="43.999973"
       gradientUnits="userSpaceOnUse" />
    <linearGradient
       inkscape:collect="always"
       id="linearGradient4400">
      <stop
         style="stop-color:#020303;stop-opacity:1"
         offset="0"
         id="stop4402" />
      <stop
         style="stop-color:#424649;stop-opacity:0"
         offset="1"
         id="stop4404" />
    </linearGradient>
    <linearGradient
       gradientTransform="translate(-4,-4)"
       inkscape:collect="always"
       xlink:href="#linearGradient4213"
       id="linearGradient4219"
       x1="24.000042"
       y1="41"
       x2="24.000042"
       y2="7"
       gradientUnits="userSpaceOnUse" />
    <linearGradient
       inkscape:collect="always"
       id="linearGradient4213">
      <stop
         style="stop-color:#728790;stop-opacity:1"
         offset="0"
         id="stop4215" />
      <stop
         style="stop-color:#85969e;stop-opacity:1"
         offset="1"
         id="stop4217" />
    </linearGradient>
    <linearGradient
       inkscape:collect="always"
       xlink:href="#linearGradient4271"
       id="linearGradient4235"
       x1="24.000042"
       y1="44"
       x2="24.000042"
       y2="4"
       gradientUnits="userSpaceOnUse" />
    <linearGradient
       inkscape:collect="always"
       id="linearGradient4271">
      <stop
         style="stop-color:#2a2c2f;stop-opacity:1"
         offset="0"
         id="stop4273" />
      <stop
         style="stop-color:#424649;stop-opacity:1"
         offset="1"
         id="stop4275" />
    </linearGradient>
    <linearGradient
       gradientTransform="translate(-4,-4)"
       y2="4"
       x2="24.000042"
       y1="44"
       x1="24.000042"
       gradientUnits="userSpaceOnUse"
       id="linearGradient3060"
       xlink:href="#linearGradient4271"
       inkscape:collect="always" />
    <linearGradient
       inkscape:collect="always"
       xlink:href="#linearGradient4271"
       id="linearGradient3930"
       gradientUnits="userSpaceOnUse"
       gradientTransform="matrix(0.8,0,0,0.8,4.8,1009.1622)"
       x1="24.000042"
       y1="44"
       x2="24.000042"
       y2="4" />
    <linearGradient
       inkscape:collect="always"
       xlink:href="#linearGradient4213"
       id="linearGradient3932"
       gradientUnits="userSpaceOnUse"
       gradientTransform="matrix(0.8,0,0,0.8,4.8,1009.1622)"
       x1="24.000042"
       y1="41"
       x2="24.000042"
       y2="7" />
    <linearGradient
       inkscape:collect="always"
       xlink:href="#linearGradient4400"
       id="linearGradient3934"
       gradientUnits="userSpaceOnUse"
       gradientTransform="matrix(0.8,0,0,0.8,4.8,1009.1622)"
       x1="15"
       y1="15"
       x2="44"
       y2="43.999973" />
  </defs>
  <sodipodi:namedview
     id="base"
     pagecolor="#ffffff"
     bordercolor="#666666"
     borderopacity="1.0"
     inkscape:pageopacity="0.0"
     inkscape:pageshadow="2"
     inkscape:zoom="10.947964"
     inkscape:cx="-5.4731705"
     inkscape:cy="10.887165"
     inkscape:document-units="px"
     inkscape:current-layer="layer1"
     showgrid="true"
     inkscape:snap-bbox="true"
     inkscape:window-width="1871"
     inkscape:window-height="1056"
     inkscape:window-x="49"
     inkscape:window-y="24"
     inkscape:window-maximized="1">
    <inkscape:grid
       type="xygrid"
       id="grid3026"
       empspacing="5"
       visible="true"
       enabled="true"
       snapvisiblegridlinesonly="true" />
  </sodipodi:namedview>
  <metadata
     id="metadata3023">
    <rdf:RDF>
      <cc:Work
         rdf:about="">
        <dc:format>image/svg+xml</dc:format>
        <dc:type
           rdf:resource="http://purl.org/dc/dcmitype/StillImage" />
        <dc:title />
      </cc:Work>
    </rdf:RDF>
  </metadata>
  <g
     inkscape:label="Layer 1"
     inkscape:groupmode="layer"
     id="layer1"
     transform="translate(0,-1004.3622)">
    <path
       inkscape:connector-curvature="0"
       style="fill:url(#linearGradient3930);fill-opacity:1;stroke:none"
       d="m 24,1012.3622 c -8.863994,0 -16,7.136 -16,16 l 0.8,0 4.8,0 c 0,-5.7616 4.638406,-10.4 10.4,-10.4 l 0,-5.6 z m 10.4,16 c 0,5.7616 -4.638406,10.4 -10.4,10.4 l 0,5.6 c 8.863994,0 16,-7.136 16,-16 l -5.6,0 z"
       id="rect4176" />
    <path
       inkscape:connector-curvature="0"
       style="fill:url(#linearGradient3932);fill-opacity:1;stroke:none"
       d="m 24,1014.7622 c -7.534394,0 -13.6,6.0656 -13.6,13.6 0,7.5344 6.065606,13.6 13.6,13.6 7.534394,0 13.6,-6.0656 13.6,-13.6 l -5.6,0 c 0,4.432 -3.568004,8 -8,8 -4.431996,0 -8,-3.568 -8,-8 0,-4.432 3.568004,-8 8,-8 l 0,-5.6 z"
       id="rect4181" />
    <path
       inkscape:connector-curvature="0"
       style="opacity:0.2;fill:url(#linearGradient3934);fill-opacity:1;fill-rule:evenodd;stroke:none"
       d="m 22.4,1021.1622 -5.6,5.6 2.14375,8 -1.3125,0.7812 -0.03125,0.019 6.4,6.4 2.240625,2.2407 c 7.063286,-0.9818 12.618142,-6.5367 13.6,-13.6 l -2.24063,-2.2406 -3.2,0 -0.8,0 c 0,-2.8776 -1.260196,-5.4435 -3.253124,-7.2 l -7.946876,0 z m 1.6,1.6 c 3.1024,0 5.6,2.4976 5.6,5.6 0,3.1024 -2.4976,5.6 -5.6,5.6 -3.1024,0 -5.6,-2.4976 -5.6,-5.6 0,-3.1024 2.4976,-5.6 5.6,-5.6 z"
       id="path4237" />
    <path
       inkscape:connector-curvature="0"
       style="fill:url(#linearGradient4227-9);fill-opacity:1;stroke:none"
       d="m 24,1018.7622 c -5.3184,0 -9.6,4.2816 -9.6,9.6 0,5.3184 4.2816,9.6 9.6,9.6 5.3184,0 9.6,-4.2816 9.6,-9.6 0,-5.3184 -4.2816,-9.6 -9.6,-9.6 z m 0,4 c 3.1024,0 5.6,2.4976 5.6,5.6 0,3.1024 -2.4976,5.6 -5.6,5.6 -3.1024,0 -5.6,-2.4976 -5.6,-5.6 0,-3.1024 2.4976,-5.6 5.6,-5.6 z"
       id="rect4197" />
    <path
       inkscape:connector-curvature="0"
       style="fill:#000000;fill-opacity:0.11764706;stroke:none"
       d="M 8.0203124,1027.5622 C 8.0073569,1027.8274 8,1028.0936 8,1028.3622 l 0.8,0 1.6,0 0,-0.8 -1.6,0 -0.7796876,0 z m 31.9593746,0.8 c -0.414571,8.4891 -7.384307,15.2 -15.979687,15.2 l 0,0.8 c 8.863994,0 16,-7.136 16,-16 l -0.02031,0 z"
       id="path4184" />
    <path
       inkscape:connector-curvature="0"
       style="fill:#000000;fill-opacity:0.11764706;stroke:none"
       d="m 10.4,1028.3622 c 0,7.5344 6.065606,13.6 13.6,13.6 7.534394,0 13.6,-6.0656 13.6,-13.6 l -0.04062,0 c -0.413893,7.1568 -6.295281,12.8 -13.559376,12.8 -7.263166,0 -13.13371,-5.6444 -13.548438,-12.8 l -0.05156,0 z"
       id="path4186" />
  </g>
</svg>
