<?xml version="1.0" encoding="UTF-8" standalone="no"?>
<!-- Created with Inkscape (http://www.inkscape.org/) -->

<svg
   xmlns:dc="http://purl.org/dc/elements/1.1/"
   xmlns:cc="http://creativecommons.org/ns#"
   xmlns:rdf="http://www.w3.org/1999/02/22-rdf-syntax-ns#"
   xmlns:svg="http://www.w3.org/2000/svg"
   xmlns="http://www.w3.org/2000/svg"
   xmlns:xlink="http://www.w3.org/1999/xlink"
   xmlns:sodipodi="http://sodipodi.sourceforge.net/DTD/sodipodi-0.dtd"
   xmlns:inkscape="http://www.inkscape.org/namespaces/inkscape"
   width="48"
   height="48"
   id="svg2"
   version="1.1"
   inkscape:version="0.48.4 r9939"
   sodipodi:docname="gtick.svg"
   inkscape:export-filename="/home/uri/workspace/NitruxforAndroid/res/drawable-xhdpi/downloads.png"
   inkscape:export-xdpi="180"
   inkscape:export-ydpi="180">
  <defs
     id="defs4">
    <linearGradient
       id="linearGradient4122"
       inkscape:collect="always">
      <stop
         id="stop4124"
         offset="0"
         style="stop-color:#d8dce0;stop-opacity:1" />
      <stop
         id="stop4126"
         offset="1"
         style="stop-color:#f9fafb;stop-opacity:1" />
    </linearGradient>
    <linearGradient
       id="linearGradient4111"
       inkscape:collect="always">
      <stop
         id="stop4113"
         offset="0"
         style="stop-color:#202428;stop-opacity:1" />
      <stop
         id="stop4115"
         offset="1"
         style="stop-color:#384046;stop-opacity:1" />
    </linearGradient>
    <linearGradient
       id="linearGradient4064">
      <stop
         style="stop-color:#dc0606;stop-opacity:1;"
         offset="0"
         id="stop4066" />
      <stop
         style="stop-color:#e3594b;stop-opacity:1;"
         offset="1"
         id="stop4068" />
    </linearGradient>
    <linearGradient
       inkscape:collect="always"
       id="linearGradient845">
      <stop
         style="stop-color:#353c42;stop-opacity:1"
         offset="0"
         id="stop847" />
      <stop
         style="stop-color:#505b64;stop-opacity:1"
         offset="1"
         id="stop849" />
    </linearGradient>
    <linearGradient
       inkscape:collect="always"
       xlink:href="#linearGradient845"
       id="linearGradient851"
       x1="23.5"
       y1="-1052.4247"
       x2="23.5"
       y2="-1004.6122"
       gradientUnits="userSpaceOnUse" />
    <linearGradient
       inkscape:collect="always"
       xlink:href="#linearGradient4064"
       id="linearGradient4070"
       x1="22.667751"
       y1="1043.8921"
       x2="22.667751"
       y2="1012.8348"
       gradientUnits="userSpaceOnUse"
       gradientTransform="matrix(1.2857067,0,0,1.2857067,-6.8569067,-293.86714)" />
    <linearGradient
       inkscape:collect="always"
       xlink:href="#linearGradient4111"
       id="linearGradient4078"
       x1="36.57663"
       y1="1043.6891"
       x2="36.57663"
       y2="1013.1159"
       gradientUnits="userSpaceOnUse"
       gradientTransform="matrix(1.2857067,0,0,1.2857067,-6.8569067,-293.86714)" />
    <linearGradient
       inkscape:collect="always"
       xlink:href="#linearGradient4122"
       id="linearGradient4120"
       x1="28.441204"
       y1="1031.6129"
       x2="28.441204"
       y2="1025.2477"
       gradientUnits="userSpaceOnUse" />
    <linearGradient
       inkscape:collect="always"
       xlink:href="#linearGradient4122"
       id="linearGradient4136"
       gradientUnits="userSpaceOnUse"
       x1="28.441204"
       y1="1031.6129"
       x2="28.441204"
       y2="1025.2477" />
    <linearGradient
       inkscape:collect="always"
       xlink:href="#linearGradient4122"
       id="linearGradient4138"
       gradientUnits="userSpaceOnUse"
       x1="28.441204"
       y1="1031.6129"
       x2="28.441204"
       y2="1025.2477" />
    <linearGradient
       inkscape:collect="always"
       xlink:href="#linearGradient4122"
       id="linearGradient4140"
       gradientUnits="userSpaceOnUse"
       x1="28.441204"
       y1="1031.6129"
       x2="28.441204"
       y2="1025.2477" />
    <linearGradient
       inkscape:collect="always"
       xlink:href="#linearGradient845"
       id="linearGradient3799"
       x1="9"
       y1="24"
       x2="39"
       y2="24"
       gradientUnits="userSpaceOnUse" />
  </defs>
  <sodipodi:namedview
     id="base"
     pagecolor="#ffffff"
     bordercolor="#666666"
     borderopacity="1.0"
     inkscape:pageopacity="0.0"
     inkscape:pageshadow="2"
     inkscape:zoom="8.0000001"
     inkscape:cx="-7.3427544"
     inkscape:cy="36.313649"
     inkscape:document-units="px"
     inkscape:current-layer="layer1"
     showgrid="true"
     inkscape:window-width="1871"
     inkscape:window-height="1056"
     inkscape:window-x="49"
     inkscape:window-y="24"
     inkscape:window-maximized="1">
    <inkscape:grid
       type="xygrid"
       id="grid3850" />
  </sodipodi:namedview>
  <metadata
     id="metadata7">
    <rdf:RDF>
      <cc:Work
         rdf:about="">
        <dc:format>image/svg+xml</dc:format>
        <dc:type
           rdf:resource="http://purl.org/dc/dcmitype/StillImage" />
        <dc:title></dc:title>
      </cc:Work>
    </rdf:RDF>
  </metadata>
  <g
     inkscape:label="Capa 1"
     inkscape:groupmode="layer"
     id="layer1"
     transform="translate(0,-1004.3622)">
    <path
       sodipodi:type="arc"
       style="fill:url(#linearGradient3799);fill-opacity:1;stroke:none"
       id="path3023"
       sodipodi:cx="24"
       sodipodi:cy="24"
       sodipodi:rx="15"
       sodipodi:ry="15"
       d="M 39,24 C 39,32.284271 32.284271,39 24,39 15.715729,39 9,32.284271 9,24 9,15.715729 15.715729,9 24,9 c 8.284271,0 15,6.715729 15,15 z"
       transform="matrix(1.2857067,0,0,1.2857067,-6.8569067,997.44804)" />
    <path
       style="fill:#000000;fill-opacity:0.23529412;stroke:none"
       d="m 23.999551,1009.0199 c -10.934909,0 -19.7998825,8.865 -19.7998825,19.7999 0,10.9349 8.8649735,19.7999 19.7998825,19.7999 10.934907,0 19.799882,-8.865 19.799882,-19.7999 0,-10.9349 -8.864975,-19.7999 -19.799882,-19.7999 z m 0,3.7139 c 8.884612,0 16.085993,7.2015 16.085993,16.086 0,8.8846 -7.201381,16.086 -16.085993,16.086 -8.884613,0 -16.085992,-7.2014 -16.085992,-16.086 0,-8.8845 7.201379,-16.086 16.085992,-16.086 z"
       id="path4055"
       inkscape:connector-curvature="0" />
    <path
       style="fill:url(#linearGradient4078);fill-opacity:1;stroke:none"
       d="m 24.000055,1048.1049 c 10.935184,0 19.799903,-8.8647 19.799903,-19.7999 0,-10.9352 -8.864719,-19.7999 -19.799903,-19.7999 l 0,3.7125 c 8.884837,0 16.087421,7.2027 16.087421,16.0874 0,8.8849 -7.202584,16.0874 -16.087421,16.0874 l 0,3.7125 z"
       id="path863"
       inkscape:connector-curvature="0" />
    <path
       style="fill:url(#linearGradient4070);fill-opacity:1;stroke:none"
       d="m 4.2001493,1028.305 c 0,10.9352 8.8647197,19.7999 19.7999057,19.7999 l 0,-3.7125 c -8.884839,0 -16.087423,-7.2025 -16.087423,-16.0874 0,-8.8847 7.202584,-16.0874 16.087423,-16.0874 l 0,-3.7125 c -10.935186,0 -19.7999057,8.8647 -19.7999057,19.7999 z"
       id="path858"
       inkscape:connector-curvature="0" />
    <g
       transform="matrix(0.76883048,0,0,0.76883048,5.9765367,1010.2837)"
       id="g55">
      <path
         style="fill:#f9f9f9;fill-opacity:1;fill-rule:nonzero;stroke:none"
         inkscape:connector-curvature="0"
         d="m 12.996,14 18,0 c 0.555,0 1,0.449 1,1 l 0,18 c 0,0.551 -0.445,1 -1,1 l -18,0 c -0.551,0 -1,-0.449 -1,-1 l 0,-18 c 0,-0.551 0.449,-1 1,-1 m 0,0"
         id="path57" />
      <path
         style="fill:#f9f9f9;fill-opacity:1;fill-rule:nonzero;stroke:none"
         inkscape:connector-curvature="0"
         d="m 31.996,22 6,-4 0,12 -6,-4 -1,0 0,-3 m 1,-1"
         id="path59" />
      <path
         style="fill:#ec535b;fill-opacity:1;fill-rule:nonzero;stroke:none"
         inkscape:connector-curvature="0"
         d="m 27,23.996 c 0,2.762 -2.238,5 -5,5 -2.762,0 -5,-2.238 -5,-5 0,-2.762 2.238,-5 5,-5 2.762,0 5,2.238 5,5 m 0,0"
         id="path61" />
    </g>
  </g>
</svg>
