<?xml version="1.0" encoding="UTF-8" standalone="no"?>
<!-- Created with Inkscape (http://www.inkscape.org/) -->

<svg
   xmlns:dc="http://purl.org/dc/elements/1.1/"
   xmlns:cc="http://creativecommons.org/ns#"
   xmlns:rdf="http://www.w3.org/1999/02/22-rdf-syntax-ns#"
   xmlns:svg="http://www.w3.org/2000/svg"
   xmlns="http://www.w3.org/2000/svg"
   xmlns:xlink="http://www.w3.org/1999/xlink"
   xmlns:sodipodi="http://sodipodi.sourceforge.net/DTD/sodipodi-0.dtd"
   xmlns:inkscape="http://www.inkscape.org/namespaces/inkscape"
   width="48"
   height="48"
   id="svg2"
   version="1.1"
   inkscape:version="0.48.4 r9939"
   sodipodi:docname="iceweasel.svg"
   inkscape:export-filename="/home/uri/workspace/NitruxforAndroid/res/drawable-xhdpi/web_browser.png"
   inkscape:export-xdpi="180"
   inkscape:export-ydpi="180">
  <defs
     id="defs4">
    <linearGradient
       id="linearGradient1577"
       inkscape:collect="always">
      <stop
         id="stop1579"
         offset="0"
         style="stop-color:#ffffff;stop-opacity:0.49803922" />
      <stop
         id="stop1581"
         offset="1"
         style="stop-color:#ffffff;stop-opacity:0;" />
    </linearGradient>
    <linearGradient
       gradientTransform="matrix(0.87356591,0,0,0.87356591,3.0344185,1007.3835)"
       gradientUnits="userSpaceOnUse"
       y2="0.88182634"
       x2="28.769722"
       y1="47.028889"
       x1="28.769722"
       id="linearGradient1583"
       xlink:href="#linearGradient1577"
       inkscape:collect="always" />
    <linearGradient
       inkscape:collect="always"
       xlink:href="#linearGradient4167"
       id="linearGradient3549"
       x1="28.551462"
       y1="1052.3796"
       x2="28.551462"
       y2="1004.3563"
       gradientUnits="userSpaceOnUse"
       gradientTransform="matrix(0.83333333,0,0,0.83333333,4.0000001,171.3937)" />
    <style
       type="text/css"
       id="style874">
    .fil0 {fill:#1F1A17}
   </style>
    <linearGradient
       inkscape:collect="always"
       xlink:href="#linearGradient4173"
       id="linearGradient4973"
       x1="23.9375"
       y1="-1052.4247"
       x2="23.9375"
       y2="-1004.3622"
       gradientUnits="userSpaceOnUse"
       gradientTransform="matrix(0.83333333,0,0,0.83333333,4.0000001,-171.3937)" />
    <linearGradient
       id="linearGradient4173">
      <stop
         id="stop4175"
         offset="0"
         style="stop-color:#1482cf;stop-opacity:1" />
      <stop
         id="stop4177"
         offset="1"
         style="stop-color:#74bef2;stop-opacity:1" />
    </linearGradient>
    <linearGradient
       id="linearGradient4167">
      <stop
         id="stop4169"
         offset="0"
         style="stop-color:#bfe1f9;stop-opacity:1" />
      <stop
         id="stop4171"
         offset="1"
         style="stop-color:#f6fbfe;stop-opacity:1" />
    </linearGradient>
  </defs>
  <sodipodi:namedview
     id="base"
     pagecolor="#ffffff"
     bordercolor="#666666"
     borderopacity="1.0"
     inkscape:pageopacity="0.0"
     inkscape:pageshadow="2"
     inkscape:zoom="5.6568545"
     inkscape:cx="0.61072487"
     inkscape:cy="4.6740166"
     inkscape:document-units="px"
     inkscape:current-layer="g4010"
     showgrid="true"
     inkscape:window-width="1177"
     inkscape:window-height="754"
     inkscape:window-x="490"
     inkscape:window-y="204"
     inkscape:window-maximized="0"
     showguides="false">
    <inkscape:grid
       type="xygrid"
       id="grid3007" />
  </sodipodi:namedview>
  <metadata
     id="metadata7">
    <rdf:RDF>
      <cc:Work
         rdf:about="">
        <dc:format>image/svg+xml</dc:format>
        <dc:type
           rdf:resource="http://purl.org/dc/dcmitype/StillImage" />
        <dc:title></dc:title>
      </cc:Work>
    </rdf:RDF>
  </metadata>
  <g
     inkscape:label="Capa 1"
     inkscape:groupmode="layer"
     id="layer1"
     transform="translate(0,-1004.3622)">
    <g
       id="g4010"
       transform="matrix(0.17375798,0,0,0.17375798,54.48375,898.52336)">
      <path
         style="fill:#e8e8e8;stroke:#f3f3f3;stroke-width:1.02357243999999992;stroke-opacity:1"
         d="m -168.56549,881.76793 c -17.72413,1.4906 -35.13333,-3.35215 -50.60534,-11.80948 -13.69718,-6.7217 -27.3217,-13.98662 -42.63255,-16.20189 -12.94836,-2.48554 -21.47672,-14.90815 -21.11557,-27.74838 -0.73756,-15.12441 -11.35373,-27.36178 -14.18486,-42.05651 -9.69638,-34.9294 -2.57128,-73.14746 14.95011,-104.37962 16.48598,-25.65 41.09984,-47.32152 71.39775,-54.26216 10.45667,-2.2797 20.75809,-6.30267 31.40814,-7.23534 17.32807,-0.71889 34.23285,3.77057 51.19016,6.67439 15.28945,3.62076 29.733952,9.93164 43.494829,17.41529 8.149177,0.37745 16.505282,-0.0955 24.529504,0.79549 11.629756,3.61926 13.679698,17.59845 10.28974,27.81455 -4.55681,12.23194 -14.48008,24.35863 -5.907985,37.48732 14.696811,40.38305 6.865046,87.85153 -20.17113,121.2911 -14.594104,15.65337 -25.781728,36.16264 -46.693458,44.28418 -14.55389,5.71132 -30.38534,7.79576 -45.94934,7.93106 z m 41.49903,-191.16149 c 4.73205,-1.86176 -3.53741,-0.67789 0,0 z"
         id="path4054"
         inkscape:connector-curvature="0" />
      <path
         style="fill:#d8e4ec"
         d="m -169.17344,873.21422 c -16.34763,1.55553 -32.36584,-3.01569 -46.6305,-10.80356 -13.44746,-6.39386 -26.53763,-14.08732 -41.60008,-15.89034 -14.21276,-2.02563 -18.60664,-16.85623 -18.27776,-29.17985 -3.86822,-14.02242 -12.43801,-26.56328 -14.74606,-41.18099 -6.92413,-31.22636 -0.0555,-64.47788 14.98694,-92.31487 15.65585,-23.92501 38.23937,-45.01099 66.90292,-51.38621 10.21074,-1.23698 18.27451,-6.17115 28.04801,-6.95736 14.4044,-1.76528 28.1966,4.03925 42.44745,4.77397 13.16298,3.03565 26.37681,6.88654 38.580768,12.45801 9.290881,10.43028 22.907529,6.20999 35.02487,6.36889 12.898407,-1.05196 7.100263,17.81843 5.352772,25.32726 -7.419334,11.25466 -11.676125,24.48652 -4.270176,36.91887 14.556729,40.36363 4.748813,88.08886 -24.539925,119.44621 -12.302589,13.97594 -23.103709,31.40501 -42.142919,36.80154 -12.62356,4.07329 -25.8869,5.84893 -39.13631,5.61843 z m 21.45274,-160.94601 c -5.59922,-2.69144 -12.06274,-20.28112 -16.48284,-14.32335 4.43313,6.84153 2.09933,13.1059 12.04329,12.19714 1.51668,0.63243 2.92355,1.49341 4.43955,2.12621 z m 59.953096,-18.45376 c 4.637507,-1.37008 -2.797417,-1.19362 0,0 z m -40.735066,-1.3781 c 7.14265,-2.56188 -3.69366,-2.43009 0,0 z m -52.98419,-11.59251 c -5.01845,-6.28762 -7.99909,-24.15489 -19.19874,-16.79234 -3.20197,1.85227 -20.32703,10.48799 -14.11081,10.69214 6.37255,0.7935 12.60484,1.71813 19.16131,0.99359 5.03271,0.30693 9.13743,4.67372 14.14824,5.10661 z"
         id="path4052"
         inkscape:connector-curvature="0" />
      <path
         style="fill:#c9dbe4"
         d="m -169.17344,872.75235 c -15.35797,1.36528 -30.59635,-2.24958 -44.04962,-9.6793 -14.15744,-6.50812 -27.70669,-14.935 -43.48071,-16.88579 -12.6129,-1.71805 -19.54449,-14.25687 -18.19207,-26.20585 -1.98473,-14.17704 -11.75302,-25.9665 -14.24967,-40.14309 -8.21451,-31.41149 -1.87323,-65.24868 12.73208,-93.76484 15.26065,-24.7026 38.08925,-46.33548 67.01493,-53.31447 12.70902,-1.27159 22.44582,-8.54708 35.34347,-7.21799 12.45931,-0.13242 24.35743,4.54658 36.77786,5.09263 12.79813,2.7907 25.37926,6.98737 37.350058,11.99616 10.250598,12.2744 25.736463,5.30918 39.20359,6.79535 8.758088,8.86986 1.348075,26.88568 -4.858742,36.98734 -7.101309,11.64203 3.366794,23.72746 5.101352,35.42403 9.40655,37.75212 -0.999336,79.66829 -27.416009,108.32624 -12.359919,13.97304 -23.073839,31.50087 -42.131659,36.96832 -12.62603,4.07549 -25.89244,5.85205 -39.14486,5.62126 z m 58.16529,-132.5534 c 12.134922,-3.19084 -11.20106,-3.26467 -12.9158,-8.18164 -5.41915,-10.08866 -13.79686,-17.76174 -21.78318,-24.80833 1.5073,-8.23636 -7.21884,-8.49975 -3.77803,-16.78438 -5.44852,-6.93544 -17.45563,0.44486 -19.67918,-11.84343 -4.98248,-11.93417 -15.0628,-21.64327 -28.72887,-16.07654 -5.37532,1.95484 -20.08532,10.03971 -18.52353,12.77122 10.19866,1.66511 21.44462,-1.52284 31.23078,5.00689 14.7324,-0.0815 17.30452,17.09215 24.29944,24.43551 -0.91712,7.92033 13.38621,4.30807 18.53565,11.97413 9.21005,5.39718 14.76081,14.81446 22.567,21.70891 2.83582,0.77076 5.85891,1.67217 8.77572,1.79766 z m 23.240546,-46.3845 c 4.637507,-1.37008 -2.797417,-1.19362 0,0 z m -40.735066,-1.3781 c 5.5297,-1.62203 -2.32091,-3.05999 0,0 z m 22.38523,-12.662 c 8.785794,-8.15651 -15.0939,-16.33893 -3.60336,-5.11432 1.63808,0.95593 1.13947,9.49298 3.60336,5.11432 z m 15.236825,-8.68454 c 10.069495,-0.23563 0.01038,-15.72481 12.732759,-13.30218 8.916815,-6.3436 -10.923531,-7.16689 -14.750019,-2.33869 -8.104795,2.50626 -5.118549,11.19919 -1.503377,11.84167 -0.93129,2.15302 1.257623,4.65126 3.520637,3.7992 z m -9.11141,-4.07747 c -3.008585,-6.35509 -7.712205,-2.8366 0,0 z m -10.427235,-2.74737 c 6.8161,-1.18103 -0.39459,-11.67333 0,0 z m -22.72478,-7.84298 c 14.80889,-4.82062 -10.14818,-15.3692 -16.83257,-14.66029 -8.23174,1.48277 -5.22225,7.07147 2.02017,5.28767 5.4506,2.24465 10.15749,5.83613 14.8124,9.37262 z"
         id="path4050"
         inkscape:connector-curvature="0" />
      <path
         style="fill:#d1d5d6"
         d="m -169.17344,872.75235 c -15.35797,1.36528 -30.59635,-2.24958 -44.04962,-9.6793 -14.15744,-6.50812 -27.70669,-14.935 -43.48071,-16.88579 -12.6129,-1.71805 -19.54449,-14.25687 -18.19207,-26.20585 -1.98473,-14.17704 -11.75302,-25.9665 -14.24967,-40.14309 -8.21451,-31.41149 -1.87323,-65.24868 12.73208,-93.76484 15.26065,-24.7026 38.08925,-46.33548 67.01493,-53.31447 12.70902,-1.27159 22.44582,-8.54708 35.34347,-7.21799 12.45931,-0.13242 24.35743,4.54658 36.77786,5.09263 12.79813,2.7907 25.37926,6.98737 37.350058,11.99616 10.250598,12.2744 25.736463,5.30918 39.20359,6.79535 8.758088,8.86986 1.348075,26.88568 -4.858742,36.98734 -7.101309,11.64203 3.366794,23.72746 5.101352,35.42403 9.40655,37.75212 -0.999336,79.66829 -27.416009,108.32624 -12.359919,13.97304 -23.073839,31.50087 -42.131659,36.96832 -12.62603,4.07549 -25.89244,5.85205 -39.14486,5.62126 z m -73.76017,-31.18976 c 15.31125,-2.71451 -9.167,-7.37388 0.60136,-14.10037 4.81271,-6.38548 -9.96658,-2.4001 -3.56488,4.05044 1.28774,2.84706 -0.0737,9.01484 2.96352,10.04993 z M -93.203301,819.3307 c 3.24098,-10.15065 2.853531,-27.31907 -0.2066,-33.97521 -0.227541,11.30532 -0.613384,22.71121 0.2066,33.97521 z M -248.0896,815.68387 c 2.237,-7.76308 -3.62469,-0.63903 4e-5,7e-5 l -4e-5,-7e-5 z m 137.87014,-75.14897 c 6.17546,3.36092 16.534684,-5.09486 5.98446,-6.77995 -14.84157,8.40245 -24.23096,-7.54684 -30.76542,-18.13112 -7.9562,-2.61037 -10.98733,-10.0844 -10.5376,-15.65393 -15.96634,-1.70131 16.01985,-16.38509 -2.20937,-13.72591 -5.10256,-4.29082 -19.41941,6.69374 -16.45991,-7.32115 1.61753,-15.41471 -18.08251,-19.58078 -29.85631,-17.60268 -8.38623,1.02179 -21.58502,9.83969 -23.31228,14.15211 10.44744,1.84069 21.916,-1.38272 31.83397,4.97279 14.91672,0.0155 17.38291,17.36033 24.77592,24.8034 -1.17308,7.37673 14.57996,4.66137 19.26672,12.39137 10.05042,5.2425 14.36472,18.11347 24.74226,21.89389 2.20452,-0.33302 4.44555,2.3782 6.53756,1.00118 z m 16.937763,-21.87906 c -1.653995,-11.32999 1.946147,-23.48934 3.893794,-34.88382 -1.633949,-6.23191 4.871469,-9.12422 7.710871,-13.67448 -9.527783,-3.2419 -1.879698,-15.3217 7.094919,-13.02016 11.720446,-0.98268 -0.974395,-9.76236 -7.122333,-5.04963 -8.995158,-0.33883 -17.085153,6.76392 -19.821554,11.55358 -6.49902,-8.55226 -1.40794,9.31658 -5.09085,-1.14425 -4.09826,-12.46096 -3.86755,5.22123 -6.80285,5.29712 -2.17428,3.81317 -17.25728,3.9558 -6.1997,8.88825 10.44484,11.57696 9.15208,28.14274 15.5066,41.64188 3.61063,0.11906 7.225154,0.16047 10.831103,0.39151 z M -280.45094,703.15772 c 2.49507,-3.46165 10.52538,-20.15824 2.98053,-9.46263 -1.23867,2.02164 -7.90488,20.33409 -2.98053,9.46263 z m 192.683336,-9.34327 c 4.637507,-1.37008 -2.797417,-1.19362 0,0 z m -40.735066,-1.3781 c 5.5297,-1.62203 -2.32091,-3.05999 0,0 z m 0.0366,-9.397 c 8.88826,-0.55918 -1.6388,-2.93983 0,0 z m -4.77786,-15.90664 c 7.06971,-3.9395 21.24014,-8.65656 7.45012,-14.83719 -7.84297,-5.45955 -21.94106,-17.33674 -30.30203,-7.05389 2.21083,3.03408 15.18804,2.14016 19.58448,9.07381 9.99439,4.10365 0.12412,9.11945 1.16568,13.83944 l 2.10176,-1.02217 -1e-5,0 z m 20.01585,-7.47866 c 1.13529,-3.95146 -2.26159,-3.07294 0,0 z m 11.92783,-13.38995 c 2.429709,-1.30727 -2.91508,-2.52254 0,0 z"
         id="path4048"
         inkscape:connector-curvature="0" />
      <path
         style="fill:#b1c8d2"
         d="m -168.48086,869.88648 c -14.58635,0.82456 -29.71758,-0.84604 -42.26212,-8.95197 -10.9431,-4.72575 -21.49914,-10.68348 -32.07722,-15.89465 -10.83666,-0.86132 -25.81729,-0.8033 -29.52458,-13.47456 -0.9376,-11.87513 0.56276,-22.67992 -7.86413,-32.86762 -13.06233,-27.45867 -14.71402,-60.32503 -4.31266,-88.89186 3.00887,-5.83897 11.29409,-16.02035 9.67993,-20.18637 -5.34848,3.14075 4.78372,-11.29089 7.45158,-14.54585 14.39537,-19.70923 34.44044,-35.92667 58.55516,-41.61949 11.21501,-1.23539 19.1442,-5.9805 28.94645,-7.11276 12.08036,-1.37219 23.67841,2.63854 35.33038,4.7778 11.87501,0.22214 24.45318,4.80747 35.59596,9.38682 7.00288,0.68419 27.266194,12.50052 11.642073,16.88698 -1.794009,6.95677 -3.449483,6.25743 -8.162213,4.36765 2.45518,13.09945 -3.96255,-13.17065 -5.7709,0.099 1.78264,8.31308 -8.89449,7.91067 -12.74077,11.64614 11.84655,7.04622 13.23421,22.46977 16.28008,34.62334 -0.80741,9.88521 8.787408,12.84698 14.79327,9.42693 -2.901639,-12.02073 2.827487,-23.4928 3.558827,-35.21173 -2.711705,-5.77724 12.080496,-11.0933 4.637144,-12.88568 -8.106254,-13.84908 14.700508,-9.24852 14.570572,-15.74863 -0.932651,-7.00815 18.257912,-5.01243 12.038657,5.09571 0.532579,11.92392 -6.448407,21.84203 -13.290904,30.9022 0.538241,12.30825 9.812945,24.30126 10.811236,37.40024 7.495603,38.28705 -5.855628,79.41797 -33.919171,106.43534 -8.804701,10.8071 -16.629481,23.42038 -30.333871,28.61296 -13.6177,5.73057 -28.94421,7.4408 -43.63278,7.73007 z m -74.45275,-28.32389 c 15.31125,-2.71451 -9.167,-7.37388 0.60136,-14.10037 4.81271,-6.38548 -9.96658,-2.4001 -3.56488,4.05044 1.28774,2.84706 -0.0737,9.01484 2.96352,10.04993 z M -93.203301,819.3307 c 3.24098,-10.15065 2.853531,-27.31907 -0.2066,-33.97521 -0.227541,11.30532 -0.613384,22.71121 0.2066,33.97521 z M -248.0896,815.68387 c 2.237,-7.76308 -3.62469,-0.63903 4e-5,7e-5 l -4e-5,-7e-5 z m 137.87014,-75.14897 c 6.17546,3.36092 16.534684,-5.09486 5.98446,-6.77995 -14.84157,8.40245 -24.23096,-7.54684 -30.76542,-18.13112 -7.9562,-2.61037 -10.98733,-10.0844 -10.5376,-15.65393 -15.96634,-1.70131 16.01985,-16.38509 -2.20937,-13.72591 -5.10256,-4.29082 -19.41941,6.69374 -16.45991,-7.32115 1.61753,-15.41471 -18.08251,-19.58078 -29.85631,-17.60268 -8.38623,1.02179 -21.58502,9.83969 -23.31228,14.15211 10.44744,1.84069 21.916,-1.38272 31.83397,4.97279 14.91672,0.0155 17.38291,17.36033 24.77592,24.8034 -1.17308,7.37673 14.57996,4.66137 19.26672,12.39137 10.05042,5.2425 14.36472,18.11347 24.74226,21.89389 2.20452,-0.33302 4.44555,2.3782 6.53756,1.00118 z m 22.540036,-46.71338 c 5.16296,-2.14248 -4.341788,-1.14677 0,0 z m -40.726596,-1.38517 c 6.4563,-2.05592 -3.66311,-2.49285 -10e-6,0 l 10e-6,0 z m -0.06,-9.397 c 8.88827,-0.5592 -1.63884,-2.93981 0,0 z m -4.77787,-15.90664 c 7.06971,-3.9395 21.24015,-8.65656 7.45013,-14.83719 -7.84297,-5.45954 -21.94107,-17.33675 -30.30203,-7.05389 3.81105,2.17852 24.69994,6.39374 24.01205,16.35754 -2.47265,1.15 -7.42734,8.9959 -1.16015,5.53354 z m 20.01586,-7.47866 c 1.13529,-3.95146 -2.26159,-3.07294 0,0 z m 11.92783,-13.38995 c 2.429709,-1.30727 -2.91508,-2.52254 0,0 z"
         id="path4046"
         inkscape:connector-curvature="0" />
      <path
         style="fill:#a3bcc8"
         d="m -168.71172,869.43375 c -14.73955,0.82547 -30.04495,-0.97193 -42.59173,-9.38426 -10.45563,-4.67054 -20.87529,-9.47663 -30.59545,-15.57983 -10.75947,-0.63165 -25.43196,-0.21689 -29.88124,-12.3056 -5.26176,-7.48902 4.26145,-15.59576 -2.00382,-21.99193 -18.02219,-29.27445 -22.59088,-66.72911 -10.88193,-99.15866 6.9714,-12.07467 13.09004,-25.30387 25.10166,-33.36892 1.41994,-2.69669 -10.72258,-1.63609 -3.37277,-7.0758 16.29376,-22.82498 42.76862,-36.95613 70.44322,-39.94041 7.85008,-5.8061 21.84883,-4.43248 32.86686,-2.36714 10.92786,3.6168 22.2402,2.76651 33.02607,6.9413 5.77658,0.008 12.91356,10.31512 11.63669,3.07272 6.13515,1.34733 8.83278,7.66306 11.8762,4.06055 2.7934,5.64346 -2.81678,13.5567 -9.72152,9.26277 -7.48515,11.61565 -16.37308,-7.74363 -25.14649,-8.05904 -5.78922,-4.66174 -20.03375,-3.52889 -19.09731,4.33503 8.516,-2.81979 28.55987,6.76697 22.828,15.3173 -3.75449,5.32372 0.67608,9.98372 -7.93745,10.75596 1.4293,4.41975 17.23201,5.84891 6.92584,8.86776 4.48587,6.80496 15.62656,-0.3916 20.78454,7.41493 5.89329,5.84655 4.39445,19.03538 9.47725,27.04229 2.52788,2.82407 8.467555,0.67152 12.363356,1.50028 0.67165,-8.18528 -3.862809,-26.2585 7.241446,-29.30632 9.710934,-1.61395 -6.661953,-2.76461 2.401418,-7.35433 2.848062,-3.46314 7.711952,-6.17387 5.921145,-11.32805 -0.374179,-3.75442 -11.604203,1.05942 -8.367851,-8.05598 2.96192,-9.86831 25.665483,0.0779 22.253695,-12.15128 9.928709,1.32783 3.374381,20.24043 -0.345381,26.98885 -8.088187,8.23576 -11.171637,17.51343 -3.879092,27.45236 17.395818,41.34648 7.609691,92.03216 -23.600079,124.16776 -11.153527,11.58821 -19.067477,27.19378 -35.052977,33.08617 -13.38993,5.17064 -28.37637,6.89441 -42.6723,7.16152 z m 63.06579,-25.35835 c 14.774799,-17.01976 18.91546,-41.92806 11.968394,-63.16873 -3.999772,8.07705 -14.748014,-20.63626 -12.815974,-2.43367 -0.20532,22.15755 -0.0835,44.31664 -0.11654,66.47491 l 0.52939,-0.47909 0.43473,-0.39342 0,0 z m -140.07118,-1.6421 c 7.69028,0.94965 12.89778,-6.58022 2.78906,-8.50342 -4.14544,-4.02247 9.01166,-12.84797 -3.62557,-9.81516 -6.08152,-1.78954 4.53527,-19.27025 -7.72078,-10.49168 -3.59598,2.78826 0.46264,8.16861 0.19498,12.08395 2.43371,5.19741 -0.68461,18.45652 8.36231,16.72631 z m 134.0783,-101.05436 c 5.46263,1.51994 19.139805,-3.68464 8.7474,-8.30652 -14.03021,8.08871 -25.48408,-4.74773 -30.92713,-16.63989 -4.72979,-4.41526 -16.43754,-8.19549 -9.26758,-16.25889 -16.14833,0.13187 3.19412,-12.27798 3.736,-14.78806 -7.82692,1.567 -12.52511,-2.96295 -20.60663,1.2998 -8.26637,-2.00925 -1.52282,-17.62357 -5.17366,-22.47192 -10.94501,0.20773 -23.16784,-7.86403 -34.68756,-1.73236 -5.96168,2.72728 -17.76457,9.4088 -18.06312,13.18447 9.87531,1.64941 20.091,-1.24007 29.92816,3.74406 12.19586,2.08784 21.95311,11.88176 23.42505,24.30176 7.59805,1.19197 -0.49728,8.79192 8.71791,6.3198 13.40352,4.57134 23.87937,15.31189 32.57788,26.20165 2.59948,4.12849 7.8542,3.06376 11.59328,5.1461 z m 24.248207,-47.64639 c 4.019269,-1.9866 -4.953117,-0.81953 0,0 z m -40.976937,-1.2962 c 6.35748,-1.91711 -3.88128,-3.16319 0,0 z m -129.26574,-24.17838 c 16.43264,-8.92365 -7.66983,0.0532 0,0 z m 129.86095,-24.76421 c 2.4267,-3.5097 -3.21199,-0.48656 0,0 z"
         id="path4044"
         inkscape:connector-curvature="0" />
      <path
         style="fill:#96b4c4"
         d="m -168.71172,868.947 c -14.29961,0.87953 -29.07591,-0.92484 -41.37359,-8.78575 -11.47379,-4.82348 -22.44745,-10.70391 -33.36168,-16.60087 7.61519,-2.40915 8.49779,-7.74479 0.28252,-9.96969 -2.89124,-4.18178 8.63771,-12.06508 -2.74397,-9.62408 -7.59425,-0.59932 4.76035,-19.06922 -8.30723,-10.83653 -12.64264,3.35502 -1.37759,18.72484 -1.52339,27.75896 5.74868,2.5804 9.75846,2.70699 1.26505,1.80803 -12.90977,0.66718 -22.21886,-13.26239 -16.94219,-24.85539 1.76987,-8.10211 -8.68713,-15.17549 -10.14232,-23.48978 -10.87572,-25.09133 -12.06665,-54.13391 -4.12121,-80.21456 7.88368,-16.48608 17.64709,-35.33335 36.71109,-40.60398 12.29274,-0.52557 0.41318,-5.16672 -2.66193,-6.15375 6.91651,-4.3281 1.71572,-10.86538 -4.0004,-4.22412 16.37562,-20.64353 42.71821,-30.05177 68.09436,-33.15955 5.23251,-5.93356 20.83911,-2.48954 29.87827,-0.78214 6.70954,1.47374 25.40932,3.52398 13.7663,11.21844 -7.75346,-3.66415 -21.39683,10.55045 -8.28195,7.30962 6.49576,-1.24623 12.9527,5.76995 17.85271,9.43608 4.73456,4.28927 -5.43562,9.36101 -1.927,14.35411 -5.7971,-0.0675 -13.52997,6.72864 -14.32208,9.59389 6.49754,0.86318 8.47511,8.01212 2.37542,2.38397 -6.28067,1.43145 -18.61283,6.93077 -15.37698,-5.56986 -1.33608,-8.64185 4.94711,-29.07045 -9.35789,-18.13152 -10.76471,2.45054 -23.94981,-2.78611 -33.52052,5.71775 -4.82008,3.62084 -21.12725,12.93404 -5.26924,9.99806 9.95315,2.05213 22.19102,0.81797 32.1249,6.96322 10.24422,4.27048 16.96009,19.7544 17.57792,27.2438 12.73756,-0.43122 22.81259,9.46606 31.2575,17.84189 5.9687,9.76717 15.96884,15.50037 27.59107,13.31639 10.970456,-3.11538 -1.21554,-12.20676 -6.9532,-5.63157 -15.6488,2.95549 -17.53217,-16.30738 -28.17191,-22.61719 -7.85014,-1.35034 -6.44703,-10.38915 -5.21217,-12.95191 -13.70236,1.16628 1.37033,-14.55723 7.32933,-11.66519 6.69852,2.10266 18.33002,-7.3288 20.74868,5.33368 6.46519,7.53604 4.77978,25.7386 17.35927,25.46213 11.855973,1.70258 2.086033,-17.49637 6.928234,-24.54616 1.852063,-8.69562 15.163942,1.13488 11.888197,-9.10494 6.504142,-3.5539 4.614478,-13.26359 1.231819,-16.13356 -11.74862,3.04826 -7.774885,-14.56434 2.690345,-11.05985 7.308792,1.66014 14.678224,-3.24969 16.615089,-5.36236 1.444123,12.6085 -3.180402,24.99317 -11.838761,34.1637 -5.85043,11.29866 8.977077,24.05719 8.788633,36.90659 9.175823,40.04919 -4.934587,84.47585 -36.02622,111.42555 3.603514,-10.82677 8.839041,-23.12282 7.084208,-35.56523 -0.543285,-6.67009 0.394672,-21.5145 -6.304151,-17.37697 -3.541883,-4.54366 -17.547553,-24.92177 -11.872343,-8.88458 5.0198,7.41063 -2.75458,10.61358 -5.13291,12.59644 3.4358,9.82772 5.84411,20.24766 1.66828,30.36913 -5.39015,11.60772 -3.29811,24.71029 -3.04857,37.09082 6.22259,-0.65023 -9.53573,8.25093 -13.33269,9.58552 -12.96774,3.6651 -26.45585,6.18949 -39.9827,6.02331 z m 29.7811,-159.02161 c -2.73344,-4.95207 -7.99954,-3.0243 0,0 l 0,0 z m 51.166119,-15.6786 c 6.51387,-2.24931 -5.0481,-2.53971 0,0 z m -40.631579,-1.35578 c 7.36352,-3.01057 -5.34632,-2.8492 0,0 l 0,0 z m -115.92224,-27.99637 c 5.96788,-1.02012 9.75134,-11.37336 1.91073,-3.4137 -0.0593,0.41832 -5.29772,3.37285 -1.91073,3.4137 z m 13.86949,-20.01571 c 6.32234,1.45411 14.43501,-7.63884 3.72514,-2.71714 -0.52385,0.30431 -6.02813,2.1616 -3.72514,2.71714 z m 43.52216,-9.29733 c 6.1867,-3.78247 -13.68712,-0.73134 0,0 z m 6.67189,-6.49125 c 2.84119,-0.44883 -2.5882,-0.19198 0,0 z m -65.5646,214.70098 c -2.63308,-0.20741 2.851,-0.44756 0,0 z m 119.00259,-194.31154 c -4.02523,-1.08883 -4.92472,-8.35578 0.0915,-5.03745 1.06914,-4.00536 -5.522,-11.15253 3.50162,-7.40499 2.77882,0.89002 11.27414,9.72221 8.49184,1.95774 16.408033,4.4653 -8.86332,7.73217 -12.085,10.4847 z"
         id="path4042"
         inkscape:connector-curvature="0" />
      <path
         style="fill:#89a8b8"
         d="m -169.86603,868.9773 c -14.05485,0.71137 -28.39967,-1.46785 -40.45999,-9.09215 -11.08729,-4.98411 -22.25625,-9.90243 -32.40319,-16.68438 10.14068,-3.03506 4.01442,-7.82753 -1.47414,-11.27172 6.65791,-7.20118 3.46195,-9.36781 -4.36433,-8.99892 1.26964,-5.55353 3.70662,-16.15397 -5.6103,-10.12377 -5.34562,7.70391 -15.32592,-7.77039 -10.46794,6.11994 -0.81519,6.35078 6.42916,21.97998 4.79176,22.44224 -14.12282,-1.68642 -13.23304,-18.29663 -11.55996,-27.86355 -19.01426,-29.62191 -25.20803,-67.82863 -13.34617,-101.29641 7.53918,-14.58847 15.8446,-30.87182 32.14947,-37.1572 12.37441,1.72313 13.10719,-10.97257 19.41597,-18.72629 3.72834,-10.80774 -5.07885,-0.42905 -7.50475,0.54181 -5.68419,-5.42884 2.39566,-9.03268 6.83033,-11.70373 8.13689,0.13063 19.25643,-0.0163 23.8633,-8.13314 -6.53872,0.66291 -12.87504,2.09001 -2.56939,-1.35348 10.24787,-1.86343 21.79063,-6.82356 30.21931,-5.94577 5.44508,2.65186 22.33532,4.63023 20.66826,8.05306 -10.39106,-0.68805 -20.13209,-8.29627 -30.81604,-4.08389 0.47632,3.98034 19.08309,5.05518 26.36565,5.27504 13.6933,1.92327 -10.43512,14.21994 -16.12873,15.91048 -14.46881,3.22997 -27.66894,10.50136 -37.6593,21.04269 10.74202,1.81311 21.43884,-1.27013 31.95298,3.77674 11.80665,2.08672 21.42833,11.39846 23.13776,23.45669 2.67569,1.98933 4.64284,4.30314 3.56651,6.66748 11.59057,-0.2724 20.35799,8.92772 28.57675,15.90814 6.92763,9.99933 16.75368,17.93927 29.08336,15.60647 10.682148,-1.57453 0.71995,-13.51155 -5.87071,-6.54823 -16.93565,3.76698 -18.32371,-17.50044 -30.23374,-23.72269 4.20863,3.61632 17.56765,1.15394 6.33839,-1.80071 -6.56245,-0.5853 -11.93325,-5.8437 -10.37082,-0.47707 -3.23532,-6.51873 7.24633,-10.62056 -4.61824,-10.29736 -3.3325,-6.78036 7.34927,-4.63253 10.58278,-3.27511 5.0407,-11.9712 25.96102,-11.33299 22.5102,4.08401 -7.37383,2.34592 -10.61028,4.14868 -1.98862,6.55746 4.11023,1.87489 8.8618,3.08441 9.95698,8.08736 0.86008,6.10671 6.66834,4.65176 11.251631,5.03112 7.816145,1.12813 1.248636,-13.7258 6.285485,-17.49888 -6.786036,-6.81676 4.418687,-16.27435 10.947473,-8.58505 6.866186,-5.03359 6.416516,-23.83118 -1.975946,-23.69021 -8.91544,-0.16187 -3.224964,-13.97825 5.024362,-11.05123 5.734593,-1.95844 13.426367,2.22618 16.468367,-4.50492 2.064594,10.42262 -2.209598,22.64093 -9.58711,30.89501 -10.565823,8.29909 3.724696,19.66204 4.486775,29.72808 13.618509,42.05965 0.262098,91.22693 -33.037716,120.37214 3.852959,-11.01285 8.569873,-23.36118 7.141935,-35.83175 0.212215,-4.94668 -2.059746,-24.97582 -5.613055,-16.30389 -4.960911,-3.30559 -11.903821,-18.9622 -15.463651,-16.01443 3.58291,6.98537 5.11508,19.34405 -3.29514,18.55683 5.19993,12.3151 5.80073,26.43022 -1.03298,38.33425 -4.49701,4.6109 -9.18293,11.43327 -8.40971,18.33438 0.51636,5.71841 -1.67346,17.73495 3.37105,16.65672 -13.06752,8.01041 -29.04178,9.36739 -44.00333,10.4568 -1.70705,0.0548 -3.41511,0.10322 -5.12184,0.14099 z m 35.42271,-171.03673 c -0.31382,-2.69173 -2.62733,-0.58761 0,0 z m 46.678819,-3.69378 c 6.51387,-2.24931 -5.0481,-2.53971 0,0 z m -40.838359,-1.34872 c 7.68669,-2.97936 -4.63813,-3.29845 0,0 z m -81.20216,-47.18571 c 2.85102,-0.44742 -2.63307,-0.20759 0,0 z m 50.09689,40.56683 c -7.8793,-4.02429 -2.34597,-21.17488 -2.77733,-29.92399 3.81427,-15.19869 22.43405,-6.85706 29.07896,1.80084 3.69951,4.16173 -8.26535,7.68155 -1.84061,12.66202 -6.25273,0.92467 -16.67803,7.41852 -18.15398,11.43237 4.57959,2.78308 -5.05873,3.75032 -6.30704,4.02876 z m 34.24332,-46.01748 c -7.50891,-6.08479 9.75299,-0.97198 0,0 z"
         id="path4040"
         inkscape:connector-curvature="0" />
      <path
         style="fill:#7aa2b6"
         d="m -177.25359,868.26971 c -12.58474,0.56066 -24.14812,-4.17411 -35.08189,-9.81544 -9.37667,-4.43548 -23.66795,-8.84437 -28.46351,-16.16859 13.21586,-5.38154 -11.76411,-8.67049 0.18312,-15.905 2.12106,-6.40042 -13.56174,0.85481 -7.0504,-9.09294 3.97297,-14.08256 -14.65059,3.57571 -19.44867,-5.48132 -6.48548,6.08662 -10.65641,-13.18739 -14.55729,-18.55232 -10.71315,-25.91518 -12.47289,-56.31362 -2.12955,-82.5796 7.43472,-15.30912 17.44509,-32.36658 35.23556,-36.72582 9.37084,-3.32544 5.06725,7.85737 6.13597,12.71215 -0.76046,11.1913 1.54367,24.60628 -7.89909,32.88343 -3.19922,4.14787 2.01773,14.9074 9.24366,10.94287 8.78395,8.67756 5.68077,-7.08344 14.12437,-7.65941 -5.63119,-11.3191 -2.19611,-24.23259 0.0681,-36.16279 2.31154,-5.04016 3.67174,-12.78234 10.79327,-10.73779 9.77412,2.36265 20.95765,-1.67767 30.44842,4.89387 11.48147,1.30825 19.38626,12.20381 20.90155,23.04913 6.72192,1.43121 -0.37777,8.17861 8.777,6.44592 13.25908,4.34619 23.57501,15.06383 32.21002,25.71033 6.36156,5.66275 22.11061,9.49136 25.923593,-0.29519 -7.235633,-7.15685 -22.203773,5.5065 -27.702763,-8.11745 -2.05324,-4.45106 -15.32092,-20.57239 -4.0243,-9.97557 6.21286,6.03256 3.2054,-8.8229 10.35175,-1.39053 3.55545,0.78642 7.46042,5.43847 10.76286,3.42678 3.95282,-4.12896 17.666017,3.91601 16.782617,-3.54179 -1.244993,-6.01293 7.060866,-8.55245 9.319927,-13.40492 -10.883554,3.71837 -12.516612,-17.06352 -0.04547,-11.48581 4.204698,4.60434 5.908473,7.97518 7.614912,0.27111 19.415583,31.74036 20.249505,73.71782 4.12536,107.11359 -6.659948,13.26562 -15.27956,26.18347 -27.00479,35.42899 8.129939,-16.7866 10.522313,-37.10237 3.697568,-54.74979 -3.169461,8.55622 -10.660841,-12.24278 -17.967731,-14.75419 2.37514,6.76172 7.74453,21.6196 -2.99751,19.50465 3.11144,10.70442 6.92837,21.75429 1.89627,32.7023 -4.91332,10.08184 -11.72859,19.83054 -19.8554,28.24814 -3.03222,3.12065 -0.69589,8.54596 -1.42739,12.65429 2.59058,9.4135 -10.50006,7.06415 -16.28776,9.25532 -8.82724,1.14354 -17.76679,1.13725 -26.6524,1.35339 z m 95.22298,-157.47746 c 5.824759,-4.50581 1.854344,-15.40176 0.331873,-3.45972 -0.238818,0.44713 -2.34843,3.45188 -0.331873,3.45972 z m -5.684625,-16.50901 c 6.300543,-2.72305 -5.537069,-2.03222 0,0 z M -267.07622,836.87855 c -7.96458,-3.34398 -4.01202,-27.07715 -1.8154,-10.69291 0.64738,3.55652 1.35855,7.10507 1.8154,10.69291 z m 142.12754,-134.7641 c -10.57327,-0.11073 -15.81029,-10.62427 -3.7937,-14.66472 12.87081,-5.87912 20.59518,15.91551 3.7937,14.66472 z m -3.39161,-9.21638 c 8.62753,-4.14872 -6.39224,-3.20246 0,0 z m 55.430782,-4.61722 c -1.362818,-8.79214 0.04192,-22.6882 -11.315219,-20.47253 -4.341492,-11.81327 12.793884,-9.53558 20.230964,-9.75195 3.457077,0.0471 5.670408,-7.3715 4.738038,0.78967 0.359162,11.40657 -5.555922,21.82259 -13.653783,29.43481 z m -86.887592,-2.05267 c -6.87409,-5.37366 -2.77414,-22.42609 -1.56757,-31.64474 5.29916,-12.57364 21.03047,-4.23853 27.40809,3.41513 6.0055,3.67464 -8.93876,7.32217 -1.74198,12.64817 -7.96514,0.67844 -11.92125,6.97447 -19.39235,10.78096 6.10616,3.41655 -1.97479,4.18933 -4.70619,4.80048 z m -51.39309,-30.46034 c -7.11406,2.28341 -22.87652,-5.51639 -11.17923,-10.6149 12.3629,0.73445 21.53393,-15.13796 33.26335,-8.52327 8.13251,0.83002 19.10987,4.94345 6.86041,10.67809 -8.71035,5.14003 -19.00108,7.31663 -28.94453,8.46008 z m 3.23206,-8.64276 c 13.70729,-6.61065 -12.14952,-2.22643 0,0 z"
         id="path4038"
         inkscape:connector-curvature="0" />
      <path
         style="fill:#6194cc"
         d="m -168.48086,868.0362 c -13.23024,0.63937 -27.03289,-0.19736 -38.64401,-7.22686 -11.73003,-5.43486 -24.40985,-9.61079 -34.50522,-17.9061 11.78614,-4.05654 -1.41988,-7.37595 -1.90785,-12.3593 6.75695,-5.33549 2.05648,-8.57187 -4.24376,-7.25142 -1.6532,-4.32928 5.06409,-17.34872 -6.06319,-10.8598 -5.70367,8.49417 -12.13059,-7.63817 -15.9709,2.21062 -20.72677,-29.1707 -26.43555,-68.63624 -14.58312,-102.40591 7.48161,-15.72373 17.44325,-33.44901 35.6431,-38.00273 12.27576,-0.72867 2.90528,19.68402 5.22736,27.50698 1.24507,12.11772 -15.4309,19.31113 -4.75617,29.86271 6.43999,-2.32092 15.74697,7.88811 15.85459,-3.88957 11.41206,-2.89479 2.64387,-10.51068 2.65113,-17.10776 1.49072,-11.59527 1.45548,-24.29089 9.10898,-33.86151 10.98079,0.0676 21.84402,-1.66253 32.69669,2.95898 11.80665,2.08672 21.42833,11.39846 23.13776,23.45669 3.00059,1.92188 4.22585,4.57235 3.79267,6.82238 11.28861,-0.095 19.87385,8.68405 28.00163,15.41871 6.7277,9.58331 16.20008,18.08574 28.20243,16.01119 11.320659,0.3502 6.366109,-14.10468 -2.91482,-7.76037 -12.34825,5.77911 -21.8432,-10.74352 -23.94259,-17.60999 2.68435,2.92748 7.62364,11.95958 8.47477,2.71144 6.7972,3.18994 12.6191,7.7231 16.31488,0.24506 5.17777,0.10299 10.355531,0.20597 15.533296,0.30895 -1.116688,-6.49928 15.250263,-19.87235 6.838321,-7.85748 5.460194,3.75292 6.983008,-15.01567 9.948196,-19.93816 24.225676,41.18383 18.803807,97.29369 -13.087177,132.97185 -3.102807,3.98694 -13.216896,14.47143 -7.457669,3.35685 6.552288,-14.59519 6.358145,-31.56251 2.139502,-46.76295 -1.148928,-4.86912 -2.756444,6.26044 -6.086533,-2.05429 -3.091386,-5.99146 -17.703546,-22.51302 -10.569196,-6.40772 4.34735,6.8648 -0.23332,12.28613 -5.5939,11.48854 3.20429,10.19233 6.91375,20.98527 2.35482,31.48298 -4.30459,9.88667 -10.83252,19.1395 -18.64667,27.33744 -4.0307,3.5336 -8.00167,7.05864 -6.47367,12.89018 5.5832,14.53813 -15.38876,9.82251 -24.15125,12.05301 -2.10689,0.0759 -4.2147,0.12497 -6.32243,0.16736 z m -101.39428,-35.28073 c -2.60472,-3.96722 -2.32847,-16.07199 -0.91846,-5.49614 0.34249,1.82467 0.78162,3.63886 0.91846,5.49614 z M -83.126083,702.06835 c -13.58382,3.97874 -8.321737,-19.42171 2.265983,-9.69644 5.313192,6.25998 4.114266,6.90507 -2.265983,9.69644 z m -4.589152,-7.78511 c 6.300543,-2.72305 -5.537069,-2.03222 0,0 z m -37.233445,7.83121 c -10.57327,-0.11073 -15.81029,-10.62427 -3.7937,-14.66472 12.87081,-5.87912 20.59518,15.91551 3.7937,14.66472 z m -3.39161,-9.21638 c 8.62753,-4.14872 -6.39224,-3.20246 0,0 z m 55.468274,-4.61722 c -1.393412,-8.79464 -0.0091,-22.6876 -11.352711,-20.47253 -4.338352,-11.8204 12.823813,-9.55683 20.2654,-9.71488 8.409599,-7.5562 4.077977,8.93906 1.926909,15.18143 -2.89231,5.42948 -6.15476,10.93066 -10.839598,15.00598 z m -86.925084,-2.05267 c -7.0588,-5.83059 -3.1478,-23.04853 -0.7304,-32.47686 5.73715,-10.94655 20.39672,-3.0668 26.55038,4.22736 6.05189,3.68245 -8.91486,7.33211 -1.72144,12.66806 -7.85108,0.72819 -12.06705,6.95647 -19.39235,10.74961 6.07752,3.47537 -1.92875,4.20137 -4.70619,4.83183 z m -40.77347,-39.51374 c 1.62572,-6.00916 11.18483,-4.03972 1.36649,-0.3309 l -1.36651,0.3309 2e-5,0 z"
         id="path4036"
         inkscape:connector-curvature="0" />
      <path
         style="fill:#7699ac"
         d="m -168.48086,868.0362 c -13.22276,0.63611 -27.02132,-0.19124 -38.62579,-7.21986 -11.78427,-5.20416 -23.8973,-9.89343 -34.49084,-17.38928 9.22032,-2.99504 4.00178,-8.54139 -2.03933,-11.57815 5.85054,-5.41323 4.33813,-11.28243 -4.06526,-8.77482 1.0097,-6.09368 3.03954,-17.7829 -7.43364,-10.28605 -5.78531,4.60119 -12.64681,-6.36541 -14.68964,1.85526 -4.11923,-4.97492 -6.37317,-11.04173 -9.29842,-15.66448 -4.97472,-11.29927 -8.94086,-22.88509 -10.33455,-35.47761 -1.08888,-17.40063 -1.32091,-35.89591 5.72816,-52.09314 7.40452,-14.71193 16.26485,-31.07208 33.09639,-36.37697 14.23,-4.2621 5.31559,18.61943 6.90028,26.86552 -0.24006,3.81195 -0.59915,7.82287 -2.28951,10.39379 -6.25492,6.02953 -8.89484,9.80155 -4.15472,18.52136 6.31449,1.60469 17.62188,7.32093 17.78638,-2.76108 4.15007,-2.33998 9.43725,-6.18502 4.52919,-10.81696 -1.14975,-2.63065 -2.71387,-6.03595 -1.38401,-9.99214 0.49521,-6.22429 1.65477,-11.64427 2.22845,-17.76618 1.01969,-3.19985 2.84985,-6.7506 4.05355,-9.04385 6.50587,-8.49124 19.78366,-0.81897 29.48297,-2.66917 12.03071,4.01851 25.42112,9.21922 27.77061,23.51058 0.30172,4.78341 6.88403,4.34384 3.34749,9.19338 11.99342,-1.13855 21.18201,8.52102 29.47995,15.76073 6.62015,8.37932 14.70487,18.21718 26.35709,15.41239 10.198202,3.423 13.571158,-12.65751 0.68974,-8.73042 -13.14614,6.73631 -21.94775,-6.95922 -26.63025,-17.24293 3.35438,2.11859 8.10356,12.91381 9.24513,3.08841 6.7972,3.18994 12.6191,7.7231 16.31488,0.24506 5.17777,0.10299 10.355531,0.20597 15.533296,0.30895 -1.116688,-6.49928 15.250263,-19.87235 6.838321,-7.85748 4.405105,3.83053 6.499495,-8.55957 7.747192,-12.74935 1.562622,-16.45957 8.263844,5.6043 10.338533,10.9806 8.246579,22.4951 8.687429,47.71575 2.618003,70.72696 -2.153006,6.39857 -4.808457,14.2781 -7.9958,20.22111 -6.236065,12.52473 -14.689016,24.26152 -25.464947,33.33066 8.499698,-16.27753 9.961299,-36.05543 4.468657,-53.52754 -2.60661,-6.99277 -2.187596,7.45052 -6.179431,-1.95219 -2.797444,-6.30607 -18.500634,-23.44206 -11.525014,-6.64646 2.75453,5.30949 2.89514,14.34477 -5.22113,11.11386 3.04555,11.47527 7.55013,23.33211 1.73649,34.99718 -5.35525,7.23909 -8.98548,16.52935 -15.86454,23.16513 -8.64101,4.45303 -9.48477,14.95781 -7.49502,23.05257 -10.12806,2.77256 -20.62723,3.86475 -31.10891,3.87261 z m 35.14062,-23.69313 c 5.10466,-4.37677 3.23114,-4.23821 0,0 z m 38.927364,-108.54125 c 2.101523,-0.46843 -1.779461,-0.29686 0,0 z m 4.137445,-2.27216 c 2.193111,-1.57503 0.277426,-1.53218 0,0 z M -135.98596,847.1134 c 0.27741,-1.53218 2.19313,-1.57501 0,0 z m -133.88918,-14.35793 c -2.60472,-3.96722 -2.32847,-16.07199 -0.91846,-5.49614 0.34249,1.82467 0.78162,3.63886 0.91846,5.49614 z m 18.37197,-113.53921 c 1.26115,-2.38505 3.23046,-2.60095 0,0 z m 168.377087,-17.14791 c -13.58382,3.97874 -8.321737,-19.42171 2.265983,-9.69644 5.313192,6.25998 4.114266,6.90507 -2.265983,9.69644 z m -4.589152,-7.78511 c 6.300543,-2.72305 -5.537069,-2.03222 0,0 z m -37.233445,7.83121 c -10.57327,-0.11073 -15.81029,-10.62427 -3.7937,-14.66472 12.87081,-5.87912 20.59518,15.91551 3.7937,14.66472 z m -3.39161,-9.21638 c 8.62753,-4.14872 -6.39224,-3.20246 0,0 z m 55.468274,-4.61722 c -1.393412,-8.79464 -0.0091,-22.6876 -11.352711,-20.47253 -4.338352,-11.8204 12.823813,-9.55683 20.2654,-9.71488 8.409599,-7.5562 4.077977,8.93906 1.926909,15.18143 -2.89231,5.42948 -6.15476,10.93066 -10.839598,15.00598 z m -86.925084,-2.05267 c -7.0588,-5.83059 -3.1478,-23.04853 -0.7304,-32.47686 5.73715,-10.94655 20.39672,-3.0668 26.55038,4.22736 6.05189,3.68245 -8.91486,7.33211 -1.72144,12.66806 -7.85108,0.72819 -12.06705,6.95647 -19.39235,10.74961 6.07752,3.47537 -1.92875,4.20137 -4.70619,4.83183 z m -40.77347,-39.51374 c 1.62572,-6.00916 11.18483,-4.03972 1.36649,-0.3309 l -1.36651,0.3309 2e-5,0 z"
         id="path4034"
         inkscape:connector-curvature="0" />
      <path
         style="fill:#2f8bec"
         d="m -181.87081,861.69209 c -21.10862,1.05119 -42.19792,-6.26498 -59.10048,-18.67515 14.13189,-5.12638 -10.04813,-9.61808 0.87591,-16.48397 2.35425,-7.23671 -13.37563,0.37791 -7.06074,-9.40955 3.77022,-15.34578 -14.57586,4.7004 -18.96487,-6.94783 -7.6073,9.20716 -11.58237,-13.01885 -15.66759,-18.14118 -10.17866,-25.69201 -11.82529,-55.74401 -1.32535,-81.54513 7.38417,-15.68927 18.05554,-33.16928 36.59148,-36.35962 5.77059,0.0163 1.85997,8.1773 2.98059,12.03594 -0.40355,11.26185 1.581,24.78341 -8.24313,32.84599 -2.78613,7.41139 3.25825,15.81625 11.67247,14.01481 8.32652,5.81347 7.41787,-9.07745 14.83983,-10.61743 -2.71069,-5.7386 -5.51716,-11.23075 -3.44234,-17.6776 1.87911,-9.58719 1.00702,-27.5213 13.70742,-28.34015 10.90921,1.54132 22.76475,-0.35134 33.0259,6.03742 12.35347,1.99098 16.0571,19.28751 19.965,25.83226 0.55539,4.21809 14.86831,2.12153 18.4689,9.04223 9.45011,5.68085 15.27851,15.34069 23.33928,22.49884 11.95001,5.0971 21.755449,1.14183 30.414599,-6.92519 3.272983,-12.33452 11.173871,-23.27935 14.138533,-35.82613 2.267247,-11.78175 8.938931,13.89085 11.02513,18.40935 12.657858,40.85266 0.277051,88.65476 -31.734791,117.23627 5.29317,-11.85879 7.712286,-24.78915 6.470239,-37.81487 -0.229564,-6.03047 -3.073091,-21.60261 -6.799661,-13.58295 -4.462549,-4.51869 -11.479569,-19.19997 -15.871389,-16.04674 1.71475,5.87583 8.73948,21.02825 -3.18291,17.697 3.04555,11.47527 7.55013,23.33211 1.73649,34.99718 -5.49846,7.91727 -10.02915,17.61501 -17.89438,24.47644 -12.63276,14.16513 -31.43754,19.69904 -49.96414,19.26976 z m 80.85284,-129.76899 c -10.97114,4.72795 -11.28189,-15.83608 -1.27514,-12.70087 7.809471,-1.19729 17.464416,1.94588 9.13581,10.78207 -1.985201,2.256 -5.243813,1.51485 -7.86067,1.9188 z m -23.83011,-29.84041 c -8.74057,-0.78312 -16.18193,-9.07658 -5.03025,-13.71553 12.30015,-8.2693 22.22332,14.09743 5.03025,13.71553 z m -3.80922,-9.19168 c 8.50662,-3.17202 -4.74119,-3.49115 -5e-5,0 l 5e-5,0 z m 43.286488,9.19925 c -14.107976,-0.80847 -0.111553,-19.76232 5.840347,-7.3453 4.342475,3.91748 -2.671997,6.99009 -5.840347,7.3453 z m -2.28143,-7.84347 c 6.601999,-2.47229 -6.140334,-2.29218 0,0 l 0,0 z m 15.386251,-7.02112 c -0.608867,-5.94233 -1.704849,-16.82584 -5.556384,-19.2368 -10.190919,4.88675 -8.52259,-12.7855 1.457599,-8.54885 6.125455,-3.6145 18.643497,1.88678 15.248731,9.83625 -2.063587,6.67347 -6.30153,12.95227 -11.149946,17.9494 z m -88.200759,-1.28164 c -4.10402,-3.05329 -4.00498,-15.41416 0.22131,-19.90377 5.43607,-4.97291 10.74615,-10.08969 16.34962,-14.87501 3.28828,2.4046 14.288,6.93082 9.56412,10.85068 -5.36944,4.23881 0.32094,12.18756 -9.67195,9.09535 1.19397,6.88863 -15.5001,7.37897 -10.22411,13.29776 -1.94648,0.93516 -4.09646,1.37921 -6.23899,1.53499 z"
         id="path4032"
         inkscape:connector-curvature="0" />
      <path
         style="fill:#1675e7"
         d="m -181.87081,861.69209 c -21.10862,1.05119 -42.19792,-6.26498 -59.10048,-18.67515 14.13189,-5.12638 -10.04813,-9.61808 0.87591,-16.48397 2.35425,-7.23671 -13.37563,0.37791 -7.06074,-9.40955 3.77022,-15.34578 -14.57586,4.7004 -18.96487,-6.94783 -7.6073,9.20716 -11.58237,-13.01885 -15.66759,-18.14118 -10.17866,-25.69201 -11.82529,-55.74401 -1.32535,-81.54513 7.38417,-15.68927 18.05554,-33.16928 36.59148,-36.35962 5.77059,0.0163 1.85997,8.1773 2.98059,12.03594 -0.40355,11.26185 1.581,24.78341 -8.24313,32.84599 -2.78613,7.41139 3.25825,15.81625 11.67247,14.01481 8.32652,5.81347 7.41787,-9.07745 14.83983,-10.61743 -2.71069,-5.7386 -5.51716,-11.23075 -3.44234,-17.6776 1.87911,-9.58719 1.00702,-27.5213 13.70742,-28.34015 10.90921,1.54132 22.76475,-0.35134 33.0259,6.03742 12.21455,2.07372 16.58008,19.57421 19.72215,25.9937 2.61923,3.35004 16.38881,3.65586 21.20941,10.68048 9.76453,5.30115 13.75519,18.27576 24.3525,21.62811 11.70257,4.42752 22.001395,-1.9209 28.605762,-11.12429 2.168179,-13.29515 12.55598,-23.71005 13.342891,-37.40248 7.510422,11.78382 11.653081,26.38449 13.907493,40.38346 5.201916,36.45468 -7.969968,75.45794 -35.523555,100.10865 5.29317,-11.85879 7.712286,-24.78915 6.470239,-37.81487 -0.232721,-6.03688 -3.068926,-21.59975 -6.804689,-13.58295 -6.549761,-8.63028 -15.515021,-17.34811 -7.968801,-28.1358 0.40157,-7.117 -15.13489,-4.045 -19.16489,-7.72526 -6.69414,10.6959 0.01,24.89192 -8.17796,35.09331 -5.49619,15.57645 14.23247,0.83162 17.27034,-5.42606 4.97688,-11.98614 10.10783,15.08005 -1.4109,7.05923 3.01323,11.69648 8.16785,23.82006 2.1391,35.78202 -5.49762,7.9175 -10.02897,17.61498 -17.89394,24.47644 -12.63283,14.16514 -31.43735,19.69902 -49.96425,19.26976 z m 4.1555,-51.72705 c 6.75287,-1.79906 24.9825,0.42212 22.59621,-10.44839 -3.88814,-11.06576 -10.06488,-22.00883 -4.94124,-34.16154 2.72843,-15.27431 -19.80892,-13.55883 -26.94702,-5.34103 -5.97887,9.08683 -14.38679,15.90681 -23.43298,21.78557 -10.25597,7.97514 2.36302,22.30101 12.02804,24.52788 6.55125,2.6876 13.60498,4.06194 20.69699,3.63751 z m -61.66068,-59.13767 c 8.92961,-2.69346 1.78546,-16.37568 -6.0068,-14.08658 -3.25657,5.41312 2.03882,12.39572 6.0068,14.08658 z m 71.58153,-34.60649 c 5.68986,-1.9717 -5.48421,-6.54697 -1.54757,-12.03702 -3.70696,-6.48881 -24.82825,0.34558 -9.32235,4.69602 3.64688,2.08241 6.22531,7.56565 10.86992,7.341 z m 66.77649,15.70222 c -10.97114,4.72795 -11.28189,-15.83608 -1.27514,-12.70087 7.809471,-1.19729 17.464416,1.94588 9.13581,10.78207 -1.985201,2.256 -5.243813,1.51485 -7.86067,1.9188 z m -23.83011,-29.84041 c -8.74057,-0.78312 -16.18193,-9.07658 -5.03025,-13.71553 12.30015,-8.2693 22.22332,14.09743 5.03025,13.71553 z m -3.80922,-9.19168 c 8.50662,-3.17202 -4.74119,-3.49115 -5e-5,0 l 5e-5,0 z m 43.286488,9.19925 c -14.107976,-0.80847 -0.111553,-19.76232 5.840347,-7.3453 4.342475,3.91748 -2.671997,6.99009 -5.840347,7.3453 z m -2.28143,-7.84347 c 6.601999,-2.47229 -6.140334,-2.29218 0,0 l 0,0 z m 15.386251,-7.02112 c -0.608867,-5.94233 -1.704849,-16.82584 -5.556384,-19.2368 -10.190919,4.88675 -8.52259,-12.7855 1.457599,-8.54885 6.125455,-3.6145 18.643497,1.88678 15.248731,9.83625 -2.063587,6.67347 -6.30153,12.95227 -11.149946,17.9494 z m -88.200759,-1.28164 c -4.10402,-3.05329 -4.00498,-15.41416 0.22131,-19.90377 5.43607,-4.97291 10.74615,-10.08969 16.34962,-14.87501 3.28828,2.4046 14.288,6.93082 9.56412,10.85068 -5.36944,4.23881 0.32094,12.18756 -9.67195,9.09535 1.19397,6.88863 -15.5001,7.37897 -10.22411,13.29776 -1.94648,0.93516 -4.09646,1.37921 -6.23899,1.53499 z"
         id="path4030"
         inkscape:connector-curvature="0" />
      <path
         style="fill:#2375cd"
         d="m -181.87081,861.69209 c -21.10862,1.05119 -42.19792,-6.26498 -59.10048,-18.67515 14.13189,-5.12638 -10.04813,-9.61808 0.87591,-16.48397 2.35425,-7.23671 -13.37563,0.37791 -7.06074,-9.40955 3.77022,-15.34578 -14.57586,4.7004 -18.96487,-6.94783 -7.6073,9.20716 -11.58237,-13.01885 -15.66759,-18.14118 -10.17866,-25.69201 -11.82529,-55.74401 -1.32535,-81.54513 7.38417,-15.68927 18.05554,-33.16928 36.59148,-36.35962 5.77059,0.0163 1.85997,8.1773 2.98059,12.03594 -0.40355,11.26185 1.581,24.78341 -8.24313,32.84599 -2.78613,7.41139 3.25825,15.81625 11.67247,14.01481 8.32652,5.81347 7.41787,-9.07745 14.83983,-10.61743 -2.71069,-5.7386 -5.51716,-11.23075 -3.44234,-17.6776 1.87911,-9.58719 1.00702,-27.5213 13.70742,-28.34015 10.90921,1.54132 22.76475,-0.35134 33.0259,6.03742 12.21455,2.07372 16.58008,19.57421 19.72215,25.9937 2.61923,3.35004 16.38881,3.65586 21.20941,10.68048 9.76453,5.30115 13.75519,18.27576 24.3525,21.62811 11.70257,4.42752 22.001395,-1.9209 28.605762,-11.12429 2.168179,-13.29515 12.55598,-23.71005 13.342891,-37.40248 7.510422,11.78382 11.653081,26.38449 13.907493,40.38346 5.201916,36.45468 -7.969968,75.45794 -35.523555,100.10865 5.29317,-11.85879 7.712286,-24.78915 6.470239,-37.81487 -0.232721,-6.03688 -3.068926,-21.59975 -6.804689,-13.58295 -6.549761,-8.63028 -15.515021,-17.34811 -7.968801,-28.1358 0.40157,-7.117 -15.13489,-4.045 -19.16489,-7.72526 -6.69414,10.6959 0.01,24.89192 -8.17796,35.09331 -5.49619,15.57645 14.23247,0.83162 17.27034,-5.42606 4.97688,-11.98614 10.10783,15.08005 -1.4109,7.05923 3.01323,11.69648 8.16785,23.82006 2.1391,35.78202 -5.49762,7.9175 -10.02897,17.61498 -17.89394,24.47644 -12.63283,14.16514 -31.43735,19.69902 -49.96425,19.26976 z m -11.54306,-45.58974 c 13.37623,-0.83669 26.92176,-2.6969 39.40207,-7.77845 -2.4863,-1.04058 -10.65171,2.81568 -1.65955,-2.11472 -6.43913,1.92807 5.04141,-2.31235 0.44928,-7.64619 -7.42785,-11.89144 -7.17574,-24.97771 -4.75906,-38.24199 -5.3427,-11.77087 -24.38542,-6.15359 -29.9491,3.25896 -5.55735,10.02392 -17.20561,13.8992 -24.3967,22.16713 -2.73504,5.37837 7.51581,17.06495 7.04115,16.34808 -9.28626,-5.49132 7.48824,7.91878 12.02846,7.88165 5.83031,2.05164 8.83114,3.53314 16.08953,3.65207 -1.88356,0.86441 -17.50784,2.03894 -14.24608,2.47346 z m 15.94421,-2.5334 c -3.58716,-0.5241 2.76187,-1.11025 0,0 z m -9.24924,-1.17475 c -2.63309,-0.20741 2.851,-0.44756 0,0 z m -5.30981,-0.44461 c 2.08119,-0.40406 -2.08116,-0.40407 0,0 z m -55.55377,-36.40318 c 10.68848,-1.84966 3.95968,-17.90788 11.18997,-24.30438 9.89247,-16.56813 -17.31844,-13.89147 -18.10468,-26.63283 -5.39293,-4.02169 -11.0465,-13.24639 -13.95428,-1.45707 -4.05353,9.12657 -6.8835,25.84906 4.73269,30.01806 5.25594,9.24496 3.03926,19.6603 16.1363,22.37622 z m 79.10162,-59.10049 c 7.47173,-1.03112 -4.27533,-6.78911 0.0158,-12.60993 -2.43907,-14.26049 -16.69594,-16.5426 -28.12445,-19.82584 -13.52179,3.62166 9.54228,2.90394 6.803,12.64966 1.74252,10.60526 13.73008,14.4007 21.30568,19.78611 z m 67.46289,15.47718 c -10.97114,4.72795 -11.28189,-15.83608 -1.27514,-12.70087 7.809471,-1.19729 17.464416,1.94588 9.13581,10.78207 -1.985201,2.256 -5.243813,1.51485 -7.86067,1.9188 z m -23.83011,-29.84041 c -8.74057,-0.78312 -16.18193,-9.07658 -5.03025,-13.71553 12.30015,-8.2693 22.22332,14.09743 5.03025,13.71553 z m -3.80922,-9.19168 c 8.50662,-3.17202 -4.74119,-3.49115 -5e-5,0 l 5e-5,0 z m 43.286488,9.19925 c -14.107976,-0.80847 -0.111553,-19.76232 5.840347,-7.3453 4.342475,3.91748 -2.671997,6.99009 -5.840347,7.3453 z m -2.28143,-7.84347 c 6.601999,-2.47229 -6.140334,-2.29218 0,0 l 0,0 z m 15.386251,-7.02112 c -0.608867,-5.94233 -1.704849,-16.82584 -5.556384,-19.2368 -10.190919,4.88675 -8.52259,-12.7855 1.457599,-8.54885 6.125455,-3.6145 18.643497,1.88678 15.248731,9.83625 -2.063587,6.67347 -6.30153,12.95227 -11.149946,17.9494 z m -88.200759,-1.28164 c -4.10402,-3.05329 -4.00498,-15.41416 0.22131,-19.90377 5.43607,-4.97291 10.74615,-10.08969 16.34962,-14.87501 3.28828,2.4046 14.288,6.93082 9.56412,10.85068 -5.36944,4.23881 0.32094,12.18756 -9.67195,9.09535 1.19397,6.88863 -15.5001,7.37897 -10.22411,13.29776 -1.94648,0.93516 -4.09646,1.37921 -6.23899,1.53499 z"
         id="path4028"
         inkscape:connector-curvature="0" />
      <path
         style="fill:#587890"
         d="m -184.03816,861.76024 c -7.34117,0.0555 -13.67295,-0.94349 -19.35159,-2.10126 -3.45369,-0.65665 -6.47367,-1.31292 -10.43907,-2.43758 -9.51743,-3.57718 -19.27554,-7.96284 -27.11499,-14.3679 9.69333,-2.6099 2.86383,-8.42077 -2.33609,-10.93243 8.13862,-7.80101 0.59511,-8.9864 -4.75405,-10.77998 5.98051,-8.8606 -2.20111,-14.90157 -9.58251,-7.1274 -5.00551,-0.84527 -9.7566,-5.43685 -13.15984,-0.95225 -3.37729,-5.95642 -7.56857,-12.51239 -9.8759,-18.58433 -10.87508,-24.87152 -12.47045,-54.85411 -3.7537,-81.00633 6.97786,-13.8994 13.99908,-29.45042 28.9365,-36.46648 6.82808,-4.71253 14.8443,-3.52052 11.96645,5.65731 -1.0159,11.56897 2.57567,25.93666 -7.05534,34.67429 -6.15824,3.28488 4.16623,23.39871 -3.26339,9.1446 -3.95482,-4.80725 -11.92862,-15.84808 -14.62982,-3.32831 -4.05353,9.12657 -6.8835,25.84906 4.73269,30.01806 3.69863,10.45482 6.39373,20.07415 17.4531,25.11738 9.03082,-4.37745 3.12485,-21.44494 10.93779,-28.73737 4.00472,-6.59242 -7.24017,-14.00461 2.32296,-17.30551 -0.3255,-6.98515 12.81278,-9.06007 5.14283,-15.9344 -2.4219,-10.55385 -0.35193,-23.97597 4.56517,-34.03183 3.16029,-11.3398 15.32502,-2.21965 22.65765,-4.8236 11.51271,1.58211 26.00352,5.01295 31.40697,16.65595 4.99602,6.15447 1.89605,11.13484 -2.26341,2.52738 -5.72601,-9.05122 -20.86741,-13.56853 -29.57316,-10.58022 4.82754,0.59878 13.2651,8.43518 13.55546,16.81085 7.88528,6.47082 19.26491,20.78873 27.89705,8.1741 11.19621,-0.40931 19.73307,9.59778 27.57224,16.40806 3.39461,3.20905 14.46938,15.79303 6.46967,15.05849 -7.10655,-12.65983 -20.74613,-18.68219 -34.82626,-15.03988 -21.99689,2.83903 -44.72683,17.32018 -49.8867,39.9581 3.08501,8.39424 -0.70493,13.67054 -5.6007,19.69032 3.26217,9.74942 2.83136,26.16841 14.87799,29.02855 15.79001,0.0557 31.85448,-1.9679 46.62663,-7.68618 2.85422,-6.44323 -3.08936,-16.00761 8.46305,-16.78001 6.52433,-3.2879 10.54521,-9.26396 15.21181,-0.53617 6.76217,8.59481 17.16197,-8.94757 18.46638,5.06883 3.23671,12.4148 -2.70901,23.86534 -8.72977,32.24703 -6.10578,9.98416 -14.99971,19.15486 -24.90131,24.87619 -3.03751,2.20813 -6.69102,2.856 -8.48738,4.34696 -3.04062,0.4517 -5.59467,1.36434 -8.31554,1.95027 -4.84611,0.94784 -7.81991,1.67982 -14.01266,1.61763 -1.68077,0.87135 -5.04638,0.36599 -7.34921,0.50907 z m 88.505737,-29.88368 c 6.777593,-16.11892 8.405117,-35.048 2.900946,-51.82836 -3.415117,-7.60546 -2.110418,7.92557 -6.344139,-2.03761 -7.198174,-9.45592 13.486062,-6.81207 13.158181,-17.78641 2.052697,-7.00589 3.98167,-20.11952 0.446649,-23.97534 -4.392623,4.65333 -13.19452,3.62978 -16.760674,11.09883 0.11488,-6.53588 6.916994,-10.64644 12.467672,-13.62285 2.672262,-4.51173 2.520728,-7.87349 3.60043,-11.27653 1.696703,-3.4436 1.869272,-5.09378 4.23965,-8.61165 0.925498,-2.66256 2.740676,-4.87457 3.609649,-7.08692 1.482085,-4.44884 2.88671,-7.58116 3.080954,-13.24256 6.165972,3.87647 10.565426,23.32173 13.129421,33.43895 5.371568,26.12767 0.551097,54.61374 -12.030486,77.2665 -5.550773,9.76583 -12.664631,20.02422 -21.498253,27.66395 z m 1.014898,-0.92345 c 3.230449,-2.60091 1.261183,-2.38508 0,0 z m -149.774005,-96.9688 c -5.27819,-1.39068 6.92822,-1.1351 0,0 z m 143.27356,-2.06121 c -10.97114,4.72795 -11.28189,-15.83608 -1.27514,-12.70087 7.809471,-1.19729 17.464416,1.94588 9.13581,10.78207 -1.985201,2.256 -5.243813,1.51485 -7.86067,1.9188 z m -23.83011,-29.84041 c -8.74057,-0.78312 -16.18193,-9.07658 -5.03025,-13.71553 12.30015,-8.2693 22.22332,14.09743 5.03025,13.71553 z m -3.80922,-9.19168 c 8.50662,-3.17202 -4.74119,-3.49115 -5e-5,0 l 5e-5,0 z m 43.286488,9.19925 c -14.107976,-0.80847 -0.111553,-19.76232 5.840347,-7.3453 4.342475,3.91748 -2.671997,6.99009 -5.840347,7.3453 z m -2.28143,-7.84347 c 6.601999,-2.47229 -6.140334,-2.29218 0,0 l 0,0 z m 15.386251,-7.02112 c -0.608867,-5.94233 -1.704849,-16.82584 -5.556384,-19.2368 -10.190919,4.88675 -8.52259,-12.7855 1.457599,-8.54885 6.125455,-3.6145 18.643497,1.88678 15.248731,9.83625 -2.063587,6.67347 -6.30153,12.95227 -11.149946,17.9494 z m -88.200759,-1.28164 c -4.10402,-3.05329 -4.00498,-15.41416 0.22131,-19.90377 5.43607,-4.97291 10.74615,-10.08969 16.34962,-14.87501 3.28828,2.4046 14.288,6.93082 9.56412,10.85068 -5.36944,4.23881 0.32094,12.18756 -9.67195,9.09535 1.19397,6.88863 -15.5001,7.37897 -10.22411,13.29776 -1.94648,0.93516 -4.09646,1.37921 -6.23899,1.53499 z"
         id="path4026"
         inkscape:connector-curvature="0" />
      <path
         style="fill:#1467cb"
         d="m -182.10167,861.22273 c -20.75675,0.72806 -41.67833,-5.87971 -58.40125,-18.17736 11.50038,-4.19873 -1.85078,-8.08167 -2.23003,-12.39594 8.598,-7.52729 -1.65823,-7.28422 -5.301,-9.50838 5.98051,-8.8606 -2.20111,-14.90157 -9.58251,-7.1274 -4.51619,-0.52374 -9.6761,-5.4926 -12.73001,-0.99853 -19.62493,-29.31127 -25.48409,-68.18847 -13.11728,-101.41724 6.99565,-14.33585 15.25764,-29.93854 31.2309,-35.79373 8.64506,-5.29938 9.05487,1.91257 8.23433,8.1378 -0.63345,11.6488 2.40539,25.6852 -7.52676,34.31567 -4.7416,2.58811 5.13275,20.83399 -1.8326,10.08487 -2.06819,-4.46508 -11.46633,-17.93085 -14.36661,-6.58919 -4.29984,8.58083 -8.0921,25.58886 2.61184,30.23029 6.41034,9.09281 5.80163,21.4856 18.45566,25.70681 8.69305,-0.44958 3.97607,-19.98804 10.09539,-25.89891 6.41867,-7.40173 -5.90733,-15.79494 3.90389,-19.86513 2.25139,-6.44614 11.75651,-9.50403 4.42748,-17.22798 -1.91025,-8.78506 1.07219,-18.83913 2.98626,-27.63088 2.36711,-15.83888 16.18263,-8.09071 26.04752,-9.71554 11.70585,2.59967 26.23097,5.79503 30.96721,18.56215 4.65388,15.72373 -8.03056,-11.41867 -16.45378,-8.297 -3.168,-2.40545 -20.50355,-4.42465 -14.80887,-0.6595 13.01757,1.88554 8.32383,21.40154 22.0708,23.75296 5.3004,8.18858 12.55919,6.60231 17.80472,0.33239 11.19621,-0.40931 19.73307,9.59778 27.57224,16.40806 3.39461,3.20905 14.46938,15.79303 6.46967,15.05849 -7.10655,-12.65983 -20.74613,-18.68219 -34.82626,-15.03988 -21.99689,2.83903 -44.72683,17.32018 -49.8867,39.9581 3.08501,8.39424 -0.70493,13.67054 -5.6007,19.69032 3.26217,9.74942 2.83136,26.16841 14.87799,29.02855 15.79001,0.0557 31.85448,-1.9679 46.62663,-7.68617 2.85422,-6.44324 -3.08936,-16.00762 8.46305,-16.78002 6.52433,-3.2879 10.54521,-9.26396 15.21181,-0.53617 6.76217,8.59481 17.16197,-8.94757 18.46638,5.06883 3.23265,12.85113 -2.98222,24.84569 -9.4754,33.58578 -11.90576,18.86382 -33.19303,31.41755 -55.67624,31.27934 l -2.24957,0.0819 -2.45824,0.0626 4e-5,-4e-5 z m 90.909383,-34.06431 c -7.167249,8.50614 -3.00699,1.03548 -0.581473,-5.78511 2.959094,-14.02365 4.194003,-29.83266 -1.870915,-43.20013 -2.79274,-1.27411 -1.341953,7.99713 -5.330942,-0.16259 -7.198173,-9.45592 13.486063,-6.81207 13.158182,-17.78641 2.052697,-7.00589 3.98167,-20.11952 0.446649,-23.97534 -4.392623,4.65333 -13.19452,3.62978 -16.760674,11.09883 0.35339,-11.05022 17.795971,-12.3085 17.10721,-26.18944 5.018603,-7.05586 8.81196,-23.81744 11.770501,-26.48605 20.143853,37.7236 17.058515,86.53698 -8.327131,121.06875 -2.851251,4.08492 -6.186902,7.80959 -9.611407,11.41749 z M -244.29153,733.98431 c -5.27819,-1.39068 6.92822,-1.1351 0,0 z m 143.40924,-2.56496 c -10.93189,4.52119 -10.55632,-15.47146 -0.50128,-11.70419 8.512428,-2.32969 15.507932,3.72077 6.769882,10.81766 -2.029102,0.6469 -4.163529,0.74723 -6.268602,0.88653 z m -23.83197,-29.76662 c -9.53982,-0.0807 -15.51028,-9.99849 -3.99593,-13.75212 11.67952,-6.5751 19.87992,15.16269 3.99593,13.75212 z m -3.53604,-8.75466 c 8.37453,-4.13314 -7.34784,-2.59413 0,0 z m 4.55652,-2.77033 c 1.65641,-1.17969 -1.65641,-1.17969 0,0 z m 38.461328,11.53292 c -7.897664,1.06588 -7.538857,-10.15902 -0.616866,-8.04978 -1.749613,-2.67601 -6.343448,-2.12705 1.767389,-2.34545 7.05325,2.4935 7.02444,9.99706 -1.150523,10.39523 z m 13.65288,-15.68842 c -3.864974,-12.20384 7.861239,-5.78197 0,0 z m -67.799948,-15.24392 c -3.96608,-0.90187 6.03361,-2.16809 0,0 z"
         id="path4024"
         inkscape:connector-curvature="0" />
      <path
         style="fill:#1561bd"
         d="m -182.10167,861.22273 c -20.75675,0.72806 -41.67833,-5.87971 -58.40125,-18.17736 11.50038,-4.19873 -1.85078,-8.08167 -2.23003,-12.39594 8.598,-7.52729 -1.65823,-7.28422 -5.301,-9.50838 5.98051,-8.8606 -2.20111,-14.90157 -9.58251,-7.1274 -4.51619,-0.52374 -9.6761,-5.4926 -12.73001,-0.99853 -19.62493,-29.31127 -25.48409,-68.18847 -13.11728,-101.41724 6.99565,-14.33585 15.25764,-29.93854 31.2309,-35.79373 8.64506,-5.29938 9.05487,1.91257 8.23433,8.1378 -0.63018,11.66016 2.40345,25.70986 -7.54924,34.34075 -3.17878,4.26342 1.2988,9.08052 -5.81046,3.60124 -5.46808,-3.32393 -13.05847,-15.88976 -18.03067,-13.54254 -11.02062,14.48605 -13.39545,35.99847 -3.90494,51.73734 5.96922,-14.40649 22.83035,-6.32486 18.25324,7.51756 -7.25685,14.68181 13.19125,26.18165 18.55672,8.67823 3.79134,-10.21202 3.01563,-21.31345 8.90014,-30.82208 -6.57911,-9.8592 2.3929,-16.4192 8.77273,-23.30645 -3.71554,-6.22073 -5.405,-12.66931 -3.27496,-19.87091 0.7245,-10.17732 3.96534,-30.52167 17.89798,-25.14557 11.03642,-0.91568 22.14126,2.75287 32.71706,7.3716 8.59413,7.26288 -12.01298,0.76522 -16.08648,-0.44039 -4.85065,-3.55235 -10.60442,-3.15921 -16.29994,-2.83486 -9.34184,-0.75395 -14.99237,17.14745 -1.38769,11.91642 9.44847,-9.80055 22.66108,-3.71881 23.0809,9.54749 6.98241,6.561 20.51945,22.42112 27.96538,8.43938 11.46146,-0.9602 20.18126,9.45397 28.15462,16.32186 3.45167,3.12793 14.49966,16.10734 6.40403,14.95506 -7.59553,-9.64567 -16.84072,-21.21793 -29.90263,-22.4272 -12.66675,1.40182 -25.90556,-0.0726 -36.62561,8.46234 -6.03266,3.77454 -10.5956,12.44386 -16.99311,19.05387 -6.47538,6.96043 -10.24892,16.49541 -11.01704,25.80928 3.02704,11.0288 6.00891,22.05777 8.30068,33.19094 7.7686,10.87557 12.64598,26.16214 29.16549,23.40055 10.19221,-0.8642 29.64351,1.55248 28.67892,-13.30015 2.2957,-6.19881 -1.86684,-15.7576 6.80627,-17.1278 6.27125,-0.93908 11.41939,-10.96443 17.53034,-7.07029 6.77295,6.15609 19.3112,-5.77086 18.17731,8.18741 1.24775,13.49949 -5.74639,22.36874 -12.08205,32.085 -12.25751,17.28341 -32.45154,28.51603 -53.7921,28.40816 l -2.24957,0.0819 -2.45824,0.0626 -2.3e-4,-4e-5 z m 90.924236,-34.06431 c -5.728715,6.64825 -4.40045,3.70635 -1.154192,-2.75167 3.426543,-13.00913 4.067686,-27.17564 1.421002,-40.39556 -1.054507,-6.63412 -4.739962,-7.72876 -5.340165,-2.64869 -9.062851,-6.48353 -2.015915,-11.25387 5.451723,-11.53014 10.513004,-12.26215 21.198761,-26.81246 21.89369,-43.50303 -1.706958,-6.42266 -5.665774,-23.5198 -10.854418,-9.65258 -4.629377,10.36813 -4.66435,22.956 -17.154062,25.21247 -2.590388,7.07098 -8.802674,3.2362 -3.090594,0.68644 4.266747,-7.71739 15.264732,-10.02877 14.979691,-21.41747 5.018602,-7.05586 8.811964,-23.81746 11.770501,-26.48604 20.143855,37.72359 17.058512,86.53697 -8.327131,121.06874 -2.84958,4.08155 -6.180796,7.80752 -9.596045,11.41753 z m -9.704856,-95.73907 c -10.93189,4.52119 -10.55632,-15.47146 -0.50128,-11.70419 8.512428,-2.32969 15.507932,3.72077 6.769882,10.81766 -2.029102,0.6469 -4.163529,0.74723 -6.268602,0.88653 z m -87.7451,-3.89209 c 3.27208,-2.79148 9.29421,-3.92468 0,0 z m 63.91313,-25.87453 c -9.53982,-0.0807 -15.51028,-9.99849 -3.99593,-13.75212 11.67952,-6.5751 19.87992,15.16269 3.99593,13.75212 z m -3.53604,-8.75466 c 8.37453,-4.13314 -7.34784,-2.59413 0,0 z m 4.55652,-2.77033 c 1.65641,-1.17969 -1.65641,-1.17969 0,0 z m 38.461328,11.53292 c -7.897664,1.06588 -7.538857,-10.15902 -0.616866,-8.04978 -1.749613,-2.67601 -6.343448,-2.12705 1.767389,-2.34545 7.05325,2.4935 7.02444,9.99706 -1.150523,10.39523 z m 13.65288,-15.68842 c -3.864974,-12.20384 7.861239,-5.78197 0,0 z m -67.799948,-15.24392 c -3.96608,-0.90187 6.03361,-2.16809 0,0 z"
         id="path4022"
         inkscape:connector-curvature="0" />
      <path
         style="fill:#065bc6"
         d="m -185.33373,860.9284 c -19.29106,-0.44594 -38.73283,-6.19714 -54.23461,-17.86926 13.03921,-6.32965 -11.07794,-9.33975 0.10032,-16.50136 3.05916,-8.4207 -13.97756,0.65866 -7.07927,-9.48325 4.31184,-12.02103 -9.45698,-4.25443 -13.85412,-3.42158 -3.10686,-7.12152 -8.26688,-0.69292 -10.29968,-1.85156 -18.9172,-28.51808 -23.91492,-65.62049 -13.4496,-98.15954 7.18525,-13.54425 13.75706,-29.1705 28.6143,-36.02056 5.34299,-3.26054 14.32594,-5.28053 11.34183,3.56034 -0.48101,10.05243 0.51521,20.37586 -2.28949,30.1332 -7.211,4.17075 -5.1944,18.87648 -13.37688,8.37296 -4.84534,-2.31068 -12.28374,-16.72647 -16.37453,-10.19645 -10.27747,14.43099 -12.30968,35.2688 -3.05837,50.58736 5.96922,-14.40649 22.83035,-6.32486 18.25324,7.51756 -6.84328,13.72564 10.06172,22.30354 16.83724,15.8462 1.36238,12.28988 8.2785,26.06351 20.54665,30.18398 10.58372,1.50989 21.8668,0.78443 25.08351,13.37216 13.84186,4.25513 29.79051,4.18477 42.99946,-2.00846 1.20626,-10.43898 1.81464,-21.25282 14.97018,-22.19732 8.49942,-2.40859 23.79916,-15.78741 28.30292,-5.50993 1.93458,9.91929 -1.40559,22.34952 -7.42806,27.50286 -7.02331,14.98765 -21.00623,26.86965 -36.57568,32.3146 -9.40001,2.87365 -19.22803,3.91343 -29.02936,3.82805 z m 92.322399,-32.2839 c 0.0097,-3.91129 5.688679,-21.13336 3.694242,-30.52949 0.380178,-5.11116 -1.389914,-23.03745 -6.122736,-18.98627 -4.41608,4.30679 -3.849515,-8.08211 2.763054,-7.97249 11.32177,-10.54381 19.908764,-24.78124 23.541965,-39.90004 0.859302,-5.77384 -3.751662,-27.23677 -9.713816,-17.67887 -8.326417,12.18611 3.041935,-8.55072 3.571868,-13.50142 1.160707,-13.68575 7.491844,8.73705 9.482212,13.54883 6.495691,19.85382 6.857263,41.62742 2.276552,61.92166 -4.7533,19.99719 -15.126885,38.43279 -29.493341,53.09809 z M -232.10929,743.83763 c -9.27862,-6.64776 2.54203,-15.13742 7.76001,-21.63669 -7.143,-11.75568 -3.18783,-26.42412 0.92246,-38.57466 4.34418,-12.68179 16.28994,-2.55148 25.39572,-5.70985 6.93934,0.52314 16.57845,5.55202 7.92742,6.64737 4.94242,-1.65768 14.8757,-0.80519 4.30823,0.64514 -10.7098,-1.17865 -27.73834,-10.90209 -33.94132,4.04389 2.97119,14.16627 22.87705,-12.13178 28.32824,4.03772 1.01737,7.36842 11.18495,16.51675 -1.37166,18.13823 -15.24682,7.61455 -30.59366,17.34891 -39.3291,32.40885 z m 131.227,-12.41828 c -10.93189,4.52119 -10.55632,-15.47146 -0.50128,-11.70419 8.512428,-2.32969 15.507932,3.72077 6.769882,10.81766 -2.029102,0.6469 -4.163529,0.74723 -6.268602,0.88653 z m -44.28158,-13.61982 c -4.47629,-1.49652 -23.9832,-2.42318 -11.79332,-6.43255 4.50189,0.23322 8.69351,3.43347 11.79332,6.43255 z m 20.44961,-16.1468 c -9.53982,-0.0807 -15.51028,-9.99849 -3.99593,-13.75212 11.67952,-6.5751 19.87992,15.16269 3.99593,13.75212 z m -3.53604,-8.75466 c 8.37453,-4.13314 -7.34784,-2.59413 0,0 z m 4.55652,-2.77033 c 1.65641,-1.17969 -1.65641,-1.17969 0,0 z m 38.461328,11.53292 c -7.897664,1.06588 -7.538857,-10.15902 -0.616866,-8.04978 -1.749613,-2.67601 -6.343448,-2.12705 1.767389,-2.34545 7.05325,2.4935 7.02444,9.99706 -1.150523,10.39523 z m -93.675638,-13.87799 c -1.77946,-0.297 2.10159,-0.46843 0,0 z m -0.31399,-0.78159 c -8.00007,-0.4628 7.77553,-0.79575 0,0 z m 107.642508,-1.02884 c -3.864974,-12.20384 7.861239,-5.78197 0,0 z m -67.799948,-15.24392 c -3.96608,-0.90187 6.03361,-2.16809 0,0 z"
         id="path4020"
         inkscape:connector-curvature="0" />
      <path
         style="fill:#575f64"
         d="m -185.33373,860.9284 c -19.29106,-0.44594 -38.73283,-6.19714 -54.23461,-17.86926 13.03921,-6.32965 -11.07794,-9.33975 0.10032,-16.50136 3.05916,-8.4207 -13.97756,0.65866 -7.07927,-9.48325 4.31184,-12.02103 -9.45698,-4.25443 -13.85412,-3.42158 -3.10686,-7.12152 -8.26688,-0.69292 -10.29968,-1.85156 -10.05513,-15.77093 -17.03675,-33.89496 -18.22431,-52.64613 6.99761,17.27321 13.41665,-12.58444 24.0688,-5.59899 9.45917,9.30858 -5.8121,29.39674 11.52218,32.98748 6.59784,-2.2474 10.38234,-7.50542 10.192,2.98344 3.11726,11.66319 11.54088,24.52979 24.77319,25.06575 13.80141,-3.08536 19.44466,11.35127 19.53267,22.49688 -4.13398,7.76863 -6.09113,24.58973 7.90334,17.77612 10.40594,-2.92182 20.63691,-6.66544 27.26921,-15.71311 10.36181,-6.28845 10.41659,-18.91381 11.28953,-29.57793 2.66202,-6.62499 15.11782,-6.07138 20.79501,-11.02971 4.72995,-3.97561 10.49038,-3.20126 15.93526,-4.42773 7.71888,3.0936 3.00514,22.51169 -1.57169,27.84451 -5.59672,8.57667 -13.63393,21.31843 -24.25423,27.70424 -12.57098,9.1755 -28.70033,11.27307 -43.8636,11.26219 z m 92.277326,-32.2839 c -2.344162,1.26082 12.716833,-11.35603 2.357347,-10.67058 2.181682,-7.05283 0.637014,-15.05662 2.25127,-21.93773 7.530038,-5.91546 9.819456,-15.51744 15.362856,-22.66767 13.527199,-2.38426 9.161018,-18.49805 10.09047,-28.52666 -1.090808,-14.70224 -2.564469,-30.04113 -9.641869,-43.24276 -0.855247,6.22831 -15.024228,25.52656 -6.736044,9.30615 4.452095,-6.19983 4.183842,-25.1505 9.335492,-8.65165 9.881131,22.13206 11.919722,47.38443 7.039704,71.00963 -4.520877,20.85774 -15.069589,40.20635 -30.059226,55.38127 z m -2.93113,-47.55742 c -9.606906,-6.23764 9.862367,-14.73086 3.912683,-1.93951 -2.70947,-4.0853 -3.392376,-1.31038 -3.912683,1.93951 z M -288.95301,743.68755 c -0.55243,11.82377 -0.64419,-5.22808 0.16145,-8.79027 0.86975,-6.57476 2.89655,-18.76806 5.28353,-21.62354 -2.99177,9.89952 -4.91579,20.07562 -5.44498,30.41381 z m 56.84372,0.15008 c -9.27862,-6.64776 2.54203,-15.13742 7.76001,-21.63669 -7.143,-11.75568 -3.18783,-26.42412 0.92246,-38.57466 4.34418,-12.68179 16.28994,-2.55148 25.39572,-5.70985 6.88249,-1.22785 10.69014,5.83145 1.71555,3.89899 -8.63579,-5.87159 -29.99682,1.5733 -22.49719,12.18144 9.78291,2.46384 24.84671,-14.86131 28.32834,3.60367 2.39029,6.48427 8.31248,12.22794 -2.29579,13.82824 -15.24682,7.61456 -30.59364,17.34888 -39.3291,32.40886 z m 131.227,-12.41828 c -10.93189,4.52119 -10.55632,-15.47146 -0.50128,-11.70419 8.512428,-2.32969 15.507932,3.72077 6.769882,10.81766 -2.029102,0.6469 -4.163529,0.74723 -6.268602,0.88653 z m -152.71488,-7.61945 c -8.64749,-5.09998 -16.38693,-16.98078 -23.2738,-20.71796 -9.07296,13.15425 2.75467,-10.05223 6.85596,-13.7328 6.48923,-7.60488 15.51656,-14.56945 25.94915,-14.59216 -0.62586,12.18493 0.65651,24.67241 -2.41819,36.55785 -2.02088,4.1938 -8.5332,7.16465 -7.11312,12.48507 z m 108.4333,-6.00037 c -4.47629,-1.49652 -23.9832,-2.42318 -11.79332,-6.43255 4.50189,0.23322 8.69351,3.43347 11.79332,6.43255 z m 20.44961,-16.1468 c -9.53982,-0.0807 -15.51028,-9.99849 -3.99593,-13.75212 11.67952,-6.5751 19.87992,15.16269 3.99593,13.75212 z m -3.53604,-8.75466 c 8.37453,-4.13314 -7.34784,-2.59413 0,0 z m 4.55652,-2.77033 c 1.65641,-1.17969 -1.65641,-1.17969 0,0 z m 38.461328,11.53292 c -7.897664,1.06588 -7.538857,-10.15902 -0.616866,-8.04978 -1.749613,-2.67601 -6.343448,-2.12705 1.767389,-2.34545 7.05325,2.4935 7.02444,9.99706 -1.150523,10.39523 z m 13.65288,-15.68842 c -3.864974,-12.20384 7.861239,-5.78197 0,0 z m -67.799948,-15.24392 c -3.96608,-0.90187 6.03361,-2.16809 0,0 z"
         id="path4018"
         inkscape:connector-curvature="0" />
      <path
         style="fill:#0855ba"
         d="m -185.33373,860.9284 c -19.29106,-0.44594 -38.73283,-6.19714 -54.23461,-17.86926 13.03921,-6.32965 -11.07794,-9.33975 0.10032,-16.50136 3.05916,-8.4207 -13.97756,0.65866 -7.07927,-9.48325 4.31184,-12.02103 -9.45698,-4.25443 -13.85412,-3.42158 -3.10686,-7.12152 -8.26688,-0.69292 -10.29968,-1.85156 -10.05513,-15.77093 -17.03675,-33.89496 -18.22431,-52.64613 6.99761,17.27321 13.41665,-12.58444 24.0688,-5.59899 9.45917,9.30858 -5.8121,29.39674 11.52218,32.98748 6.59784,-2.2474 10.38234,-7.50542 10.192,2.98344 3.11726,11.66319 11.54088,24.52979 24.77319,25.06575 13.80141,-3.08536 19.44466,11.35127 19.53267,22.49688 -4.13398,7.76863 -6.09113,24.58973 7.90334,17.77612 10.40594,-2.92182 20.63691,-6.66544 27.26921,-15.71311 10.36181,-6.28845 10.41659,-18.91381 11.28953,-29.57793 2.66202,-6.62499 15.11782,-6.07138 20.79501,-11.02971 4.72995,-3.97561 10.49038,-3.20126 15.93526,-4.42773 7.71888,3.0936 3.00514,22.51169 -1.57169,27.84451 -5.59672,8.57667 -13.63393,21.31843 -24.25423,27.70424 -12.57098,9.1755 -28.70033,11.27307 -43.8636,11.26219 z m 92.277326,-32.2839 c -2.344162,1.26082 12.716833,-11.35603 2.357347,-10.67058 2.181682,-7.05283 0.637014,-15.05662 2.25127,-21.93773 7.530038,-5.91546 9.819456,-15.51744 15.362856,-22.66767 13.527199,-2.38426 9.161018,-18.49805 10.09047,-28.52666 -1.090808,-14.70224 -2.564469,-30.04113 -9.641869,-43.24276 -0.855247,6.22831 -15.024228,25.52656 -6.736044,9.30615 4.452095,-6.19983 4.183842,-25.1505 9.335492,-8.65165 9.881131,22.13206 11.919722,47.38443 7.039704,71.00963 -4.520877,20.85774 -15.069589,40.20635 -30.059226,55.38127 z m -2.93113,-47.55742 c -9.606906,-6.23764 9.862367,-14.73086 3.912683,-1.93951 -2.70947,-4.0853 -3.392376,-1.31038 -3.912683,1.93951 z M -288.95301,743.68755 c -0.55243,11.82377 -0.64419,-5.22808 0.16145,-8.79027 0.86975,-6.57476 2.89655,-18.76806 5.28353,-21.62354 -2.99177,9.89952 -4.91579,20.07562 -5.44498,30.41381 z m 56.84372,0.15008 c -9.27862,-6.64776 2.54203,-15.13742 7.76001,-21.63669 -7.143,-11.75568 -3.18783,-26.42412 0.92246,-38.57466 4.34418,-12.68179 16.28994,-2.55148 25.39572,-5.70985 6.88249,-1.22785 10.69014,5.83145 1.71555,3.89899 -8.63579,-5.87159 -29.99682,1.5733 -22.49719,12.18144 9.78291,2.46384 24.84671,-14.86131 28.32834,3.60367 2.39029,6.48427 8.31248,12.22794 -2.29579,13.82824 -15.24682,7.61456 -30.59364,17.34888 -39.3291,32.40886 z m -21.48788,-20.03773 c -8.64749,-5.09998 -16.38693,-16.98078 -23.2738,-20.71796 -9.07296,13.15425 2.75467,-10.05223 6.85596,-13.7328 6.48923,-7.60488 15.51656,-14.56945 25.94915,-14.59216 -0.62586,12.18493 0.65651,24.67241 -2.41819,36.55785 -2.02088,4.1938 -8.5332,7.16465 -7.11312,12.48507 z m 108.4333,-6.00037 c -4.47629,-1.49652 -23.9832,-2.42318 -11.79332,-6.43255 4.50189,0.23322 8.69351,3.43347 11.79332,6.43255 z m 20.40116,-16.65333 c -10.62933,-0.0238 -13.59092,-11.29063 -1.6848,-13.51481 11.00391,-2.50165 15.19879,14.48652 1.6848,13.51481 z m 3.07011,-1.12007 c 8.05734,-4.24217 -4.87477,-1.37561 0,0 z m -6.57251,-6.66633 c 12.56946,-6.39898 -10.68102,-3.21274 0,0 z m 4.80219,-2.77034 c 3.34829,-2.06662 -3.90131,-2.10089 0,0 z m 37.565325,10.2471 c -11.759119,-2.28732 -0.05978,-8.23608 1.958409,-7.79255 -1.225153,-5.9324 8.851408,8.82975 1.636991,5.39473 l -1.79652,1.08558 -1.79888,1.31224 0,0 z"
         id="path4016"
         inkscape:connector-curvature="0" />
      <path
         style="fill:#004cb7"
         d="m -182.5634,860.60773 c -20.00874,0.1199 -40.50294,-5.51913 -56.561,-17.6924 12.98171,-6.4787 -11.21698,-9.30285 -0.0129,-16.42138 3.12091,-8.42856 -13.75408,0.40338 -7.11848,-9.58683 4.44863,-11.99596 -9.53825,-4.48564 -14.12226,-3.6498 -3.19168,-7.11491 -8.24649,-0.4542 -10.34028,-1.9471 -9.60519,-14.76302 -15.64436,-31.72292 -17.91743,-49.16868 9.94306,12.26737 13.53885,-16.71387 24.18282,-7.74944 6.09023,11.09851 -1.56403,24.25689 2.36282,36.3119 1.50852,15.1434 20.19224,18.57162 32.06488,22.81144 9.49768,4.66408 26.07804,-2.0962 28.02093,11.83234 8.61502,9.68964 -4.3996,20.99575 0.48833,30.81331 10.37839,1.99307 22.96463,-4.33047 31.70635,-10.32788 10.67684,-8.33924 18.89245,-19.48043 17.4249,-33.76754 -0.33372,-8.09897 12.53429,-6.20557 17.31935,-10.93291 9.0788,-5.82025 27.36846,-12.46465 22.90324,5.11946 -0.21403,11.42315 -7.05061,15.64911 -11.12373,24.82348 -11.75774,16.8809 -30.84392,28.89677 -51.78187,29.12782 -2.49604,0.17534 -4.99472,0.32696 -7.49565,0.40421 z m 96.906348,-40.73596 c -8.882471,-2.04026 -1.425829,-14.54447 -3.131375,-22.29774 5.742768,-6.14396 11.18304,-13.97152 14.147344,-22.3757 13.67881,-2.89213 12.524555,-16.99556 12.23563,-28.355 -0.741089,-15.85372 -2.483453,-32.51323 -10.570321,-46.46133 -4.148809,8.44511 -1.330553,-13.55536 0.947668,-2.11968 19.006731,38.81139 14.069555,88.18479 -13.628946,121.60945 z m -10.308485,-40.68536 c -3.314117,3.42853 -2.733206,-8.34612 3.492768,-6.48229 3.447956,7.45003 -2.408668,1.92778 -3.492768,6.48229 z m -138.172913,-40.5778 c -3.31311,-1.78493 3.63004,-8.36989 5.06095,-11.43253 10.4176,-3.42969 -1.29387,-11.6784 0.81345,-18.1363 1.4498,-10.69535 1.47839,-22.57873 8.55459,-31.37855 -0.071,7.62378 -5.2239,21.32866 8.68837,16.41294 4.84181,-5.60127 20.06292,-8.33542 18.73863,2.1901 -10.36722,4.40928 -19.96375,10.14817 -28.83476,17.03939 0.59125,9.90721 -7.71152,18.18399 -13.02123,25.30495 l 0,0 z m -20.37861,-16.10701 c -6.95471,-7.03517 -23.84162,-15.37531 -20.51346,-25.90975 6.61199,-10.54162 17.42638,-21.41474 30.59631,-21.47009 -0.0198,12.09628 0.90516,24.54241 -2.335,36.28016 -2.24294,3.8678 -6.83325,6.54653 -7.74785,11.09968 z m 129.75435,-21.3554 c -10.62933,-0.0238 -13.59092,-11.29063 -1.6848,-13.51481 11.00391,-2.50165 15.19879,14.48652 1.6848,13.51481 z m 3.07011,-1.12007 c 8.05734,-4.24217 -4.87477,-1.37561 0,0 z m -6.57251,-6.66633 c 12.56946,-6.39898 -10.68102,-3.21274 0,0 z m 4.80219,-2.77034 c 3.34829,-2.06662 -3.90131,-2.10089 0,0 z m 37.565325,10.2471 c -11.759119,-2.28732 -0.05978,-8.23608 1.958409,-7.79255 -1.225153,-5.9324 8.851408,8.82975 1.636991,5.39473 l -1.79652,1.08558 -1.79888,1.31224 0,0 z"
         id="path4014"
         inkscape:connector-curvature="0" />
      <path
         style="fill:#0b0c0d"
         d="m -124.76271,701.1462 c -10.62933,-0.0238 -13.59092,-11.29063 -1.6848,-13.51481 11.00391,-2.50165 15.19879,14.48652 1.6848,13.51481 z m 3.07011,-1.12007 c 8.05734,-4.24217 -4.87477,-1.37561 0,0 z m -6.57251,-6.66633 c 12.56946,-6.39898 -10.68102,-3.21274 0,0 z m 4.80219,-2.77034 c 3.34829,-2.06662 -3.90131,-2.10089 0,0 z m 37.565325,10.2471 c -11.759119,-2.28732 -0.05978,-8.23608 1.958409,-7.79255 -1.225153,-5.9324 8.851408,8.82975 1.636991,5.39473 l -1.79652,1.08558 -1.79888,1.31224 0,0 z"
         id="path4012"
         inkscape:connector-curvature="0" />
    </g>
  </g>
</svg>
