<?xml version="1.0" encoding="UTF-8" standalone="no"?>
<!-- Created with Inkscape (http://www.inkscape.org/) -->

<svg
   xmlns:dc="http://purl.org/dc/elements/1.1/"
   xmlns:cc="http://creativecommons.org/ns#"
   xmlns:rdf="http://www.w3.org/1999/02/22-rdf-syntax-ns#"
   xmlns:svg="http://www.w3.org/2000/svg"
   xmlns="http://www.w3.org/2000/svg"
   xmlns:xlink="http://www.w3.org/1999/xlink"
   xmlns:sodipodi="http://sodipodi.sourceforge.net/DTD/sodipodi-0.dtd"
   xmlns:inkscape="http://www.inkscape.org/namespaces/inkscape"
   width="48"
   height="48"
   id="svg2"
   version="1.1"
   inkscape:version="0.48.4 r9939"
   sodipodi:docname="imageshack-uploader.svg">
  <defs
     id="defs4">
    <linearGradient
       id="linearGradient4089">
      <stop
         style="stop-color:#f9f9f9;stop-opacity:1;"
         offset="0"
         id="stop4091" />
      <stop
         style="stop-color:#ffffff;stop-opacity:1;"
         offset="1"
         id="stop4093" />
    </linearGradient>
    <linearGradient
       id="linearGradient4774">
      <stop
         id="stop4776"
         offset="0"
         style="stop-color:#badeea;stop-opacity:1" />
      <stop
         id="stop4778"
         offset="1"
         style="stop-color:#f8fcfc;stop-opacity:1" />
    </linearGradient>
    <linearGradient
       inkscape:collect="always"
       xlink:href="#linearGradient1726-5"
       id="linearGradient941"
       x1="26.162949"
       y1="-1052.7157"
       x2="26.162949"
       y2="-1004.6325"
       gradientUnits="userSpaceOnUse" />
    <linearGradient
       inkscape:collect="always"
       xlink:href="#linearGradient4089"
       id="linearGradient4772"
       x1="23.875"
       y1="1043.7372"
       x2="23.875"
       y2="1013.1122"
       gradientUnits="userSpaceOnUse"
       gradientTransform="matrix(0.74768531,0,0,0.74737984,5.7835397,257.20262)" />
    <linearGradient
       id="linearGradient1726-5">
      <stop
         id="stop1728-9"
         offset="0"
         style="stop-color:#a6cdff;stop-opacity:1;" />
      <stop
         id="stop1730-9"
         offset="1"
         style="stop-color:#3a89fb;stop-opacity:1;" />
    </linearGradient>
    <linearGradient
       gradientTransform="matrix(1.5001744,0,0,1.5001744,-0.04086,1004.3524)"
       gradientUnits="userSpaceOnUse"
       y2="1.999974"
       x2="16.000011"
       y1="29.999973"
       x1="16.000011"
       id="linearGradient4161-1"
       xlink:href="#linearGradient4290"
       inkscape:collect="always" />
    <linearGradient
       inkscape:collect="always"
       id="linearGradient4290">
      <stop
         style="stop-color:#7cbaf8;stop-opacity:1"
         offset="0"
         id="stop4292" />
      <stop
         style="stop-color:#f4fcff;stop-opacity:1"
         offset="1"
         id="stop4294" />
    </linearGradient>
    <linearGradient
       inkscape:collect="always"
       xlink:href="#linearGradient4143"
       id="linearGradient4174"
       x1="409.57144"
       y1="543.79797"
       x2="409.57144"
       y2="503.798"
       gradientUnits="userSpaceOnUse" />
    <linearGradient
       id="linearGradient4143"
       inkscape:collect="always">
      <stop
         id="stop4145"
         offset="0"
         style="stop-color:#197cf1;stop-opacity:1" />
      <stop
         id="stop4147"
         offset="1"
         style="stop-color:#20bcfa;stop-opacity:1" />
    </linearGradient>
    <linearGradient
       gradientTransform="translate(-384.57143,504.5646)"
       y2="503.798"
       x2="409.57144"
       y1="543.79797"
       x1="409.57144"
       gradientUnits="userSpaceOnUse"
       id="linearGradient3039"
       xlink:href="#linearGradient4143"
       inkscape:collect="always" />
  </defs>
  <sodipodi:namedview
     id="base"
     pagecolor="#ffffff"
     bordercolor="#666666"
     borderopacity="1.0"
     inkscape:pageopacity="0.0"
     inkscape:pageshadow="2"
     inkscape:zoom="5.6972605"
     inkscape:cx="-44.433479"
     inkscape:cy="19.906248"
     inkscape:document-units="px"
     inkscape:current-layer="layer1"
     showgrid="false"
     inkscape:window-width="1871"
     inkscape:window-height="1056"
     inkscape:window-x="49"
     inkscape:window-y="24"
     inkscape:window-maximized="1"
     showguides="true"
     inkscape:guide-bbox="true" />
  <metadata
     id="metadata7">
    <rdf:RDF>
      <cc:Work
         rdf:about="">
        <dc:format>image/svg+xml</dc:format>
        <dc:type
           rdf:resource="http://purl.org/dc/dcmitype/StillImage" />
        <dc:title></dc:title>
      </cc:Work>
    </rdf:RDF>
  </metadata>
  <g
     inkscape:label="Capa 1"
     inkscape:groupmode="layer"
     id="layer1"
     transform="translate(0,-1004.3622)">
    <rect
       style="fill:url(#linearGradient3039);fill-opacity:1;stroke:none"
       id="rect4166"
       width="39.999989"
       height="39.999969"
       x="4.0000114"
       y="1008.3626"
       ry="19.999985" />
    <path
       inkscape:connector-curvature="0"
       style="fill:url(#linearGradient4161-1);fill-opacity:1;fill-rule:nonzero;stroke:none"
       d="m 24,1008.3626 c -2.522605,0 -4.923675,0.4812 -7.142578,1.3262 -0.161426,0.1483 -0.371104,0.2622 -0.53711,0.248 -0.02255,0 -0.04545,-0.017 -0.06836,-0.025 -1.093771,0.4577 -2.131337,1.0184 -3.115234,1.6543 0.127913,0.2075 0.165847,0.4386 -0.09766,0.5508 -0.04417,0.019 -0.600573,0.075 -0.794921,0.07 -2.7977586,2.0329 -5.0420723,4.7671 -6.4765629,7.959 0.022881,0 0.042855,-0.014 0.066406,-0.016 0.21773,0 0.5311244,0.059 0.7402344,0.1035 0.1929799,0.04 0.348625,0.1691 0.515625,0.1816 0.47392,0.036 0.5879193,-0.3325 0.9746093,-0.539 0.39949,0.057 0.6645907,-0.068 1.0253907,-0.027 0.24594,0.027 0.4235943,0.29 0.6152343,0.3047 0.16123,0.016 0.3029842,-0.1508 0.4589842,-0.1269 0.151561,0.023 0.412851,0.3538 0.4375,0.539 0.0312,0.2306 -0.169595,0.4382 -0.103515,0.6914 0.24149,0.246 0.680311,0.2958 1.025391,0.4375 0.224739,-0.1852 0.0297,-0.5288 0,-0.7968 -0.003,-0.118 0.0164,-0.2233 0,-0.3321 -0.021,-0.1846 -0.100093,-0.3537 -0.101563,-0.5117 -0.003,-0.7297 0.588665,-1.0712 1.078125,-1.3594 0.21186,-0.1256 0.37868,-0.3455 0.5625,-0.4375 0.25963,-0.1302 0.452999,-0.1604 0.667969,-0.2812 0.38847,-0.2182 0.72166,-0.3934 1.02539,-0.6406 0.14043,-0.3309 0.01389,-0.7746 0.02539,-1.1016 0.14054,-0.086 0.261196,0.037 0.410156,0.025 0.23444,-0.049 0.253889,-0.3796 0.386719,-0.5117 0.0774,-0.076 0.288826,-0.13 0.384766,-0.2051 0.23359,-0.1833 0.309642,-0.4601 0.513671,-0.5391 0.0732,-0.03 0.242082,-0.021 0.357422,-0.053 0.15185,-0.04 0.367925,-0.2199 0.615235,-0.3047 0.16124,-0.056 0.530267,-0.067 0.591797,-0.1289 0.0757,-0.077 -0.0014,-0.2944 0.02539,-0.4102 0.1243,-0.5788 0.996319,-0.7015 1.511719,-0.8964 0.36127,-0.137 0.731976,-0.3875 1.128906,-0.3106 -0.0777,0.2751 -0.447455,0.1777 -0.384765,0.5117 0.0864,0.4637 0.707353,-0.1328 0.871093,-0.2011 0.31287,-0.1319 0.849286,-0.2124 1.259766,-0.3614 0.35994,-0.1319 1.005296,-0.3324 0.666016,-0.7441 -0.28293,-0.016 -0.419376,0.332 -0.666016,0.4375 -0.17029,0.027 -0.137873,-0.1426 -0.283203,-0.1563 -0.13819,-0.016 -0.215492,0.1275 -0.357422,0.1036 -0.14102,-0.023 -0.339248,-0.2452 -0.361328,-0.4102 -0.0564,-0.4281 0.361762,-0.6046 0.539062,-0.9238 -0.117245,-0.3873 -0.652867,-0.079 -0.976557,-0.2305 0.0311,-0.2305 0.269772,-0.3895 0.539062,-0.4336 0.22076,-0.037 0.716197,-0.018 0.847657,0.1 0.0759,0.065 0.0041,0.2265 0.128906,0.334 0.13061,0.118 0.291347,0.1058 0.460937,0.078 0.0612,-0.2922 -0.379941,-0.2189 -0.332031,-0.4121 0.3464,-0.2266 0.909895,-0.04 1.333985,-0.1035 0.24414,-0.036 0.500456,-0.2083 0.716796,-0.3301 0.20576,-0.1172 0.473117,-0.3206 0.691407,-0.1289 0.0591,0.2094 -0.190091,0.2787 -0.306641,0.3828 -0.39238,0.3491 -0.796572,0.7489 -1.101562,1.1543 0.18713,0.1825 0.52717,0.091 0.84375,0.1289 0.12378,0.016 0.279286,0.053 0.410156,0.076 0.15284,0.027 0.315827,0.02 0.435547,0.051 0.2154,0.053 0.273058,0.2832 0.486328,0.2832 0.35083,-6e-4 0.355,-0.3801 0.15625,-0.6172 0.0628,-0.242 0.161152,-0.3676 0.07617,-0.5371 -0.15802,-0.3161 -0.737779,-0.016 -0.767579,-0.4102 -0.019,-0.2556 0.213931,-0.2442 0.306641,-0.4355 -0.0421,-0.4941 0.405222,-0.5298 0.357422,-0.9727 -0.021,-0.1852 -0.176951,-0.1877 -0.306641,-0.3613 -0.06493,-0.085 -0.09884,-0.2489 -0.173826,-0.3223 -0.598404,-0.053 -1.203646,-0.086 -1.816406,-0.086 z m -10.320312,4.0352 0.002,0 c 0.119407,0.017 0.26358,0.1452 0.408203,0.1562 0.13692,0 0.249734,-0.075 0.333984,-0.053 0.21442,0.057 0.304856,0.3803 0.103516,0.539 -0.16767,0.021 -0.233005,-0.073 -0.359375,-0.051 -0.34829,0.059 -0.481898,0.7413 -0.742188,0.7187 -0.24546,-0.021 -0.378306,-0.6188 -0.128906,-0.7969 0.0164,-0.1554 -0.113429,-0.1804 -0.105469,-0.334 0.07366,-0.094 0.284273,-0.1961 0.488282,-0.1796 z m -1.154297,0.08 c 0.0714,0 0.125063,0.02 0.152343,0.051 -0.0339,0.2733 -0.247924,0.2554 -0.458984,0.3828 -0.3646,0.2201 -0.575386,0.5554 -0.691406,1.0254 -0.0336,0.137 -0.392897,0.4992 -0.566406,0.4629 -0.40664,-0.086 0.112188,-0.8353 0.205078,-0.9492 0.10258,-0.1263 0.240408,-0.237 0.361328,-0.3828 0.11726,-0.1412 0.19365,-0.3318 0.30664,-0.4102 0.1238,-0.086 0.477197,-0.1879 0.691407,-0.1797 z m 3.035156,0.9219 c 0.13025,0 0.247341,0.024 0.300781,0.076 -0.0837,0.3386 -0.813278,0.2492 -1.080078,0.1269 0.0172,-0.1277 0.216906,-0.1628 0.384766,-0.1797 0.11798,0 0.264511,-0.027 0.394531,-0.023 z m -1.660156,0.625 c 0.0864,0 0.174585,0.017 0.265625,0.041 -0.23601,0.1974 -0.491225,0.3093 -0.896485,0.4375 -0.19486,0.061 -0.531403,0.1379 -0.564453,-0.08 -0.0402,-0.2667 0.284961,-0.2046 0.462891,-0.2285 0.22401,-0.031 0.469982,-0.1615 0.732422,-0.1699 z m 25.46875,1.5195 c -0.03016,0.073 -0.0524,0.1446 -0.04883,0.2149 0.0164,0.1237 0.151371,0.2428 0.181641,0.4101 0.0164,0.089 -0.0417,0.2805 0,0.3614 0.123471,0.2394 0.446596,0.067 0.677735,0.08 -0.262582,-0.3615 -0.524837,-0.7238 -0.810547,-1.0664 z m 1.310547,1.7637 c -0.0366,0.1767 -0.156861,0.4071 -0.253907,0.5547 -0.22352,0.34 -0.527126,0.3558 -0.847656,0.5371 -0.26731,0.1515 -0.382362,0.4044 -0.539063,0.668 -0.16978,0.2847 -0.274998,0.4567 -0.205078,0.8691 -0.22914,0.4545 -0.576091,0.733 -1.050781,0.9492 -0.14043,0.063 -0.332117,0.087 -0.460937,0.1797 -0.10259,0.074 -0.160901,0.2718 -0.306641,0.4356 -0.17985,0.2001 -0.368351,0.2846 -0.462891,0.4375 -0.0732,0.118 -0.09912,0.3531 -0.179687,0.5117 -0.10942,0.2154 -0.342608,0.3209 -0.486328,0.5391 -0.0654,0.1009 -0.109181,0.3053 -0.181641,0.4375 -0.16242,0.2952 -0.439976,0.5079 -0.410156,0.7675 0.0296,0.251 0.314534,0.295 0.333984,0.5137 0.003,0.1237 -0.08167,0.1992 -0.07617,0.334 0.003,0.1967 0.136794,0.3349 0.152344,0.4863 0.0381,0.3807 -0.129502,0.5327 -0.201172,0.793 -0.0339,0.1243 -0.01953,0.2642 -0.05273,0.3613 -0.0628,0.1906 -0.328735,0.3626 -0.333984,0.5879 -0.002,0.1601 0.164234,0.2889 0.177734,0.5137 0.003,0.1549 -0.07613,0.3204 -0.04883,0.4629 0.0545,0.279 0.552641,0.6035 0.769531,0.8203 0.2901,0.2901 0.669882,0.5146 0.794922,0.8203 0.10534,0.2596 0.104361,0.5973 0.306641,0.793 0.14958,0.1444 0.398253,0.2345 0.589843,0.3847 0.17869,0.1403 0.373423,0.2614 0.564453,0.4102 0.3121,0.2441 0.784,0.7309 1.28125,0.6933 0.25966,-0.019 0.525773,-0.2309 0.820313,-0.2832 0.30301,-0.054 0.696243,-0.082 1.001953,-0.051 0.23415,0.023 0.47534,0.1635 0.71875,0.1523 0.257,-0.016 0.5517,-0.2064 0.84375,-0.334 0.234965,-0.1023 0.523313,-0.2156 0.839844,-0.2988 0.145123,-0.9756 0.222652,-1.975 0.222652,-2.9922 0,-4.0952 -1.224564,-7.8909 -3.320312,-11.0547 z m -33.0781255,6.7207 c -0.42597,0.023 -0.7051156,0.043 -0.9472656,0.1524 -0.55488,0.2525 -0.4476232,1.0022 -1.0019531,1.1796 -0.1917301,0.061 -0.4549557,0.064 -0.6660157,0.1036 -0.18217,0.033 -0.4040768,0.1328 -0.5917969,0.1289 -0.052541,-7e-4 -0.1259619,-0.04 -0.1914062,-0.061 -0.049402,0.3516 -0.090087,0.7071 -0.1210938,1.0645 0.5273703,0.101 0.7995159,0.8 1.265625,1.0312 0.1277001,0.063 0.2945844,0.067 0.4589844,0.1035 0.13272,0.03 0.2334682,0.086 0.3613282,0.1289 0.2712099,0.092 0.6033924,0.081 0.8203124,0.1778 0.3269001,0.145 0.5665463,0.7594 0.8476563,0.9238 0.0164,0.1657 -0.032209,0.3882 0.025391,0.5117 0.13275,0.1801 0.3202825,0.1404 0.5390625,0.2578 0.26172,0.1412 0.3418038,0.5058 0.5898438,0.6172 0.0857,0.038 0.3002669,0.033 0.4355468,0.074 0.3399001,0.1029 0.4508676,0.4962 0.7421874,0.4102 0.1911,-0.056 0.176081,-0.2529 0.207031,-0.4355 0.12627,-0.137 0.264068,-0.3536 0.460938,-0.3575 0.318609,-0.016 0.34697,0.3293 0.46289,0.6387 0.0653,0.1749 0.23657,0.3273 0.28125,0.5117 0.0795,0.3187 0.03986,1.2724 -0.02734,1.4629 -0.0801,0.2337 -0.396756,0.3328 -0.591796,0.5918 -0.0921,0.1215 -0.135789,0.2994 -0.205079,0.3848 -0.1256,0.1528 -0.31228,0.1929 -0.40625,0.334 -0.0529,0.08 -0.10442,0.25 -0.15625,0.3574 -0.15401,0.3263 -0.359998,0.5575 -0.230468,0.9492 0.0543,0.1612 0.30601,0.2692 0.30664,0.459 7e-4,0.2232 -0.4748881,0.4232 -0.5117181,0.668 -0.0272,0.1821 0.1473081,0.5071 0.2050781,0.7441 0.0423,0.1791 0.380758,0.291 0.486328,0.4102 0.18,0.202 0.323841,0.4883 0.488281,0.7421 0.32515,0.4993 0.579914,1.1081 0.896484,1.5918 0.16731,0.2534 0.402202,0.4812 0.513672,0.7442 0.0569,0.1327 0.04907,0.2909 0.101563,0.4101 0.18327,0.4137 0.992526,0.8455 1.410156,1.0508 0.19551,0.095 0.412387,0.1292 0.591797,0.2285 0.27175,0.1516 0.810085,0.5586 0.947266,0.7969 0.12218,0.2142 0.198372,0.7356 0.257812,1.0762 0.0795,0.4501 8.91e-4,0.7957 0.02539,1.2832 0.0164,0.2636 0.100725,0.5287 0.103515,0.7929 10e-4,0.092 -0.04863,0.1615 -0.05273,0.2559 -1.47e-4,0.016 0.0037,0.033 0.0039,0.049 2.518753,1.1399 5.309794,1.7891 8.263671,1.7891 0.533681,0 1.061081,-0.028 1.583984,-0.068 0.02279,-0.039 0.04401,-0.08 0.07227,-0.1171 0.12032,-0.158 0.227241,-0.2964 0.306641,-0.4356 0.0757,-0.4682 -0.186712,-0.7952 -0.07617,-1.2051 0.12242,-0.4603 0.758938,-0.7415 1.205078,-0.9492 0.15347,-0.071 0.310557,-0.1871 0.435547,-0.2305 0.30876,-0.1074 0.694252,-0.049 0.976562,-0.1523 0.48044,-0.1758 0.530638,-0.6912 0.767578,-1.1289 0.11166,-0.2073 0.25934,-0.4149 0.28125,-0.5625 0.019,-0.1327 -0.04864,-0.2576 -0.02734,-0.4141 0.0233,-0.1549 0.162098,-0.2888 0.205078,-0.459 0.0564,-0.2221 0.08008,-0.5475 0.08008,-0.7949 0,-0.203 -0.09503,-0.3812 -0.103516,-0.5644 -0.0333,-0.6652 0.240228,-0.7396 0.486328,-1.1016 0.12353,-0.1798 0.16968,-0.3848 0.25586,-0.5137 0.41313,-0.6163 1.129975,-0.9139 1.078125,-1.8457 -0.0172,-0.3083 -0.21068,-1.0051 -0.4375,-1.1035 -0.12981,-0.056 -0.427515,0 -0.615235,-0.076 -0.6061,-0.2261 -0.961843,-0.9774 -1.589843,-1.0253 -0.13414,-0.016 -0.257264,0.055 -0.408204,0.053 -0.248589,-0.016 -0.623237,-0.1741 -0.898437,-0.2051 -0.17485,-0.019 -0.408692,0.052 -0.513672,0 -0.1601,-0.078 -0.1764,-0.373 -0.306641,-0.4609 -0.103209,-0.071 -0.304307,-0.096 -0.460937,-0.1563 -0.25253,-0.097 -0.452761,-0.2102 -0.744141,-0.2305 -0.09,0 -0.20195,0.043 -0.30664,0.027 -0.16124,-0.027 -0.28873,-0.2181 -0.4375,-0.3086 -0.18632,-0.1134 -0.358507,-0.1683 -0.435547,-0.3301 0.16839,-0.5523 -0.296936,-0.7063 -0.410156,-1.0254 -0.0543,-0.1495 -0.02917,-0.3295 -0.07617,-0.4629 -0.0669,-0.1911 -0.255791,-0.3015 -0.462891,-0.4609 -0.37106,-0.2856 -0.700179,-0.5537 -1.230469,-0.6191 -0.23314,-0.03 -0.464443,0.07 -0.746093,0.053 -0.29849,-0.019 -0.673205,-0.28 -0.896485,-0.5352 -0.21704,-0.2491 -0.322629,-0.4727 -0.511719,-0.5918 -0.17912,-0.1151 -0.416752,-0.1118 -0.539062,-0.2285 -0.0545,-0.051 -0.04513,-0.138 -0.103516,-0.2578 -0.0901,-0.1865 -0.241246,-0.2902 -0.128906,-0.5137 -0.20432,-0.105 -0.209994,0.195 -0.433594,0.1563 -0.19932,-0.2829 -0.367682,-0.417 -0.820312,-0.334 -0.20727,0.038 -0.322933,0.3001 -0.564453,0.3066 -0.19806,0.016 -0.353645,-0.2206 -0.615235,-0.2578 -0.19744,-0.027 -0.42195,0.054 -0.5625,0.027 -0.21886,-0.044 -0.286408,-0.226 -0.486328,-0.3575 -0.14659,-0.096 -0.431442,-0.2604 -0.513672,-0.2578 -0.25774,0.016 -0.441425,0.5478 -0.796875,0.3594 -0.17273,-0.2189 0.281382,-0.3342 0.07617,-0.5391 -0.15542,-0.1554 -0.285906,0.07 -0.410156,0.1563 -0.14239,0.098 -0.276224,0.1957 -0.433594,0.2539 -0.35224,0.1319 -0.572376,0.063 -0.847656,0.2051 -0.25489,0.132 -0.265726,0.3529 -0.410156,0.6152 -0.11798,0.2149 -0.387033,0.5281 -0.564453,0.541 -0.21491,0.016 -0.420305,-0.3004 -0.615235,-0.3847 -0.58724,-0.2544 -0.871735,0.2259 -1.3593748,0.2324 -0.45256,0.016 -1.0989118,-0.7308 -1.0761718,-1.1563 0.003,-0.2596 0.1493075,-0.6534 0.1796875,-0.9746 0.0272,-0.2554 0.2021381,-0.4094 0.2050781,-0.6425 0.003,-0.3115 -0.4131644,-0.551 -0.6152344,-0.5879 -0.4791,-0.088 -1.1442793,0.1927 -1.6933594,-0.027 -0.105,-0.1738 0.1227807,-0.2938 0.1816407,-0.4629 0.0333,-0.096 0.014028,-0.2243 0.048828,-0.33 0.0609,-0.1634 0.2320138,-0.2899 0.3085938,-0.4629 0.0571,-0.1321 0.071446,-0.3225 0.1289062,-0.4864 0.0669,-0.1865 0.1906581,-0.3066 0.2050781,-0.4375 0.019,-0.1727 -0.046291,-0.3724 -0.1816406,-0.4863 z m 6.8554685,5.4278 c 0.17381,0.016 0.195568,0.3754 0.01758,0.4042 -0.19174,0.03 -0.289205,-0.3007 -0.103515,-0.3867 0.0312,-0.016 0.06164,-0.017 0.08594,-0.016 l 0,0 z"
       id="path34-7" />
    <path
       inkscape:connector-curvature="0"
       style="fill:#0c69cf;fill-opacity:1;stroke:none"
       d="M 4.0117188,1027.8626 C 4.007647,1028.0295 4,1028.1947 4,1028.3626 c 0,11.08 8.920008,20 20,20 11.079992,0 20,-8.92 20,-20 0,-0.1679 -0.0076,-0.3331 -0.01172,-0.5 -0.264181,10.8466 -9.075845,19.5 -19.98828,19.5 -10.912435,0 -19.7240993,-8.6534 -19.9882812,-19.5 z"
       id="rect4775" />
    <path
       inkscape:connector-curvature="0"
       id="path4943"
       d="m 25.900948,1015.1629 c -4.491204,0 -8.236998,3.1839 -9.13578,7.4037 -0.294383,-0.034 -0.584534,-0.07 -0.887876,-0.07 -4.335819,0 -7.8506964,3.5152 -7.8506964,7.8475 0,4.3085 3.4776634,7.8092 7.7806004,7.8476 0.02378,0 0.04627,0 0.0701,0 l 6.355325,0 0,-6.236 -2.359882,2.3589 -2.12623,-2.102 5.981483,-5.979 5.981482,5.979 -2.12623,2.102 -2.359882,-2.3589 0,6.236 8.598381,0 c 3.097015,0 5.60764,-2.5109 5.60764,-5.6054 0,-2.7322 -1.966344,-4.9932 -4.556207,-5.4886 0.237486,-0.823 0.373842,-1.6932 0.373842,-2.5925 0,-5.157 -4.184376,-9.342 -9.346066,-9.342 z"
       style="fill:#000000;fill-opacity:0.05882353;stroke:none" />
    <path
       style="fill:#000000;fill-opacity:0.11764706;stroke:none"
       d="m 25.900948,1014.8638 c -4.491204,0 -8.236998,3.1839 -9.13578,7.4037 -0.294383,-0.034 -0.584534,-0.07 -0.887876,-0.07 -4.335819,0 -7.8506964,3.5152 -7.8506964,7.8475 0,4.3085 3.4776634,7.8092 7.7806004,7.8476 0.02378,1e-4 0.04627,0 0.0701,0 l 6.355325,0 0,-6.236 -2.359882,2.3589 -2.12623,-2.102 5.981483,-5.979 5.981482,5.979 -2.12623,2.102 -2.359882,-2.3589 0,6.236 8.598381,0 c 3.097015,0 5.60764,-2.5109 5.60764,-5.6054 0,-2.7321 -1.966344,-4.9932 -4.556207,-5.4885 0.237486,-0.8231 0.373842,-1.6933 0.373842,-2.5926 0,-5.157 -4.184376,-9.342 -9.346066,-9.342 z"
       id="path4941"
       inkscape:connector-curvature="0" />
    <g
       style="font-size:15.97661114px;font-style:normal;font-variant:normal;font-weight:bold;font-stretch:normal;line-height:125%;letter-spacing:0px;word-spacing:0px;fill:#000000;fill-opacity:1;stroke:none;font-family:Vemana2000;-inkscape-font-specification:Vemana2000 Bold"
       id="text966"
       transform="translate(-5.44113,0.44625201)" />
    <path
       style="fill:url(#linearGradient4772);fill-opacity:1;stroke:none"
       d="m 25.900948,1014.2655 c -4.491204,0 -8.236998,3.1839 -9.13578,7.4037 -0.294383,-0.034 -0.584534,-0.07 -0.887876,-0.07 -4.335819,0 -7.8506964,3.5152 -7.8506964,7.8475 0,4.3085 3.4776634,7.8092 7.7806004,7.8476 0.02378,10e-5 0.04627,0 0.0701,0 l 6.355325,0 0,-6.236 -2.359882,2.3589 -2.12623,-2.102 5.981483,-5.979 5.981482,5.979 -2.12623,2.102 -2.359882,-2.3589 0,6.236 8.598381,0 c 3.097015,0 5.60764,-2.5109 5.60764,-5.6054 0,-2.7321 -1.966344,-4.9932 -4.556207,-5.4885 0.237486,-0.8231 0.373842,-1.6933 0.373842,-2.5926 0,-5.157 -4.184376,-9.342 -9.346066,-9.342 z"
       id="rect4207"
       inkscape:connector-curvature="0" />
    <path
       style="fill:#1f63e9;fill-opacity:0.31372549;stroke:none"
       d="m 35.223649,1023.345 c -0.03022,0.776 -0.143734,1.5266 -0.350477,2.2431 0.04951,0.01 0.09114,0.036 0.140191,0.046 0.14858,-0.6561 0.233651,-1.3329 0.233651,-2.0328 0,-0.086 -0.02102,-0.1705 -0.02336,-0.2566 z m -11.495661,1.3785 -5.981483,5.9815 0.303747,0.3038 5.677736,-5.6778 5.677735,5.6778 0.303747,-0.3038 -5.981482,-5.9815 z m -15.6780272,4.4161 c -0.00399,0.1026 -0.023365,0.2001 -0.023365,0.3037 0,4.3084 3.4776634,7.8123 7.7806004,7.8507 0.02378,10e-5 0.04627,0 0.0701,0 l 6.355325,0 0,-0.6075 -6.355325,0 c -0.02383,0 -0.04632,10e-5 -0.0701,0 -4.2,-0.037 -7.5963091,-3.3807 -7.7572352,-7.5469 z m 31.3560532,2.2664 c -0.167517,2.9443 -2.595792,5.2805 -5.584275,5.2805 l -8.598381,0 0,0.6075 8.598381,0 c 3.097015,0 5.60764,-2.5131 5.60764,-5.6077 0,-0.093 -0.01883,-0.1882 -0.02336,-0.2803 z"
       id="path4932"
       inkscape:connector-curvature="0" />
  </g>
</svg>
