<?xml version="1.0" encoding="UTF-8" standalone="no"?>
<!-- Created with Inkscape (http://www.inkscape.org/) -->

<svg
   xmlns:dc="http://purl.org/dc/elements/1.1/"
   xmlns:cc="http://creativecommons.org/ns#"
   xmlns:rdf="http://www.w3.org/1999/02/22-rdf-syntax-ns#"
   xmlns:svg="http://www.w3.org/2000/svg"
   xmlns="http://www.w3.org/2000/svg"
   xmlns:xlink="http://www.w3.org/1999/xlink"
   xmlns:sodipodi="http://sodipodi.sourceforge.net/DTD/sodipodi-0.dtd"
   xmlns:inkscape="http://www.inkscape.org/namespaces/inkscape"
   width="48"
   height="48"
   id="svg5453"
   version="1.1"
   inkscape:version="0.48.4 r9939"
   sodipodi:docname="k9copy.svg">
  <defs
     id="defs5455">
    <linearGradient
       id="linearGradient4390">
      <stop
         style="stop-color:#f7f7f7;stop-opacity:1;"
         offset="0"
         id="stop4392" />
      <stop
         style="stop-color:#f9dce0;stop-opacity:1"
         offset="1"
         id="stop4394" />
    </linearGradient>
    <linearGradient
       gradientTransform="matrix(0.90950821,0,0,0.90950821,35.763174,34.597147)"
       inkscape:collect="always"
       xlink:href="#linearGradient4435"
       id="linearGradient4274"
       x1="400.57138"
       y1="545.79797"
       x2="400.57138"
       y2="517.79797"
       gradientUnits="userSpaceOnUse" />
    <linearGradient
       id="linearGradient4435">
      <stop
         id="stop4437"
         offset="0"
         style="stop-color:#e3e4fc;stop-opacity:1;" />
      <stop
         id="stop4439"
         offset="1"
         style="stop-color:#c3e5f1;stop-opacity:1;" />
    </linearGradient>
    <linearGradient
       inkscape:collect="always"
       xlink:href="#linearGradient3792"
       id="linearGradient3798"
       x1="14"
       y1="23.5"
       x2="35"
       y2="23.5"
       gradientUnits="userSpaceOnUse" />
    <linearGradient
       id="linearGradient3792">
      <stop
         style="stop-color:#e02323;stop-opacity:1;"
         offset="0"
         id="stop3794" />
      <stop
         style="stop-color:#ff3e3e;stop-opacity:1;"
         offset="1"
         id="stop3796" />
    </linearGradient>
    <linearGradient
       y2="23.5"
       x2="35"
       y1="23.5"
       x1="14"
       gradientUnits="userSpaceOnUse"
       id="linearGradient3014"
       xlink:href="#linearGradient3792"
       inkscape:collect="always" />
    <linearGradient
       inkscape:collect="always"
       xlink:href="#linearGradient3223"
       id="linearGradient3061"
       gradientUnits="userSpaceOnUse"
       gradientTransform="matrix(0.70654262,0,0,0.69485911,-4.7807975,-1.1808792)"
       x1="34.100719"
       y1="45.622128"
       x2="34.100719"
       y2="20.249283" />
    <linearGradient
       id="linearGradient3223">
      <stop
         id="stop3225"
         style="stop-color:#003e69;stop-opacity:1"
         offset="0" />
      <stop
         id="stop3227"
         style="stop-color:#17a3ff;stop-opacity:1"
         offset="1" />
    </linearGradient>
    <linearGradient
       inkscape:collect="always"
       xlink:href="#linearGradient3172"
       id="linearGradient3065"
       gradientUnits="userSpaceOnUse"
       gradientTransform="matrix(0.70423477,0,0,0.70471697,-4.7204039,-1.3984104)"
       x1="25.726885"
       y1="18.172169"
       x2="37.437656"
       y2="51.406189" />
    <linearGradient
       id="linearGradient3172">
      <stop
         id="stop3174"
         style="stop-color:#005c9b;stop-opacity:1"
         offset="0" />
      <stop
         id="stop3176"
         style="stop-color:#55baff;stop-opacity:1"
         offset="1" />
    </linearGradient>
    <linearGradient
       inkscape:collect="always"
       xlink:href="#linearGradient3176"
       id="linearGradient3072"
       gradientUnits="userSpaceOnUse"
       gradientTransform="matrix(1.0057338,0,0,1.0064225,-4.8630098,-2.3510975)"
       x1="23.999987"
       y1="42.956509"
       x2="20.56768"
       y2="7.429738" />
    <linearGradient
       id="linearGradient3176">
      <stop
         id="stop3178"
         style="stop-color:#005693;stop-opacity:1"
         offset="0" />
      <stop
         id="stop3365"
         style="stop-color:#1d96dc;stop-opacity:1"
         offset="0.64838707" />
      <stop
         id="stop3180"
         style="stop-color:#3cc1ff;stop-opacity:0.75539571"
         offset="1" />
    </linearGradient>
    <linearGradient
       inkscape:collect="always"
       xlink:href="#linearGradient3176"
       id="linearGradient4404"
       gradientUnits="userSpaceOnUse"
       gradientTransform="matrix(1.2027001,0,0,1.0663764,379.60323,498.15722)"
       x1="23.999987"
       y1="42.956509"
       x2="20.56768"
       y2="7.429738" />
    <linearGradient
       inkscape:collect="always"
       xlink:href="#linearGradient3172"
       id="linearGradient4406"
       gradientUnits="userSpaceOnUse"
       gradientTransform="matrix(0.5361626,0,0,0.4753896,381.75192,502.59)"
       x1="25.726885"
       y1="18.172169"
       x2="37.437656"
       y2="51.406189" />
    <linearGradient
       inkscape:collect="always"
       xlink:href="#linearGradient3223"
       id="linearGradient4408"
       gradientUnits="userSpaceOnUse"
       gradientTransform="matrix(0.53791966,0,0,0.46873966,381.70595,502.73674)"
       x1="34.100719"
       y1="45.622128"
       x2="34.100719"
       y2="20.249283" />
    <linearGradient
       gradientTransform="matrix(1.1488366,0,0,1.1488366,-45.5534,-82.252436)"
       inkscape:collect="always"
       xlink:href="#linearGradient4435-0"
       id="linearGradient4274-9"
       x1="400.57138"
       y1="545.79797"
       x2="400.57138"
       y2="517.79797"
       gradientUnits="userSpaceOnUse" />
    <linearGradient
       id="linearGradient4435-0">
      <stop
         id="stop4437-3"
         offset="0"
         style="stop-color:#e3e4fc;stop-opacity:1;" />
      <stop
         id="stop4439-8"
         offset="1"
         style="stop-color:#c3e5f1;stop-opacity:1;" />
    </linearGradient>
    <linearGradient
       inkscape:collect="always"
       xlink:href="#linearGradient3223-3"
       id="linearGradient4408-3"
       gradientUnits="userSpaceOnUse"
       gradientTransform="matrix(0.67946808,0,0,0.59208402,391.42091,509.07362)"
       x1="34.100719"
       y1="45.622128"
       x2="34.100719"
       y2="20.249283" />
    <linearGradient
       id="linearGradient3223-3">
      <stop
         id="stop3225-5"
         style="stop-color:#003e69;stop-opacity:1"
         offset="0" />
      <stop
         id="stop3227-9"
         style="stop-color:#17a3ff;stop-opacity:1"
         offset="1" />
    </linearGradient>
    <linearGradient
       inkscape:collect="always"
       xlink:href="#linearGradient3172-2"
       id="linearGradient4406-5"
       gradientUnits="userSpaceOnUse"
       gradientTransform="matrix(0.84215446,0,0,0.74669787,379.77375,499.16665)"
       x1="25.726885"
       y1="18.172169"
       x2="37.437656"
       y2="51.406189" />
    <linearGradient
       id="linearGradient3172-2">
      <stop
         id="stop3174-0"
         style="stop-color:#005c9b;stop-opacity:1"
         offset="0" />
      <stop
         id="stop3176-9"
         style="stop-color:#55baff;stop-opacity:1"
         offset="1" />
    </linearGradient>
    <linearGradient
       y2="51.406189"
       x2="37.437656"
       y1="18.172169"
       x1="25.726885"
       gradientTransform="matrix(0.67724867,0,0,0.60048383,391.47899,508.88826)"
       gradientUnits="userSpaceOnUse"
       id="linearGradient3073"
       xlink:href="#linearGradient3172-2"
       inkscape:collect="always" />
  </defs>
  <sodipodi:namedview
     id="base"
     pagecolor="#ffffff"
     bordercolor="#666666"
     borderopacity="1.0"
     inkscape:pageopacity="0"
     inkscape:pageshadow="2"
     inkscape:zoom="11.490485"
     inkscape:cx="31.162268"
     inkscape:cy="23.760595"
     inkscape:document-units="px"
     inkscape:current-layer="layer1"
     showgrid="true"
     fit-margin-top="0"
     fit-margin-left="0"
     fit-margin-right="0"
     fit-margin-bottom="0"
     inkscape:window-width="1871"
     inkscape:window-height="1056"
     inkscape:window-x="49"
     inkscape:window-y="24"
     inkscape:window-maximized="1"
     inkscape:showpageshadow="false"
     borderlayer="true"
     showguides="true">
    <inkscape:grid
       type="xygrid"
       id="grid4063" />
    <sodipodi:guide
       position="1.1650391e-05,43.999996"
       orientation="-2.5000018e-07,1"
       id="guide4148" />
    <sodipodi:guide
       position="48.000012,43.999996"
       orientation="-4,0"
       id="guide4150" />
    <sodipodi:guide
       position="48.000012,47.999996"
       orientation="0,-48"
       id="guide4152" />
    <sodipodi:guide
       position="1.1650391e-05,4.0000264"
       orientation="4,0"
       id="guide4154" />
    <sodipodi:guide
       position="1.1650391e-05,2.6367188e-05"
       orientation="0,48"
       id="guide4156" />
    <sodipodi:guide
       position="48.000012,2.6367188e-05"
       orientation="-4,0"
       id="guide4158" />
    <sodipodi:guide
       position="48.000012,4.0000264"
       orientation="0,-48"
       id="guide4160" />
    <sodipodi:guide
       position="48.000012,48.000026"
       orientation="0,-4"
       id="guide4162" />
    <sodipodi:guide
       position="44.000012,48.000026"
       orientation="48,0"
       id="guide4164" />
    <sodipodi:guide
       position="44.000012,2.6367188e-05"
       orientation="0,4"
       id="guide4166" />
    <sodipodi:guide
       position="48.000012,2.6367188e-05"
       orientation="-48,0"
       id="guide4168" />
    <sodipodi:guide
       position="4.0000422,48.000026"
       orientation="0,-4"
       id="guide4170" />
    <sodipodi:guide
       position="4.2167969e-05,48.000026"
       orientation="48,0"
       id="guide4172" />
    <sodipodi:guide
       position="4.2167969e-05,2.6367188e-05"
       orientation="0,4"
       id="guide4174" />
    <sodipodi:guide
       position="4.0000422,2.6367188e-05"
       orientation="-48,0"
       id="guide4176" />
    <sodipodi:guide
       position="16.000012,32.000026"
       orientation="16,0"
       id="guide4288" />
    <sodipodi:guide
       position="16.000012,16.000026"
       orientation="0,16"
       id="guide4290" />
    <sodipodi:guide
       position="32.000012,16.000026"
       orientation="-16,0"
       id="guide4292" />
    <sodipodi:guide
       position="32.000012,32.000026"
       orientation="0,-16"
       id="guide4294" />
  </sodipodi:namedview>
  <metadata
     id="metadata5458">
    <rdf:RDF>
      <cc:Work
         rdf:about="">
        <dc:format>image/svg+xml</dc:format>
        <dc:type
           rdf:resource="http://purl.org/dc/dcmitype/StillImage" />
        <dc:title></dc:title>
      </cc:Work>
    </rdf:RDF>
  </metadata>
  <g
     inkscape:label="Capa 1"
     inkscape:groupmode="layer"
     id="layer1"
     transform="translate(-384.57143,-499.798)">
    <path
       style="fill:none;stroke:url(#linearGradient4406);stroke-width:0.69889724;stroke-linecap:round;stroke-linejoin:round;stroke-miterlimit:4;stroke-opacity:1;stroke-dasharray:none"
       id="path3369"
       inkscape:connector-curvature="0"
       d="m 401.77187,508.74167 c -16.07518,1.18634 -13.56914,19.48869 -0.95082,19.11775 11.21814,-0.34102 11.51228,-15.06243 0.64524,-14.66446" />
    <path
       style="fill:none;stroke:#1c94da;stroke-width:0.73352677px;stroke-linecap:round;stroke-linejoin:round;stroke-opacity:1"
       id="path3191"
       inkscape:connector-curvature="0"
       d="m 401.16536,513.23854 -0.71856,5.78826" />
    <path
       style="fill:none;stroke:url(#linearGradient4408);stroke-width:0.39488867;stroke-linecap:round;stroke-linejoin:round;stroke-miterlimit:4;stroke-opacity:1;stroke-dasharray:none"
       id="path3212"
       inkscape:connector-curvature="0"
       d="m 400.54093,518.98225 c 0.0176,-1.90482 3.00561,-1.7616 3.73557,-0.0192 0.74915,1.88199 -0.64948,3.68583 -2.72812,4.23473 -2.72395,0.71929 -5.23691,-1.08772 -5.9541,-3.42136 -0.89267,-2.90464 1.71356,-6.22803 5.68644,-6.64434" />
    <path
       style="fill:none;stroke:#53b8fd;stroke-width:0.74271768px;stroke-linecap:round;stroke-linejoin:round;stroke-opacity:1"
       id="path3189"
       inkscape:connector-curvature="0"
       d="m 401.82551,508.57738 -0.6045,4.39114" />
    <rect
       style="fill:url(#linearGradient4274);fill-opacity:1;stroke:none"
       id="rect4179"
       width="25.466202"
       height="25.466202"
       x="387.35303"
       y="505.53857"
       ry="12.733101" />
    <path
       inkscape:connector-curvature="0"
       style="fill:#2c2e31;fill-opacity:0.23529412;stroke:none"
       d="m 387.36046,517.95333 c -0.003,0.10603 -0.007,0.21165 -0.007,0.31833 0,7.05414 5.67897,12.73312 12.73312,12.73312 7.05415,0 12.73312,-5.67898 12.73312,-12.73312 0,-0.10668 -0.005,-0.2123 -0.007,-0.31833 -0.16851,6.90525 -5.77839,12.41479 -12.72566,12.41479 -6.94726,0 -12.55715,-5.50954 -12.72566,-12.41479 z"
       id="rect4409" />
    <path
       inkscape:connector-curvature="0"
       id="path1495"
       d="m 400.08614,514.51631 c -2.07204,0 -3.75531,1.68332 -3.75531,3.75538 0,2.07193 1.68327,3.75538 3.75531,3.75538 2.07204,0 3.75531,-1.68345 3.75531,-3.75538 0,-2.07206 -1.68327,-3.75538 -3.75531,-3.75538 z m 0,2.38733 c 0.75347,0 1.36783,0.61444 1.36783,1.36805 0,0.75355 -0.61435,1.36792 -1.36783,1.36792 -0.75348,0 -1.36783,-0.61437 -1.36783,-1.36792 0,-0.75361 0.61435,-1.36805 1.36783,-1.36805 z"
       style="fill:#9fa9b1;fill-opacity:1;stroke:none" />
    <path
       inkscape:connector-curvature="0"
       id="path1497"
       d="m 400.08614,515.31232 c -1.63252,0 -2.95948,1.32673 -2.95948,2.95937 0,1.63258 1.32696,2.9593 2.95948,2.9593 1.63252,0 2.95948,-1.32672 2.95948,-2.9593 0,-1.63264 -1.32697,-2.95937 -2.95948,-2.95937 z m 0,1.59132 c 0.75347,0 1.36783,0.61444 1.36783,1.36805 0,0.75355 -0.61435,1.36792 -1.36783,1.36792 -0.75348,0 -1.36783,-0.61437 -1.36783,-1.36792 0,-0.75361 0.61435,-1.36805 1.36783,-1.36805 z"
       style="fill:#d4d4e6;fill-opacity:0.71489366;stroke:none" />
    <path
       inkscape:connector-curvature="0"
       id="path1532"
       d="m 400.08614,516.89339 c -0.69679,0 -1.26234,0.53766 -1.34532,1.21277 0.12788,-0.62252 0.68603,-1.08015 1.34532,-1.08015 0.65929,0 1.21744,0.45763 1.34533,1.08015 -0.083,-0.67511 -0.64854,-1.21277 -1.34533,-1.21277 z m -3.73281,1.76227 c 0.13861,1.94619 1.75152,3.48639 3.73281,3.48639 1.98129,0 3.5942,-1.5402 3.73282,-3.48639 -0.19252,1.89214 -1.79028,3.37274 -3.73282,3.37274 -1.94253,0 -3.54029,-1.4806 -3.73281,-3.37274 z"
       style="fill:#1a1a1a;fill-opacity:0.31372549;stroke:none" />
    <path
       style="fill:none;stroke:url(#linearGradient3073);stroke-width:0.88280541;stroke-linecap:round;stroke-linejoin:round;stroke-miterlimit:4;stroke-opacity:1;stroke-dasharray:none"
       id="path3369-1"
       inkscape:connector-curvature="0"
       d="m 416.76698,516.65869 c -20.3052,1.49852 -17.13973,24.61696 -1.20101,24.1484 14.17008,-0.43075 14.54162,-19.02596 0.81502,-18.52326" />
    <path
       style="fill:none;stroke:#1c94da;stroke-width:0.92654729px;stroke-linecap:round;stroke-linejoin:round;stroke-opacity:1"
       id="path3191-3"
       inkscape:connector-curvature="0"
       d="m 416.00087,522.33887 -0.90763,7.31139" />
    <path
       style="fill:none;stroke:url(#linearGradient4408-3);stroke-width:0.49879983;stroke-linecap:round;stroke-linejoin:round;stroke-miterlimit:4;stroke-opacity:1;stroke-dasharray:none"
       id="path3212-3"
       inkscape:connector-curvature="0"
       d="m 415.21213,529.59398 c 0.0222,-2.40605 3.79651,-2.22515 4.71855,-0.0242 0.94629,2.37721 -0.82038,4.65571 -3.44599,5.34905 -3.44074,0.90857 -6.61495,-1.37394 -7.52087,-4.32166 -1.12757,-3.66897 2.16447,-7.86688 7.18277,-8.39274" />
    <path
       style="fill:none;stroke:#53b8fd;stroke-width:0.93815672px;stroke-linecap:round;stroke-linejoin:round;stroke-opacity:1"
       id="path3189-6"
       inkscape:connector-curvature="0"
       d="m 416.83474,516.45117 -0.76357,5.54663" />
    <rect
       style="fill:url(#linearGradient4274-9);fill-opacity:1;stroke:none"
       id="rect4179-1"
       width="32.167389"
       height="32.167389"
       x="398.55399"
       y="512.61273"
       ry="16.083694" />
    <path
       inkscape:connector-curvature="0"
       style="fill:#2c2e31;fill-opacity:0.23529412;stroke:none"
       d="m 398.56335,528.29431 c -0.003,0.13393 -0.009,0.26735 -0.009,0.4021 0,8.91038 7.17334,16.08371 16.08372,16.08371 8.91038,0 16.08371,-7.17333 16.08371,-16.08371 0,-0.13475 -0.006,-0.26817 -0.009,-0.4021 -0.21284,8.72231 -7.29892,15.68163 -16.07429,15.68163 -8.77537,0 -15.86144,-6.95932 -16.07429,-15.68163 z"
       id="rect4409-8" />
    <path
       inkscape:connector-curvature="0"
       id="path1495-8"
       d="m 414.63767,523.95288 c -2.61728,0 -4.74349,2.12626 -4.74349,4.74357 0,2.61714 2.12621,4.74357 4.74349,4.74357 2.61728,0 4.74348,-2.12643 4.74348,-4.74357 0,-2.61731 -2.12621,-4.74357 -4.74348,-4.74357 z m 0,3.01553 c 0.95174,0 1.72776,0.77612 1.72776,1.72804 0,0.95183 -0.77601,1.72787 -1.72776,1.72787 -0.95174,0 -1.72776,-0.77604 -1.72776,-1.72787 0,-0.95192 0.77602,-1.72804 1.72776,-1.72804 z"
       style="fill:#9fa9b1;fill-opacity:1;stroke:none" />
    <path
       inkscape:connector-curvature="0"
       id="path1497-4"
       d="m 414.63767,524.95835 c -2.0621,0 -3.73824,1.67584 -3.73824,3.7381 0,2.06217 1.67614,3.73801 3.73824,3.73801 2.0621,0 3.73824,-1.67584 3.73824,-3.73801 0,-2.06226 -1.67614,-3.7381 -3.73824,-3.7381 z m 0,2.01006 c 0.95174,0 1.72776,0.77612 1.72776,1.72804 0,0.95183 -0.77601,1.72787 -1.72776,1.72787 -0.95174,0 -1.72776,-0.77604 -1.72776,-1.72787 0,-0.95192 0.77602,-1.72804 1.72776,-1.72804 z"
       style="fill:#d4d4e6;fill-opacity:0.71489366;stroke:none" />
    <path
       inkscape:connector-curvature="0"
       id="path1532-1"
       d="m 414.63767,526.95547 c -0.88015,0 -1.59451,0.67913 -1.69933,1.53189 0.16154,-0.78633 0.86656,-1.36438 1.69933,-1.36438 0.83278,0 1.5378,0.57805 1.69934,1.36438 -0.10483,-0.85276 -0.8192,-1.53189 -1.69934,-1.53189 z m -4.71506,2.22598 c 0.17508,2.45832 2.21241,4.4038 4.71506,4.4038 2.50264,0 4.53998,-1.94548 4.71507,-4.4038 -0.24318,2.39004 -2.26137,4.26026 -4.71507,4.26026 -2.45369,0 -4.47188,-1.87022 -4.71506,-4.26026 z"
       style="fill:#1a1a1a;fill-opacity:0.31372549;stroke:none" />
  </g>
</svg>
