<?xml version="1.0" encoding="UTF-8" standalone="no"?>
<svg
   xmlns:dc="http://purl.org/dc/elements/1.1/"
   xmlns:cc="http://creativecommons.org/ns#"
   xmlns:rdf="http://www.w3.org/1999/02/22-rdf-syntax-ns#"
   xmlns:svg="http://www.w3.org/2000/svg"
   xmlns="http://www.w3.org/2000/svg"
   xmlns:xlink="http://www.w3.org/1999/xlink"
   xmlns:sodipodi="http://sodipodi.sourceforge.net/DTD/sodipodi-0.dtd"
   xmlns:inkscape="http://www.inkscape.org/namespaces/inkscape"
   viewBox="0 0 48 48"
   id="svg2"
   version="1.1"
   inkscape:version="0.48.4 r9939"
   width="100%"
   height="100%"
   sodipodi:docname="totem.svg">
  <metadata
     id="metadata63">
    <rdf:RDF>
      <cc:Work
         rdf:about="">
        <dc:format>image/svg+xml</dc:format>
        <dc:type
           rdf:resource="http://purl.org/dc/dcmitype/StillImage" />
        <dc:title></dc:title>
      </cc:Work>
    </rdf:RDF>
  </metadata>
  <sodipodi:namedview
     pagecolor="#ffffff"
     bordercolor="#666666"
     borderopacity="1"
     objecttolerance="10"
     gridtolerance="10"
     guidetolerance="10"
     inkscape:pageopacity="0"
     inkscape:pageshadow="2"
     inkscape:window-width="1871"
     inkscape:window-height="1056"
     id="namedview61"
     showgrid="true"
     inkscape:zoom="5.7708334"
     inkscape:cx="31.472707"
     inkscape:cy="-2.4832035"
     inkscape:window-x="49"
     inkscape:window-y="24"
     inkscape:window-maximized="1"
     inkscape:current-layer="svg2">
    <inkscape:grid
       type="xygrid"
       id="grid3040" />
  </sodipodi:namedview>
  <defs
     id="defs4">
    <linearGradient
       id="linearGradient3772">
      <stop
         style="stop-color:#cf7570;stop-opacity:1;"
         offset="0"
         id="stop3774" />
      <stop
         style="stop-color:#eea538;stop-opacity:1;"
         offset="1"
         id="stop3776" />
    </linearGradient>
    <linearGradient
       id="linearGradient3094"
       gradientUnits="userSpaceOnUse"
       gradientTransform="matrix(0,-1,1,0,-1.51e-6,47.999998)"
       x1="1"
       x2="47">
      <stop
         stop-color="#a4d044"
         stop-opacity="1"
         id="stop19"
         offset="0"
         style="stop-color:#41c9cf;stop-opacity:1;" />
      <stop
         offset="1"
         stop-color="#acd454"
         stop-opacity="1"
         id="stop21"
         style="stop-color:#9580ec;stop-opacity:1;" />
    </linearGradient>
    <linearGradient
       y2="1028.3622"
       x2="44"
       y1="1028.3622"
       x1="4"
       gradientTransform="translate(0,-1004.3622)"
       gradientUnits="userSpaceOnUse"
       id="linearGradient3019"
       xlink:href="#linearGradient3094"
       inkscape:collect="always" />
    <linearGradient
       y2="1028.3622"
       x2="44"
       y1="1028.3622"
       x1="4"
       gradientTransform="translate(0,-1004.3622)"
       gradientUnits="userSpaceOnUse"
       id="linearGradient3019-9"
       xlink:href="#linearGradient3094-1"
       inkscape:collect="always" />
    <linearGradient
       id="linearGradient3094-1"
       gradientUnits="userSpaceOnUse"
       gradientTransform="matrix(0,-1,1,0,-1.51e-6,47.999998)"
       x1="1"
       x2="47">
      <stop
         stop-color="#a4d044"
         stop-opacity="1"
         id="stop19-6"
         offset="0"
         style="stop-color:#41a1cf;stop-opacity:1;" />
      <stop
         offset="1"
         stop-color="#acd454"
         stop-opacity="1"
         id="stop21-8"
         style="stop-color:#9580ec;stop-opacity:1;" />
    </linearGradient>
    <linearGradient
       inkscape:collect="always"
       xlink:href="#linearGradient3772"
       id="linearGradient3778"
       x1="4"
       y1="24"
       x2="44"
       y2="24"
       gradientUnits="userSpaceOnUse" />
  </defs>
  <rect
     style="fill:url(#linearGradient3778);fill-opacity:1;stroke:none"
     id="rect3758"
     width="40"
     height="40"
     x="4"
     y="3.9999995"
     ry="0" />
  <path
     d="M 4,3.9999996 4,13 44,13 44,3.9999996 z"
     id="path47"
     inkscape:connector-curvature="0"
     style="fill:#2d2d2d;fill-opacity:1;fill-rule:evenodd;stroke:none"
     sodipodi:nodetypes="ccccc" />
  <path
     style="opacity:0.35;fill:#000000;fill-opacity:1;stroke:none"
     d="m 4.000001,43.999717 39.999997,3e-4 c -19.999997,-1 -19.999997,-1 -39.999998,0 z"
     id="path3800"
     inkscape:connector-curvature="0"
     sodipodi:nodetypes="cccc" />
  <path
     style="opacity:0.1;fill:#000000;fill-opacity:1;fill-rule:nonzero;stroke:none"
     inkscape:connector-curvature="0"
     d="M 20,18 20,38 34.996094,28 M 20,18"
     id="path33" />
  <path
     style="opacity:0.1;fill:#000000;fill-opacity:1;fill-rule:evenodd;stroke:none"
     inkscape:connector-curvature="0"
     d="m 18.355,7.8829996 1.254,2.039 -1.254,2.0390004 -2.504,0 1.254,-2.0390004 -1.254,-2.039 m 2.504,0"
     id="path37" />
  <path
     style="opacity:0.1;fill:#000000;fill-opacity:1;fill-rule:evenodd;stroke:none"
     inkscape:connector-curvature="0"
     d="m 23.313,7.8829996 1.254,2.039 -1.254,2.0390004 -2.504,0 1.254,-2.0390004 -1.254,-2.039 m 2.504,0"
     id="path39" />
  <path
     style="opacity:0.1;fill:#000000;fill-opacity:1;fill-rule:evenodd;stroke:none"
     inkscape:connector-curvature="0"
     d="m 28.11,7.8829996 1.254,2.039 -1.254,2.0390004 -2.504,0 1.254,-2.0390004 -1.254,-2.039 m 2.504,0"
     id="path41" />
  <path
     style="opacity:0.1;fill:#000000;fill-opacity:1;fill-rule:evenodd;stroke:none"
     inkscape:connector-curvature="0"
     d="m 32.926,7.8829996 1.254,2.039 -1.254,2.0390004 -2.504,0 1.254,-2.0390004 -1.254,-2.039 m 2.504,0"
     id="path43" />
  <path
     style="fill:#f9f9f9;fill-opacity:1;fill-rule:nonzero;stroke:none"
     inkscape:connector-curvature="0"
     d="M 19,17 19,37 33.996094,27 M 19,17"
     id="path45" />
  <path
     style="fill:#f9f9f9;fill-opacity:1;fill-rule:evenodd;stroke:none"
     inkscape:connector-curvature="0"
     d="m 17.355,6.8829996 1.254,2.039 -1.254,2.0390004 -2.504,0 1.254,-2.0390004 -1.254,-2.039 m 2.504,0"
     id="path49" />
  <path
     style="fill:#f9f9f9;fill-opacity:1;fill-rule:evenodd;stroke:none"
     inkscape:connector-curvature="0"
     d="m 22.313,6.8829996 1.254,2.039 -1.254,2.0390004 -2.504,0 1.254,-2.0390004 -1.254,-2.039 m 2.504,0"
     id="path51" />
  <path
     style="fill:#f9f9f9;fill-opacity:1;fill-rule:evenodd;stroke:none"
     inkscape:connector-curvature="0"
     d="m 27.11,6.8829996 1.254,2.039 -1.254,2.0390004 -2.504,0 1.254,-2.0390004 -1.254,-2.039 m 2.504,0"
     id="path53" />
  <path
     style="fill:#f9f9f9;fill-opacity:1;fill-rule:evenodd;stroke:none"
     inkscape:connector-curvature="0"
     d="m 31.926,6.8829996 1.254,2.039 -1.254,2.0390004 -2.504,0 1.254,-2.0390004 -1.254,-2.039 m 2.504,0"
     id="path55" />
  <path
     sodipodi:nodetypes="cccc"
     inkscape:connector-curvature="0"
     id="path3804"
     d="m 4.000005,3.999917 39.999996,-2e-4 c -19.999996,1 -19.999996,1 -39.999998,0 z"
     style="opacity:0.75;fill:#ffffff;fill-opacity:1;stroke:none" />
</svg>
