<?xml version="1.0" encoding="UTF-8" standalone="no"?>
<svg
   xmlns:dc="http://purl.org/dc/elements/1.1/"
   xmlns:cc="http://creativecommons.org/ns#"
   xmlns:rdf="http://www.w3.org/1999/02/22-rdf-syntax-ns#"
   xmlns:svg="http://www.w3.org/2000/svg"
   xmlns="http://www.w3.org/2000/svg"
   xmlns:xlink="http://www.w3.org/1999/xlink"
   xmlns:sodipodi="http://sodipodi.sourceforge.net/DTD/sodipodi-0.dtd"
   xmlns:inkscape="http://www.inkscape.org/namespaces/inkscape"
   viewBox="0 0 48 48"
   id="svg2"
   version="1.1"
   inkscape:version="0.48.4 r9939"
   width="100%"
   height="100%"
   sodipodi:docname="totem.svg">
  <metadata
     id="metadata63">
    <rdf:RDF>
      <cc:Work
         rdf:about="">
        <dc:format>image/svg+xml</dc:format>
        <dc:type
           rdf:resource="http://purl.org/dc/dcmitype/StillImage" />
        <dc:title></dc:title>
      </cc:Work>
    </rdf:RDF>
  </metadata>
  <sodipodi:namedview
     pagecolor="#ffffff"
     bordercolor="#666666"
     borderopacity="1"
     objecttolerance="10"
     gridtolerance="10"
     guidetolerance="10"
     inkscape:pageopacity="0"
     inkscape:pageshadow="2"
     inkscape:window-width="1871"
     inkscape:window-height="1056"
     id="namedview61"
     showgrid="true"
     inkscape:zoom="4.0805954"
     inkscape:cx="-62.734512"
     inkscape:cy="17.329616"
     inkscape:window-x="49"
     inkscape:window-y="24"
     inkscape:window-maximized="1"
     inkscape:current-layer="svg2">
    <inkscape:grid
       type="xygrid"
       id="grid3040" />
  </sodipodi:namedview>
  <defs
     id="defs4">
    <linearGradient
       id="linearGradient3772">
      <stop
         style="stop-color:#9a75ca;stop-opacity:1;"
         offset="0"
         id="stop3774" />
      <stop
         style="stop-color:#59b8e6;stop-opacity:1;"
         offset="1"
         id="stop3776" />
    </linearGradient>
    <linearGradient
       id="linearGradient3094"
       gradientUnits="userSpaceOnUse"
       gradientTransform="matrix(0,-1,1,0,-1.51e-6,47.999998)"
       x1="1"
       x2="47">
      <stop
         stop-color="#a4d044"
         stop-opacity="1"
         id="stop19"
         offset="0"
         style="stop-color:#41c9cf;stop-opacity:1;" />
      <stop
         offset="1"
         stop-color="#acd454"
         stop-opacity="1"
         id="stop21"
         style="stop-color:#9580ec;stop-opacity:1;" />
    </linearGradient>
    <linearGradient
       y2="1028.3622"
       x2="44"
       y1="1028.3622"
       x1="4"
       gradientTransform="translate(0,-1004.3622)"
       gradientUnits="userSpaceOnUse"
       id="linearGradient3019"
       xlink:href="#linearGradient3094"
       inkscape:collect="always" />
    <linearGradient
       y2="1028.3622"
       x2="44"
       y1="1028.3622"
       x1="4"
       gradientTransform="translate(0,-1004.3622)"
       gradientUnits="userSpaceOnUse"
       id="linearGradient3019-9"
       xlink:href="#linearGradient3094-1"
       inkscape:collect="always" />
    <linearGradient
       id="linearGradient3094-1"
       gradientUnits="userSpaceOnUse"
       gradientTransform="matrix(0,-1,1,0,-1.51e-6,47.999998)"
       x1="1"
       x2="47">
      <stop
         stop-color="#a4d044"
         stop-opacity="1"
         id="stop19-6"
         offset="0"
         style="stop-color:#41a1cf;stop-opacity:1;" />
      <stop
         offset="1"
         stop-color="#acd454"
         stop-opacity="1"
         id="stop21-8"
         style="stop-color:#9580ec;stop-opacity:1;" />
    </linearGradient>
    <linearGradient
       inkscape:collect="always"
       xlink:href="#linearGradient3772"
       id="linearGradient3778"
       x1="4"
       y1="24"
       x2="44"
       y2="24"
       gradientUnits="userSpaceOnUse" />
    <linearGradient
       inkscape:collect="always"
       xlink:href="#linearGradient3784"
       id="linearGradient3042"
       gradientUnits="userSpaceOnUse"
       gradientTransform="matrix(1.0852672,0,0,1.0852672,-2.8973153,0.07291958)"
       x1="9.9574633"
       y1="35.6618"
       x2="9.9646463"
       y2="38.9426" />
    <linearGradient
       id="linearGradient3784">
      <stop
         style="stop-color:#2c3e50;stop-opacity:1;"
         offset="0"
         id="stop3786" />
      <stop
         style="stop-color:#70777e;stop-opacity:1;"
         offset="1"
         id="stop3788" />
    </linearGradient>
  </defs>
  <rect
     style="fill:url(#linearGradient3778);fill-opacity:1;stroke:none"
     id="rect3758"
     width="40"
     height="40"
     x="4"
     y="3.9999995"
     ry="0" />
  <path
     d="M 4,3.9999996 4,13 44,13 44,3.9999996 z"
     id="path47"
     inkscape:connector-curvature="0"
     style="fill:#2d2d2d;fill-opacity:1;fill-rule:evenodd;stroke:none"
     sodipodi:nodetypes="ccccc" />
  <path
     style="opacity:0.35;fill:#000000;fill-opacity:1;stroke:none"
     d="m 4.000001,43.999717 39.999997,3e-4 c -19.999997,-1 -19.999997,-1 -39.999998,0 z"
     id="path3800"
     inkscape:connector-curvature="0"
     sodipodi:nodetypes="cccc" />
  <path
     style="opacity:0.1;fill:#000000;fill-opacity:1;fill-rule:nonzero;stroke:none"
     inkscape:connector-curvature="0"
     d="m 19.666886,17.666886 0,13.337724 10.000688,-6.668862 M 19.666886,17.666886"
     id="path33" />
  <path
     style="opacity:0.1;fill:#000000;fill-opacity:1;fill-rule:evenodd;stroke:none"
     inkscape:connector-curvature="0"
     d="m 18.355,7.8829996 1.254,2.039 -1.254,2.0390004 -2.504,0 1.254,-2.0390004 -1.254,-2.039 m 2.504,0"
     id="path37" />
  <path
     style="opacity:0.1;fill:#000000;fill-opacity:1;fill-rule:evenodd;stroke:none"
     inkscape:connector-curvature="0"
     d="m 23.313,7.8829996 1.254,2.039 -1.254,2.0390004 -2.504,0 1.254,-2.0390004 -1.254,-2.039 m 2.504,0"
     id="path39" />
  <path
     style="opacity:0.1;fill:#000000;fill-opacity:1;fill-rule:evenodd;stroke:none"
     inkscape:connector-curvature="0"
     d="m 28.11,7.8829996 1.254,2.039 -1.254,2.0390004 -2.504,0 1.254,-2.0390004 -1.254,-2.039 m 2.504,0"
     id="path41" />
  <path
     style="opacity:0.1;fill:#000000;fill-opacity:1;fill-rule:evenodd;stroke:none"
     inkscape:connector-curvature="0"
     d="m 32.926,7.8829996 1.254,2.039 -1.254,2.0390004 -2.504,0 1.254,-2.0390004 -1.254,-2.039 m 2.504,0"
     id="path43" />
  <path
     style="fill:#f9f9f9;fill-opacity:1;fill-rule:nonzero;stroke:none"
     inkscape:connector-curvature="0"
     d="m 19,17 0,13.337724 10.000688,-6.668862 M 19,17"
     id="path45" />
  <path
     style="fill:#f9f9f9;fill-opacity:1;fill-rule:evenodd;stroke:none"
     inkscape:connector-curvature="0"
     d="m 17.355,6.8829996 1.254,2.039 -1.254,2.0390004 -2.504,0 1.254,-2.0390004 -1.254,-2.039 m 2.504,0"
     id="path49" />
  <path
     style="fill:#f9f9f9;fill-opacity:1;fill-rule:evenodd;stroke:none"
     inkscape:connector-curvature="0"
     d="m 22.313,6.8829996 1.254,2.039 -1.254,2.0390004 -2.504,0 1.254,-2.0390004 -1.254,-2.039 m 2.504,0"
     id="path51" />
  <path
     style="fill:#f9f9f9;fill-opacity:1;fill-rule:evenodd;stroke:none"
     inkscape:connector-curvature="0"
     d="m 27.11,6.8829996 1.254,2.039 -1.254,2.0390004 -2.504,0 1.254,-2.0390004 -1.254,-2.039 m 2.504,0"
     id="path53" />
  <path
     style="fill:#f9f9f9;fill-opacity:1;fill-rule:evenodd;stroke:none"
     inkscape:connector-curvature="0"
     d="m 31.926,6.8829996 1.254,2.039 -1.254,2.0390004 -2.504,0 1.254,-2.0390004 -1.254,-2.039 m 2.504,0"
     id="path55" />
  <path
     sodipodi:nodetypes="cccc"
     inkscape:connector-curvature="0"
     id="path3804"
     d="m 4.000005,3.999917 39.999996,-2e-4 c -19.999996,1 -19.999996,1 -39.999998,0 z"
     style="opacity:0.75;fill:#ffffff;fill-opacity:1;stroke:none" />
  <path
     style="fill:#4d4d4d;fill-rule:evenodd;stroke:#003bc3;stroke-width:0;stroke-linecap:square;stroke-linejoin:miter;stroke-miterlimit:2"
     inkscape:connector-curvature="0"
     d="m 33.542299,20.8791 8.671914,-6.3012 0.607652,0.8363 C 43.370391,16.1342 43.706075,16.5019 43,17 c -0.706074,0.498 -0.954014,0.1471 -1.534676,-0.6001 -3.251276,2.3624 -5.68973,4.1343 -7.315365,5.3155 z"
     stroke-miterlimit="2.00000000000"
     id="shape3" />
  <rect
     style="fill:url(#linearGradient3042);fill-opacity:1;fill-rule:evenodd;stroke:#003bc3;stroke-width:0;stroke-linecap:square;stroke-linejoin:miter;stroke-miterlimit:2"
     y="38.57716"
     x="-7.1665015"
     height="3.5904131"
     width="33.972649"
     stroke-miterlimit="2.00000000000"
     transform="matrix(0.8089889,-0.58782392,0.58782392,0.8089889,0,0)"
     id="shape5" />
  <path
     style="fill:#2c3e50;fill-rule:evenodd;stroke:#003bc3;stroke-width:0;stroke-linecap:square;stroke-linejoin:bevel"
     inkscape:connector-curvature="0"
     d="m 16.590903,35.5894 2.183427,2.9612 -5.968231,1.8418 z"
     id="shape01" />
</svg>
