<?xml version="1.0" encoding="UTF-8" standalone="no"?>
<!-- Created using Karbon, part of Calligra: http://www.calligra.org/karbon -->

<svg
   xmlns:dc="http://purl.org/dc/elements/1.1/"
   xmlns:cc="http://creativecommons.org/ns#"
   xmlns:rdf="http://www.w3.org/1999/02/22-rdf-syntax-ns#"
   xmlns:svg="http://www.w3.org/2000/svg"
   xmlns="http://www.w3.org/2000/svg"
   xmlns:sodipodi="http://sodipodi.sourceforge.net/DTD/sodipodi-0.dtd"
   xmlns:inkscape="http://www.inkscape.org/namespaces/inkscape"
   width="48.000004"
   height="48.000004"
   id="svg2"
   version="1.1"
   inkscape:version="0.48.4 r9939"
   sodipodi:docname="flowblade.svg">
  <metadata
     id="metadata12">
    <rdf:RDF>
      <cc:Work
         rdf:about="">
        <dc:format>image/svg+xml</dc:format>
        <dc:type
           rdf:resource="http://purl.org/dc/dcmitype/StillImage" />
        <dc:title></dc:title>
      </cc:Work>
    </rdf:RDF>
  </metadata>
  <sodipodi:namedview
     pagecolor="#ffffff"
     bordercolor="#666666"
     borderopacity="1"
     objecttolerance="10"
     gridtolerance="10"
     guidetolerance="10"
     inkscape:pageopacity="0"
     inkscape:pageshadow="2"
     inkscape:window-width="1871"
     inkscape:window-height="1056"
     id="namedview10"
     showgrid="false"
     inkscape:zoom="6.9532161"
     inkscape:cx="23.877504"
     inkscape:cy="19.285045"
     inkscape:window-x="49"
     inkscape:window-y="24"
     inkscape:window-maximized="1"
     inkscape:current-layer="svg2"
     inkscape:showpageshadow="false"
     borderlayer="true"
     units="px">
    <sodipodi:guide
       position="1.9073486e-06,48.000002"
       orientation="47.999998,0"
       id="guide4062" />
    <sodipodi:guide
       position="1.9073486e-06,3.8146973e-06"
       orientation="0,47.999998"
       id="guide4064" />
    <sodipodi:guide
       position="48,3.8146973e-06"
       orientation="-47.999998,0"
       id="guide4066" />
    <sodipodi:guide
       position="48,48.000002"
       orientation="0,-47.999998"
       id="guide4068" />
    <sodipodi:guide
       position="4.0000019,44.000002"
       orientation="39.999998,0"
       id="guide4072" />
    <sodipodi:guide
       position="4.0000019,4.0000038"
       orientation="0,39.999998"
       id="guide4074" />
    <sodipodi:guide
       position="44,4.0000038"
       orientation="-39.999998,0"
       id="guide4076" />
    <sodipodi:guide
       position="44,44.000002"
       orientation="0,-39.999998"
       id="guide4078" />
    <sodipodi:guide
       position="15.000002,33.000002"
       orientation="17.999998,0"
       id="guide4080" />
    <sodipodi:guide
       position="15.000002,15.000004"
       orientation="0,17.999998"
       id="guide4082" />
    <sodipodi:guide
       position="33,15.000004"
       orientation="-17.999998,0"
       id="guide4084" />
    <sodipodi:guide
       position="33,33.000002"
       orientation="0,-17.999998"
       id="guide4086" />
  </sodipodi:namedview>
  <defs
     id="defs4">
    <linearGradient
       id="linearGradient3790">
      <stop
         style="stop-color:#648996;stop-opacity:1;"
         offset="0"
         id="stop3792" />
      <stop
         style="stop-color:#87a6b0;stop-opacity:1;"
         offset="1"
         id="stop3794" />
    </linearGradient>
    <linearGradient
       id="linearGradient3782">
      <stop
         style="stop-color:#58808e;stop-opacity:1;"
         offset="0"
         id="stop3784" />
      <stop
         style="stop-color:#739aa7;stop-opacity:1;"
         offset="1"
         id="stop3786" />
    </linearGradient>
    <linearGradient
       id="linearGradient3774">
      <stop
         style="stop-color:#2c3e50;stop-opacity:1;"
         offset="0"
         id="stop3776" />
      <stop
         style="stop-color:#53677c;stop-opacity:1;"
         offset="1"
         id="stop3778" />
    </linearGradient>
  </defs>
  <path
     inkscape:connector-curvature="0"
     style="fill:#373e48;fill-opacity:1;stroke:none"
     d="m 4.0000019,4.0000019 0,40.0000001 40.0000001,0 0,-40.0000001 -40.0000001,0 z m 3,3 3.0000001,0 0,3.0000001 -3.0000001,0 0,-3.0000001 z m 31.0000001,0 3,0 0,3.0000001 -3,0 0,-3.0000001 z m -31.0000001,7.5000001 3.0000001,0 0,3 -3.0000001,0 0,-3 z m 31.0000001,0 3,0 0,3 -3,0 0,-3 z m -31.0000001,8 3.0000001,0 0,3 -3.0000001,0 0,-3 z m 31.0000001,0 3,0 0,3 -3,0 0,-3 z m -31.0000001,8 3.0000001,0 0,3 -3.0000001,0 0,-3 z m 31.0000001,0 3,0 0,3 -3,0 0,-3 z m -31.0000001,7.5 3.0000001,0 0,3 -3.0000001,0 0,-3 z m 31.0000001,0 3,0 0,3 -3,0 0,-3 z"
     id="rect4197-0" />
  <rect
     style="fill:#216778;fill-opacity:1;stroke:none"
     id="rect4323-0"
     width="21.99999"
     height="15.499998"
     x="13.000008"
     y="7.0000038" />
  <rect
     style="fill:#216778;fill-opacity:1;stroke:none"
     id="rect4325-1"
     width="21.99999"
     height="15.5"
     x="13.000008"
     y="25.500002" />
  <path
     style="opacity:0.35;fill:#000000;fill-opacity:1;stroke:none"
     d="M 4.0000049,43.9997 44,44 C 24.000003,43 24.000003,43 4.0000035,44 z"
     id="path3800"
     inkscape:connector-curvature="0"
     sodipodi:nodetypes="cccc" />
  <path
     sodipodi:nodetypes="cccc"
     inkscape:connector-curvature="0"
     id="path3804"
     d="M 4.0000084,3.9999004 44,3.9997004 c -19.999993,1 -19.999993,1 -39.999993,0 z"
     style="opacity:0.75;fill:#ffffff;fill-opacity:1;stroke:none" />
  <path
     style="opacity:0.51999996;fill:#ffffff;fill-opacity:0.31372549;fill-rule:evenodd;stroke:#b1e7be;stroke-width:0.07190917;stroke-opacity:1"
     d="m 7.0123863,8.5055831 0,-1.4741379 1.4741379,0 1.4741379,0 0,1.4741379 0,1.4741379 -1.4741379,0 -1.4741379,0 0,-1.4741379 z"
     id="path3016"
     inkscape:connector-curvature="0" />
  <path
     style="opacity:0.51999996;fill:#ffffff;fill-opacity:0.31372549;fill-rule:evenodd;stroke:#b1e7be;stroke-width:0.07190917;stroke-opacity:1"
     d="m 7.0123863,15.984137 0,-1.474138 1.4741379,0 1.4741379,0 0,1.474138 0,1.474137 -1.4741379,0 -1.4741379,0 0,-1.474137 z"
     id="path3018"
     inkscape:connector-curvature="0" />
  <path
     style="opacity:0.51999996000000004;fill:#ffffff;fill-opacity:1;fill-rule:evenodd;stroke:#b1e7be;stroke-width:0.07190916999999999;stroke-opacity:1"
     d="m 7.0123863,24.002009 0,-1.438184 1.4741379,0 1.4741379,0 0,1.438184 0,1.438183 -1.4741379,0 -1.4741379,0 0,-1.438183 z"
     id="path3020"
     inkscape:connector-curvature="0" />
  <path
     style="opacity:0.51999996000000004;fill:#ffffff;fill-opacity:1;fill-rule:evenodd;stroke:#b1e7be;stroke-width:0.07190916999999999;stroke-opacity:1"
     d="m 7.0123863,32.019881 0,-1.474138 1.4741379,0 1.4741379,0 0,1.474138 0,1.474138 -1.4741379,0 -1.4741379,0 0,-1.474138 z"
     id="path3022"
     inkscape:connector-curvature="0" />
  <path
     style="opacity:0.51999996000000004;fill:#ffffff;fill-opacity:1;fill-rule:evenodd;stroke:#b1e7be;stroke-width:0.07190916999999999;stroke-opacity:1"
     d="m 7.0123863,39.498434 0,-1.474138 1.4741379,0 1.4741379,0 0,1.474138 0,1.474138 -1.4741379,0 -1.4741379,0 0,-1.474138 z"
     id="path3024"
     inkscape:connector-curvature="0" />
  <path
     style="opacity:0.51999996000000004;fill:#ffffff;fill-opacity:1;fill-rule:evenodd;stroke:#b1e7be;stroke-width:0.07190916999999999;stroke-opacity:1"
     d="m 38.005237,39.498434 0,-1.474138 1.474138,0 1.474138,0 0,1.474138 0,1.474138 -1.474138,0 -1.474138,0 0,-1.474138 z"
     id="path3026"
     inkscape:connector-curvature="0" />
  <path
     style="opacity:0.51999996000000004;fill:#ffffff;fill-opacity:1;fill-rule:evenodd;stroke:#b1e7be;stroke-width:0.07190916999999999;stroke-opacity:1"
     d="m 38.005237,32.019881 0,-1.474138 1.474138,0 1.474138,0 0,1.474138 0,1.474138 -1.474138,0 -1.474138,0 0,-1.474138 z"
     id="path3028"
     inkscape:connector-curvature="0" />
  <path
     style="opacity:0.51999996000000004;fill:#ffffff;fill-opacity:1;fill-rule:evenodd;stroke:#b1e7be;stroke-width:0.07190916999999999;stroke-opacity:1"
     d="m 38.005237,24.002009 0,-1.438184 1.474138,0 1.474138,0 0,1.438184 0,1.438183 -1.474138,0 -1.474138,0 0,-1.438183 z"
     id="path3030"
     inkscape:connector-curvature="0" />
  <path
     style="opacity:0.51999996000000004;fill:#ffffff;fill-opacity:1;fill-rule:evenodd;stroke:#b1e7be;stroke-width:0.07190916999999999;stroke-opacity:1"
     d="m 38.005237,15.984137 0,-1.474138 1.474138,0 1.474138,0 0,1.474138 0,1.474137 -1.474138,0 -1.474138,0 0,-1.474137 z"
     id="path3032"
     inkscape:connector-curvature="0" />
  <path
     style="opacity:0.51999996000000004;fill:#ffffff;fill-opacity:1;fill-rule:evenodd;stroke:#b1e7be;stroke-width:0.07190916999999999;stroke-opacity:1"
     d="m 38.011251,8.4910748 0,-1.4381833 1.474138,0 1.474138,0 0,1.4381833 0,1.4381834 -1.474138,0 -1.474138,0 0,-1.4381834 z"
     id="path3817"
     inkscape:connector-curvature="0" />
  <path
     style="opacity:0.51999996;fill:#ffffff;fill-opacity:1;fill-rule:evenodd;stroke:#b1e7be;stroke-width:0.07190917;stroke-opacity:1"
     d="m 7.0903095,8.5270294 0,-1.4022287 1.4022288,0 1.4022287,0 0,1.4022287 0,1.4022288 -1.4022287,0 -1.4022288,0 0,-1.4022288 z"
     id="path3819"
     inkscape:connector-curvature="0" />
  <path
     style="opacity:0.51999996;fill:#ffffff;fill-opacity:1;fill-rule:evenodd;stroke:#b1e7be;stroke-width:0.07190917;stroke-opacity:1"
     d="m 7.0903095,16.005583 0,-1.402229 1.4022288,0 1.4022287,0 0,1.402229 0,1.402229 -1.4022287,0 -1.4022288,0 0,-1.402229 z"
     id="path3821"
     inkscape:connector-curvature="0" />
  <path
     style="opacity:0.51999996;fill:#ffffff;fill-opacity:1;fill-rule:evenodd;stroke:#b1e7be;stroke-width:0.07190917;stroke-opacity:1"
     d="m 7.0903095,24.023455 0,-1.366274 1.4022288,0 1.4022287,0 0,1.366274 0,1.366274 -1.4022287,0 -1.4022288,0 0,-1.366274 z"
     id="path3823"
     inkscape:connector-curvature="0" />
  <path
     style="opacity:0.51999996;fill:#ffffff;fill-opacity:1;fill-rule:evenodd;stroke:#b1e7be;stroke-width:0.07190917;stroke-opacity:1"
     d="m 7.0903095,32.041327 0,-1.402229 1.4022288,0 1.4022287,0 0,1.402229 0,1.402229 -1.4022287,0 -1.4022288,0 0,-1.402229 z"
     id="path3825"
     inkscape:connector-curvature="0" />
  <path
     style="opacity:0.51999996;fill:#ffffff;fill-opacity:1;fill-rule:evenodd;stroke:#b1e7be;stroke-width:0.07190917;stroke-opacity:1"
     d="m 7.0903095,39.51988 0,-1.402228 1.4022288,0 1.4022287,0 0,1.402228 0,1.402229 -1.4022287,0 -1.4022288,0 0,-1.402229 z"
     id="path3827"
     inkscape:connector-curvature="0" />
  <path
     style="opacity:0.51999996;fill:#ffffff;fill-opacity:1;fill-rule:evenodd;stroke:#b1e7be;stroke-width:0.07190917;stroke-opacity:1"
     d="m 38.083161,39.51988 0,-1.402228 1.402228,0 1.402229,0 0,1.402228 0,1.402229 -1.402229,0 -1.402228,0 0,-1.402229 z"
     id="path3829"
     inkscape:connector-curvature="0" />
  <path
     style="opacity:0.51999996;fill:#ffffff;fill-opacity:1;fill-rule:evenodd;stroke:#b1e7be;stroke-width:0.07190917;stroke-opacity:1"
     d="m 38.083161,32.041327 0,-1.402229 1.402228,0 1.402229,0 0,1.402229 0,1.402229 -1.402229,0 -1.402228,0 0,-1.402229 z"
     id="path3831"
     inkscape:connector-curvature="0" />
  <path
     style="opacity:0.51999996;fill:#ffffff;fill-opacity:1;fill-rule:evenodd;stroke:#b1e7be;stroke-width:0.07190917;stroke-opacity:1"
     d="m 38.083161,24.023455 0,-1.366274 1.402228,0 1.402229,0 0,1.366274 0,1.366274 -1.402229,0 -1.402228,0 0,-1.366274 z"
     id="path3833"
     inkscape:connector-curvature="0" />
  <path
     style="opacity:0.51999996;fill:#ffffff;fill-opacity:1;fill-rule:evenodd;stroke:#b1e7be;stroke-width:0.07190917;stroke-opacity:1"
     d="m 38.083161,16.005583 0,-1.402229 1.402228,0 1.402229,0 0,1.402229 0,1.402229 -1.402229,0 -1.402228,0 0,-1.402229 z"
     id="path3835"
     inkscape:connector-curvature="0" />
  <path
     style="opacity:0.51999996000000004;fill:#ffffff;fill-opacity:1;fill-rule:evenodd;stroke:#b1e7be;stroke-width:0.07190916999999999;stroke-opacity:1"
     d="m 38.083161,8.4910748 0,-1.3662741 1.402228,0 1.402229,0 0,1.3662741 0,1.3662742 -1.402229,0 -1.402228,0 0,-1.3662742 z"
     id="path3837"
     inkscape:connector-curvature="0" />
  <path
     style="opacity:0.51999996;fill:#ffffff;fill-opacity:1;fill-rule:evenodd;stroke:#b1e7be;stroke-width:0.07190917;stroke-opacity:1"
     d="m 7.1622187,8.5270294 0,-1.3303196 1.3303196,0 1.3303195,0 0,1.3303196 0,1.3303196 -1.3303195,0 -1.3303196,0 0,-1.3303196 z"
     id="path3839"
     inkscape:connector-curvature="0" />
  <path
     style="opacity:0.51999996;fill:#ffffff;fill-opacity:1;fill-rule:evenodd;stroke:#b1e7be;stroke-width:0.07190917;stroke-opacity:1"
     d="m 38.15507,8.4910748 0,-1.294365 1.330319,0 1.33032,0 0,1.294365 0,1.2943651 -1.33032,0 -1.330319,0 0,-1.2943651 z"
     id="path3841"
     inkscape:connector-curvature="0" />
  <path
     style="opacity:0.51999996;fill:#ffffff;fill-opacity:1;fill-rule:evenodd;stroke:#b1e7be;stroke-width:0.07190917;stroke-opacity:1"
     d="m 38.15507,16.005583 0,-1.33032 1.330319,0 1.33032,0 0,1.33032 0,1.330319 -1.33032,0 -1.330319,0 0,-1.330319 z"
     id="path3843"
     inkscape:connector-curvature="0" />
  <path
     style="opacity:0.51999996;fill:#ffffff;fill-opacity:1;fill-rule:evenodd;stroke:#b1e7be;stroke-width:0.07190917;stroke-opacity:1"
     d="m 7.1622187,16.005583 0,-1.33032 1.3303196,0 1.3303195,0 0,1.33032 0,1.330319 -1.3303195,0 -1.3303196,0 0,-1.330319 z"
     id="path3845"
     inkscape:connector-curvature="0" />
  <path
     style="opacity:0.51999996;fill:#ffffff;fill-opacity:1;fill-rule:evenodd;stroke:#b1e7be;stroke-width:0.07190917;stroke-opacity:1"
     d="m 7.1622187,24.023455 0,-1.294365 1.3303196,0 1.3303195,0 0,1.294365 0,1.294365 -1.3303195,0 -1.3303196,0 0,-1.294365 z"
     id="path3847"
     inkscape:connector-curvature="0" />
  <path
     style="opacity:0.51999996;fill:#ffffff;fill-opacity:1;fill-rule:evenodd;stroke:#b1e7be;stroke-width:0.07190917;stroke-opacity:1"
     d="m 38.15507,24.023455 0,-1.294365 1.330319,0 1.33032,0 0,1.294365 0,1.294365 -1.33032,0 -1.330319,0 0,-1.294365 z"
     id="path3849"
     inkscape:connector-curvature="0" />
  <path
     style="opacity:0.51999996;fill:#ffffff;fill-opacity:1;fill-rule:evenodd;stroke:#b1e7be;stroke-width:0.07190917;stroke-opacity:1"
     d="m 38.15507,32.041327 0,-1.33032 1.330319,0 1.33032,0 0,1.33032 0,1.33032 -1.33032,0 -1.330319,0 0,-1.33032 z"
     id="path3851"
     inkscape:connector-curvature="0" />
  <path
     style="opacity:0.51999996;fill:#ffffff;fill-opacity:1;fill-rule:evenodd;stroke:#b1e7be;stroke-width:0.07190917;stroke-opacity:1"
     d="m 7.1622187,32.041327 0,-1.33032 1.3303196,0 1.3303195,0 0,1.33032 0,1.33032 -1.3303195,0 -1.3303196,0 0,-1.33032 z"
     id="path3853"
     inkscape:connector-curvature="0" />
  <path
     style="opacity:0.51999996;fill:#ffffff;fill-opacity:1;fill-rule:evenodd;stroke:#b1e7be;stroke-width:0.07190917;stroke-opacity:1"
     d="m 7.1622187,39.51988 0,-1.330319 1.3303196,0 1.3303195,0 0,1.330319 0,1.33032 -1.3303195,0 -1.3303196,0 0,-1.33032 z"
     id="path3855"
     inkscape:connector-curvature="0" />
  <path
     style="opacity:0.51999996;fill:#ffffff;fill-opacity:1;fill-rule:evenodd;stroke:#b1e7be;stroke-width:0.07190917;stroke-opacity:1"
     d="m 38.15507,39.51988 0,-1.330319 1.330319,0 1.33032,0 0,1.330319 0,1.33032 -1.33032,0 -1.330319,0 0,-1.33032 z"
     id="path3857"
     inkscape:connector-curvature="0" />
  <path
     style="fill:#cad1d4;fill-opacity:1;stroke:none"
     d="m 19.176591,14.999987 c -0.473886,4.5e-4 -0.942775,0.0639 -1.313628,0.1881 -1.270064,0.426061 -2.231176,1.372323 -2.66837,2.627016 -0.168106,0.482401 -0.192513,0.657181 -0.192603,1.349103 -2.08e-4,1.350722 0.299799,2.105734 1.203251,3.016176 0.435004,0.438391 0.67931,0.620911 1.095049,0.819452 0.613676,0.29304 1.21954,0.4419 1.830853,0.44982 l 0.426332,0.009 0.114699,-0.518851 c 0.360134,-1.617303 1.665571,-2.930226 3.308956,-3.329826 l 0.467454,-0.114391 -0.0022,-0.35262 c -0.0056,-1.732504 -1.257731,-3.422347 -2.928064,-3.952358 -0.389413,-0.123481 -0.867869,-0.186391 -1.341761,-0.185851 z m 9.56978,0.0126 c -0.64842,0 -0.884906,0.0315 -1.328779,0.17307 -1.672798,0.530642 -2.924323,2.217155 -2.930226,3.952269 l 0,0.35244 0.467449,0.114661 c 1.646619,0.40032 2.942079,1.711173 3.313278,3.353406 l 0.112538,0.495181 0.389544,0 c 0.21487,0 0.609852,-0.0486 0.876474,-0.10386 3.186913,-0.668521 4.446532,-4.627539 2.226888,-7.000934 -0.884192,-0.945542 -1.79674,-1.336233 -3.127166,-1.336233 z m -5.297787,5.586942 -0.289996,0.0486 c -0.465467,0.0747 -1.183999,0.494101 -1.612276,0.942662 -0.417333,0.437131 -0.786778,1.130672 -0.848339,1.589223 l -0.03678,0.27468 1.393698,0 1.3937,0 0,-1.427132 0,-1.427043 z m 1.038782,0 0,1.427043 0,1.427042 1.3937,0 1.393693,0 -0.04544,-0.29412 C 27.153259,22.674753 26.805476,22.025312 26.38964,21.589711 25.961369,21.14124 25.242832,20.721479 24.777363,20.647139 l -0.289989,-0.0486 z m 4.207065,3.900428 c -0.03373,0 -0.06701,0.009 -0.09739,0.009 -0.245542,0.0225 -0.249484,0.0252 -0.398198,0.538381 -0.228456,0.788041 -0.561392,1.352703 -1.14915,1.943824 -0.586679,0.590041 -1.235495,0.958412 -2.049423,1.163252 l -0.478277,0.11898 -0.01948,0.419401 c -0.02647,0.542971 0.136882,1.314723 0.396036,1.868044 0.857741,1.831144 2.920984,2.807106 4.877946,2.306975 2.664443,-0.680672 3.991148,-3.578678 2.761435,-6.034513 -0.373867,-0.746641 -1.131623,-1.486623 -1.900105,-1.855083 -0.578648,-0.277381 -1.437443,-0.485371 -1.94339,-0.475741 z m -2.348085,0.009 c -0.159606,0 -0.332665,0 -0.512896,0.009 l -1.311458,0.0171 -0.01948,1.338392 -0.01732,1.338393 0.225068,-0.0459 c 0.124627,-0.0243 0.445382,-0.14904 0.712005,-0.27459 0.590349,-0.278191 0.976395,-0.604982 1.311458,-1.109253 0.284475,-0.428131 0.555475,-1.137962 0.467456,-1.225892 -0.02382,-0.0234 -0.376007,-0.0414 -0.854839,-0.0423 z m -6.760737,0.0225 -0.543192,0.0198 c -1.121585,0.036 -2.038164,0.432001 -2.832846,1.226072 -0.855476,0.854552 -1.211081,1.727824 -1.20975,2.970726 6.93e-4,0.863192 0.09597,1.302753 0.42417,1.973974 0.285521,0.583832 1.164012,1.473213 1.770261,1.790284 0.919101,0.480691 2.032352,0.614881 3.01679,0.363151 1.619247,-0.413731 2.800784,-1.640434 3.137988,-3.256027 0.058,-0.27801 0.0956,-0.693811 0.0844,-0.923312 l -0.01948,-0.417241 -0.506412,-0.12321 c -1.204961,-0.29538 -2.300697,-1.174682 -2.841499,-2.276735 -0.158082,-0.3222 -0.330137,-0.757351 -0.383053,-0.966422 l -0.09739,-0.3807 z m 1.127514,0 0.02162,0.20754 c 0.04094,0.379981 0.429068,1.070642 0.833188,1.483293 0.389455,0.397531 0.893607,0.707402 1.430487,0.877862 0.482177,0.153 0.455672,0.22815 0.434992,-1.236783 l -0.01948,-1.331912 -1.350422,0 -1.350413,0 z"
     id="rect3071-7-3"
     inkscape:connector-curvature="0" />
</svg>
