<?xml version="1.0" encoding="UTF-8" standalone="no"?>
<svg
   xmlns:dc="http://purl.org/dc/elements/1.1/"
   xmlns:cc="http://creativecommons.org/ns#"
   xmlns:rdf="http://www.w3.org/1999/02/22-rdf-syntax-ns#"
   xmlns:svg="http://www.w3.org/2000/svg"
   xmlns="http://www.w3.org/2000/svg"
   xmlns:sodipodi="http://sodipodi.sourceforge.net/DTD/sodipodi-0.dtd"
   xmlns:inkscape="http://www.inkscape.org/namespaces/inkscape"
   viewBox="0 0 48 48"
   id="svg2"
   version="1.1"
   inkscape:version="0.91 r13725"
   sodipodi:docname="nmap_icon.svg">
  <metadata
     id="metadata88">
    <rdf:RDF>
      <cc:Work
         rdf:about="">
        <dc:format>image/svg+xml</dc:format>
        <dc:type
           rdf:resource="http://purl.org/dc/dcmitype/StillImage" />
      </cc:Work>
    </rdf:RDF>
  </metadata>
  <sodipodi:namedview
     pagecolor="#ffffff"
     bordercolor="#666666"
     borderopacity="1"
     objecttolerance="10"
     gridtolerance="10"
     guidetolerance="10"
     inkscape:pageopacity="0"
     inkscape:pageshadow="2"
     inkscape:window-width="704"
     inkscape:window-height="480"
     id="namedview86"
     showgrid="false"
     inkscape:zoom="3.4766083"
     inkscape:cx="20.686541"
     inkscape:cy="31.69675"
     inkscape:window-x="610"
     inkscape:window-y="170"
     inkscape:window-maximized="0"
     inkscape:current-layer="g70" />
  <defs
     id="defs4">
    <linearGradient
       id="linearGradient3764"
       x1="1"
       x2="47"
       gradientUnits="userSpaceOnUse"
       gradientTransform="matrix(0,-1,1,0,-1.5e-6,47.999998)">
      <stop
         stop-color="#3063b8"
         stop-opacity="1"
         id="stop7" />
      <stop
         offset="1"
         stop-color="#346bc9"
         stop-opacity="1"
         id="stop9" />
    </linearGradient>
    <clipPath
       id="clipPath-997826506">
      <g
         transform="translate(0,-1004.3622)"
         id="g12">
        <path
           d="m -24 13 c 0 1.105 -0.672 2 -1.5 2 -0.828 0 -1.5 -0.895 -1.5 -2 0 -1.105 0.672 -2 1.5 -2 0.828 0 1.5 0.895 1.5 2 z"
           transform="matrix(15.333333,0,0,11.5,414.99999,878.8622)"
           fill="#1890d0"
           id="path14" />
      </g>
    </clipPath>
    <clipPath
       id="clipPath-013705812">
      <g
         transform="translate(0,-1004.3622)"
         id="g17">
        <path
           d="m -24 13 c 0 1.105 -0.672 2 -1.5 2 -0.828 0 -1.5 -0.895 -1.5 -2 0 -1.105 0.672 -2 1.5 -2 0.828 0 1.5 0.895 1.5 2 z"
           transform="matrix(15.333333,0,0,11.5,414.99999,878.8622)"
           fill="#1890d0"
           id="path19" />
      </g>
    </clipPath>
    <linearGradient
       id="linear0"
       gradientUnits="userSpaceOnUse"
       x1="26.16"
       y1="14.236"
       x2="29.875"
       y2="26.433"
       gradientTransform="matrix(-1.103567,-1.732936,1.609674,-0.985657,11.571959,89.522986)">
      <stop
         stop-color="#fff"
         stop-opacity="1"
         id="stop22" />
      <stop
         offset="1"
         stop-color="#fff"
         stop-opacity="0"
         id="stop24" />
    </linearGradient>
    <linearGradient
       id="linearGradient26"
       gradientUnits="userSpaceOnUse"
       x1="26.16"
       y1="14.236"
       x2="29.875"
       y2="26.433"
       gradientTransform="matrix(-1.103567,-1.732936,1.609674,-0.985657,11.571959,89.522986)">
      <stop
         stop-color="#fff"
         stop-opacity="1"
         id="stop28" />
      <stop
         offset="1"
         stop-color="#fff"
         stop-opacity="0"
         id="stop30" />
    </linearGradient>
  </defs>
  <g
     id="g32">
    <path
       d="m 36.31 5 c 5.859 4.062 9.688 10.831 9.688 18.5 c 0 12.426 -10.07 22.5 -22.5 22.5 c -7.669 0 -14.438 -3.828 -18.5 -9.688 c 1.037 1.822 2.306 3.499 3.781 4.969 c 4.085 3.712 9.514 5.969 15.469 5.969 c 12.703 0 23 -10.298 23 -23 c 0 -5.954 -2.256 -11.384 -5.969 -15.469 c -1.469 -1.475 -3.147 -2.744 -4.969 -3.781 z m 4.969 3.781 c 3.854 4.113 6.219 9.637 6.219 15.719 c 0 12.703 -10.297 23 -23 23 c -6.081 0 -11.606 -2.364 -15.719 -6.219 c 4.16 4.144 9.883 6.719 16.219 6.719 c 12.703 0 23 -10.298 23 -23 c 0 -6.335 -2.575 -12.06 -6.719 -16.219 z"
       opacity="0.05"
       id="path34" />
    <path
       d="m 41.28 8.781 c 3.712 4.085 5.969 9.514 5.969 15.469 c 0 12.703 -10.297 23 -23 23 c -5.954 0 -11.384 -2.256 -15.469 -5.969 c 4.113 3.854 9.637 6.219 15.719 6.219 c 12.703 0 23 -10.298 23 -23 c 0 -6.081 -2.364 -11.606 -6.219 -15.719 z"
       opacity="0.1"
       id="path36" />
    <path
       d="m 31.25 2.375 c 8.615 3.154 14.75 11.417 14.75 21.13 c 0 12.426 -10.07 22.5 -22.5 22.5 c -9.708 0 -17.971 -6.135 -21.12 -14.75 a 23 23 0 0 0 44.875 -7 a 23 23 0 0 0 -16 -21.875 z"
       opacity="0.2"
       id="path38" />
  </g>
  <g
     id="g40">
    <path
       d="m 24 1 c 12.703 0 23 10.297 23 23 c 0 12.703 -10.297 23 -23 23 -12.703 0 -23 -10.297 -23 -23 0 -12.703 10.297 -23 23 -23 z"
       fill="url(#linearGradient3764)"
       fill-opacity="1"
       id="path42" />
  </g>
  <g
     id="g44" />
  <g
     id="g46">
    <g
       clip-path="url(#clipPath-997826506)"
       id="g48" />
  </g>
  <g
     id="g66">
    <g
       clip-path="url(#clipPath-013705812)"
       id="g68">
      <!-- color: #346bc9 -->
      <g
         id="g70">
        <path
           d="m 16 1.906 l -0.84 0.25 l -0.969 0.066 l -0.598 0.434 l -0.777 -0.031 l 0.063 0.5 l 1.125 -0.031 l 0.406 1.094 l 0.156 0.598 l -0.625 0.344 l -0.25 0.465 l 0.188 1.063 l 0.75 0.125 l 0.719 -0.688 l 0.625 -0.656 l 0.969 -0.25 l 1.219 -0.594 l 0.719 -0.875 l 1.031 -1.254 l 0.719 -0.188 l -0.031 -0.277 l -1.125 0 l -3.469 -0.094 m -2.219 0.063 l -0.813 0.035 l -1.406 0.375 l -0.813 0.25 l -0.938 -0.375 l -0.125 0.563 l 1.121 0.656 c 0 0 2.047 -1.129 2.16 -1.129 m 21.871 -0.152 l -0.188 0.316 l 1.156 0.148 l 0.063 -0.27 m -9.906 0 c -0.055 0.02 -1.531 0.023 -1.531 0.023 l -0.375 0.098 l 0.5 0.598 l 0.531 -0.5 l 0.344 0.219 l 0.5 -0.25 c 0 0 0.09 -0.211 0.031 -0.188 m 5.625 0.465 l -0.469 0.063 l -0.406 0.25 l -0.469 0.348 l -0.281 0.5 l 0.438 0.438 l 0.375 0.031 l 0.156 -0.254 l -0.375 -0.313 l 0.219 -0.188 l 0.031 -0.152 l 0.469 -0.313 c 0 0 0.609 0.008 0.656 0 c 0.043 -0.012 0.188 -0.191 0.188 -0.191 l -0.156 -0.223 m -26.25 0.188 l -0.09 0.316 l 0.465 0.156 l 0.531 -0.25 m 30.875 -0.125 l -2.125 0.094 l -0.566 0.375 l -0.621 0.375 l -0.531 0.438 l 0.063 0.188 l -0.281 0.031 l 0 0.004 l -4.086 0.68 l -3.578 2.691 l -0.375 0.281 l -0.031 0 l -0.25 -0.094 c 0 0 -0.148 0.008 -0.223 0.066 c -0.063 0.051 -0.121 0.102 -0.313 0.121 c -0.191 0.02 -0.563 0 -0.594 0 l -0.219 0 l 0.031 -0.227 l 0.156 -0.25 l -0.281 -0.223 c 0 0 -0.18 0.23 -0.188 0.281 c -0.008 0.055 0.125 0.281 0.125 0.281 c 0 0 -0.063 0.18 -0.094 0.219 c -0.031 0.039 -0.309 0.125 -0.309 0.125 l -0.438 -0.219 c 0 0 -0.18 -0.039 -0.156 0.063 c 0.023 0.102 0.219 0.195 0.219 0.281 c 0 0.082 -0.121 0.277 -0.121 0.277 l -0.156 0.188 l -0.254 0.254 l -0.344 0.09 c 0 0 -0.246 0.07 -0.313 0.094 c -0.063 0.023 -0.25 0.066 -0.25 0.066 l -0.25 0.031 l -0.156 0.223 l 0.277 0.191 l 0.188 0.309 c 0 0 0.125 0.223 0.156 0.223 c 0.031 0 0.094 0.219 0.094 0.219 l -0.188 0.25 l -0.098 0 l -0.652 0.125 l -0.125 -0.281 l -0.441 0.438 l -0.188 0.719 l 0 0.598 l 0.75 0.406 l 0.598 -0.219 l 0.598 -1.066 l 0.527 -0.652 l 0.973 -0.156 l 0.219 -0.188 l 1.094 1.281 l 0.125 0.438 l 0.313 -0.156 l -0.094 -0.375 l 0.191 0 l -0.125 -0.254 l -1.066 -1 l 0.094 -0.188 l 0.344 -0.031 l 0.754 0.75 l 0.375 0.441 l 0 0.688 l 0.188 0.125 l 0.375 0.375 l 0.281 -0.094 l -0.156 -0.566 l 0.09 -0.344 l 0.188 -0.219 l 0.441 0.156 l 0.152 0.063 l -0.027 -0.5 l 0.25 -0.469 l 0.152 -0.688 l 0.566 0.094 l 0.094 0.313 l 0.219 0.156 l 0.25 -0.219 l -0.156 -0.344 l 0.656 0 l -0.219 0.375 l 0.438 0.375 l 0.375 0.188 l 0.219 0.438 l -0.5 0.121 l -0.719 -0.156 l -0.625 0 l -0.594 0.316 l -0.125 0.188 l -0.434 0.094 l 0.188 0.469 l 0.344 0.406 l 0.621 -0.219 l 0.156 0.277 l 0.281 -0.219 l 0.375 0.063 l 0.031 0.41 l -0.125 0.777 l -0.344 -0.031 l -0.406 -0.063 l -0.191 0.465 l -1.375 -0.25 l -0.25 -0.316 l -0.313 0.281 l -0.344 0.469 l -0.875 -0.5 l -0.875 -0.527 l 0 -0.941 l -0.563 0.031 l -0.035 0.313 l -1.375 -0.063 l -0.434 0.402 l -0.844 0.031 l -0.566 0.5 l -0.344 0.969 l -0.875 0.691 l -0.625 0.844 l -0.031 1.625 l -0.188 0.5 l -0.063 0.598 l 0.375 0.652 l 0.219 0.625 l 0.75 0.906 l 0.438 0.375 l 0.434 0.094 l 0.094 -0.375 l 1.566 0 l 0.406 -0.188 l 0.5 0.063 l 0.152 0.313 l 0.531 0.031 l 0.344 0.25 l 0 0.531 l -0.125 0.438 l -0.117 0.344 l 0.309 0.566 l 0.41 0.469 l 0.188 1.188 l 0.031 0.777 l -0.281 0.656 l -0.031 0.625 l 0.219 1.156 l 0.191 0.188 l 0.277 1.094 l 0.031 0.469 l 0.563 0.75 l 0.066 0.594 l 0.09 0.688 l 0.344 -0.344 l 0.879 -0.09 l 0.531 0 l 0.965 -1.5 l 0.066 -0.594 l 0.652 -0.656 l 0.031 -0.75 l 0.348 -0.754 l 0.809 -0.777 l 0 -0.875 l -0.188 -0.813 l -0.125 -1.125 l 0.598 -0.938 l 1.063 -1.313 l 0.406 -0.406 l 0.156 -0.531 l 0.254 -0.469 l 0.063 -0.691 l -0.594 0 l -0.281 0.281 l -0.563 -0.156 l -0.344 -0.563 l -0.281 -0.563 l -0.656 -0.5 l -0.156 -0.813 l -0.277 -0.473 l -0.313 -0.594 l -0.41 -0.719 l -0.09 -0.469 l 0.434 -0.063 l 0.254 0.531 l 0.5 0.938 l 0.375 0.688 l 0.406 0.75 l 0.438 0.723 l 0.594 0.598 l 0.531 -0.5 l 0.598 -0.156 l 0.438 -0.531 l 0.598 -0.344 l 0.344 -0.594 l 0.031 -0.5 l -0.281 -0.316 l -0.375 -0.438 l -0.25 0.156 l -0.156 0.254 l -0.41 -0.188 l -0.121 -0.313 l -0.281 -0.41 l -0.438 -0.406 l 0 -0.813 l 0.281 0.531 l 0.344 0.535 l 0.594 0.344 l 0.41 -0.094 l 0.25 0.281 l 1.781 -0.035 l -0.031 0.035 l 0.563 0.5 l 0.41 0.563 l 0.121 0.277 l 0.281 0 l 0.094 -0.309 l 0.09 0.465 l 0.156 0.844 l 0.344 0.813 l 0.191 0.688 l 0.277 0.656 l 0.223 0.277 l 0.313 -0.188 l 0.094 -0.313 l 0.121 -0.777 l -0.031 -0.688 l 0.254 -0.316 c 0 0 0.266 -0.359 0.309 -0.375 c 0.047 -0.012 0.625 -0.652 0.625 -0.652 l 0.281 -0.348 l 0.313 -0.188 l 0.375 -0.219 l 0.156 0 l 0.063 0.344 l 0.156 0.406 l 0.5 0.652 l 0 0.25 l 0.09 0.281 l 0.344 -0.156 l -0.031 -0.375 l 0.316 0.066 l 0.063 0.344 l -0.031 0.531 l 0.098 0.375 l 0.273 0.066 l 0.098 -0.316 l 0.344 0.219 l 0.063 0.316 l 0.313 0.469 l 0.313 0.344 l 0.219 0.191 l 0.531 -0.469 l 0.219 -0.441 l -0.09 -0.5 l -0.094 -0.656 l -0.594 -0.563 l -0.094 -0.566 l 0.254 -0.398 c 0 0 0.16 -0.32 0.313 -0.156 c 0.152 0.168 0.223 0.188 0.152 0.375 c -0.066 0.184 -0.188 0.598 -0.188 0.598 l 0.379 0.156 l 0.152 -0.531 l -0.152 -0.379 l 0.375 -0.156 l 0.688 -0.344 l 0.434 -0.531 l 0.344 -0.809 l -0.031 -0.598 l -0.344 -0.777 l -0.688 -0.816 l -0.438 -0.402 l -0.219 -0.625 l 0.41 -0.098 c 0 0 0.23 -0.398 0.434 -0.188 c 0.203 0.219 0.5 0.531 0.5 0.531 c 0 0 0.355 0.563 0.406 0.625 c 0.051 0.063 0.418 0.402 0.469 0.469 c 0.051 0.063 0.281 0.313 0.281 0.313 l 0.375 -0.527 l 0.09 -0.098 l 0 -0.188 l -0.531 -0.316 l -0.465 -0.434 l 0.344 -0.754 l 0.563 -0.277 l 0.09 -0.254 l 0 -1.469 l -0.277 -0.563 l -0.313 -0.438 c 0 0 -0.324 -0.047 -0.406 -0.031 c -0.086 0.016 -0.781 -0.5 -0.781 -0.5 l 0.066 -0.5 l 0.254 -0.438 l 1.188 -0.152 l 0.277 0.031 l 0 -0.313 l -1.719 -2.25 l -1.652 -0.188 l -1.285 -0.316 c 0 0 -0.387 0.297 -0.594 0.316 c -0.203 0.016 -0.906 0.125 -0.906 0.125 l -0.719 -0.441 l -1.5 -0.125 l -0.066 -0.031 l -1.281 -0.063 l -0.777 -0.438 m -11.734 4.895 l 3.582 -2.703 l -1.219 0.656 l -0.313 -0.223 l -0.156 -0.25 l 0.063 -0.254 l 0.691 0.035 l 0.313 -0.125 l -0.625 -0.313 l -0.875 -0.316 l -0.875 -0.156 l -0.938 0.191 l -0.973 0.781 l -0.438 0.438 l -0.656 0.719 l -0.254 0.031 l -0.09 0.344 l 0.125 0.344 c 0 0 0.133 0.156 0.152 0.156 c 0.023 0 0.254 -0.125 0.254 -0.125 c 0 0 0.027 -0.117 0.156 -0.156 c 0.129 -0.039 0.25 -0.063 0.25 -0.063 l 0.188 0.375 l 0.219 0.313 l 0.098 0.25 c 0 0 0.363 -0.223 0.375 -0.25 c 0.016 -0.031 0.027 -0.41 0.027 -0.41 l 0.281 -0.188 c 0 0 0.074 -0.133 0.066 -0.156 c -0.012 -0.02 -0.191 -0.219 -0.191 -0.219 l -0.156 -0.063 l 0.066 -0.316 c 0 0 0.121 -0.051 0.121 -0.094 c 0 -0.039 0.191 -0.188 0.191 -0.188 l 0.219 -0.277 l 0.156 -0.188 l 0.219 -0.156 l 0.25 0.188 l 0 0.125 l -0.219 0.25 l -0.063 0.25 l 0 0.344 l 0.188 0.156 l 0.344 -0.031 l 0.313 -0.063 l 0.277 0.156 l -0.063 0.219 c 0 0 -0.195 0.188 -0.25 0.219 c -0.059 0.031 -0.414 -0.063 -0.5 -0.031 c -0.09 0.031 -0.313 0.316 -0.313 0.316 c 0 0 -0.023 0.25 0 0.313 c 0.012 0.023 -0.004 0.07 -0.012 0.129 m 3.57 -2.68 l 4.086 -0.695 l -0.031 -0.156 l -0.313 -0.438 l -0.652 -0.063 c 0 0 0.152 0.664 0.152 0.75 c 0 0.082 -0.434 0.027 -0.434 0.027 l -0.75 0.035 c 0 0 -1.086 0.25 -1.219 0.25 c -0.133 0 -0.762 0.262 -0.813 0.281 m -25.08 -1.82 l -0.496 0.566 l 0.434 0.219 l 0.563 -0.254 l 0.035 0.625 l 0.465 0.316 l 0.5 -0.473 l 0.688 0.125 l 0.281 -0.652 l -1.129 -0.098 m 1.789 -0.277 l 0.434 1.094 l -0.523 0.063 l -0.406 0.5 l -0.906 -0.277 l -0.813 0.313 l -0.781 -0.188 l -0.906 -0.566 l -1.25 0.031 l -1.094 0.469 l -0.727 -0.344 l -0.438 -0.031 l 0 13.594 l 0.844 0.469 l 0.5 -0.066 l 0.727 0.344 l 1.094 0.598 l 0.156 0.723 l 0.875 0.84 l 0.5 -0.375 l 0.398 0.316 l -0.063 -0.723 l -0.781 0.191 l -0.25 -0.906 l -0.094 -0.41 l -0.688 -0.621 l 0 -0.438 l 0.531 -0.566 l -0.344 -0.402 l -0.563 0.09 l -0.844 0.844 l -0.687 -0.09 c 0 0 -0.309 -0.531 -0.375 -0.656 c -0.063 -0.125 0.188 -0.563 0.188 -0.563 l -0.066 -1.285 l 0.723 -0.5 l 0.562 -0.191 l 0.813 0 l 1.125 -0.25 l 0.406 0.531 l -0.063 0.625 l 0.465 0.406 l 0.066 -0.441 c 0 0 -0.031 -0.719 -0.098 -0.906 c -0.063 -0.188 0.566 -0.625 0.566 -0.625 l 0.5 -0.613 l 0.598 -0.727 l 0.277 -0.563 l 0.941 -0.496 l 0.617 -0.691 c 0 0 0.941 -0.148 1.125 -0.254 c 0.191 -0.09 0.066 -0.434 -0.125 -0.75 c -0.188 -0.313 0.098 -0.625 0.098 -0.625 l 0.719 -0.434 l 0.621 0.121 l 0.063 0.754 c 0 0 0.586 0.563 0.777 0.465 c 0.191 -0.09 0.281 -0.406 0.281 -0.406 l -0.313 -0.813 l 0.188 -0.809 l -0.844 0.121 l 0 -1.375 l -0.25 0.254 l -0.656 0.031 l -0.09 -0.688 l -0.438 -0.531 c 0 0 -0.43 0.25 -0.844 0.406 c -0.414 0.156 -0.313 0.469 -0.313 0.469 l -0.031 0.844 l -0.691 0.563 l -0.434 0.656 c 0 0 -0.281 -0.188 -0.281 -0.313 c 0 -0.125 -0.063 -0.469 -0.063 -0.469 l -0.723 -0.563 c 0 0 -0.563 -0.406 -0.594 -0.531 c -0.031 -0.125 0.344 -0.688 0.344 -0.688 c 0 0 0.809 -0.5 1 -0.656 c 0.191 -0.156 1.215 0.344 1.344 0.254 c 0.125 -0.094 0.621 -0.875 0.621 -0.875 l 0.438 -0.598 l -0.438 0.5 l -0.75 -0.719 l 0.125 -0.719 l -1.031 -0.156 m 2.508 0.035 l -0.25 0.625 l 0.152 0.344 l 0.566 -0.066 l 0.25 0.469 l -0.5 0.531 l -0.563 0.063 l 0.5 0.223 l 0.531 0.465 l 0.531 0.125 l 0.188 -0.719 l 0.031 -0.438 l 0.625 0.094 c 0 0 -0.188 0.313 -0.094 0.313 c 0.098 0 0.469 -0.406 0.469 -0.406 l -1.063 -1.098 c 0 0 -0.441 -0.344 -0.566 -0.25 c -0.129 0.09 -0.469 0.063 -0.469 0.063 l -0.344 -0.344 m 8.688 1.789 l -0.125 0.41 c 0.453 0.348 0.625 0.344 0.625 0.344 l 0.531 -0.125 l 0.344 -0.344 l -0.219 -0.281 l -1.156 0 m 2.781 1.781 l -0.25 0.219 c -0.07 0.305 -0.156 0.621 -0.156 0.621 l 0.469 0.223 l 0.066 0.277 l -0.25 0.254 l -0.223 0.375 l 0.152 0.156 l 0.566 -0.094 l 0.5 -0.219 l -0.277 -0.375 l -0.094 -0.656 l -0.344 -0.375 m -0.941 0.777 l -0.273 0.469 l 0.375 0.156 l 0.148 -0.281 m -15.688 0.754 l 0.652 0.277 l 0.441 0.566 l 0.277 0.434 c 0 0 -0.246 0.844 -0.313 1 c -0.063 0.156 -0.254 -0.313 -0.254 -0.313 l -0.156 -0.813 l -0.527 0.223 l -0.406 0.965 l 0.094 -0.809 l 0.121 -0.566 l -0.656 -0.25 l 0.566 -0.531 l 0.156 -0.188 m 26.383 0.754 c 0.133 -0.043 0.375 0.156 0.375 0.156 l -0.25 0.219 l 0.09 0.313 l 0.281 0.75 l 0.273 0.469 l 0.379 0.594 l -0.406 0.191 l -0.531 -0.344 l -0.219 -0.656 c 0 0 -0.305 -0.406 -0.441 -0.469 c -0.133 -0.066 -0.25 -0.281 -0.25 -0.281 l 0.125 -0.531 c 0 0 0.43 -0.359 0.566 -0.406 m -7.898 1.184 l -0.375 0.719 l 0.281 0.281 l 0.25 -0.223 l 0.031 -0.309 m -1.441 0.281 l 0 0.188 l 0.156 -0.031 m 2 0.313 l -0.188 0.063 l 0.313 0.531 l 0.281 -0.219 m -20.531 3.813 l -0.313 0.156 l 0.531 0.281 l 0.598 0.121 l 0.344 0.469 l 0.406 -0.25 l -0.063 -0.281 l -0.688 -0.5 l -0.813 0 m 1.684 3.098 l -0.813 0.441 l -0.09 0.902 l -0.191 1 l -0.566 0.75 l 0.031 1.121 l 0.469 1.156 l 0.5 1.406 l 1.316 1.313 l 0.063 0.75 l 0.094 3.379 l 0.465 1.906 c 0 0 0.289 1.102 0.223 1.191 c -0.07 0.086 0.375 0.902 0.375 0.902 l 0.875 1.375 l 1.219 0.531 l -0.5 -0.598 l -0.254 -0.688 l 0.254 -0.719 l -0.656 -0.344 c 0 0 0.434 -0.285 0.5 -0.375 c 0.066 -0.09 -0.094 -0.469 -0.094 -0.469 l -0.188 -0.469 l 0.5 -0.652 l 0.781 -0.191 l 0.121 -0.598 l -0.465 -0.219 l 0.188 -0.5 l 0.75 -0.09 l 0.656 -1.598 l 0.469 -1.094 l 0.965 -0.469 c 0 0 0.313 -0.93 0.313 -1.066 c 0 -0.129 0.094 -1.531 0.094 -1.531 l 0.75 -1.027 l 0.094 -0.688 l -0.563 -0.344 l -0.469 -0.566 l -0.844 0.066 l -1.344 -0.781 l -0.281 -0.656 c 0 0 -0.469 -0.809 -0.563 -0.809 c -0.09 0 -0.656 0.031 -0.656 0.031 l -0.531 -0.531 l -0.344 -0.656 l -1.344 -0.281 l -0.434 -0.219 l -0.875 0 m 36.434 0.496 c 0.113 0.129 0.816 2.219 0.91 2.219 c 0.086 0 0.621 0.066 0.621 0.066 l -0.277 -0.844 m -4.844 -1.375 l -0.313 0.406 l 0.156 0.598 l 0.344 -0.375 l -0.066 -0.473 m 7.969 0.563 l -1.469 0.813 c 0 0.09 -0.719 0.688 -0.719 0.688 l 0.188 0.625 l 0.406 0.465 l 0.281 0.691 l 1.875 -1.223 l -0.566 -2.063 m -4.586 0.441 l -0.438 0.063 l 2 3 l 0.531 0.594 l 1.313 0.066 l 0.809 0.254 l -0.875 -0.625 l -1.25 -0.348 l -0.313 -1.152 l -0.688 -0.566 l -1.098 -1.281 m -10.496 4.867 l 0 0.441 c -0.02 0.063 -0.402 0.375 -0.402 0.375 l -0.473 0.219 l -0.344 0.281 l 0.25 0.344 l 0.156 0.156 l -0.406 0.344 l 0 0.563 l 0.156 0.594 l 0.344 0.094 l 0.406 -0.625 l 0.254 -0.406 l -0.066 -0.5 l 0.383 -0.594 l 0.117 -0.281 l 0 -0.563 l -0.09 -0.438 m 15.777 0.719 c -0.004 0 -0.031 0.031 -0.031 0.031 l -0.5 1.031 c 0 0 -1.102 0.164 -1.129 0.254 c -0.02 0.086 -0.563 0.375 -0.563 0.375 c -0.113 0 -0.469 0.656 -0.469 0.656 l -0.063 2.063 l -0.125 0.75 l 0.313 0.406 l 1.531 -0.531 l 0.5 -0.563 l 0.531 0 l 0 -4.469 m -36.527 8.746 l -0.219 0.152 l -0.094 0.031 l 0.5 0.25 l -0.191 -0.434 m -0.844 0.184 l -0.219 0.5 l 0.434 -0.094 l -0.219 -0.406 m 1.504 4.125 l -0.469 0.719 l -0.875 0.406 l 0.5 0.625 l -0.754 0.375 l -2.469 -0.125 l -0.75 -0.75 l -0.656 -0.125 l 0.656 1.375 l -1.156 -0.219 l -3.969 0.125 l -0.844 1.094 l -1.219 -0.125 l -0.121 0.254 l 0 4.09 l 45.28 0 l 2.723 -1.777 l 0 -1.906 l -0.125 -1.191 l -0.965 -0.219 l -1.223 0.156 l -0.875 0.777 l -1.473 0.598 l 0.625 -0.754 l 1.344 -0.777 l 2.156 -0.5 l 0.25 -0.875 l -0.996 0 c 0 0 -1.344 -0.668 -1.344 -0.844 c 0 -0.176 -1.5 -0.125 -1.5 -0.125 l -1.719 0.188 l -1.652 -0.09 l -3.316 0.125 l -3.059 0.621 c 0 0 -1.48 0.793 -1.656 0.754 c -0.18 -0.043 0.625 -1.031 0.625 -1.031 l -1.438 0.094 l -0.906 -0.75 l -0.906 0.617 c 0 0 -1.215 0.098 -1.531 0.098 c -0.316 0 -0.719 0.563 -0.719 0.563 l -2.469 -0.09 l -4.25 0.188 l -1.121 0.965 l -0.281 0.035 l -3.219 -0.223 l -2.215 0.223 l -0.781 -0.379 l 0.031 -0.063 c 0 0 -0.656 -1.32 -0.656 -1.5 c 0 -0.176 -0.5 -0.621 -0.5 -0.621 m 0.336 3.188 l 1.34 0.438 l -1.652 0 l -0.656 -0.344 m 0.969 -0.094"
           fill="#b9ceea"
           stroke="none"
           fill-rule="nonzero"
           fill-opacity="1"
           id="path72" />
        <g
           id="g3026"
           transform="matrix(0.92047216,0,0,0.92047216,2.5432181,2.2099741)"
           style="fill:#ffffff">
          <path
             inkscape:connector-curvature="0"
             id="path2999"
             d="m 11.866476,14.942788 c -5.1192994,6.07289 -5.7738942,14.601157 -0.203265,19.729839 5.942005,5.470595 15.360858,5.38668 22.134706,0.377627 8.416707,-6.116097 9.285386,-16.082544 3.378549,-21.890758 -8.14718,-7.7639673 -20.417264,-3.1954617 -24.211719,0.609446 -0.380296,0.381345 -0.756983,0.768985 -1.098271,1.173846 z m 3.129859,1.326849 c 0.29105,-0.345265 0.59606,-0.676261 0.920378,-1.001473 3.235919,-3.244836 13.697204,-7.1526846 20.645138,-0.531557 5.037365,4.95326 4.316677,13.453657 -2.861112,18.66948 -5.776753,4.271732 -13.810197,4.345127 -18.877552,-0.320209 -4.750646,-4.373751 -4.192602,-11.637267 0.173148,-16.816241 z"
             style="color:#000000;display:inline;overflow:visible;visibility:visible;fill:#ffffff;fill-opacity:1;fill-rule:nonzero;stroke:none;stroke-width:2.5999999;marker:none;enable-background:accumulate" />
          <g
             id="g3010"
             style="fill:#ffffff">
            <rect
               style="color:#000000;display:inline;overflow:visible;visibility:visible;fill:#ffffff;fill-opacity:1;fill-rule:nonzero;stroke:none;stroke-width:2.5999999;marker:none;enable-background:accumulate"
               id="rect3006"
               width="8.9571924"
               height="8.3081207"
               x="5.2000308"
               y="22.188026"
               ry="1.2332367" />
            <rect
               ry="1.0919248"
               y="22.664024"
               x="5.7132163"
               height="7.3561244"
               width="7.9308219"
               id="rect3008"
               style="color:#000000;display:inline;overflow:visible;visibility:visible;fill:#ffffff;fill-opacity:1;fill-rule:nonzero;stroke:none;stroke-width:2.5999999;marker:none;enable-background:accumulate" />
          </g>
          <g
             transform="matrix(0.66343759,0,0,0.66343759,28.247359,15.688395)"
             id="g3014"
             style="fill:#ffffff">
            <rect
               ry="1.2332367"
               y="22.188026"
               x="5.2000308"
               height="8.3081207"
               width="8.9571924"
               id="rect3016"
               style="color:#000000;display:inline;overflow:visible;visibility:visible;fill:#ffffff;fill-opacity:1;fill-rule:nonzero;stroke:none;stroke-width:2.5999999;marker:none;enable-background:accumulate" />
            <rect
               style="color:#000000;display:inline;overflow:visible;visibility:visible;fill:#ffffff;fill-opacity:1;fill-rule:nonzero;stroke:none;stroke-width:2.5999999;marker:none;enable-background:accumulate"
               id="rect3018"
               width="7.9308219"
               height="7.3561244"
               x="5.7132163"
               y="22.664024"
               ry="1.0919248" />
          </g>
          <g
             id="g3020"
             transform="matrix(0.51065597,0,0,0.51065597,32.978728,2.0217209)"
             style="fill:#ffffff">
            <rect
               style="color:#000000;display:inline;overflow:visible;visibility:visible;fill:#ffffff;fill-opacity:1;fill-rule:nonzero;stroke:none;stroke-width:2.5999999;marker:none;enable-background:accumulate"
               id="rect3022"
               width="8.9571924"
               height="8.3081207"
               x="5.2000308"
               y="22.188026"
               ry="1.2332367" />
            <rect
               ry="1.0919248"
               y="22.664024"
               x="5.7132163"
               height="7.3561244"
               width="7.9308219"
               id="rect3024"
               style="color:#000000;display:inline;overflow:visible;visibility:visible;fill:#ffffff;fill-opacity:1;fill-rule:nonzero;stroke:none;stroke-width:2.5999999;marker:none;enable-background:accumulate" />
          </g>
        </g>
      </g>
    </g>
  </g>
  <g
     id="g82">
    <path
       d="m 40.03 7.531 c 3.712 4.084 5.969 9.514 5.969 15.469 0 12.703 -10.297 23 -23 23 c -5.954 0 -11.384 -2.256 -15.469 -5.969 4.178 4.291 10.01 6.969 16.469 6.969 c 12.703 0 23 -10.298 23 -23 0 -6.462 -2.677 -12.291 -6.969 -16.469 z"
       opacity="0.1"
       id="path84" />
  </g>
</svg>
