<?xml version="1.0" encoding="UTF-8" standalone="no"?>
<!-- Created with Inkscape (http://www.inkscape.org/) -->

<svg
   xmlns:dc="http://purl.org/dc/elements/1.1/"
   xmlns:cc="http://creativecommons.org/ns#"
   xmlns:rdf="http://www.w3.org/1999/02/22-rdf-syntax-ns#"
   xmlns:svg="http://www.w3.org/2000/svg"
   xmlns="http://www.w3.org/2000/svg"
   xmlns:xlink="http://www.w3.org/1999/xlink"
   xmlns:sodipodi="http://sodipodi.sourceforge.net/DTD/sodipodi-0.dtd"
   xmlns:inkscape="http://www.inkscape.org/namespaces/inkscape"
   width="48"
   height="48"
   id="svg3197"
   version="1.1"
   inkscape:version="0.48.4 r9939"
   sodipodi:docname="okteta.svg">
  <defs
     id="defs3199">
    <linearGradient
       inkscape:collect="always"
       xlink:href="#linearGradient4251-0"
       id="linearGradient4607"
       gradientUnits="userSpaceOnUse"
       x1="24"
       y1="44"
       x2="24"
       y2="4"
       gradientTransform="translate(0,1004.3622)" />
    <linearGradient
       id="linearGradient4251-0"
       inkscape:collect="always">
      <stop
         id="stop4253-4"
         offset="0"
         style="stop-color:#63984b;stop-opacity:1" />
      <stop
         id="stop4255-2"
         offset="1"
         style="stop-color:#8fc278;stop-opacity:1" />
    </linearGradient>
    <linearGradient
       inkscape:collect="always"
       xlink:href="#linearGradient7669-8"
       id="linearGradient4595"
       gradientUnits="userSpaceOnUse"
       x1="17"
       y1="11"
       x2="44"
       y2="41"
       gradientTransform="translate(0,1004.3622)" />
    <linearGradient
       id="linearGradient7669-8"
       inkscape:collect="always">
      <stop
         id="stop7671-9"
         offset="0"
         style="stop-color:#000000;stop-opacity:1" />
      <stop
         id="stop7673-2"
         offset="1"
         style="stop-color:#000000;stop-opacity:0;" />
    </linearGradient>
    <linearGradient
       inkscape:collect="always"
       xlink:href="#linearGradient4269-1"
       id="linearGradient4592"
       gradientUnits="userSpaceOnUse"
       gradientTransform="matrix(0.94117647,0,0,0.91176459,1.41176,1006.4357)"
       x1="24"
       y1="40"
       x2="24"
       y2="6" />
    <linearGradient
       inkscape:collect="always"
       id="linearGradient4269-1">
      <stop
         style="stop-color:#b1b1b1;stop-opacity:1"
         offset="0"
         id="stop4271-1" />
      <stop
         style="stop-color:#dddddd;stop-opacity:1"
         offset="1"
         id="stop4273-7" />
    </linearGradient>
    <linearGradient
       inkscape:collect="always"
       xlink:href="#linearGradient5705-1"
       id="linearGradient4588"
       gradientUnits="userSpaceOnUse"
       x1="23"
       y1="21"
       x2="40"
       y2="39"
       gradientTransform="translate(0,1004.3622)" />
    <linearGradient
       inkscape:collect="always"
       id="linearGradient5705-1">
      <stop
         style="stop-color:#000000;stop-opacity:1"
         offset="0"
         id="stop5707-9" />
      <stop
         style="stop-color:#000000;stop-opacity:0;"
         offset="1"
         id="stop5709-6" />
    </linearGradient>
  </defs>
  <sodipodi:namedview
     id="base"
     pagecolor="#ffffff"
     bordercolor="#666666"
     borderopacity="1.0"
     inkscape:pageopacity="0.0"
     inkscape:pageshadow="2"
     inkscape:zoom="11.2"
     inkscape:cx="11.010325"
     inkscape:cy="16.977721"
     inkscape:document-units="px"
     inkscape:current-layer="layer1"
     showgrid="true"
     inkscape:window-width="1871"
     inkscape:window-height="1056"
     inkscape:window-x="49"
     inkscape:window-y="24"
     inkscape:window-maximized="1">
    <inkscape:grid
       type="xygrid"
       id="grid3257"
       empspacing="5"
       visible="true"
       enabled="true"
       snapvisiblegridlinesonly="true" />
  </sodipodi:namedview>
  <metadata
     id="metadata3202">
    <rdf:RDF>
      <cc:Work
         rdf:about="">
        <dc:format>image/svg+xml</dc:format>
        <dc:type
           rdf:resource="http://purl.org/dc/dcmitype/StillImage" />
        <dc:title />
      </cc:Work>
    </rdf:RDF>
  </metadata>
  <g
     inkscape:label="Layer 1"
     inkscape:groupmode="layer"
     id="layer1"
     transform="translate(0,-1004.3622)">
    <path
       style="fill:#dce269;fill-opacity:1;fill-rule:evenodd;stroke:none;display:inline"
       d="m 4,1008.3622 0,9 3,2 -3,2 0,27 40,0 0,-40 -40,0 z"
       id="rect4237"
       inkscape:connector-curvature="0" />
    <path
       style="fill:url(#linearGradient4607);fill-opacity:1;fill-rule:evenodd;stroke:none"
       d="m 4,1008.3622 0,8 3,2 -3,2 0,27 40,0 0,-39 -40,0 z"
       id="rect4229"
       inkscape:connector-curvature="0" />
    <path
       inkscape:connector-curvature="0"
       style="font-size:medium;font-style:normal;font-variant:normal;font-weight:normal;font-stretch:normal;text-indent:0;text-align:start;text-decoration:none;line-height:normal;letter-spacing:normal;word-spacing:normal;text-transform:none;direction:ltr;block-progression:tb;writing-mode:lr-tb;text-anchor:start;baseline-shift:baseline;opacity:0.6;color:#000000;fill:#dee372;fill-opacity:1;stroke:none;stroke-width:1;marker:none;visibility:visible;display:inline;overflow:visible;enable-background:accumulate;font-family:Sans;-inkscape-font-specification:Sans"
       d="m 9,1044.3622 0,1 1,0 0,-1 -1,0 z m 1,1 0,1 1,0 0,-1 -1,0 z m 1,0 1,0 0,-1 -1,0 0,1 z m 1,0 0,1 1,0 0,-1 -1,0 z m 1,0 1,0 0,-1 -1,0 0,1 z m 1,0 0,1 1,0 0,-1 -1,0 z m 1,0 1,0 0,-1 -1,0 0,1 z m 1,0 0,1 1,0 0,-1 -1,0 z m 1,0 1,0 0,-1 -1,0 0,1 z m 1,0 0,1 1,0 0,-1 -1,0 z m 1,0 1,0 0,-1 -1,0 0,1 z m 1,0 0,1 1,0 0,-1 -1,0 z m 1,0 1,0 0,-1 -1,0 0,1 z m 1,0 0,1 1,0 0,-1 -1,0 z m 1,0 1,0 0,-1 -1,0 0,1 z m 1,0 0,1 1,0 0,-1 -1,0 z"
       id="path4303" />
    <path
       inkscape:connector-curvature="0"
       style="font-size:medium;font-style:normal;font-variant:normal;font-weight:normal;font-stretch:normal;text-indent:0;text-align:start;text-decoration:none;line-height:normal;letter-spacing:normal;word-spacing:normal;text-transform:none;direction:ltr;block-progression:tb;writing-mode:lr-tb;text-anchor:start;baseline-shift:baseline;opacity:0.6;color:#000000;fill:#dee372;fill-opacity:1;stroke:none;stroke-width:1;marker:none;visibility:visible;display:inline;overflow:visible;enable-background:accumulate;font-family:Sans;-inkscape-font-specification:Sans"
       d="m 35,1044.3622 0,1 1,0 0,-1 -1,0 z m 1,1 0,1 1,0 0,-1 -1,0 z m 1,0 1,0 0,-1 -1,0 0,1 z m 1,0 0,1 1,0 0,-1 -1,0 z m 1,0 1,0 0,-1 -1,0 0,1 z m -4,0 -1,0 0,1 1,0 0,-1 z"
       id="path4313" />
    <path
       inkscape:connector-curvature="0"
       style="fill:#e6ea97;fill-opacity:1;fill-rule:evenodd;stroke:none"
       d="m 43,1044.3622 -2,2 2,0 0,-2 z"
       id="path4317" />
    <path
       inkscape:connector-curvature="0"
       style="font-size:medium;font-style:normal;font-variant:normal;font-weight:normal;font-stretch:normal;text-indent:0;text-align:start;text-decoration:none;line-height:normal;letter-spacing:normal;word-spacing:normal;text-transform:none;direction:ltr;block-progression:tb;writing-mode:lr-tb;text-anchor:start;baseline-shift:baseline;opacity:0.6;color:#000000;fill:#dee372;fill-opacity:1;stroke:none;stroke-width:1;marker:none;visibility:visible;display:inline;overflow:visible;enable-background:accumulate;font-family:Sans;-inkscape-font-specification:Sans"
       d="m 42,1013.3622 0,1 1,0 0,-1 -1,0 z m 0,1 -1,0 0,1 1,0 0,-1 z m 0,1 0,1 1,0 0,-1 -1,0 z m 0,1 -1,0 0,1 1,0 0,-1 z m 0,1 0,1 1,0 0,-1 -1,0 z m 0,1 -1,0 0,1 1,0 0,-1 z m 0,1 0,1 1,0 0,-1 -1,0 z m 0,1 -1,0 0,1 1,0 0,-1 z m 0,1 0,1 1,0 0,-1 -1,0 z m 0,1 -1,0 0,1 1,0 0,-1 z m 0,1 0,1 1,0 0,-1 -1,0 z m 0,1 -1,0 0,1 1,0 0,-1 z m 0,1 0,1 1,0 0,-1 -1,0 z m 0,1 -1,0 0,1 1,0 0,-1 z m 0,1 0,1 1,0 0,-1 -1,0 z m 0,1 -1,0 0,1 1,0 0,-1 z"
       id="path4319" />
    <path
       style="opacity:0.2;fill:url(#linearGradient4595);fill-opacity:1;fill-rule:evenodd;stroke:none;display:inline"
       d="m 40,1012.3622 0,31 -32,0 4.58398,5 31.41602,0 1e-5,-32 z"
       id="path7657"
       inkscape:connector-curvature="0"
       sodipodi:nodetypes="ccccccc" />
    <rect
       style="fill:url(#linearGradient4592);fill-opacity:1;fill-rule:evenodd;stroke:none"
       id="rect4241"
       width="32"
       height="30.999996"
       x="8.0000114"
       y="1012.3622" />
    <rect
       y="1042.3622"
       x="8.0000114"
       height="1.0000263"
       width="32"
       id="rect4259"
       style="fill:#5c5c5c;fill-opacity:1;fill-rule:evenodd;stroke:none" />
    <path
       inkscape:connector-curvature="0"
       id="path5698"
       d="m 38,1041.3622 -28,0 6.78644,6.9627 27.21333,0.037 2.4e-4,-28 -6.00001,-6 z"
       style="opacity:0.2;fill:url(#linearGradient4588);fill-opacity:1;fill-rule:evenodd;stroke:none;display:inline"
       sodipodi:nodetypes="ccccccc" />
    <path
       inkscape:connector-curvature="0"
       style="fill:#cccccc;fill-opacity:1;fill-rule:evenodd;stroke:none"
       d="m 10.00003,1014.3622 -3e-5,26.1768 0,0.8232 27.99997,0 0,-0.8232 6e-5,-26.1768 z"
       id="rect4370"
       sodipodi:nodetypes="ccccccc" />
    <rect
       style="fill:#878787;fill-opacity:1;fill-rule:evenodd;stroke:none"
       id="rect4265"
       width="27.999989"
       height="1.0000263"
       x="10.000011"
       y="1040.3622" />
  </g>
</svg>
