<?xml version="1.0" encoding="UTF-8" standalone="no"?>
<!-- Created with Inkscape (http://www.inkscape.org/) -->

<svg
   xmlns:dc="http://purl.org/dc/elements/1.1/"
   xmlns:cc="http://creativecommons.org/ns#"
   xmlns:rdf="http://www.w3.org/1999/02/22-rdf-syntax-ns#"
   xmlns:svg="http://www.w3.org/2000/svg"
   xmlns="http://www.w3.org/2000/svg"
   xmlns:xlink="http://www.w3.org/1999/xlink"
   xmlns:sodipodi="http://sodipodi.sourceforge.net/DTD/sodipodi-0.dtd"
   xmlns:inkscape="http://www.inkscape.org/namespaces/inkscape"
   width="48"
   height="48"
   id="svg2"
   version="1.1"
   inkscape:version="0.48.4 r9939"
   sodipodi:docname="preferences-system-firewall.svg">
  <defs
     id="defs4">
    <linearGradient
       inkscape:collect="always"
       id="linearGradient16368">
      <stop
         style="stop-color:#1a1a1a;stop-opacity:1;"
         offset="0"
         id="stop16370" />
      <stop
         style="stop-color:#1a1a1a;stop-opacity:0;"
         offset="1"
         id="stop16372" />
    </linearGradient>
    <linearGradient
       id="linearGradient3795-1-6">
      <stop
         style="stop-color:#4e4e4e;stop-opacity:1;"
         offset="0"
         id="stop1162" />
      <stop
         style="stop-color:#939393;stop-opacity:1;"
         offset="1"
         id="stop1164" />
    </linearGradient>
    <linearGradient
       id="linearGradient1086">
      <stop
         style="stop-color:#e8e8e8;stop-opacity:1"
         offset="0"
         id="stop1088" />
      <stop
         style="stop-color:#ffffff;stop-opacity:1"
         offset="1"
         id="stop1090" />
    </linearGradient>
    <linearGradient
       id="linearGradient3021">
      <stop
         style="stop-color:#60b5cc;stop-opacity:1;"
         offset="0"
         id="stop3023" />
      <stop
         style="stop-color:#ffffff;stop-opacity:0"
         offset="1"
         id="stop3025" />
    </linearGradient>
    <linearGradient
       inkscape:collect="always"
       xlink:href="#linearGradient3795-1-6"
       id="linearGradient16335"
       gradientUnits="userSpaceOnUse"
       gradientTransform="matrix(0.87499999,0,0,0.87499999,2.9999975,-128.54536)"
       x1="23.157747"
       y1="-1052.0176"
       x2="23.157747"
       y2="-1004.4557" />
    <linearGradient
       inkscape:collect="always"
       xlink:href="#linearGradient1086"
       id="linearGradient16339"
       gradientUnits="userSpaceOnUse"
       gradientTransform="matrix(0.74999998,0,0,0.74999998,5.9999978,-257.09062)"
       x1="23.157747"
       y1="-1052.0176"
       x2="23.157747"
       y2="-1004.4557" />
    <linearGradient
       inkscape:collect="always"
       xlink:href="#linearGradient3021"
       id="linearGradient16343"
       gradientUnits="userSpaceOnUse"
       gradientTransform="matrix(1.0682854,0,0,-0.64663125,-1.6388531,-653.43685)"
       x1="23.157747"
       y1="-1052.0176"
       x2="23.157747"
       y2="-1004.4557" />
    <linearGradient
       inkscape:collect="always"
       xlink:href="#linearGradient16368"
       id="linearGradient16374"
       x1="-4.3722496"
       y1="27.844995"
       x2="6.505054"
       y2="27.844995"
       gradientUnits="userSpaceOnUse" />
    <linearGradient
       inkscape:collect="always"
       xlink:href="#linearGradient16368"
       id="linearGradient16378"
       gradientUnits="userSpaceOnUse"
       x1="-4.3722496"
       y1="27.844995"
       x2="6.505054"
       y2="27.844995"
       gradientTransform="matrix(-1,0,0,1,48,1004.3622)" />
    <linearGradient
       inkscape:collect="always"
       xlink:href="#linearGradient16368"
       id="linearGradient16384"
       gradientUnits="userSpaceOnUse"
       x1="-4.3722496"
       y1="27.844995"
       x2="6.505054"
       y2="27.844995"
       gradientTransform="matrix(0,-1,1,0,0,1052.3622)" />
    <linearGradient
       inkscape:collect="always"
       xlink:href="#linearGradient16368"
       id="linearGradient16386"
       gradientUnits="userSpaceOnUse"
       gradientTransform="matrix(0,1,1,0,0,1004.3622)"
       x1="-4.3722496"
       y1="27.844995"
       x2="6.505054"
       y2="27.844995" />
    <linearGradient
       id="linearGradient6390-9">
      <stop
         style="stop-color:#828282;stop-opacity:1;"
         offset="0"
         id="stop6426-6" />
      <stop
         id="stop6394-5"
         offset="1"
         style="stop-color:#e3e3e3;stop-opacity:1;" />
    </linearGradient>
    <linearGradient
       gradientTransform="translate(-384.57144,-504.56422)"
       y2="-495.71448"
       x2="407.66895"
       y1="-555.92798"
       x1="407.66895"
       gradientUnits="userSpaceOnUse"
       id="linearGradient3310"
       xlink:href="#linearGradient6390-9"
       inkscape:collect="always" />
    <linearGradient
       inkscape:collect="always"
       xlink:href="#linearGradient16368"
       id="linearGradient3036"
       gradientUnits="userSpaceOnUse"
       gradientTransform="matrix(0,-0.95238097,0.95238097,0,1.1428567,1051.2193)"
       x1="-4.3722496"
       y1="27.844995"
       x2="6.505054"
       y2="27.844995" />
    <linearGradient
       inkscape:collect="always"
       xlink:href="#linearGradient16368"
       id="linearGradient3039"
       gradientUnits="userSpaceOnUse"
       gradientTransform="matrix(-0.95238097,0,0,0.95238097,46.857143,1005.5051)"
       x1="-4.3722496"
       y1="27.844995"
       x2="6.505054"
       y2="27.844995" />
    <linearGradient
       inkscape:collect="always"
       xlink:href="#linearGradient16368"
       id="linearGradient3042"
       gradientUnits="userSpaceOnUse"
       x1="-4.3722496"
       y1="27.844995"
       x2="6.505054"
       y2="27.844995"
       gradientTransform="matrix(0.95238097,0,0,0.95238097,1.1428567,1005.5051)" />
    <linearGradient
       inkscape:collect="always"
       xlink:href="#linearGradient16368"
       id="linearGradient3045"
       gradientUnits="userSpaceOnUse"
       gradientTransform="matrix(0,0.7936515,0.7936515,0,4.952364,1009.3146)"
       x1="-4.3722496"
       y1="27.844995"
       x2="6.505054"
       y2="27.844995" />
    <linearGradient
       inkscape:collect="always"
       xlink:href="#linearGradient3021"
       id="linearGradient3051"
       gradientUnits="userSpaceOnUse"
       gradientTransform="matrix(0.84784632,0,0,-0.51319986,3.6516858,490.71346)"
       x1="23.157747"
       y1="-1052.0176"
       x2="23.157747"
       y2="-1004.4557" />
    <linearGradient
       inkscape:collect="always"
       xlink:href="#linearGradient1086"
       id="linearGradient3060"
       gradientUnits="userSpaceOnUse"
       gradientTransform="matrix(0.59523861,0,0,0.59523861,9.7142713,-416.24135)"
       x1="23.157747"
       y1="-1052.0176"
       x2="23.157747"
       y2="-1004.4557" />
    <linearGradient
       inkscape:collect="always"
       xlink:href="#linearGradient3795-1-6"
       id="linearGradient3063"
       gradientUnits="userSpaceOnUse"
       gradientTransform="matrix(0.69444505,0,0,0.69444505,7.3333165,-314.22121)"
       x1="23.157747"
       y1="-1052.0176"
       x2="23.157747"
       y2="-1004.4557" />
    <linearGradient
       inkscape:collect="always"
       xlink:href="#linearGradient6390-9"
       id="linearGradient3065"
       gradientUnits="userSpaceOnUse"
       gradientTransform="matrix(0.83333406,0,0,0.83333406,-316.4765,-591.8635)"
       x1="384.57144"
       y1="-523.79797"
       x2="432.57144"
       y2="-523.79797" />
    <linearGradient
       inkscape:collect="always"
       xlink:href="#linearGradient4200"
       id="linearGradient4232"
       x1="26.516502"
       y1="1032.5632"
       x2="26.516502"
       y2="1012.9622"
       gradientUnits="userSpaceOnUse"
       gradientTransform="matrix(1.4145858,0,0,1.4145858,-11.651329,-417.10211)" />
    <linearGradient
       inkscape:collect="always"
       id="linearGradient4200">
      <stop
         style="stop-color:#fa741b;stop-opacity:1"
         offset="0"
         id="stop4202" />
      <stop
         style="stop-color:#f7aa1d;stop-opacity:1"
         offset="1"
         id="stop4204" />
    </linearGradient>
  </defs>
  <sodipodi:namedview
     id="base"
     pagecolor="#ffffff"
     bordercolor="#666666"
     borderopacity="1.0"
     inkscape:pageopacity="0.0"
     inkscape:pageshadow="2"
     inkscape:zoom="6.292534"
     inkscape:cx="-5.3619709"
     inkscape:cy="28.413364"
     inkscape:document-units="px"
     inkscape:current-layer="layer1"
     showgrid="true"
     inkscape:window-width="1871"
     inkscape:window-height="1056"
     inkscape:window-x="49"
     inkscape:window-y="24"
     inkscape:window-maximized="1">
    <inkscape:grid
       type="xygrid"
       id="grid3850" />
  </sodipodi:namedview>
  <metadata
     id="metadata7">
    <rdf:RDF>
      <cc:Work
         rdf:about="">
        <dc:format>image/svg+xml</dc:format>
        <dc:type
           rdf:resource="http://purl.org/dc/dcmitype/StillImage" />
        <dc:title />
      </cc:Work>
    </rdf:RDF>
  </metadata>
  <g
     inkscape:label="Capa 1"
     inkscape:groupmode="layer"
     id="layer1"
     transform="translate(0,-1004.3622)">
    <rect
       style="fill:url(#linearGradient3065);fill-opacity:1;stroke:none"
       id="rect2991-1-7"
       width="40.000034"
       height="40.000034"
       x="3.9999826"
       y="-1048.3622"
       ry="1.6204544"
       transform="scale(1,-1)" />
    <rect
       style="fill:url(#linearGradient3063);fill-opacity:1;stroke:none"
       id="rect16333"
       width="33.333363"
       height="33.333363"
       x="7.3333182"
       y="-1045.0288"
       ry="1.3503788"
       transform="scale(1,-1)" />
    <path
       inkscape:connector-curvature="0"
       style="fill:url(#linearGradient3051);fill-opacity:1;stroke:none"
       d="m 8.6726054,1011.6955 c -0.7481099,0 -1.3392869,0.5913 -1.3392869,1.3394 l 0,17.7579 33.3333625,0 0,-17.7579 c 0,-0.7481 -0.591176,-1.3394 -1.339287,-1.3394 l -30.6547886,0 z"
       id="rect16341" />
    <path
       style="fill:#0b8fb3;fill-opacity:1;stroke:none"
       d="m 7.3333185,1030.7928 0,0.2917 33.3333625,0 0,-0.2917 -33.3333625,0 z"
       id="rect16352"
       inkscape:connector-curvature="0" />
    <path
       inkscape:connector-curvature="0"
       style="fill:url(#linearGradient3045);fill-opacity:1;stroke:none"
       d="m 7.3333185,1013.0348 c 0,-0.7481 0.591191,-1.3393 1.3392869,-1.3393 l 30.6547886,0 c 0.748097,0 1.339287,0.5912 1.339287,1.3393 l 0,2.2817 -33.3333625,0 0,-2.2817 z"
       id="path16382" />
    <path
       style="opacity:0.5;fill:#000000;fill-opacity:1;stroke:none"
       d="m 6,1048.3622 0,0 c 18,-1 18,-1 36,0 z"
       id="path3257"
       inkscape:connector-curvature="0"
       sodipodi:nodetypes="cccc" />
    <path
       sodipodi:nodetypes="cccc"
       inkscape:connector-curvature="0"
       id="path4027"
       d="m 6,1008.3622 0,0 c 18,1 18,1 36,0 z"
       style="opacity:0.9;fill:#ffffff;fill-opacity:1;stroke:none" />
    <path
       style="fill:#000000;fill-opacity:0.05882353"
       d="m 23.358025,1016.8934 c 0.614217,5.239 -4.347844,5.6732 -6.615664,10.5882 -1.587978,3.4407 1.700746,5.4094 3.830858,6.2956 l -1.016315,1.8174 -3.976045,0 8.500561,6.7404 8.337722,-6.7404 -3.976046,0 -0.780166,-1.3977 c 4.006733,-0.6741 6.126239,-3.3543 6.164358,-5.295 0.05338,-2.7511 -3.106669,-5.7952 -3.106669,-5.7952 0.588577,3.6113 -1.602312,4.1562 -1.602312,4.1562 0.766967,-6.0034 -5.760282,-10.3695 -5.760282,-10.3695 z"
       id="path4453"
       inkscape:connector-curvature="0"
       sodipodi:nodetypes="ccccccccccccc" />
    <path
       style="fill:#c35604;fill-opacity:0.31372549"
       d="m 21.28476,1015.8193 c 0.03277,0.2795 0.03103,0.5302 0.0442,0.793 0.01446,-0.2425 0.02338,-0.4882 0.01933,-0.7461 -0.0067,-0.01 -0.06355,-0.046 -0.06355,-0.046 z m 11.62889,9.8137 c 0.07161,0.4393 0.109504,0.8402 0.132617,1.224 0.02099,-0.335 0.02156,-0.6943 0,-1.0831 -0.01752,-0.017 -0.132617,-0.1409 -0.132617,-0.1409 z m -2.47,4.3598 c -0.01376,0.3563 -0.01426,0.7105 -0.06078,1.0747 0,0 0.05975,-0.026 0.06631,-0.028 0.0112,-0.3532 0.01292,-0.7024 -0.0055,-1.0472 z m 7.340928,4.0586 c -0.373339,3.5029 -4.764525,8.2223 -12.78653,8.2223 l -2.41198,-0.4504 -3.122034,0.4504 c 0,0 -8.649512,-2.1974 -9.252829,-7.5205 -0.6068486,6.1439 9.252829,8.6506 9.252829,8.6506 l 3.122034,-0.4504 2.41198,0.4504 c 8.326545,0 12.753092,-5.0866 12.822446,-8.6174 0.0048,-0.2432 -0.01059,-0.4897 -0.03591,-0.735 z"
       id="path4420"
       inkscape:connector-curvature="0" />
    <path
       style="fill:#000000;fill-opacity:0.23529412"
       d="m 23.358025,1016.1768 c 0.614217,5.239 -4.347844,5.6733 -6.615664,10.5883 -1.587978,3.4408 1.700746,5.4094 3.830858,6.2955 l -1.016315,1.8175 -3.976045,0 8.446281,7.3374 8.392002,-7.3374 -3.976046,0 -0.780166,-1.3977 c 4.006733,-0.6741 6.126239,-3.3543 6.164358,-5.2949 0.05338,-2.7512 -3.106669,-5.7953 -3.106669,-5.7953 0.588577,3.6113 -1.602312,4.1562 -1.602312,4.1562 0.766967,-6.0033 -5.760282,-10.3696 -5.760282,-10.3696 z"
       id="path4444"
       inkscape:connector-curvature="0"
       sodipodi:nodetypes="ccccccccccccc" />
    <path
       style="fill:url(#linearGradient4232);fill-opacity:1"
       d="m 21.283572,1015.8199 c 0.970128,8.2748 -6.866374,8.9607 -10.448296,16.7238 -3.5820292,7.7614 8.629515,10.8606 8.629515,10.8606 3.120245,-0.45 3.120245,-0.45 3.120245,-0.45 l 2.41349,0.45 c 8.326545,0 12.753733,-5.0883 12.823088,-8.6191 0.08431,-4.3453 -4.908459,-9.1531 -4.908459,-9.1531 0.92963,5.7037 -2.52959,6.5661 -2.52959,6.5661 1.211392,-9.4819 -9.099993,-16.3783 -9.099993,-16.3783 z"
       id="path4149"
       inkscape:connector-curvature="0"
       sodipodi:nodetypes="ccccccccc" />
  </g>
</svg>
