<?xml version="1.0" encoding="UTF-8" standalone="no"?>
<!-- Created with Inkscape (http://www.inkscape.org/) -->

<svg
   xmlns:dc="http://purl.org/dc/elements/1.1/"
   xmlns:cc="http://creativecommons.org/ns#"
   xmlns:rdf="http://www.w3.org/1999/02/22-rdf-syntax-ns#"
   xmlns:svg="http://www.w3.org/2000/svg"
   xmlns="http://www.w3.org/2000/svg"
   xmlns:xlink="http://www.w3.org/1999/xlink"
   xmlns:sodipodi="http://sodipodi.sourceforge.net/DTD/sodipodi-0.dtd"
   xmlns:inkscape="http://www.inkscape.org/namespaces/inkscape"
   width="48"
   height="48"
   id="svg5453"
   version="1.1"
   inkscape:version="0.48.4 r9939"
   sodipodi:docname="rgbpaint.svg">
  <defs
     id="defs5455">
    <linearGradient
       id="linearGradient4232"
       inkscape:collect="always">
      <stop
         id="stop4234"
         offset="0"
         style="stop-color:#f9d3bf;stop-opacity:1" />
      <stop
         id="stop4236"
         offset="1"
         style="stop-color:#fffbf5;stop-opacity:1" />
    </linearGradient>
    <linearGradient
       id="linearGradient4100">
      <stop
         style="stop-color:#cec922;stop-opacity:1;"
         offset="0"
         id="stop4102" />
      <stop
         style="stop-color:#4ac8e4;stop-opacity:1;"
         offset="1"
         id="stop4104" />
    </linearGradient>
    <linearGradient
       inkscape:collect="always"
       xlink:href="#linearGradient4100"
       id="linearGradient4106"
       x1="384.5715"
       y1="-522.53485"
       x2="432.57135"
       y2="-522.53485"
       gradientUnits="userSpaceOnUse"
       gradientTransform="matrix(0.83333348,0,0,0.83332999,68.095183,-87.301414)" />
    <linearGradient
       inkscape:collect="always"
       xlink:href="#linearGradient4232"
       id="linearGradient4230"
       x1="387.09781"
       y1="516.21906"
       x2="430.04504"
       y2="516.21906"
       gradientUnits="userSpaceOnUse"
       gradientTransform="matrix(0.75562987,0,0,0.7556267,99.842657,128.00223)" />
    <linearGradient
       x1="144.82578"
       y1="95.798721"
       x2="144.82578"
       y2="108.34345"
       id="linearGradient3969"
       xlink:href="#linearGradient3581"
       gradientUnits="userSpaceOnUse"
       gradientTransform="matrix(0.75761323,-0.32711885,0.36508863,0.84555191,23.354856,46.366541)" />
    <linearGradient
       id="linearGradient3581">
      <stop
         id="stop3583"
         style="stop-color:#ffffff;stop-opacity:1"
         offset="0" />
      <stop
         id="stop3585"
         style="stop-color:#ffffff;stop-opacity:0"
         offset="1" />
    </linearGradient>
    <linearGradient
       x1="144.82578"
       y1="95.798721"
       x2="144.82578"
       y2="108.34345"
       id="linearGradient3971"
       xlink:href="#linearGradient3581"
       gradientUnits="userSpaceOnUse"
       gradientTransform="matrix(-0.75761324,0.23949483,0.49866363,0.84555191,230.13524,-31.231998)" />
    <linearGradient
       id="linearGradient3193">
      <stop
         id="stop3195"
         style="stop-color:#ffffff;stop-opacity:1"
         offset="0" />
      <stop
         id="stop3197"
         style="stop-color:#ffffff;stop-opacity:0"
         offset="1" />
    </linearGradient>
    <linearGradient
       x1="144.87347"
       y1="97.697334"
       x2="144.87347"
       y2="99.774651"
       id="linearGradient3973"
       xlink:href="#BlackTransparent"
       gradientUnits="userSpaceOnUse"
       gradientTransform="matrix(0.75761323,-0.32711885,0.32711885,0.75761323,26.578261,53.962118)" />
    <linearGradient
       id="BlackTransparent"
       gradientUnits="userSpaceOnUse">
      <stop
         id="stop12"
         style="stop-color:#000000;stop-opacity:1"
         offset="0" />
      <stop
         id="stop14"
         style="stop-color:#000000;stop-opacity:0"
         offset="1" />
    </linearGradient>
    <linearGradient
       x1="131.29102"
       y1="77.089378"
       x2="153.84979"
       y2="77.089378"
       id="linearGradient3975"
       xlink:href="#linearGradient3501"
       gradientUnits="userSpaceOnUse"
       gradientTransform="matrix(0.75761324,-0.03553301,3.0114736,0.75761323,-178.97214,22.299047)" />
    <linearGradient
       id="linearGradient3501">
      <stop
         id="stop3503"
         style="stop-color:#9a3030;stop-opacity:1"
         offset="0" />
      <stop
         id="stop3505"
         style="stop-color:#5b1c1c;stop-opacity:1"
         offset="1" />
    </linearGradient>
    <linearGradient
       x1="131.29102"
       y1="77.089378"
       x2="153.84979"
       y2="77.089378"
       id="linearGradient3977"
       xlink:href="#linearGradient3509"
       gradientUnits="userSpaceOnUse"
       gradientTransform="matrix(0.75761324,-0.03553301,3.0114736,0.75761323,-178.97214,22.299047)" />
    <linearGradient
       id="linearGradient3509">
      <stop
         id="stop3511"
         style="stop-color:#ad1616;stop-opacity:1"
         offset="0" />
      <stop
         id="stop3513"
         style="stop-color:#4d0a0a;stop-opacity:1"
         offset="1" />
    </linearGradient>
    <filter
       x="-0.66366285"
       y="-0.038064804"
       width="2.3273256"
       height="1.0761296"
       color-interpolation-filters="sRGB"
       id="filter3526">
      <feGaussianBlur
         id="feGaussianBlur3528"
         stdDeviation="0.98809091" />
    </filter>
    <linearGradient
       inkscape:collect="always"
       xlink:href="#linearGradient4397"
       id="linearGradient4403"
       x1="139.49458"
       y1="88"
       x2="150.49571"
       y2="88"
       gradientUnits="userSpaceOnUse"
       gradientTransform="matrix(0.82521789,0,0,0.82521789,26.383607,15.469019)" />
    <linearGradient
       id="linearGradient4397">
      <stop
         style="stop-color:#947357;stop-opacity:1;"
         offset="0"
         id="stop4399" />
      <stop
         style="stop-color:#a4a4a4;stop-opacity:1;"
         offset="1"
         id="stop4401" />
    </linearGradient>
    <linearGradient
       inkscape:collect="always"
       xlink:href="#linearGradient4389"
       id="linearGradient4395"
       x1="139.82295"
       y1="88"
       x2="150.17705"
       y2="88"
       gradientUnits="userSpaceOnUse"
       gradientTransform="matrix(0.82521789,0,0,0.82521789,26.383607,15.469019)" />
    <linearGradient
       id="linearGradient4389">
      <stop
         style="stop-color:#717171;stop-opacity:1;"
         offset="0"
         id="stop4391" />
      <stop
         style="stop-color:#000000;stop-opacity:0;"
         offset="1"
         id="stop4393" />
    </linearGradient>
    <linearGradient
       inkscape:collect="always"
       xlink:href="#linearGradient4397"
       id="linearGradient3174"
       gradientUnits="userSpaceOnUse"
       x1="139.49458"
       y1="88"
       x2="150.49571"
       y2="88"
       gradientTransform="matrix(0.82521789,0,0,0.82521789,26.383607,15.469019)" />
    <linearGradient
       id="linearGradient3222">
      <stop
         style="stop-color:#947357;stop-opacity:1;"
         offset="0"
         id="stop3224" />
      <stop
         style="stop-color:#a4a4a4;stop-opacity:1;"
         offset="1"
         id="stop3226" />
    </linearGradient>
    <linearGradient
       inkscape:collect="always"
       xlink:href="#linearGradient4389"
       id="linearGradient3176"
       gradientUnits="userSpaceOnUse"
       x1="139.82295"
       y1="88"
       x2="150.17705"
       y2="88"
       gradientTransform="matrix(0.82521789,0,0,0.82521789,26.383607,15.469019)" />
    <linearGradient
       id="linearGradient3229">
      <stop
         style="stop-color:#717171;stop-opacity:1;"
         offset="0"
         id="stop3231" />
      <stop
         style="stop-color:#000000;stop-opacity:0;"
         offset="1"
         id="stop3233" />
    </linearGradient>
    <linearGradient
       inkscape:collect="always"
       xlink:href="#linearGradient4397"
       id="linearGradient3197"
       gradientUnits="userSpaceOnUse"
       gradientTransform="matrix(0.82521789,0,0,0.82521789,26.383607,15.469019)"
       x1="139.49458"
       y1="88"
       x2="150.49571"
       y2="88" />
    <linearGradient
       id="linearGradient3236">
      <stop
         style="stop-color:#947357;stop-opacity:1;"
         offset="0"
         id="stop3238" />
      <stop
         style="stop-color:#a4a4a4;stop-opacity:1;"
         offset="1"
         id="stop3240" />
    </linearGradient>
    <linearGradient
       inkscape:collect="always"
       xlink:href="#linearGradient4389"
       id="linearGradient3200"
       gradientUnits="userSpaceOnUse"
       gradientTransform="matrix(0.82521789,0,0,0.82521789,26.383607,15.469019)"
       x1="139.82295"
       y1="88"
       x2="150.17705"
       y2="88" />
    <linearGradient
       id="linearGradient3243">
      <stop
         style="stop-color:#717171;stop-opacity:1;"
         offset="0"
         id="stop3245" />
      <stop
         style="stop-color:#000000;stop-opacity:0;"
         offset="1"
         id="stop3247" />
    </linearGradient>
    <linearGradient
       inkscape:collect="always"
       xlink:href="#linearGradient4397"
       id="linearGradient3184"
       gradientUnits="userSpaceOnUse"
       gradientTransform="matrix(0.82521789,0,0,0.82521789,26.383607,15.469019)"
       x1="139.49458"
       y1="88"
       x2="150.49571"
       y2="88" />
    <linearGradient
       id="linearGradient3250">
      <stop
         style="stop-color:#947357;stop-opacity:1;"
         offset="0"
         id="stop3252" />
      <stop
         style="stop-color:#a4a4a4;stop-opacity:1;"
         offset="1"
         id="stop3254" />
    </linearGradient>
    <linearGradient
       inkscape:collect="always"
       xlink:href="#linearGradient4389"
       id="linearGradient3186"
       gradientUnits="userSpaceOnUse"
       gradientTransform="matrix(0.82521789,0,0,0.82521789,26.383607,15.469019)"
       x1="139.82295"
       y1="88"
       x2="150.17705"
       y2="88" />
    <linearGradient
       id="linearGradient3257">
      <stop
         style="stop-color:#717171;stop-opacity:1;"
         offset="0"
         id="stop3259" />
      <stop
         style="stop-color:#000000;stop-opacity:0;"
         offset="1"
         id="stop3261" />
    </linearGradient>
    <linearGradient
       inkscape:collect="always"
       xlink:href="#linearGradient4397"
       id="linearGradient3189"
       gradientUnits="userSpaceOnUse"
       gradientTransform="matrix(0.82521789,0,0,0.82521789,26.383607,15.469019)"
       x1="139.49458"
       y1="88"
       x2="150.49571"
       y2="88" />
    <linearGradient
       id="linearGradient3264">
      <stop
         style="stop-color:#947357;stop-opacity:1;"
         offset="0"
         id="stop3266" />
      <stop
         style="stop-color:#a4a4a4;stop-opacity:1;"
         offset="1"
         id="stop3268" />
    </linearGradient>
    <linearGradient
       inkscape:collect="always"
       xlink:href="#linearGradient4389"
       id="linearGradient3195"
       gradientUnits="userSpaceOnUse"
       gradientTransform="matrix(0.82521789,0,0,0.82521789,26.383607,15.469019)"
       x1="139.82295"
       y1="88"
       x2="150.17705"
       y2="88" />
    <linearGradient
       id="linearGradient3271">
      <stop
         style="stop-color:#717171;stop-opacity:1;"
         offset="0"
         id="stop3273" />
      <stop
         style="stop-color:#000000;stop-opacity:0;"
         offset="1"
         id="stop3275" />
    </linearGradient>
    <linearGradient
       inkscape:collect="always"
       xlink:href="#linearGradient4397"
       id="linearGradient3192"
       gradientUnits="userSpaceOnUse"
       x1="139.49458"
       y1="88"
       x2="150.49571"
       y2="88"
       gradientTransform="matrix(0.82521789,0,0,0.82521789,26.383607,14.420326)" />
    <linearGradient
       id="linearGradient3278">
      <stop
         style="stop-color:#947357;stop-opacity:1;"
         offset="0"
         id="stop3280" />
      <stop
         style="stop-color:#a4a4a4;stop-opacity:1;"
         offset="1"
         id="stop3282" />
    </linearGradient>
    <linearGradient
       inkscape:collect="always"
       xlink:href="#linearGradient4389"
       id="linearGradient3194"
       gradientUnits="userSpaceOnUse"
       x1="139.82295"
       y1="88"
       x2="150.17705"
       y2="88"
       gradientTransform="matrix(0.82521789,0,0,0.82521789,26.383607,14.420326)" />
    <linearGradient
       id="linearGradient3285">
      <stop
         style="stop-color:#717171;stop-opacity:1;"
         offset="0"
         id="stop3287" />
      <stop
         style="stop-color:#000000;stop-opacity:0;"
         offset="1"
         id="stop3289" />
    </linearGradient>
    <linearGradient
       inkscape:collect="always"
       xlink:href="#linearGradient4397"
       id="linearGradient3291"
       gradientUnits="userSpaceOnUse"
       gradientTransform="matrix(0.82521789,0,0,0.82521789,26.383607,15.469019)"
       x1="139.49458"
       y1="88"
       x2="150.49571"
       y2="88" />
    <linearGradient
       id="linearGradient3293">
      <stop
         style="stop-color:#947357;stop-opacity:1;"
         offset="0"
         id="stop3295" />
      <stop
         style="stop-color:#a4a4a4;stop-opacity:1;"
         offset="1"
         id="stop3297" />
    </linearGradient>
    <linearGradient
       inkscape:collect="always"
       xlink:href="#linearGradient4389"
       id="linearGradient3299"
       gradientUnits="userSpaceOnUse"
       gradientTransform="matrix(0.82521789,0,0,0.82521789,26.383607,15.469019)"
       x1="139.82295"
       y1="88"
       x2="150.17705"
       y2="88" />
    <linearGradient
       id="linearGradient3301">
      <stop
         style="stop-color:#717171;stop-opacity:1;"
         offset="0"
         id="stop3303" />
      <stop
         style="stop-color:#000000;stop-opacity:0;"
         offset="1"
         id="stop3305" />
    </linearGradient>
    <linearGradient
       inkscape:collect="always"
       xlink:href="#linearGradient4397"
       id="linearGradient3307"
       gradientUnits="userSpaceOnUse"
       gradientTransform="matrix(0.82521789,0,0,0.82521789,26.383607,15.469019)"
       x1="139.49458"
       y1="88"
       x2="150.49571"
       y2="88" />
    <linearGradient
       id="linearGradient3309">
      <stop
         style="stop-color:#947357;stop-opacity:1;"
         offset="0"
         id="stop3311" />
      <stop
         style="stop-color:#a4a4a4;stop-opacity:1;"
         offset="1"
         id="stop3313" />
    </linearGradient>
    <linearGradient
       inkscape:collect="always"
       xlink:href="#linearGradient4389"
       id="linearGradient3315"
       gradientUnits="userSpaceOnUse"
       gradientTransform="matrix(0.82521789,0,0,0.82521789,26.383607,15.469019)"
       x1="139.82295"
       y1="88"
       x2="150.17705"
       y2="88" />
    <linearGradient
       id="linearGradient3317">
      <stop
         style="stop-color:#717171;stop-opacity:1;"
         offset="0"
         id="stop3319" />
      <stop
         style="stop-color:#000000;stop-opacity:0;"
         offset="1"
         id="stop3321" />
    </linearGradient>
    <linearGradient
       inkscape:collect="always"
       xlink:href="#linearGradient4397"
       id="linearGradient3323"
       gradientUnits="userSpaceOnUse"
       gradientTransform="matrix(0.82521789,0,0,0.82521789,26.383607,15.469019)"
       x1="139.49458"
       y1="88"
       x2="150.49571"
       y2="88" />
    <linearGradient
       id="linearGradient3325">
      <stop
         style="stop-color:#947357;stop-opacity:1;"
         offset="0"
         id="stop3327" />
      <stop
         style="stop-color:#a4a4a4;stop-opacity:1;"
         offset="1"
         id="stop3329" />
    </linearGradient>
    <linearGradient
       inkscape:collect="always"
       xlink:href="#linearGradient4389"
       id="linearGradient3331"
       gradientUnits="userSpaceOnUse"
       gradientTransform="matrix(0.82521789,0,0,0.82521789,26.383607,15.469019)"
       x1="139.82295"
       y1="88"
       x2="150.17705"
       y2="88" />
    <linearGradient
       id="linearGradient3333">
      <stop
         style="stop-color:#717171;stop-opacity:1;"
         offset="0"
         id="stop3335" />
      <stop
         style="stop-color:#000000;stop-opacity:0;"
         offset="1"
         id="stop3337" />
    </linearGradient>
    <linearGradient
       inkscape:collect="always"
       xlink:href="#linearGradient4397"
       id="linearGradient3196"
       gradientUnits="userSpaceOnUse"
       x1="139.49458"
       y1="88"
       x2="150.49571"
       y2="88"
       gradientTransform="matrix(0.82521789,0,0,0.82521789,26.383607,13.371634)" />
    <linearGradient
       id="linearGradient3340">
      <stop
         style="stop-color:#947357;stop-opacity:1;"
         offset="0"
         id="stop3342" />
      <stop
         style="stop-color:#a4a4a4;stop-opacity:1;"
         offset="1"
         id="stop3344" />
    </linearGradient>
    <linearGradient
       inkscape:collect="always"
       xlink:href="#linearGradient4389"
       id="linearGradient3198"
       gradientUnits="userSpaceOnUse"
       x1="139.82295"
       y1="88"
       x2="150.17705"
       y2="88"
       gradientTransform="matrix(0.82521789,0,0,0.82521789,26.383607,13.371634)" />
    <linearGradient
       id="linearGradient3347">
      <stop
         style="stop-color:#717171;stop-opacity:1;"
         offset="0"
         id="stop3349" />
      <stop
         style="stop-color:#000000;stop-opacity:0;"
         offset="1"
         id="stop3351" />
    </linearGradient>
    <linearGradient
       inkscape:collect="always"
       xlink:href="#linearGradient4397"
       id="linearGradient3353"
       gradientUnits="userSpaceOnUse"
       gradientTransform="matrix(0.82521789,0,0,0.82521789,26.383607,15.469019)"
       x1="139.49458"
       y1="88"
       x2="150.49571"
       y2="88" />
    <linearGradient
       id="linearGradient3355">
      <stop
         style="stop-color:#947357;stop-opacity:1;"
         offset="0"
         id="stop3357" />
      <stop
         style="stop-color:#a4a4a4;stop-opacity:1;"
         offset="1"
         id="stop3359" />
    </linearGradient>
    <linearGradient
       inkscape:collect="always"
       xlink:href="#linearGradient4389"
       id="linearGradient3361"
       gradientUnits="userSpaceOnUse"
       gradientTransform="matrix(0.82521789,0,0,0.82521789,26.383607,15.469019)"
       x1="139.82295"
       y1="88"
       x2="150.17705"
       y2="88" />
    <linearGradient
       id="linearGradient3363">
      <stop
         style="stop-color:#717171;stop-opacity:1;"
         offset="0"
         id="stop3365" />
      <stop
         style="stop-color:#000000;stop-opacity:0;"
         offset="1"
         id="stop3367" />
    </linearGradient>
    <linearGradient
       inkscape:collect="always"
       xlink:href="#linearGradient4397"
       id="linearGradient3369"
       gradientUnits="userSpaceOnUse"
       gradientTransform="matrix(0.82521789,0,0,0.82521789,26.383607,15.469019)"
       x1="139.49458"
       y1="88"
       x2="150.49571"
       y2="88" />
    <linearGradient
       id="linearGradient3371">
      <stop
         style="stop-color:#947357;stop-opacity:1;"
         offset="0"
         id="stop3373" />
      <stop
         style="stop-color:#a4a4a4;stop-opacity:1;"
         offset="1"
         id="stop3375" />
    </linearGradient>
    <linearGradient
       inkscape:collect="always"
       xlink:href="#linearGradient4389"
       id="linearGradient3377"
       gradientUnits="userSpaceOnUse"
       gradientTransform="matrix(0.82521789,0,0,0.82521789,26.383607,15.469019)"
       x1="139.82295"
       y1="88"
       x2="150.17705"
       y2="88" />
    <linearGradient
       id="linearGradient3379">
      <stop
         style="stop-color:#717171;stop-opacity:1;"
         offset="0"
         id="stop3381" />
      <stop
         style="stop-color:#000000;stop-opacity:0;"
         offset="1"
         id="stop3383" />
    </linearGradient>
    <linearGradient
       inkscape:collect="always"
       xlink:href="#linearGradient4397"
       id="linearGradient3385"
       gradientUnits="userSpaceOnUse"
       gradientTransform="matrix(0.82521789,0,0,0.82521789,26.383607,15.469019)"
       x1="139.49458"
       y1="88"
       x2="150.49571"
       y2="88" />
    <linearGradient
       id="linearGradient3387">
      <stop
         style="stop-color:#947357;stop-opacity:1;"
         offset="0"
         id="stop3389" />
      <stop
         style="stop-color:#a4a4a4;stop-opacity:1;"
         offset="1"
         id="stop3391" />
    </linearGradient>
    <linearGradient
       inkscape:collect="always"
       xlink:href="#linearGradient4389"
       id="linearGradient3393"
       gradientUnits="userSpaceOnUse"
       gradientTransform="matrix(0.82521789,0,0,0.82521789,26.383607,15.469019)"
       x1="139.82295"
       y1="88"
       x2="150.17705"
       y2="88" />
    <linearGradient
       id="linearGradient3395">
      <stop
         style="stop-color:#717171;stop-opacity:1;"
         offset="0"
         id="stop3397" />
      <stop
         style="stop-color:#000000;stop-opacity:0;"
         offset="1"
         id="stop3399" />
    </linearGradient>
    <linearGradient
       y2="88"
       x2="150.49571"
       y1="88"
       x1="139.49458"
       gradientTransform="matrix(0.82521789,0,0,0.82521789,26.383607,15.469019)"
       gradientUnits="userSpaceOnUse"
       id="linearGradient3429"
       xlink:href="#linearGradient4397"
       inkscape:collect="always" />
    <linearGradient
       y2="88"
       x2="150.17705"
       y1="88"
       x1="139.82295"
       gradientTransform="matrix(0.82521789,0,0,0.82521789,26.383607,15.469019)"
       gradientUnits="userSpaceOnUse"
       id="linearGradient3431"
       xlink:href="#linearGradient4389"
       inkscape:collect="always" />
    <linearGradient
       inkscape:collect="always"
       xlink:href="#linearGradient4397"
       id="linearGradient4914"
       gradientUnits="userSpaceOnUse"
       gradientTransform="matrix(0.82521789,0,0,0.82521789,26.383607,15.469019)"
       x1="139.49458"
       y1="88"
       x2="150.49571"
       y2="88" />
    <linearGradient
       inkscape:collect="always"
       xlink:href="#linearGradient4389"
       id="linearGradient4916"
       gradientUnits="userSpaceOnUse"
       gradientTransform="matrix(0.82521789,0,0,0.82521789,26.383607,15.469019)"
       x1="139.82295"
       y1="88"
       x2="150.17705"
       y2="88" />
    <linearGradient
       inkscape:collect="always"
       xlink:href="#linearGradient4397"
       id="linearGradient4918"
       gradientUnits="userSpaceOnUse"
       gradientTransform="matrix(0.82521789,0,0,0.82521789,26.383607,15.469019)"
       x1="139.49458"
       y1="88"
       x2="150.49571"
       y2="88" />
    <linearGradient
       inkscape:collect="always"
       xlink:href="#linearGradient4389"
       id="linearGradient4920"
       gradientUnits="userSpaceOnUse"
       gradientTransform="matrix(0.82521789,0,0,0.82521789,26.383607,15.469019)"
       x1="139.82295"
       y1="88"
       x2="150.17705"
       y2="88" />
    <linearGradient
       inkscape:collect="always"
       xlink:href="#linearGradient4397"
       id="linearGradient4922"
       gradientUnits="userSpaceOnUse"
       gradientTransform="matrix(0.82521789,0,0,0.82521789,26.383607,15.469019)"
       x1="139.49458"
       y1="88"
       x2="150.49571"
       y2="88" />
    <linearGradient
       inkscape:collect="always"
       xlink:href="#linearGradient4389"
       id="linearGradient4924"
       gradientUnits="userSpaceOnUse"
       gradientTransform="matrix(0.82521789,0,0,0.82521789,26.383607,15.469019)"
       x1="139.82295"
       y1="88"
       x2="150.17705"
       y2="88" />
  </defs>
  <sodipodi:namedview
     id="base"
     pagecolor="#ffffff"
     bordercolor="#666666"
     borderopacity="1.0"
     inkscape:pageopacity="0"
     inkscape:pageshadow="2"
     inkscape:zoom="8.0000005"
     inkscape:cx="-4.7393376"
     inkscape:cy="18.992937"
     inkscape:document-units="px"
     inkscape:current-layer="layer1"
     showgrid="true"
     fit-margin-top="0"
     fit-margin-left="0"
     fit-margin-right="0"
     fit-margin-bottom="0"
     inkscape:window-width="1871"
     inkscape:window-height="1056"
     inkscape:window-x="49"
     inkscape:window-y="24"
     inkscape:window-maximized="1"
     inkscape:object-nodes="true">
    <inkscape:grid
       type="xygrid"
       id="grid3354" />
  </sodipodi:namedview>
  <metadata
     id="metadata5458">
    <rdf:RDF>
      <cc:Work
         rdf:about="">
        <dc:format>image/svg+xml</dc:format>
        <dc:type
           rdf:resource="http://purl.org/dc/dcmitype/StillImage" />
        <dc:title />
      </cc:Work>
    </rdf:RDF>
  </metadata>
  <g
     inkscape:label="Capa 1"
     inkscape:groupmode="layer"
     id="layer1"
     transform="translate(-384.57143,-499.798)">
    <rect
       style="fill:url(#linearGradient4106);fill-opacity:1;stroke:none"
       id="rect2991-1-7"
       width="40.000008"
       height="39.99984"
       x="388.57144"
       y="-543.79785"
       ry="0"
       transform="scale(1,-1)" />
    <path
       style="fill:#ffffff;fill-opacity:1;fill-rule:evenodd;stroke:none"
       d="m 413.44484,531.39649 c 0.72249,-1.09734 1.17848,-2.46841 1.24094,-3.97676 0.0343,-0.82823 -0.0531,-1.62958 -0.24255,-2.37936 -0.40173,0.0569 -0.91686,0.11432 -1.39464,0.16527 0.1923,0.75452 0.28108,1.56169 0.24654,2.39599 -0.054,1.3053 -0.40302,2.50747 -0.96411,3.51873 z m 10.84273,-3.59903 1.79663,-0.93612 c -1.20438,-2.2255 -3.2399,-3.74894 -5.60387,-3.89223 -0.77734,-0.0471 -1.53038,0.0629 -2.24187,0.29967 l 0.48392,-11.68811 c -5.45866,9.42051 -7.81984,7.5168 -4.28669,8.22398 1.04941,0.0635 1.96048,-0.75291 2.24755,-1.91685 l -0.28693,6.93017 1.77371,0.10751 0,0.004 c 0.32006,-0.0304 0.64382,-0.0443 0.97308,-0.0245 2.04144,0.12374 3.85174,1.21771 5.1448,2.89269 z m -19.55336,-1.25409 c 2.41642,0.14646 4.66745,-0.80827 6.42177,-2.49943 -0.24693,-0.27981 -0.64421,-0.75438 -1.04513,-1.23947 -1.73149,1.43636 -3.85124,2.22369 -6.1098,2.08679 -1.1964,-0.0725 -2.33253,-0.3987 -3.37518,-0.93256 l 0.2211,1.324 c 1.17099,0.72944 2.4862,1.17576 3.88724,1.26068 z m 6.76438,-5.30556 1.28545,-1.40686 c -3.93608,-2.39095 -6.90212,-6.71551 -8.09119,-11.89543 l -2.6388,0.57502 c 1.19722,5.86547 4.75712,10.65952 9.44454,12.72728 z"
       id="path4165"
       inkscape:connector-curvature="0"
       sodipodi:nodetypes="csccsccccscccccccscccccsccscccccc" />
    <path
       inkscape:connector-curvature="0"
       id="path4251"
       d="m 408.13701,511.60627 c -0.87109,1.21344 -1.38471,2.70076 -1.38471,4.30873 0,0.8829 0.15516,1.72942 0.43879,2.51449 0.51382,-0.0863 1.17354,-0.18067 1.7855,-0.26563 -0.28761,-0.78993 -0.44482,-1.64253 -0.44482,-2.53192 0,-1.39147 0.38495,-2.69233 1.05295,-3.80382 l -1.44771,-0.22185 z m -13.75815,4.52588 -2.2616,1.11125 c 1.66805,2.28889 4.36804,3.77768 7.41705,3.77768 1.00261,0 1.96559,-0.16549 2.86838,-0.46313 l 0,12.4599 2.28773,0 0,-5.78637 c 0.22696,-0.7165 0.89504,-1.23324 1.68856,-1.23324 0.79081,0 1.4567,0.51339 1.68586,1.22609 l 0,5.79352 2.28774,0 0,-2.87263 0,-3.14608 0,-0.13003 c 0,-1.59143 -1.2812,-2.87263 -2.87263,-2.87263 -1.35355,0 -2.4822,0.92697 -2.78953,2.18318 l 0,-7.38778 -2.28773,0 0,-0.004 c -0.41017,0.0531 -0.82596,0.0887 -1.25065,0.0887 -2.63301,0 -5.02035,-1.04661 -6.77318,-2.74439 z m 25.22344,0.0733 c -3.11667,0 -5.96191,1.16031 -8.12886,3.0717 0.33257,0.28164 0.86899,0.76063 1.41063,1.25065 2.15117,-1.63895 4.8364,-2.61279 7.74949,-2.61279 1.54311,0 3.02218,0.27364 4.39205,0.77412 l -0.35499,-1.39364 c -1.54539,-0.7002 -3.26128,-1.09004 -5.06832,-1.09004 z m -8.42019,6.07771 -1.57886,1.57885 c 5.19137,2.28877 9.23775,6.6962 11.04349,12.12769 l 3.36435,-0.7815 c -1.85276,-6.15998 -6.68815,-11.02837 -12.82898,-12.92504 z"
       style="fill:none;fill-opacity:1;fill-rule:evenodd;stroke:none" />
    <path
       style="fill:none;fill-opacity:1;fill-rule:evenodd;stroke:none"
       d="m 408.13701,511.60627 c -0.87109,1.21344 -1.38471,2.70076 -1.38471,4.30873 0,0.8829 0.15516,1.72942 0.43879,2.51449 0.51382,-0.0863 1.17354,-0.18067 1.7855,-0.26563 -0.28761,-0.78993 -0.44482,-1.64253 -0.44482,-2.53192 0,-1.39147 0.38495,-2.69233 1.05295,-3.80382 l -1.44771,-0.22185 z m -13.75815,4.52588 -2.2616,1.11125 c 1.66805,2.28889 4.36804,3.77768 7.41705,3.77768 1.00261,0 1.96559,-0.16549 2.86838,-0.46313 l 0,12.4599 2.28773,0 0,-5.78637 c 0.22696,-0.7165 0.89504,-1.23324 1.68856,-1.23324 0.79081,0 1.4567,0.51339 1.68586,1.22609 l 0,5.79352 2.28774,0 0,-2.87263 0,-3.14608 0,-0.13003 c 0,-1.59143 -1.2812,-2.87263 -2.87263,-2.87263 -1.35355,0 -2.4822,0.92697 -2.78953,2.18318 l 0,-7.38778 -2.28773,0 0,-0.004 c -0.41017,0.0531 -0.82596,0.0887 -1.25065,0.0887 -2.63301,0 -5.02035,-1.04661 -6.77318,-2.74439 z m 25.22344,0.0733 c -3.11667,0 -5.96191,1.16031 -8.12886,3.0717 0.33257,0.28164 0.86899,0.76063 1.41063,1.25065 2.15117,-1.63895 4.8364,-2.61279 7.74949,-2.61279 1.54311,0 3.02218,0.27364 4.39205,0.77412 l -0.35499,-1.39364 c -1.54539,-0.7002 -3.26128,-1.09004 -5.06832,-1.09004 z m -8.42019,6.07771 -1.57886,1.57885 c 5.19137,2.28877 9.23775,6.6962 11.04349,12.12769 l 3.36435,-0.7815 c -1.85276,-6.15998 -6.68815,-11.02837 -12.82898,-12.92504 z"
       id="path4253"
       inkscape:connector-curvature="0" />
    <path
       style="opacity:0.35;fill:#000000;fill-opacity:1;stroke:none"
       d="m 388.57143,543.798 0,0 c 20,-1 20,-1 40,0 z"
       id="path3257"
       inkscape:connector-curvature="0"
       sodipodi:nodetypes="cccc" />
    <path
       sodipodi:nodetypes="cccc"
       inkscape:connector-curvature="0"
       id="path4027"
       d="m 388.57143,503.798 0,0 c 20,1 20,1 40,0 z"
       style="opacity:0.75;fill:#ffffff;fill-opacity:1;stroke:none" />
    <g
       transform="matrix(0.34878827,0.26238731,-0.26238731,0.34878827,394.4442,499.14103)"
       id="g3952">
      <g
         transform="matrix(0.6854428,0.1836639,-0.1836639,0.6854428,-17.037917,-31.869473)"
         id="g3405">
        <path
           d="M 136.49219,126.38198 C 144.75532,118.57975 140,117.74383 140,100.06288 c 0,-6.447951 10,-5.528806 10,-0.3125 0,15.8668 -2.76896,19.86054 -13.50781,26.6316 z"
           inkscape:connector-curvature="0"
           id="path3286"
           style="fill:#000000;fill-opacity:1;fill-rule:evenodd;stroke:none" />
        <path
           d="m 140.4232,97.122268 c 0.52381,3.835232 0.83937,5.946262 0.99168,14.065012 0.24348,-3.42757 0.19447,-12.237972 0.85157,-13.029333 0.15349,4.532093 0,9.317753 0,13.950413 0,3.18283 0.70574,-8.30441 0.70574,-8.55026 0,-1.60762 0.10068,-3.21393 0.10068,-4.821558 0,-0.95835 0.35431,1.877708 0.46081,2.828648 0.52487,4.68637 0.17666,9.35164 -0.34561,14.01471 -0.72211,6.44745 0.17467,2.0343 0.46082,-1.47862 0.24521,-3.01053 0.92162,-5.703 0.92162,-8.74312 0,-2.62603 -0.50656,-9.590237 0.11521,-6.814487 1.20366,5.373527 1.15751,11.406447 0.34561,16.843357 -0.0675,0.45187 -0.15361,0.90003 -0.23041,1.35003 -0.14085,0.8253 0.14594,-1.67239 0.23041,-2.5072 0.496,-4.90258 0.57601,-8.7278 0.57601,-13.62898 1.46356,-4.948032 1.1742,11.78631 0.80642,14.0147 0.65244,-4.55631 0.6795,-7.65958 0.86403,-11.50749 0,-2.04545 -0.75049,-7.240594 -0.23041,-5.46444 0.57452,1.962085 1.13832,7.29625 1.13832,11.18605 0,5.66609 0,-4.23161 0,-4.82157 0,-0.11088 0,-11.445791 0,-5.850183 0,3.690063 1.07735,0.723285 0.37024,13.129083 0.85777,-3.93035 0.7955,-11.05674 0.7955,-13.257654 0,-0.547803 0.0535,-0.902334 -0.40321,-1.157179 -3.18031,-0.779318 -5.87939,-2.275995 -8.52503,0.250071 z"
           inkscape:connector-curvature="0"
           id="path3358"
           style="opacity:0.3;fill:url(#linearGradient3969);fill-opacity:1;fill-rule:evenodd;stroke:none" />
        <path
           d="m 145.8125,95.8125 c -0.17067,0.0052 -0.35807,0.01202 -0.53125,0.03125 -1.13983,0.126595 -2.32171,0.545592 -3.59375,0.90625 0,0.302255 0,1.144049 0,2.1875 0,2.14653 0,5.00734 0,5.0625 0,0.0328 0,0.44515 0,0.53125 0.20675,-2.83547 0.55483,-5.599379 0.9375,-6.90625 0.0329,-0.112462 0.0689,-0.186494 0.0937,-0.25 0.0248,-0.06351 0.044,-0.114767 0.0937,-0.15625 0.0124,-0.01037 0.004,-0.02827 0.0312,-0.03125 0.0276,-0.003 0.0762,0.01645 0.0937,0.03125 0.035,0.02959 0.0256,0.07115 0.0312,0.09375 0.0113,0.04521 0.0302,0.08666 0.0312,0.15625 0.004,0.278344 -0.0339,0.805402 -0.0937,1.46875 -0.11979,1.3267 -0.3125,3.14441 -0.3125,4.15625 0.43739,5.24352 0.29647,11.49436 0.40625,1.8125 0.0292,-1.92578 0.10793,-3.60722 0.28125,-4.53125 0.0433,-0.23101 0.0972,-0.430614 0.15625,-0.5625 0.0295,-0.06594 0.0517,-0.114294 0.0937,-0.15625 0.042,-0.04196 0.0932,-0.06788 0.15625,-0.0625 0.0631,0.0054 0.11144,0.04688 0.15625,0.09375 0.0448,0.04687 0.0835,0.108519 0.125,0.1875 0.0829,0.15796 0.18886,0.37513 0.28125,0.6875 0.002,0.0103 0.002,0.0209 0,0.0312 0,0.95558 0.0431,1.84855 0.0937,2.71875 0.11643,-1.63269 0.30985,-3.26606 0.65625,-4.8125 0.0392,-0.174825 0.0934,-0.302001 0.125,-0.40625 0.0316,-0.104249 0.0284,-0.166738 0.0625,-0.21875 0.017,-0.02601 0.0434,-0.05018 0.0937,-0.0625 0.0252,-0.0062 0.0719,-0.01194 0.0937,0 0.0218,0.01194 0.0218,0.01741 0.0312,0.03125 0.0376,0.05537 0.0516,0.106958 0.0625,0.1875 0.0434,0.32217 0.0233,1.013039 0,1.875 -0.0465,1.72392 -0.15625,4.13019 -0.15625,5.4375 2.97799,20.51516 -0.34889,11.7317 0.84375,-3.78125 0.0534,-0.47691 0.17711,-1.41913 0.28125,-2.125 0.0521,-0.352934 0.0872,-0.659069 0.125,-0.8125 0.009,-0.03836 0.0195,-0.06696 0.0312,-0.09375 0.006,-0.0134 0.006,-0.0094 0.0312,-0.03125 0.003,-0.0027 0.0309,-0.03101 0.0312,-0.03125 7.3e-4,-3.04e-4 0.0618,-5.8e-5 0.0625,0 7e-4,5.8e-5 0.0306,-4.25e-4 0.0312,0 3.3e-4,2.12e-4 -3.2e-4,0.03095 0,0.03125 3.2e-4,3.05e-4 0.0285,-0.0034 0.0312,0 0.0217,0.02737 0.0281,0.04734 0.0312,0.0625 0.003,0.01516 -0.002,0.01312 0,0.03125 0.003,0.03625 0,0.09493 0,0.15625 0.23631,3.48243 0.14784,6.89582 -0.53477,10.34375 0.23363,7.17134 1.11129,-10.15946 1.12852,-10.9375 -0.002,-0.01034 -0.002,-0.02091 0,-0.03125 0.008,-0.01284 0.0184,-0.02358 0.0312,-0.03125 0.008,-0.01284 0.0184,-0.02358 0.0312,-0.03125 0.0103,-0.0018 0.0209,-0.0018 0.0312,0 0.0103,-0.0018 0.0209,-0.0018 0.0312,0 0.0128,0.0077 0.0236,0.01841 0.0312,0.03125 0.10858,0.130768 0.18638,0.359165 0.25,0.6875 0.70064,3.28565 -0.39318,6.58079 -0.17586,9.87168 0.73895,-5.86544 1.1549,-8.14002 1.61336,-11.49668 -1.13103,-1.065418 -2.25449,-1.380058 -3.4375,-1.34375 z M 141.5,96.78125 c -0.21401,0.05926 -0.40538,0.133683 -0.625,0.1875 -0.21156,0.118058 -0.27258,0.236879 -0.3125,0.40625 -0.0399,0.169371 -0.0313,0.379575 -0.0312,0.65625 0,1.949501 0.48393,7.70099 1.06158,11.71764 -0.71526,-3.8759 -0.21564,-7.72275 -0.0928,-11.59264 0,-0.699451 0,-1.149463 0,-1.375 z"
           inkscape:connector-curvature="0"
           transform="matrix(1,0,0,1.3658701,0,-35.053921)"
           id="path3380"
           style="opacity:0.40540538;fill:url(#linearGradient3971);fill-opacity:1;fill-rule:evenodd;stroke:none" />
        <path
           d="M 136.49219,126.38198 C 144.75532,118.57975 140,117.74383 140,100.06288 c 0,-6.447951 10,-5.528806 10,-0.3125 0,15.8668 -2.76896,19.86054 -13.50781,26.6316 z"
           inkscape:connector-curvature="0"
           id="path3394"
           style="fill:url(#linearGradient3973);fill-opacity:1;fill-rule:evenodd;stroke:none" />
      </g>
      <g
         transform="matrix(0.6854428,0.1836639,-0.1836639,0.6854428,-17.037917,-31.869473)"
         id="g3538">
        <path
           d="m 142.5704,66.302032 c 5.2447,0 13.11174,13.626121 10.4894,18.168161 -2.62235,4.54204 -18.35644,4.542039 -20.97879,-10e-7 -2.62235,-4.54204 5.2447,-18.168161 10.48939,-18.16816 z"
           transform="matrix(0.4227683,0,0,3.8920276,84.725753,-249.77347)"
           id="path3284"
           style="fill:url(#linearGradient3975);fill-opacity:1;fill-rule:evenodd;stroke:url(#linearGradient3977);stroke-width:0.7584784;stroke-linecap:square;stroke-linejoin:miter;stroke-miterlimit:4;stroke-opacity:1;stroke-dasharray:none;stroke-dashoffset:0"
           inkscape:connector-curvature="0" />
        <path
           d="m 143.67443,22.398152 c -0.0922,0 -0.32253,1.821635 -0.56854,5.943768 -0.24601,4.122133 -0.50641,10.11869 -0.71685,16.620539 -0.21044,6.501848 -0.37402,13.511641 -0.45112,19.372282 -0.0771,5.86064 -0.0462,10.353002 0,11.777468 0.0461,1.421597 0.24485,4.096191 0.56853,5.833698 0.32369,1.737507 0.75253,2.751745 1.17416,2.751745 0.42163,0 0.84429,-1.014238 1.16797,-2.751745 0.32369,-1.737507 0.52246,-4.412101 0.56854,-5.833698 0.046,-1.419341 0.0776,-5.917363 0,-11.777468 -0.0776,-5.860105 -0.24612,-12.869595 -0.4573,-19.372282 -0.21119,-6.502688 -0.47023,-12.496493 -0.71685,-16.620539 -0.24663,-4.124045 -0.47634,-5.943768 -0.56854,-5.943768 z"
           inkscape:connector-curvature="0"
           id="path3519"
           style="opacity:0.5;fill:#ff8b49;fill-opacity:1;fill-rule:evenodd;stroke:none;filter:url(#filter3526)" />
      </g>
      <g
         transform="matrix(0.7423631,0.1989156,-0.1836639,0.6854428,-24.984661,-34.080975)"
         id="g3530"
         style="fill:url(#linearGradient3429);fill-opacity:1;stroke:url(#linearGradient3431)">
        <path
           d="m 140.5,78.5 0,2.875 c 0.30889,0.274816 0.5,0.679341 0.5,1.125 0,0.445659 -0.19111,0.850184 -0.5,1.125 l 0,3.75 c 0.30889,0.274816 0.5,0.679341 0.5,1.125 0,0.445659 -0.19111,0.850184 -0.5,1.125 l 0,3.75 c 0.30889,0.274816 0.5,0.679341 0.5,1.125 0,0.445659 -0.19111,0.850184 -0.5,1.125 l 0,1.875 9,0 0,-1.875 C 149.1911,95.350184 149,94.945659 149,94.5 c 0,-0.445659 0.1911,-0.850184 0.5,-1.125 l 0,-3.75 C 149.1911,89.350184 149,88.945659 149,88.5 c 0,-0.445659 0.1911,-0.850184 0.5,-1.125 l 0,-3.75 C 149.1911,83.350184 149,82.945659 149,82.5 c 0,-0.445659 0.1911,-0.850184 0.5,-1.125 l 0,-2.875 -9,0 z"
           inkscape:connector-curvature="0"
           id="rect2478"
           style="fill:url(#linearGradient3174);fill-opacity:1;fill-rule:evenodd;stroke:url(#linearGradient3176);stroke-width:1.3540976;stroke-linecap:square;stroke-linejoin:miter;stroke-miterlimit:4;stroke-opacity:1;stroke-dasharray:none;stroke-dashoffset:0" />
        <g
           id="g3493"
           style="fill:url(#linearGradient4922);fill-opacity:1;stroke:url(#linearGradient4924)">
          <path
             d="m 139.99458,81 0,0.579723 c 0.338,0.322181 0.46459,0.420277 0.5076,0.920277 l 8.99492,0 c 0.0372,-0.48902 0.12747,-0.578546 0.49861,-0.90625 l 0,-0.59375 -10.00113,0 z"
             inkscape:connector-curvature="0"
             id="path3463"
             style="opacity:0.2;fill:url(#linearGradient4914);fill-opacity:1;fill-rule:evenodd;stroke:url(#linearGradient4916)" />
          <path
             d="m 139.99458,83.984375 0,-0.579723 c 0.338,-0.322181 0.46459,-0.420277 0.5076,-0.920277 l 8.99492,0 c 0.0372,0.48902 0.12747,0.578546 0.49861,0.90625 l 0,0.59375 -10.00113,0 z"
             inkscape:connector-curvature="0"
             id="path3489"
             style="opacity:0.3;fill:url(#linearGradient4918);fill-opacity:1;fill-rule:evenodd;stroke:url(#linearGradient4920)" />
        </g>
        <use
           transform="translate(0,6)"
           id="use3497"
           x="0"
           y="0"
           width="128"
           height="128"
           xlink:href="#g3493"
           style="fill:url(#linearGradient3192);fill-opacity:1;stroke:url(#linearGradient3194)" />
        <use
           transform="translate(0,12)"
           id="use3499"
           x="0"
           y="0"
           width="128"
           height="128"
           xlink:href="#g3493"
           style="fill:url(#linearGradient3196);fill-opacity:1;stroke:url(#linearGradient3198)" />
      </g>
    </g>
  </g>
</svg>
