<?xml version="1.0" encoding="UTF-8" standalone="no"?>
<!-- Created with Inkscape (http://www.inkscape.org/) -->

<svg
   xmlns:dc="http://purl.org/dc/elements/1.1/"
   xmlns:cc="http://creativecommons.org/ns#"
   xmlns:rdf="http://www.w3.org/1999/02/22-rdf-syntax-ns#"
   xmlns:svg="http://www.w3.org/2000/svg"
   xmlns="http://www.w3.org/2000/svg"
   xmlns:xlink="http://www.w3.org/1999/xlink"
   xmlns:sodipodi="http://sodipodi.sourceforge.net/DTD/sodipodi-0.dtd"
   xmlns:inkscape="http://www.inkscape.org/namespaces/inkscape"
   width="48"
   height="48"
   id="svg5453"
   version="1.1"
   inkscape:version="0.48.4 r9939"
   sodipodi:docname="skydrive.svg">
  <defs
     id="defs5455">
    <linearGradient
       inkscape:collect="always"
       id="linearGradient5277">
      <stop
         style="stop-color:#144786;stop-opacity:1"
         offset="0"
         id="stop5279" />
      <stop
         style="stop-color:#068edc;stop-opacity:1"
         offset="1"
         id="stop5281" />
    </linearGradient>
    <linearGradient
       inkscape:collect="always"
       xlink:href="#linearGradient5277"
       id="linearGradient4172"
       x1="419.08624"
       y1="-547.79797"
       x2="419.08624"
       y2="-499.7912"
       gradientUnits="userSpaceOnUse" />
    <linearGradient
       gradientTransform="translate(504.56422,384.57142)"
       inkscape:collect="always"
       xlink:href="#linearGradient3796"
       id="linearGradient3802"
       x1="-1013.3622"
       y1="8.9499998"
       x2="-1043.3622"
       y2="39.049999"
       gradientUnits="userSpaceOnUse" />
    <linearGradient
       id="linearGradient3796">
      <stop
         style="stop-color:#6887ce;stop-opacity:1;"
         offset="0"
         id="stop3798" />
      <stop
         style="stop-color:#77a0ea;stop-opacity:1;"
         offset="1"
         id="stop3800" />
    </linearGradient>
  </defs>
  <sodipodi:namedview
     id="base"
     pagecolor="#ffffff"
     bordercolor="#666666"
     borderopacity="1.0"
     inkscape:pageopacity="0"
     inkscape:pageshadow="2"
     inkscape:zoom="5.656854"
     inkscape:cx="43.916356"
     inkscape:cy="12.304173"
     inkscape:document-units="px"
     inkscape:current-layer="layer1"
     showgrid="true"
     fit-margin-top="0"
     fit-margin-left="0"
     fit-margin-right="0"
     fit-margin-bottom="0"
     inkscape:window-width="1871"
     inkscape:window-height="1056"
     inkscape:window-x="49"
     inkscape:window-y="24"
     inkscape:window-maximized="1">
    <inkscape:grid
       type="xygrid"
       id="grid3000" />
  </sodipodi:namedview>
  <metadata
     id="metadata5458">
    <rdf:RDF>
      <cc:Work
         rdf:about="">
        <dc:format>image/svg+xml</dc:format>
        <dc:type
           rdf:resource="http://purl.org/dc/dcmitype/StillImage" />
        <dc:title />
      </cc:Work>
    </rdf:RDF>
  </metadata>
  <g
     inkscape:label="Capa 1"
     inkscape:groupmode="layer"
     id="layer1"
     transform="translate(-384.57143,-499.798)">
    <rect
       transform="matrix(0,-1,1,0,0,0)"
       ry="20"
       y="388.57144"
       x="-543.79797"
       height="40"
       width="40"
       id="rect3279"
       style="fill:url(#linearGradient3802);fill-opacity:1;fill-rule:evenodd;stroke:none" />
    <path
       style="fill:#ffffff;fill-opacity:1;enable-background:new"
       d="m 410.01336,512.05425 c -1.13533,-0.002 -2.08358,0.21688 -2.99633,0.69394 -0.84554,0.44204 -1.87923,1.31064 -2.39075,2.00804 -0.86433,1.17979 -0.81904,1.14185 -1.22796,0.97136 -1.2892,-0.53644 -2.7795,-0.63065 -3.96446,-0.24945 -2.19398,0.70512 -3.76461,2.90219 -3.85873,5.39425 -0.0166,0.40123 -0.0614,0.7866 -0.10335,0.85782 -0.042,0.0685 -0.31038,0.19037 -0.59512,0.26487 -1.34875,0.35339 -2.42269,1.25227 -2.98339,2.49752 -0.2662,0.59089 -0.29517,0.78311 -0.29517,1.97318 0,1.2509 0.0192,1.35404 0.35314,2.06112 0.58916,1.24705 1.8452,2.33853 3.0312,2.6319 0.42923,0.10555 3.53264,0.13824 3.62927,0.0387 0.0387,-0.0397 -0.0258,-0.26752 -0.14638,-0.50945 -0.31446,-0.64188 -0.54172,-1.76395 -0.54201,-2.67962 -7.6e-4,-2.51579 1.45455,-4.48221 3.94905,-5.33359 0.80576,-0.27501 0.99365,-0.39581 0.99365,-0.63831 0,-0.34189 0.59498,-1.71689 1.06179,-2.45484 0.65475,-1.0352 1.52128,-1.831 2.60028,-2.3844 2.69968,-1.38481 5.87665,-0.94518 7.82282,1.07998 l 0.69117,0.71643 0.75653,-0.2043 c 0.4159,-0.11183 0.89281,-0.20799 1.05931,-0.21191 0.38087,-0.005 0.39589,-0.28986 0.0725,-1.29687 -1.01121,-3.1516 -3.74519,-5.2174 -6.9178,-5.22526 z m -0.2197,5.67165 c -1.345,-0.005 -1.90686,0.12183 -3.01868,0.70163 -1.06232,0.5539 -2.05802,1.90801 -2.59504,3.53227 -0.11849,0.35752 -0.21445,0.76027 -0.21445,0.89549 0,0.4317 -0.2489,0.61843 -1.06175,0.79208 -1.63287,0.3491 -2.87503,1.29676 -3.3438,2.55358 -0.1915,0.51271 -0.2458,0.89555 -0.24493,1.6929 0.003,2.49328 1.13601,4.17468 3.16789,4.70269 0.42222,0.10889 2.86619,0.1369 10.55406,0.12131 l 10.00463,-0.0185 0.44884,-0.25227 c 0.95773,-0.53322 1.56226,-1.60642 1.66174,-2.95179 0.15244,-2.05707 -0.68639,-3.45605 -2.4738,-4.12276 l -0.62799,-0.23439 -0.0664,-0.89066 c -0.2554,-3.25652 -3.42401,-5.20419 -6.60241,-4.05947 l -0.65824,0.23682 -0.73135,-0.80223 c -1.33288,-1.45678 -2.28624,-1.88696 -4.19645,-1.89729 z"
       id="path4196-6"
       inkscape:connector-curvature="0" />
    <path
       style="fill:#134a8a;fill-opacity:0.31372549;enable-background:new"
       d="m 409.67689,516.36898 c -1.05654,0.0188 -2.13702,0.28188 -3.1494,0.80118 -1.07899,0.5534 -1.9455,1.34991 -2.60025,2.3851 -0.46682,0.73795 -1.06141,2.11287 -1.06141,2.45477 0,0.2425 -0.18803,0.36225 -0.9938,0.63726 -2.4945,0.85139 -3.94935,2.8179 -3.94852,5.33369 4e-5,0.15151 0.0148,0.31363 0.0267,0.47333 0.1367,-2.33628 1.55224,-4.15813 3.9219,-4.96691 0.80576,-0.27501 0.99379,-0.3968 0.99379,-0.63931 0,-0.34189 0.59459,-1.71681 1.06141,-2.45477 0.65475,-1.03519 1.52126,-1.82965 2.60025,-2.38305 2.69968,-1.38481 5.87713,-0.94531 7.8233,1.07985 l 0.69053,0.71513 0.75815,-0.20286 c 0.4159,-0.11182 0.89287,-0.20918 1.05936,-0.2131 0.31957,-0.005 0.36582,-0.23394 0.18646,-0.89339 -0.0483,0.0313 -0.10462,0.0542 -0.18646,0.0553 -0.16649,0.004 -0.64346,0.0992 -1.05936,0.21106 l -0.75815,0.2049 -0.69053,-0.71717 c -1.21636,-1.26572 -2.913,-1.91233 -4.6739,-1.88103 z m -18.07267,10.72476 c -4.3e-4,0.0796 -0.006,0.0938 -0.006,0.18441 0,1.2509 0.0185,1.35427 0.35243,2.06135 0.58917,1.24706 1.84661,2.33761 3.03261,2.63099 0.42923,0.10554 3.53225,0.13846 3.62887,0.0389 0.0387,-0.0397 -0.027,-0.26623 -0.14753,-0.50817 -0.0428,-0.0873 -0.0796,-0.20193 -0.11884,-0.30531 -0.65392,0.0599 -2.98553,0.0292 -3.3625,-0.0635 -1.186,-0.29338 -2.44344,-1.38599 -3.03261,-2.63303 -0.26114,-0.55296 -0.32876,-0.75365 -0.34629,-1.40566 z m 7.73518,1.17206 c -0.007,0.14676 -0.0248,0.25619 -0.0246,0.44055 0.003,2.49328 1.13596,4.17457 3.16784,4.70258 0.42221,0.10889 2.86682,0.13648 10.55469,0.12089 l 10.00348,-0.0184 0.44875,-0.25204 c 0.95773,-0.53322 1.56231,-1.60526 1.66178,-2.95064 0.0218,-0.29444 0.0187,-0.57285 0,-0.84011 -0.0995,1.34538 -0.70405,2.41947 -1.66178,2.95269 l -0.44875,0.25204 -10.00348,0.0184 c -7.68787,0.0156 -10.13248,-0.014 -10.55469,-0.12294 -1.91879,-0.49863 -3.0222,-2.03485 -3.14325,-4.30302 z"
       id="path4219"
       inkscape:connector-curvature="0" />
    <rect
       ry="2"
       y="406.57144"
       x="-547.79797"
       height="4"
       width="4"
       id="rect3275"
       style="fill:none;stroke:none"
       transform="matrix(0,-1,1,0,0,0)" />
  </g>
</svg>
