<?xml version="1.0" encoding="UTF-8" standalone="no"?>
<svg
   xmlns:dc="http://purl.org/dc/elements/1.1/"
   xmlns:cc="http://creativecommons.org/ns#"
   xmlns:rdf="http://www.w3.org/1999/02/22-rdf-syntax-ns#"
   xmlns:svg="http://www.w3.org/2000/svg"
   xmlns="http://www.w3.org/2000/svg"
   xmlns:sodipodi="http://sodipodi.sourceforge.net/DTD/sodipodi-0.dtd"
   xmlns:inkscape="http://www.inkscape.org/namespaces/inkscape"
   viewBox="0 0 48 48"
   id="svg2"
   version="1.1"
   inkscape:version="0.91 r13725"
   sodipodi:docname="snowballz.svg">
  <metadata
     id="metadata59">
    <rdf:RDF>
      <cc:Work
         rdf:about="">
        <dc:format>image/svg+xml</dc:format>
        <dc:type
           rdf:resource="http://purl.org/dc/dcmitype/StillImage" />
        <dc:title></dc:title>
      </cc:Work>
    </rdf:RDF>
  </metadata>
  <sodipodi:namedview
     pagecolor="#ffffff"
     bordercolor="#666666"
     borderopacity="1"
     objecttolerance="10"
     gridtolerance="10"
     guidetolerance="10"
     inkscape:pageopacity="0"
     inkscape:pageshadow="2"
     inkscape:window-width="1224"
     inkscape:window-height="752"
     id="namedview57"
     showgrid="false"
     inkscape:zoom="3.4766083"
     inkscape:cx="32.818315"
     inkscape:cy="29.141494"
     inkscape:window-x="63"
     inkscape:window-y="34"
     inkscape:window-maximized="0"
     inkscape:current-layer="svg2" />
  <defs
     id="defs4">
    <linearGradient
       id="linearGradient3764"
       x1="1"
       x2="47"
       gradientUnits="userSpaceOnUse"
       gradientTransform="matrix(0,-1,1,0,-1.5e-6,47.999998)">
      <stop
         stop-color="#380005"
         stop-opacity="1"
         id="stop7" />
      <stop
         offset="1"
         stop-color="#4c0008"
         stop-opacity="1"
         id="stop9" />
    </linearGradient>
    <clipPath
       id="clipPath11">
      <g
         transform="translate(0,-1004.3622)"
         id="g13">
        <path
           d="m -24 13 c 0 1.105 -0.672 2 -1.5 2 -0.828 0 -1.5 -0.895 -1.5 -2 0 -1.105 0.672 -2 1.5 -2 0.828 0 1.5 0.895 1.5 2 z"
           transform="matrix(15.333333,0,0,11.5,414.99999,878.8622)"
           fill="#1890d0"
           id="path15" />
      </g>
    </clipPath>
    <clipPath
       id="clipPath17">
      <g
         transform="translate(0,-1004.3622)"
         id="g19">
        <path
           d="m -24 13 c 0 1.105 -0.672 2 -1.5 2 -0.828 0 -1.5 -0.895 -1.5 -2 0 -1.105 0.672 -2 1.5 -2 0.828 0 1.5 0.895 1.5 2 z"
           transform="matrix(15.333333,0,0,11.5,414.99999,878.8622)"
           fill="#1890d0"
           id="path21" />
      </g>
    </clipPath>
    <linearGradient
       gradientTransform="matrix(0,-1,1,0,-1.5e-6,47.999998)"
       gradientUnits="userSpaceOnUse"
       x2="47"
       x1="1"
       id="linearGradient3764-9">
      <stop
         id="stop7-1"
         stop-opacity="1"
         stop-color="#c3cfdd" />
      <stop
         id="stop9-5"
         stop-opacity="1"
         stop-color="#d0d9e4"
         offset="1" />
    </linearGradient>
    <clipPath
       id="clipPath-588033436">
      <g
         id="g12"
         transform="translate(0,-1004.3622)">
        <path
           id="path14"
           fill="#1890d0"
           transform="matrix(15.333333,0,0,11.5,414.99999,878.8622)"
           d="m -24 13 c 0 1.105 -0.672 2 -1.5 2 -0.828 0 -1.5 -0.895 -1.5 -2 0 -1.105 0.672 -2 1.5 -2 0.828 0 1.5 0.895 1.5 2 z" />
      </g>
    </clipPath>
    <clipPath
       id="clipPath-596082226">
      <g
         id="g17"
         transform="translate(0,-1004.3622)">
        <path
           id="path19"
           fill="#1890d0"
           transform="matrix(15.333333,0,0,11.5,414.99999,878.8622)"
           d="m -24 13 c 0 1.105 -0.672 2 -1.5 2 -0.828 0 -1.5 -0.895 -1.5 -2 0 -1.105 0.672 -2 1.5 -2 0.828 0 1.5 0.895 1.5 2 z" />
      </g>
    </clipPath>
  </defs>
  <g
     id="g23">
    <path
       d="m 36.31 5 c 5.859 4.062 9.688 10.831 9.688 18.5 c 0 12.426 -10.07 22.5 -22.5 22.5 c -7.669 0 -14.438 -3.828 -18.5 -9.688 c 1.037 1.822 2.306 3.499 3.781 4.969 c 4.085 3.712 9.514 5.969 15.469 5.969 c 12.703 0 23 -10.298 23 -23 c 0 -5.954 -2.256 -11.384 -5.969 -15.469 c -1.469 -1.475 -3.147 -2.744 -4.969 -3.781 z m 4.969 3.781 c 3.854 4.113 6.219 9.637 6.219 15.719 c 0 12.703 -10.297 23 -23 23 c -6.081 0 -11.606 -2.364 -15.719 -6.219 c 4.16 4.144 9.883 6.719 16.219 6.719 c 12.703 0 23 -10.298 23 -23 c 0 -6.335 -2.575 -12.06 -6.719 -16.219 z"
       opacity="0.05"
       id="path25" />
    <path
       d="m 41.28 8.781 c 3.712 4.085 5.969 9.514 5.969 15.469 c 0 12.703 -10.297 23 -23 23 c -5.954 0 -11.384 -2.256 -15.469 -5.969 c 4.113 3.854 9.637 6.219 15.719 6.219 c 12.703 0 23 -10.298 23 -23 c 0 -6.081 -2.364 -11.606 -6.219 -15.719 z"
       opacity="0.1"
       id="path27" />
    <path
       d="m 31.25 2.375 c 8.615 3.154 14.75 11.417 14.75 21.13 c 0 12.426 -10.07 22.5 -22.5 22.5 c -9.708 0 -17.971 -6.135 -21.12 -14.75 a 23 23 0 0 0 44.875 -7 a 23 23 0 0 0 -16 -21.875 z"
       opacity="0.2"
       id="path29" />
  </g>
  <g
     id="g31">
    <path
       d="m 24 1 c 12.703 0 23 10.297 23 23 c 0 12.703 -10.297 23 -23 23 -12.703 0 -23 -10.297 -23 -23 0 -12.703 10.297 -23 23 -23 z"
       fill-opacity="1"
       fill="url(#linearGradient3764)"
       id="path33" />
  </g>
  <path
     d="m 22.531 29.13 1.344 17.875 c 0.042 0 0.083 0 0.125 0 0.261 0 0.522 -0.023 0.781 -0.031 l -1.281 -17.438 z"
     opacity="0.1"
     fill="#000"
     fill-rule="nonzero"
     stroke="none"
     fill-opacity="1"
     id="path35" />
  <path
     d="M 10.371,32.891 24.481,43.2 39.383,36.348 44.203,20.032 31.246,7.653 l -0.84,1.855 11.941,10.879 -4.293,14.727 -13.641,6.512 -12.535,-9.578 4.289,-12.5 -1.426,-0.707 m -4.371,14.05"
     opacity="0.1"
     fill="#000"
     fill-rule="nonzero"
     stroke="none"
     fill-opacity="1"
     id="path37" />
  <path
     d="m 46.31 18.438 l -17 3.25 l -1 4.563 l 13.563 12.219 c 3.206 -3.953 5.125 -8.983 5.125 -14.469 c 0 -1.919 -0.245 -3.78 -0.688 -5.563 z"
     fill="#6f000b"
     fill-rule="nonzero"
     stroke="none"
     fill-opacity="1"
     id="path39" />
  <path
     d="m 32.06 2.469 -6.438 16.75 -6.813 2.594 -14.438 -9.813 c -0.044 0.073 -0.081 0.146 -0.125 0.219 l 15.563 10.594 6.813 -2.594 6.625 -17.25 c -0.396 -0.174 -0.781 -0.347 -1.188 -0.5 z"
     opacity="0.1"
     fill="#000"
     fill-rule="nonzero"
     stroke="none"
     fill-opacity="1"
     id="path41" />
  <path
     d="m 18.375 26.813 l -14.625 8.094 c 3.866 7.169 11.42 12.05 20.13 12.09 l -1.375 -18.469 l -4.125 -1.719 z"
     fill="#6f000b"
     fill-rule="nonzero"
     stroke="none"
     fill-opacity="1"
     id="path43"
     style="fill:#b3b3b3" />
  <path
     d="M 9.371,31.891 23.481,42.2 38.383,35.348 43.203,19.032 30.246,6.653 29.406,8.508 41.347,19.387 37.054,34.114 23.413,40.626 10.878,31.048 15.167,18.548 13.741,17.841 M 9.37,31.891"
     fill="#e4162f"
     fill-rule="nonzero"
     stroke="none"
     fill-opacity="1"
     id="path45"
     style="fill:#ffffff" />
  <path
     d="m 24 1 c -8.311 0 -15.584 4.394 -19.625 11 l 14.438 9.813 l 6.813 -2.594 l 6.438 -16.75 c -2.511 -0.941 -5.223 -1.469 -8.06 -1.469 z"
     fill="#6f000b"
     fill-rule="nonzero"
     stroke="none"
     fill-opacity="1"
     id="path47" />
  <path
     stroke-miterlimit="4"
     d="m 19.11 22.03 6.52 -2.523 3.862 2.25 -1.219 4.5 -5.712 2.25 -4.075 -1.683 m 0.613 -4.783"
     stroke-opacity="1"
     fill="none"
     stroke="#e4162f"
     stroke-linejoin="miter"
     stroke-linecap="butt"
     stroke-width="0.999"
     id="path49" />
  <g
     id="g51"
     style="fill:#999999">
    <path
       d="m 40.03 7.531 c 3.712 4.084 5.969 9.514 5.969 15.469 0 12.703 -10.297 23 -23 23 c -5.954 0 -11.384 -2.256 -15.469 -5.969 4.178 4.291 10.01 6.969 16.469 6.969 c 12.703 0 23 -10.298 23 -23 0 -6.462 -2.677 -12.291 -6.969 -16.469 z"
       opacity="0.1"
       id="path53"
       style="fill:#999999" />
  </g>
  <path
     d="m 24 1 c -8.311 0 -15.584 4.394 -19.625 11 l 14.438 9.813 6.813 -2.594 6.438 -16.75 c -2.511 -0.941 -5.223 -1.469 -8.06 -1.469 z"
     fill="#6f000b"
     fill-rule="nonzero"
     stroke="none"
     fill-opacity="1"
     id="path55"
     style="fill:#999999" />
  <g
     id="g4236"
     transform="translate(5.6077127,-0.69247835)">
    <g
       transform="matrix(1.8187009,0,0,1.8187009,-20.053245,-20.049239)"
       id="g33" />
    <g
       transform="matrix(1.8187009,0,0,1.8187009,-18.327425,-19.186329)"
       id="g63">
      <g
         id="g65"
         clip-path="url(#clipPath-596082226)">
        <!-- color: #d0d9e4 -->
        <g
           id="g67">
          <path
             style="fill:#121919;fill-opacity:1;fill-rule:nonzero;stroke:none"
             inkscape:connector-curvature="0"
             id="path69"
             d="m 22.48,12.156 c -3.207,0.719 -5.664,3.992 -5.734,7.984 -0.008,0.566 0.023,1.121 0.109,1.656 0,0.004 0.004,0.008 0.004,0.016 -0.523,1.176 -0.848,2.477 -0.871,3.879 -0.086,4.98 3.438,9.08 7.852,9.152 4.414,0.078 8.06,-3.891 8.16,-8.879 0.031,-1.852 -0.418,-3.59 -1.238,-5.04 0.012,-0.188 0.023,-0.355 0.027,-0.543 0.074,-4.566 -3,-8.328 -6.871,-8.398 -0.484,-0.008 -0.961,0.055 -1.418,0.156 m -0.02,0.008" />
          <path
             style="fill:#ececec;fill-opacity:1;fill-rule:nonzero;stroke:none"
             inkscape:connector-curvature="0"
             id="path71"
             d="m 21.04,14.762 c -1.035,0.352 -1.813,1.465 -1.848,2.805 -0.027,1.16 0.496,2.176 1.301,2.691 -1.793,1.297 -3.02,3.602 -3.086,6.262 -0.109,4.164 2.652,7.602 6.164,7.691 3.508,0.086 6.441,-3.207 6.551,-7.371 0.082,-3.082 -1.418,-5.766 -3.617,-6.988 1.242,-0.145 2.195,-0.996 2.188,-2.01 -0.012,-1.109 -1.164,-1.98 -2.57,-1.965 -0.832,0.008 -1.563,0.32 -2.02,0.813 -0.316,-1.168 -1.215,-2.031 -2.316,-2.059 -0.266,-0.012 -0.508,0.031 -0.75,0.121 m 2.945,4.148 c 0.07,0.09 0.148,0.164 0.23,0.246 -0.09,-0.008 -0.172,-0.016 -0.258,-0.02 -0.023,0 -0.055,-0.004 -0.086,-0.008 0.039,-0.074 0.082,-0.141 0.113,-0.219 m 0,0" />
          <path
             style="fill:#2e3436;fill-opacity:1;fill-rule:nonzero;stroke:none"
             inkscape:connector-curvature="0"
             id="path73"
             d="m 23.742,18.03 c 0.047,0.516 -0.207,0.961 -0.566,0.992 -0.363,0.031 -0.691,-0.363 -0.738,-0.883 -0.043,-0.523 0.211,-0.965 0.57,-0.996 0.359,-0.027 0.691,0.367 0.734,0.887 m 0,0" />
          <path
             style="fill:#2e3436;fill-opacity:1;fill-rule:nonzero;stroke:none"
             inkscape:connector-curvature="0"
             id="path75"
             d="m 25.496,18 c 0.047,0.352 -0.043,0.695 -0.234,0.895 -0.191,0.199 -0.453,0.223 -0.676,0.059 -0.223,-0.164 -0.375,-0.484 -0.391,-0.836 -0.047,-0.348 0.043,-0.691 0.234,-0.891 0.191,-0.199 0.453,-0.223 0.676,-0.063 0.227,0.164 0.375,0.488 0.391,0.836 m 0,0" />
          <path
             style="fill:#ffb30a;fill-opacity:1;fill-rule:nonzero;stroke:none"
             inkscape:connector-curvature="0"
             id="path77"
             d="m 21.355,20.09 c 0,0 1.559,-0.871 2.668,-0.762 1.105,0.105 2.063,0.941 2.063,0.941 0,0 -0.906,2.902 -2.594,2.656 -1.688,-0.25 -2.141,-2.836 -2.141,-2.836 m 0.004,0" />
          <path
             style="fill:#121919;fill-opacity:1;fill-rule:nonzero;stroke:none"
             inkscape:connector-curvature="0"
             id="path79"
             d="m 17.08,22.04 c 0,0 0.664,1.574 1.539,2.867 0.875,1.297 1.895,3.48 0.328,2.68 -1.559,-0.797 -2.645,-2.043 -2.426,-3.48 0.227,-1.438 0.566,-2.07 0.566,-2.07 m -0.008,0.004" />
          <path
             style="fill:#121919;fill-opacity:1;fill-rule:nonzero;stroke:none"
             inkscape:connector-curvature="0"
             id="path81"
             d="m 30.17,20.586 c 0,0 -0.871,2.051 -2.023,3.734 -1.145,1.688 -2.473,4.527 -0.438,3.492 2.031,-1.031 3.465,-2.652 3.172,-4.523 -0.293,-1.875 -0.727,-2.703 -0.727,-2.703 m 0.004,0" />
          <path
             style="fill:#ffb30a;fill-opacity:1;fill-rule:nonzero;stroke:none"
             inkscape:connector-curvature="0"
             id="path83"
             d="m 17.941,33.3 c -0.465,1.109 0.262,2.277 1.621,2.609 1.359,0.328 2.84,-0.301 3.305,-1.414 0.465,-1.109 -0.262,-2.277 -1.621,-2.609 -1.359,-0.328 -2.84,0.305 -3.305,1.414 m 0,0" />
          <path
             style="fill:#ffb30a;fill-opacity:1;fill-rule:nonzero;stroke:none"
             inkscape:connector-curvature="0"
             id="path85"
             d="m 29.988,33.31 c 0.445,1 -0.25,2.059 -1.559,2.359 -1.305,0.297 -2.727,-0.273 -3.172,-1.277 -0.445,-1 0.254,-2.063 1.559,-2.359 1.305,-0.301 2.727,0.273 3.172,1.277 m 0,0" />
        </g>
      </g>
    </g>
  </g>
</svg>
