<?xml version="1.0" encoding="UTF-8" standalone="no"?>
<!-- Created with Inkscape (http://www.inkscape.org/) -->

<svg
   xmlns:dc="http://purl.org/dc/elements/1.1/"
   xmlns:cc="http://creativecommons.org/ns#"
   xmlns:rdf="http://www.w3.org/1999/02/22-rdf-syntax-ns#"
   xmlns:svg="http://www.w3.org/2000/svg"
   xmlns="http://www.w3.org/2000/svg"
   xmlns:xlink="http://www.w3.org/1999/xlink"
   xmlns:sodipodi="http://sodipodi.sourceforge.net/DTD/sodipodi-0.dtd"
   xmlns:inkscape="http://www.inkscape.org/namespaces/inkscape"
   width="48"
   height="48"
   id="svg5453"
   version="1.1"
   inkscape:version="0.48.4 r9939"
   sodipodi:docname="softwarecenter.svg">
  <defs
     id="defs5455">
    <linearGradient
       inkscape:collect="always"
       id="linearGradient4438">
      <stop
         style="stop-color:#000000;stop-opacity:0"
         offset="0"
         id="stop4440" />
      <stop
         style="stop-color:#000000;stop-opacity:1"
         offset="1"
         id="stop4442" />
    </linearGradient>
    <linearGradient
       inkscape:collect="always"
       xlink:href="#linearGradient4143"
       id="linearGradient4158"
       x1="409.57144"
       y1="543.79797"
       x2="409.57144"
       y2="513.79797"
       gradientUnits="userSpaceOnUse"
       gradientTransform="matrix(1.2372499,0,0,1.0919195,-96.916944,-48.121382)" />
    <linearGradient
       id="linearGradient4143">
      <stop
         style="stop-color:#786eb1;stop-opacity:1;"
         offset="0"
         id="stop4145" />
      <stop
         style="stop-color:#729ed4;stop-opacity:1;"
         offset="1"
         id="stop4147" />
    </linearGradient>
    <linearGradient
       inkscape:collect="always"
       xlink:href="#linearGradient4143"
       id="linearGradient4205"
       x1="24"
       y1="43.999973"
       x2="24"
       y2="11"
       gradientUnits="userSpaceOnUse"
       gradientTransform="matrix(1.0997763,0,0,1.0919195,382.19333,497.61782)" />
    <linearGradient
       inkscape:collect="always"
       id="linearGradient4159-7">
      <stop
         style="stop-color:#1d1e1e;stop-opacity:1"
         offset="0"
         id="stop4161-4" />
      <stop
         style="stop-color:#44484c;stop-opacity:1"
         offset="1"
         id="stop4163-9" />
    </linearGradient>
    <linearGradient
       inkscape:collect="always"
       xlink:href="#linearGradient4159-7"
       id="linearGradient4302"
       x1="25"
       y1="10"
       x2="25"
       y2="14"
       gradientUnits="userSpaceOnUse"
       gradientTransform="matrix(1.0997763,0,0,1.0919195,382.19333,497.61782)" />
    <linearGradient
       inkscape:collect="always"
       xlink:href="#linearGradient4143"
       id="linearGradient4174"
       gradientUnits="userSpaceOnUse"
       x1="24"
       y1="14"
       x2="24"
       y2="10"
       gradientTransform="matrix(1.0997763,0,0,1.0919195,382.19333,497.61782)" />
    <linearGradient
       inkscape:collect="always"
       xlink:href="#linearGradient4143"
       id="linearGradient4187"
       x1="408.57144"
       y1="516.79797"
       x2="408.57144"
       y2="503.798"
       gradientUnits="userSpaceOnUse"
       gradientTransform="matrix(1.0997763,0,0,1.0919195,-40.749207,-48.121382)" />
    <linearGradient
       inkscape:collect="always"
       id="linearGradient4303">
      <stop
         style="stop-color:#c6cdd1;stop-opacity:1"
         offset="0"
         id="stop4305" />
      <stop
         style="stop-color:#e0e5e7;stop-opacity:1"
         offset="1"
         id="stop4307" />
    </linearGradient>
    <linearGradient
       inkscape:collect="always"
       xlink:href="#linearGradient4303"
       id="linearGradient4282"
       x1="32"
       y1="17.999973"
       x2="32"
       y2="15"
       gradientUnits="userSpaceOnUse"
       gradientTransform="matrix(1.0997763,0,0,1.0919195,382.19333,497.61782)" />
    <linearGradient
       inkscape:collect="always"
       xlink:href="#linearGradient4303"
       id="linearGradient4290"
       x1="400.57144"
       y1="517.79797"
       x2="400.57144"
       y2="514.79797"
       gradientUnits="userSpaceOnUse"
       gradientTransform="matrix(1.0997763,0,0,1.0919195,-40.749207,-48.121382)" />
    <linearGradient
       inkscape:collect="always"
       xlink:href="#linearGradient4438"
       id="linearGradient4444"
       x1="10.99999"
       y1="1049.3622"
       x2="10.99999"
       y2="1033.3622"
       gradientUnits="userSpaceOnUse"
       gradientTransform="translate(0,-2.00004)" />
  </defs>
  <sodipodi:namedview
     id="base"
     pagecolor="#ffffff"
     bordercolor="#666666"
     borderopacity="1.0"
     inkscape:pageopacity="0"
     inkscape:pageshadow="2"
     inkscape:zoom="7.9999996"
     inkscape:cx="-12.896594"
     inkscape:cy="24.182678"
     inkscape:document-units="px"
     inkscape:current-layer="layer1"
     showgrid="true"
     fit-margin-top="0"
     fit-margin-left="0"
     fit-margin-right="0"
     fit-margin-bottom="0"
     inkscape:window-width="1871"
     inkscape:window-height="1056"
     inkscape:window-x="49"
     inkscape:window-y="24"
     inkscape:window-maximized="1"
     inkscape:showpageshadow="false"
     borderlayer="true"
     showguides="true">
    <inkscape:grid
       type="xygrid"
       id="grid4063" />
    <sodipodi:guide
       position="1.1650391e-05,47.999996"
       orientation="4,0"
       id="guide4146" />
    <sodipodi:guide
       position="1.1650391e-05,43.999996"
       orientation="0,48"
       id="guide4148" />
    <sodipodi:guide
       position="48.000012,43.999996"
       orientation="-4,0"
       id="guide4150" />
    <sodipodi:guide
       position="48.000012,47.999996"
       orientation="0,-48"
       id="guide4152" />
    <sodipodi:guide
       position="1.1650391e-05,4.0000264"
       orientation="4,0"
       id="guide4154" />
    <sodipodi:guide
       position="1.1650391e-05,2.6367188e-05"
       orientation="0,48"
       id="guide4156" />
    <sodipodi:guide
       position="48.000012,2.6367188e-05"
       orientation="-4,0"
       id="guide4158" />
    <sodipodi:guide
       position="48.000012,4.0000264"
       orientation="0,-48"
       id="guide4160" />
    <sodipodi:guide
       position="48.000012,48.000026"
       orientation="0,-4"
       id="guide4162" />
    <sodipodi:guide
       position="44.000012,48.000026"
       orientation="48,0"
       id="guide4164" />
    <sodipodi:guide
       position="44.000012,2.6367188e-05"
       orientation="0,4"
       id="guide4166" />
    <sodipodi:guide
       position="48.000012,2.6367188e-05"
       orientation="-48,0"
       id="guide4168" />
    <sodipodi:guide
       position="4.0000422,48.000026"
       orientation="0,-4"
       id="guide4170" />
    <sodipodi:guide
       position="4.2167969e-05,48.000026"
       orientation="48,0"
       id="guide4172" />
    <sodipodi:guide
       position="4.2167969e-05,2.6367188e-05"
       orientation="0,4"
       id="guide4174" />
    <sodipodi:guide
       position="4.0000422,2.6367188e-05"
       orientation="-48,0"
       id="guide4176" />
    <sodipodi:guide
       position="8.0000117,30.000026"
       orientation="0,14"
       id="guide4890" />
    <sodipodi:guide
       position="24,29"
       orientation="-13.999969,0"
       id="guide4892" />
    <sodipodi:guide
       position="22.000012,43.999996"
       orientation="0,-14"
       id="guide4894" />
    <sodipodi:guide
       position="16.000012,25.000271"
       orientation="16,0"
       id="guide4499" />
    <sodipodi:guide
       position="16.000012,9.0002705"
       orientation="0,16"
       id="guide4501" />
    <sodipodi:guide
       position="32.000012,9.0002705"
       orientation="-16,0"
       id="guide4503" />
    <sodipodi:guide
       position="32.000012,25.000271"
       orientation="0,-16"
       id="guide4505" />
  </sodipodi:namedview>
  <metadata
     id="metadata5458">
    <rdf:RDF>
      <cc:Work
         rdf:about="">
        <dc:format>image/svg+xml</dc:format>
        <dc:type
           rdf:resource="http://purl.org/dc/dcmitype/StillImage" />
        <dc:title />
      </cc:Work>
    </rdf:RDF>
  </metadata>
  <g
     inkscape:label="Capa 1"
     inkscape:groupmode="layer"
     id="layer1"
     transform="translate(-384.57143,-499.798)">
    <path
       style="fill:url(#linearGradient4205);fill-opacity:1;fill-rule:evenodd;stroke:none"
       d="m 392.09132,509.62894 0,2.18383 1.09977,-1.09191 -1.09977,-1.09192 z m 32.99328,0 -1.09977,1.09192 1.09977,1.09191 0,-2.18383 z"
       id="path4194"
       inkscape:connector-curvature="0" />
    <rect
       style="fill:url(#linearGradient4158);fill-opacity:1;stroke:none"
       id="rect4139"
       width="39.591942"
       height="32.757557"
       x="388.79199"
       y="512.90466"
       ry="0" />
    <rect
       style="fill:#3c3a75;fill-opacity:1;stroke:none"
       id="rect4171"
       width="39.591934"
       height="1.0918907"
       x="388.79199"
       y="544.57031" />
    <path
       id="path4172"
       d="m 393.19109,508.53702 -1.09977,1.09192 1.09977,1.09192 -4.3991,2.18383 19.79597,0 19.79597,0 -4.3991,-2.18383 1.09977,-1.09192 -1.09977,-1.09192 -15.39687,0 -15.39687,0 z"
       style="fill:url(#linearGradient4174);fill-opacity:1;fill-rule:evenodd;stroke:none"
       inkscape:connector-curvature="0" />
    <path
       style="opacity:0.6;fill:url(#linearGradient4302);fill-opacity:1;fill-rule:evenodd;stroke:none"
       d="m 393.19109,508.53702 -1.09977,1.09192 1.09977,1.09192 -4.3991,2.18383 19.79597,0 19.79597,0 -4.3991,-2.18383 1.09977,-1.09192 -1.09977,-1.09192 -15.39687,0 -15.39687,0 z"
       id="path4183"
       inkscape:connector-curvature="0" />
    <path
       style="opacity:0.2;fill:#000000;fill-opacity:1;stroke:none"
       d="m 393.19109,508.53702 -1.09977,1.09192 32.99328,0 -1.09977,-1.09192 -15.39687,0 -15.39687,0 z"
       id="rect4176"
       inkscape:connector-curvature="0" />
    <path
       style="fill:url(#linearGradient4187);fill-opacity:1;stroke:none"
       d="m 399.78975,516.18045 0,-5.45959 c 0,-4.83939 3.924,-8.73536 8.79821,-8.73536 4.87421,0 8.79821,3.89597 8.79821,8.73536 l 0,5.45959 -1.09978,0 0,-5.45959 c 0,-4.23447 -3.43349,-7.64344 -7.69843,-7.64344 -4.26494,0 -7.69843,3.40897 -7.69843,7.64344 l 0,5.45959 z"
       id="rect4304"
       inkscape:connector-curvature="0"
       sodipodi:nodetypes="csssccssscc" />
    <path
       style="fill:url(#linearGradient4290);fill-opacity:1;stroke:none"
       d="m 400.33964,513.99661 a 1.6496646,1.6378795 0 0 1 1.64966,1.63789 1.6496646,1.6378795 0 0 1 -1.64966,1.63787 1.6496646,1.6378795 0 0 1 -1.64967,-1.63787 1.6496646,1.6378795 0 0 1 1.64967,-1.63789 z m 0,1.09192 a 0.5498884,0.54596003 0 0 0 -0.54989,0.54597 0.5498884,0.54596003 0 0 0 0.54989,0.54595 0.5498884,0.54596003 0 0 0 0.54989,-0.54595 0.5498884,0.54596003 0 0 0 -0.54989,-0.54597 z"
       id="path4189"
       inkscape:connector-curvature="0" />
    <path
       style="fill:url(#linearGradient4282);fill-opacity:1;stroke:none"
       d="m 416.83628,513.99661 a 1.6496646,1.6378795 0 0 0 -1.64966,1.63789 1.6496646,1.6378795 0 0 0 1.64966,1.63787 1.6496646,1.6378795 0 0 0 1.64966,-1.63787 1.6496646,1.6378795 0 0 0 -1.64966,-1.63789 z m 0,1.09192 a 0.5498884,0.54596003 0 0 1 0.54989,0.54597 0.5498884,0.54596003 0 0 1 -0.54989,0.54595 0.5498884,0.54596003 0 0 1 -0.54989,-0.54595 0.5498884,0.54596003 0 0 1 0.54989,-0.54597 z"
       id="circle4191"
       inkscape:connector-curvature="0" />
    <path
       inkscape:connector-curvature="0"
       id="path4390-8"
       d="m 408.43187,518.2736 c -6.59418,0 -11.93986,5.46616 -11.93986,12.20988 0,6.74168 5.34568,12.20834 11.93986,12.20834 6.59432,0 11.93986,-5.46666 11.93986,-12.20834 0,-6.74372 -5.34554,-12.20988 -11.93986,-12.20988 z m 4.25591,3.40345 c 0.20544,0.0285 0.40876,0.0971 0.59932,0.20499 0.76247,0.45074 1.02554,1.44736 0.58534,2.22719 -0.43996,0.77945 -1.41572,1.04695 -2.1781,0.59609 -0.76223,-0.4505 -1.02305,-1.44775 -0.58299,-2.22708 0.33014,-0.58417 0.96011,-0.87937 1.57643,-0.80119 z m -4.25591,1.72338 c 0.64107,0 1.26027,0.0957 1.84927,0.25754 0.10425,0.65522 0.48538,1.25997 1.09139,1.6174 0.60509,0.35693 1.3039,0.39162 1.90991,0.15751 1.17885,1.18465 1.94735,2.79985 2.05916,4.59418 l -2.27137,0.0349 c -0.20907,-2.43117 -2.20567,-4.3386 -4.63836,-4.3386 -0.70098,0 -1.36501,0.15867 -1.96123,0.44286 l -1.1077,-2.02894 c 0.92514,-0.46874 1.96658,-0.73508 3.06893,-0.73508 z m -3.84081,1.18983 1.16366,1.99608 c -1.19707,0.86203 -1.97987,2.28595 -1.97987,3.89714 0,1.61004 0.7828,3.03372 1.97987,3.89561 l -1.16366,1.99608 c -1.39505,-0.95288 -2.43276,-2.41189 -2.8637,-4.11833 0.50354,-0.41981 0.82319,-1.05757 0.82319,-1.77336 0,-0.71759 -0.31965,-1.35508 -0.82319,-1.77489 0.431,-1.70645 1.46872,-3.1639 2.8637,-4.11833 z m -4.27923,4.26224 c 0.88025,0 1.59509,0.7299 1.59509,1.63098 0,0.89982 -0.71484,1.631 -1.59509,1.631 -0.88057,0 -1.59275,-0.73118 -1.59275,-1.631 0,-0.90135 0.71218,-1.63098 1.59275,-1.63098 z m 12.7584,2.05198 2.27137,0.0349 c -0.11169,1.79599 -0.87813,3.40693 -2.05682,4.59314 -0.60608,-0.23411 -1.30724,-0.19826 -1.91225,0.15878 -0.60608,0.35886 -0.98716,0.96192 -1.09139,1.61715 -0.58908,0.16811 -1.2082,0.25754 -1.84927,0.25754 -1.10235,0 -2.14371,-0.26646 -3.06893,-0.73508 l 1.1077,-2.02829 c 0.59629,0.28342 1.26025,0.44362 1.96123,0.44362 2.43269,0 4.42929,-1.90859 4.63836,-4.34078 z m -0.77656,5.15064 c 0.61631,-0.0828 1.24872,0.21741 1.57877,0.80108 0.4402,0.77971 0.17923,1.778 -0.583,2.2272 -0.76246,0.45061 -1.73789,0.18376 -2.17809,-0.5962 -0.44014,-0.77791 -0.17948,-1.77648 0.58299,-2.22709 0.19057,-0.11647 0.39389,-0.17897 0.59933,-0.20499 z"
       style="fill:#343434;fill-opacity:1;fill-rule:nonzero;stroke:none" />
    <path
       inkscape:connector-curvature="0"
       id="path4390"
       d="m 408.1667,518.2736 c -6.59418,0 -11.93986,5.30756 -11.93986,11.85563 0,6.54604 5.34568,11.85411 11.93986,11.85411 6.59432,0 11.93986,-5.30807 11.93986,-11.85411 0,-6.54807 -5.34554,-11.85563 -11.93986,-11.85563 z m 4.25591,3.30469 c 0.20544,0.0276 0.40876,0.0942 0.59932,0.19904 0.76247,0.43768 1.02554,1.40536 0.58534,2.16259 -0.43996,0.75684 -1.41572,1.01658 -2.1781,0.57878 -0.76223,-0.43742 -1.02305,-1.40575 -0.58299,-2.16245 0.33014,-0.56723 0.96011,-0.85386 1.57643,-0.77796 z m -4.25591,1.67338 c 0.64107,0 1.26027,0.0931 1.84927,0.25007 0.10425,0.63621 0.48538,1.22341 1.09139,1.57049 0.60509,0.34656 1.3039,0.38024 1.90991,0.15292 1.17885,1.15027 1.94735,2.71862 2.05916,4.46087 l -2.27137,0.0339 c -0.20907,-2.36062 -2.20567,-4.21269 -4.63836,-4.21269 -0.70098,0 -1.36501,0.15406 -1.96123,0.42999 l -1.1077,-1.97007 c 0.92514,-0.45512 1.96658,-0.71373 3.06893,-0.71373 z m -3.84081,1.15532 1.16366,1.93815 c -1.19707,0.83701 -1.97987,2.21964 -1.97987,3.78409 0,1.56331 0.7828,2.94568 1.97987,3.78257 l -1.16366,1.93815 c -1.39505,-0.92522 -2.43276,-2.34189 -2.8637,-3.99882 0.50354,-0.40765 0.82319,-1.02689 0.82319,-1.7219 0,-0.69678 -0.31965,-1.31578 -0.82319,-1.72342 0.431,-1.65693 1.46872,-3.07209 2.8637,-3.99882 z m -4.27923,4.13856 c 0.88025,0 1.59509,0.70871 1.59509,1.58368 0,0.87369 -0.71484,1.58367 -1.59509,1.58367 -0.88057,0 -1.59275,-0.70998 -1.59275,-1.58367 0,-0.87522 0.71218,-1.58368 1.59275,-1.58368 z m 12.7584,1.99244 2.27137,0.034 c -0.11169,1.74388 -0.87813,3.30807 -2.05682,4.45987 -0.60608,-0.22732 -1.30724,-0.19251 -1.91225,0.15418 -0.60608,0.34845 -0.98716,0.93401 -1.09139,1.57022 -0.58908,0.16323 -1.2082,0.25006 -1.84927,0.25006 -1.10235,0 -2.14371,-0.25872 -3.06893,-0.71374 l 1.1077,-1.96944 c 0.59629,0.27519 1.26025,0.43076 1.96123,0.43076 2.43269,0 4.42929,-1.85321 4.63836,-4.21483 z m -0.77656,5.0012 c 0.61631,-0.0803 1.24872,0.21112 1.57877,0.77783 0.4402,0.75709 0.17923,1.72643 -0.583,2.16259 -0.76246,0.43754 -1.73789,0.17843 -2.17809,-0.57891 -0.44014,-0.75533 -0.17948,-1.72492 0.58299,-2.16246 0.19057,-0.11309 0.39389,-0.17379 0.59933,-0.19905 z"
       style="fill:#ffffff;fill-opacity:1;fill-rule:nonzero;stroke:none" />
  </g>
</svg>
