<?xml version="1.0" encoding="UTF-8" standalone="no"?>
<!-- Created with Inkscape (http://www.inkscape.org/) -->

<svg
   xmlns:dc="http://purl.org/dc/elements/1.1/"
   xmlns:cc="http://creativecommons.org/ns#"
   xmlns:rdf="http://www.w3.org/1999/02/22-rdf-syntax-ns#"
   xmlns:svg="http://www.w3.org/2000/svg"
   xmlns="http://www.w3.org/2000/svg"
   xmlns:xlink="http://www.w3.org/1999/xlink"
   xmlns:sodipodi="http://sodipodi.sourceforge.net/DTD/sodipodi-0.dtd"
   xmlns:inkscape="http://www.inkscape.org/namespaces/inkscape"
   width="48"
   height="48"
   id="svg2"
   version="1.1"
   inkscape:version="0.48.4 r9939"
   sodipodi:docname="spotify.svg"
   inkscape:export-filename="/home/uri/workspace/Nitrux/res/drawable-xhdpi/spotify.png"
   inkscape:export-xdpi="180"
   inkscape:export-ydpi="180">
  <defs
     id="defs4">
    <linearGradient
       inkscape:collect="always"
       id="linearGradient868">
      <stop
         style="stop-color:#5da821;stop-opacity:1"
         offset="0"
         id="stop870" />
      <stop
         style="stop-color:#b0d75d;stop-opacity:1"
         offset="1"
         id="stop872" />
    </linearGradient>
    <linearGradient
       inkscape:collect="always"
       xlink:href="#linearGradient868"
       id="linearGradient874"
       x1="-71.808121"
       y1="-1028.1184"
       x2="-23.808121"
       y2="-1028.1184"
       gradientUnits="userSpaceOnUse"
       gradientTransform="matrix(0.83333406,0,0,0.83333406,63.840136,-170.76274)" />
  </defs>
  <sodipodi:namedview
     id="base"
     pagecolor="#ffffff"
     bordercolor="#666666"
     borderopacity="1.0"
     inkscape:pageopacity="0.0"
     inkscape:pageshadow="2"
     inkscape:zoom="4.015973"
     inkscape:cx="24.095421"
     inkscape:cy="11.202532"
     inkscape:document-units="px"
     inkscape:current-layer="layer1"
     showgrid="true"
     inkscape:window-width="1113"
     inkscape:window-height="692"
     inkscape:window-x="447"
     inkscape:window-y="146"
     inkscape:window-maximized="0">
    <inkscape:grid
       type="xygrid"
       id="grid3850"
       empspacing="5"
       visible="true"
       enabled="true"
       snapvisiblegridlinesonly="true" />
  </sodipodi:namedview>
  <metadata
     id="metadata7">
    <rdf:RDF>
      <cc:Work
         rdf:about="">
        <dc:format>image/svg+xml</dc:format>
        <dc:type
           rdf:resource="http://purl.org/dc/dcmitype/StillImage" />
        <dc:title />
      </cc:Work>
    </rdf:RDF>
  </metadata>
  <g
     inkscape:label="Capa 1"
     inkscape:groupmode="layer"
     id="layer1"
     transform="translate(0,-1004.3622)">
    <path
       style="fill:#ffffff;fill-opacity:1"
       d="m 22.604599,1018.4752 0,0 c -1.47355,-0.019 -3.149554,0.037 -4.394897,0.161 -2.450185,0.2411 -5.224936,0.8339 -5.819661,1.2429 -0.541243,0.3726 -0.859737,1.0974 -0.747759,1.7031 0.157057,0.8497 0.811997,1.4509 1.624166,1.5003 0.306367,0.017 0.439926,-0.01 1.117619,-0.1882 5.067116,-1.3638 12.003275,-1.1471 17.272444,0.5404 1.304505,0.4177 2.924592,1.1223 3.869051,1.6836 0.513033,0.3058 0.980086,0.393 1.447277,0.267 0.523827,-0.14 0.949256,-0.4876 1.18516,-0.9681 0.11576,-0.2364 0.128646,-0.3063 0.128646,-0.7365 0,-0.4201 -0.01418,-0.5045 -0.120608,-0.7316 -0.258782,-0.5519 -0.656678,-0.8384 -2.225587,-1.6001 -3.295017,-1.5997 -7.380252,-2.567 -11.952898,-2.8288 -0.422417,-0.026 -0.891775,-0.048 -1.382953,-0.048 z m -0.828163,6.4485 c -0.447772,-0.01 -0.893324,0 -1.337928,0.013 l 0,0 c -2.134104,0.071 -4.219553,0.3806 -6.13163,0.9325 -0.629709,0.1819 -0.918655,0.3534 -1.140132,0.6772 -0.43887,0.6409 -0.350709,1.4014 0.223524,1.9264 0.479815,0.439 0.871511,0.479 1.899148,0.1945 2.907724,-0.8039 6.409722,-0.9915 9.801279,-0.5258 2.898782,0.3983 5.941331,1.4058 8.050075,2.6647 0.232945,0.139 0.509495,0.2837 0.612682,0.3216 0.26158,0.097 0.801579,0.07 1.082241,-0.056 0.30393,-0.1351 0.636698,-0.4937 0.757407,-0.8136 0.195093,-0.517 0.05839,-1.1754 -0.323225,-1.5569 -0.459478,-0.4593 -2.648228,-1.5521 -4.320924,-2.1578 -2.852083,-1.0328 -6.038127,-1.577 -9.172517,-1.6179 z m -0.22835,6.1108 c -1.336209,0.01 -2.721045,0.1158 -4.153683,0.3231 -1.028641,0.149 -2.774802,0.4953 -3.008729,0.6014 -0.76944,0.3418 -0.946651,1.3078 -0.352169,1.9186 0.171635,0.1763 0.55438,0.3507 0.770271,0.3507 0.06752,0 0.509477,-0.082 0.98254,-0.1788 3.122049,-0.6471 5.985811,-0.8037 8.693311,-0.4743 2.386476,0.2901 4.708279,1.0548 6.721794,2.2127 0.689589,0.3949 0.887293,0.4482 1.289685,0.3361 0.612686,-0.1702 0.997049,-0.8492 0.821731,-1.452 -0.113522,-0.3904 -0.331863,-0.5963 -1.079025,-1.0212 -3.10746,-1.7661 -6.677086,-2.6402 -10.685726,-2.6163 z"
       id="path4739"
       inkscape:connector-curvature="0" />
    <path
       inkscape:connector-curvature="0"
       id="path2994"
       d="m 22.614168,1049.141 c -4.077512,-0.3919 -7.948926,-1.9564 -11.104545,-4.4877 -3.3554088,-2.6914 -6.0819548,-7.1791 -7.0069978,-11.5332 -0.344804,-1.6229 -0.444052,-2.5981 -0.444052,-4.3634 0,-2.4476 0.303818,-4.3249 1.066447,-6.5896 2.486588,-7.3842 8.9794558,-12.6671 16.8658048,-13.7228 1.089036,-0.1458 3.89772,-0.1458 4.986757,0 4.63312,0.6202 8.729888,2.625 11.964962,5.8553 3.142,3.1373 5.13279,7.0987 5.810847,11.563 0.222445,1.4646 0.221579,4.3015 -0.0018,5.7882 -0.668557,4.4502 -2.671889,8.4531 -5.796155,11.5814 -0.888922,0.8901 -2.608244,2.294 -3.567514,2.9131 -0.791622,0.5108 -2.376456,1.3043 -3.495887,1.7503 -2.59621,1.0343 -6.300466,1.5316 -9.277894,1.2454 z"
       style="fill:#51b328;stroke:#177617;stroke-opacity:1" />
    <path
       inkscape:connector-curvature="0"
       id="path2990"
       d="m 29.313249,1046.4603 c -0.417146,-0.6018 -1.933116,-1.9683 -2.685481,-2.4206 -1.500241,-0.9017 -3.036407,-1.3602 -4.87871,-1.456 -2.172944,-0.1129 -4.160378,0.4712 -6.168951,1.8133 l -0.736948,0.4924 -0.776888,-0.473 c -1.238669,-0.7544 -2.474019,-1.7318 -3.653137,-2.8904 -0.7666254,-0.7533 -1.0791148,-1.1183 -1.0414288,-1.2165 0.073276,-0.191 1.0148118,-0.9355 2.0063688,-1.5866 0.994009,-0.6527 2.872121,-1.583 3.957161,-1.9601 2.971329,-1.0328 6.598051,-1.2798 9.66412,-0.6582 4.231166,0.8579 8.012354,3.1975 10.765984,6.6614 0.347774,0.4375 0.632317,0.8697 0.632317,0.9603 0,0.3134 -2.2034,1.5797 -3.96269,2.2773 -1.072991,0.4255 -2.34824,0.8202 -2.649981,0.8202 -0.156767,0 -0.292199,-0.1043 -0.471736,-0.3635 z m 2.805903,-12.3587 c -2.089246,-1.0432 -4.094887,-1.6568 -6.630026,-2.0285 -0.804647,-0.118 -1.640463,-0.1568 -3.383868,-0.1571 -2.459026,0 -3.716737,0.107 -6.148686,0.5255 -0.876122,0.1509 -1.345957,0.1941 -1.531274,0.1409 -1.107119,-0.3175 -1.347086,-1.4349 -0.467166,-2.1752 0.547062,-0.4604 2.362811,-0.8442 5.119451,-1.0822 5.178616,-0.4471 10.082552,0.3709 13.796741,2.3014 2.101584,1.0923 2.68203,2.2683 1.475199,2.989 -0.17142,0.1023 -0.431888,0.1842 -0.578819,0.1818 -0.147941,0 -0.884901,-0.3127 -1.651552,-0.6956 z m 3.031815,-5.2335 c -2.8754,-1.5579 -5.689764,-2.4175 -9.483742,-2.897 -1.143022,-0.1444 -5.366194,-0.1449 -6.723216,0 -1.559123,0.1656 -3.161685,0.3672 -4.056862,0.5104 -1.095186,0.1751 -1.581386,0.1637 -1.994534,-0.047 -0.681922,-0.3479 -0.946893,-1.0306 -0.675655,-1.7408 0.33856,-0.8865 1.401736,-1.3155 4.278197,-1.7261 5.460667,-0.7795 10.433984,-0.4967 14.889188,0.8468 2.013435,0.6072 4.132158,1.5811 5.285798,2.4297 1.347913,0.9916 1.531986,2.0974 0.462086,2.7759 -0.619511,0.3928 -1.035973,0.3612 -1.98126,-0.1509 z m 2.835402,-6.0441 c -3.728754,-2.0165 -7.155585,-3.0508 -12.007472,-3.6239 -1.298006,-0.1534 -5.480191,-0.1235 -7.212984,0.051 -1.704514,0.1721 -3.574344,0.4337 -4.879968,0.6826 -1.577825,0.3009 -2.152853,0.1945 -2.794034,-0.5166 -0.799862,-0.8872 -0.395181,-2.1244 0.910443,-2.7834 0.844887,-0.4266 2.53249,-0.7778 5.427819,-1.1298 1.892572,-0.2301 7.675414,-0.2275 9.57279,0 4.90686,0.5994 9.434387,2.0142 12.136055,3.7924 1.564381,1.0297 2.116954,2.0457 1.60653,2.9538 -0.300485,0.5346 -1.076165,0.9709 -1.72614,0.9709 -0.175021,0 -0.585232,-0.1594 -1.033039,-0.4017 z"
       style="fill:#225500" />
  </g>
</svg>
