<?xml version="1.0" encoding="UTF-8" standalone="no"?>
<svg
   xmlns:dc="http://purl.org/dc/elements/1.1/"
   xmlns:cc="http://creativecommons.org/ns#"
   xmlns:rdf="http://www.w3.org/1999/02/22-rdf-syntax-ns#"
   xmlns:svg="http://www.w3.org/2000/svg"
   xmlns="http://www.w3.org/2000/svg"
   xmlns:xlink="http://www.w3.org/1999/xlink"
   xmlns:sodipodi="http://sodipodi.sourceforge.net/DTD/sodipodi-0.dtd"
   xmlns:inkscape="http://www.inkscape.org/namespaces/inkscape"
   viewBox="0 0 48 48"
   id="svg2"
   version="1.1"
   inkscape:version="0.48.4 r9939"
   width="100%"
   height="100%"
   sodipodi:docname="tuxpuck.svg">
  <metadata
     id="metadata93">
    <rdf:RDF>
      <cc:Work
         rdf:about="">
        <dc:format>image/svg+xml</dc:format>
        <dc:type
           rdf:resource="http://purl.org/dc/dcmitype/StillImage" />
        <dc:title></dc:title>
      </cc:Work>
    </rdf:RDF>
  </metadata>
  <sodipodi:namedview
     pagecolor="#ffffff"
     bordercolor="#666666"
     borderopacity="1"
     objecttolerance="10"
     gridtolerance="10"
     guidetolerance="10"
     inkscape:pageopacity="0"
     inkscape:pageshadow="2"
     inkscape:window-width="1871"
     inkscape:window-height="1056"
     id="namedview91"
     showgrid="false"
     inkscape:zoom="3.1979167"
     inkscape:cx="-17.100075"
     inkscape:cy="6.7224394"
     inkscape:window-x="49"
     inkscape:window-y="24"
     inkscape:window-maximized="1"
     inkscape:current-layer="svg2" />
  <defs
     id="defs4">
    <linearGradient
       id="linearGradient3764"
       x1="1"
       x2="47"
       gradientUnits="userSpaceOnUse"
       gradientTransform="matrix(0,-1,1,0,-1.5e-6,47.999998)">
      <stop
         stop-color="#c3cfdd"
         stop-opacity="1"
         id="stop7" />
      <stop
         offset="1"
         stop-color="#d0d9e4"
         stop-opacity="1"
         id="stop9" />
    </linearGradient>
    <clipPath
       id="clipPath-588033436">
      <g
         transform="translate(0,-1004.3622)"
         id="g12">
        <path
           d="m -24 13 c 0 1.105 -0.672 2 -1.5 2 -0.828 0 -1.5 -0.895 -1.5 -2 0 -1.105 0.672 -2 1.5 -2 0.828 0 1.5 0.895 1.5 2 z"
           transform="matrix(15.333333,0,0,11.5,414.99999,878.8622)"
           fill="#1890d0"
           id="path14" />
      </g>
    </clipPath>
    <clipPath
       id="clipPath-596082226">
      <g
         transform="translate(0,-1004.3622)"
         id="g17">
        <path
           d="m -24 13 c 0 1.105 -0.672 2 -1.5 2 -0.828 0 -1.5 -0.895 -1.5 -2 0 -1.105 0.672 -2 1.5 -2 0.828 0 1.5 0.895 1.5 2 z"
           transform="matrix(15.333333,0,0,11.5,414.99999,878.8622)"
           fill="#1890d0"
           id="path19" />
      </g>
    </clipPath>
    <linearGradient
       id="linearGradient1264"
       inkscape:collect="always">
      <stop
         id="stop1266"
         offset="0"
         style="stop-color:#222b32;stop-opacity:1" />
      <stop
         id="stop1268"
         offset="1"
         style="stop-color:#313a41;stop-opacity:1" />
    </linearGradient>
    <linearGradient
       inkscape:collect="always"
       xlink:href="#linearGradient4159"
       id="linearGradient4165"
       x1="2.4271111"
       y1="6.8862224"
       x2="11.119556"
       y2="6.8862224"
       gradientUnits="userSpaceOnUse"
       gradientTransform="matrix(1.2960076,0,0,1.2960076,-2.0049584,-2.0383744)" />
    <linearGradient
       inkscape:collect="always"
       id="linearGradient4159">
      <stop
         style="stop-color:#171717;stop-opacity:1"
         offset="0"
         id="stop4161" />
      <stop
         style="stop-color:#2c2c2c;stop-opacity:1"
         offset="1"
         id="stop4163" />
    </linearGradient>
    <linearGradient
       inkscape:collect="always"
       xlink:href="#linearGradient4159"
       id="linearGradient3079"
       gradientUnits="userSpaceOnUse"
       gradientTransform="matrix(1.2960076,0,0,1.2960076,-2.0049584,-2.0383744)"
       x1="2.4271111"
       y1="6.8862224"
       x2="11.119556"
       y2="6.8862224" />
    <linearGradient
       inkscape:collect="always"
       xlink:href="#linearGradient1264"
       id="linearGradient3081"
       gradientUnits="userSpaceOnUse"
       gradientTransform="matrix(0.20372917,0,0,0.20372917,-0.15345832,2.0875694)"
       x1="35.5"
       y1="39.166668"
       x2="35.5"
       y2="7.5" />
    <linearGradient
       inkscape:collect="always"
       xlink:href="#linearGradient4204"
       id="linearGradient4202"
       x1="29.040869"
       y1="1041.3625"
       x2="29.040869"
       y2="1019.3546"
       gradientUnits="userSpaceOnUse"
       gradientTransform="matrix(0.83333406,0,0,0.83333406,3.9999821,171.39295)" />
    <linearGradient
       id="linearGradient4204">
      <stop
         id="stop4206"
         offset="0"
         style="stop-color:#bfd7f9;stop-opacity:1" />
      <stop
         id="stop4208"
         offset="1"
         style="stop-color:#f6f9fe;stop-opacity:1" />
    </linearGradient>
  </defs>
  <g
     id="g33"
     transform="matrix(1.8187009,0,0,1.8187009,-20.053245,-20.049239)" />
  <g
     id="g35"
     transform="matrix(1.8187009,0,0,1.8187009,-20.053245,-20.049239)">
    <g
       clip-path="url(#clipPath-588033436)"
       id="g37">
      <g
         transform="translate(1,1)"
         id="g39">
        <g
           id="g41"
           style="opacity:0.1">
          <!-- color: #d0d9e4 -->
          <g
             id="g43">
            <path
               d="m 22.48,12.156 c -3.207,0.719 -5.664,3.992 -5.734,7.984 -0.008,0.566 0.023,1.121 0.109,1.656 0,0.004 0.004,0.008 0.004,0.016 -0.523,1.176 -0.848,2.477 -0.871,3.879 -0.086,4.98 3.438,9.08 7.852,9.152 4.414,0.078 8.06,-3.891 8.16,-8.879 0.031,-1.852 -0.418,-3.59 -1.238,-5.04 0.012,-0.188 0.023,-0.355 0.027,-0.543 0.074,-4.566 -3,-8.328 -6.871,-8.398 -0.484,-0.008 -0.961,0.055 -1.418,0.156 m -0.02,0.008"
               id="path45"
               inkscape:connector-curvature="0"
               style="fill:#000000;fill-opacity:1;fill-rule:nonzero;stroke:none" />
            <path
               d="m 21.04,14.762 c -1.035,0.352 -1.813,1.465 -1.848,2.805 -0.027,1.16 0.496,2.176 1.301,2.691 -1.793,1.297 -3.02,3.602 -3.086,6.262 -0.109,4.164 2.652,7.602 6.164,7.691 3.508,0.086 6.441,-3.207 6.551,-7.371 0.082,-3.082 -1.418,-5.766 -3.617,-6.988 1.242,-0.145 2.195,-0.996 2.188,-2.01 -0.012,-1.109 -1.164,-1.98 -2.57,-1.965 -0.832,0.008 -1.563,0.32 -2.02,0.813 -0.316,-1.168 -1.215,-2.031 -2.316,-2.059 -0.266,-0.012 -0.508,0.031 -0.75,0.121 m 2.945,4.148 c 0.07,0.09 0.148,0.164 0.23,0.246 -0.09,-0.008 -0.172,-0.016 -0.258,-0.02 -0.023,0 -0.055,-0.004 -0.086,-0.008 0.039,-0.074 0.082,-0.141 0.113,-0.219 m 0,0"
               id="path47"
               inkscape:connector-curvature="0"
               style="fill:#000000;fill-opacity:1;fill-rule:nonzero;stroke:none" />
            <path
               d="m 23.742,18.03 c 0.047,0.516 -0.207,0.961 -0.566,0.992 -0.363,0.031 -0.691,-0.363 -0.738,-0.883 -0.043,-0.523 0.211,-0.965 0.57,-0.996 0.359,-0.027 0.691,0.367 0.734,0.887 m 0,0"
               id="path49"
               inkscape:connector-curvature="0"
               style="fill:#000000;fill-opacity:1;fill-rule:nonzero;stroke:none" />
            <path
               d="m 25.496,18 c 0.047,0.352 -0.043,0.695 -0.234,0.895 -0.191,0.199 -0.453,0.223 -0.676,0.059 -0.223,-0.164 -0.375,-0.484 -0.391,-0.836 -0.047,-0.348 0.043,-0.691 0.234,-0.891 0.191,-0.199 0.453,-0.223 0.676,-0.063 0.227,0.164 0.375,0.488 0.391,0.836 m 0,0"
               id="path51"
               inkscape:connector-curvature="0"
               style="fill:#000000;fill-opacity:1;fill-rule:nonzero;stroke:none" />
            <path
               d="m 21.355,20.09 c 0,0 1.559,-0.871 2.668,-0.762 1.105,0.105 2.063,0.941 2.063,0.941 0,0 -0.906,2.902 -2.594,2.656 -1.688,-0.25 -2.141,-2.836 -2.141,-2.836 m 0.004,0"
               id="path53"
               inkscape:connector-curvature="0"
               style="fill:#000000;fill-opacity:1;fill-rule:nonzero;stroke:none" />
            <path
               d="m 17.08,22.04 c 0,0 0.664,1.574 1.539,2.867 0.875,1.297 1.895,3.48 0.328,2.68 -1.559,-0.797 -2.645,-2.043 -2.426,-3.48 0.227,-1.438 0.566,-2.07 0.566,-2.07 m -0.008,0.004"
               id="path55"
               inkscape:connector-curvature="0"
               style="fill:#000000;fill-opacity:1;fill-rule:nonzero;stroke:none" />
            <path
               d="m 30.17,20.586 c 0,0 -0.871,2.051 -2.023,3.734 -1.145,1.688 -2.473,4.527 -0.438,3.492 2.031,-1.031 3.465,-2.652 3.172,-4.523 -0.293,-1.875 -0.727,-2.703 -0.727,-2.703 m 0.004,0"
               id="path57"
               inkscape:connector-curvature="0"
               style="fill:#000000;fill-opacity:1;fill-rule:nonzero;stroke:none" />
            <path
               d="m 17.941,33.3 c -0.465,1.109 0.262,2.277 1.621,2.609 1.359,0.328 2.84,-0.301 3.305,-1.414 0.465,-1.109 -0.262,-2.277 -1.621,-2.609 -1.359,-0.328 -2.84,0.305 -3.305,1.414 m 0,0"
               id="path59"
               inkscape:connector-curvature="0"
               style="fill:#000000;fill-opacity:1;fill-rule:nonzero;stroke:none" />
            <path
               d="m 29.988,33.31 c 0.445,1 -0.25,2.059 -1.559,2.359 -1.305,0.297 -2.727,-0.273 -3.172,-1.277 -0.445,-1 0.254,-2.063 1.559,-2.359 1.305,-0.301 2.727,0.273 3.172,1.277 m 0,0"
               id="path61"
               inkscape:connector-curvature="0"
               style="fill:#000000;fill-opacity:1;fill-rule:nonzero;stroke:none" />
          </g>
        </g>
      </g>
    </g>
  </g>
  <g
     id="g63"
     transform="matrix(1.8187009,0,0,1.8187009,-20.053245,-20.049239)">
    <g
       clip-path="url(#clipPath-596082226)"
       id="g65">
      <!-- color: #d0d9e4 -->
      <g
         id="g67">
        <path
           d="m 22.48,12.156 c -3.207,0.719 -5.664,3.992 -5.734,7.984 -0.008,0.566 0.023,1.121 0.109,1.656 0,0.004 0.004,0.008 0.004,0.016 -0.523,1.176 -0.848,2.477 -0.871,3.879 -0.086,4.98 3.438,9.08 7.852,9.152 4.414,0.078 8.06,-3.891 8.16,-8.879 0.031,-1.852 -0.418,-3.59 -1.238,-5.04 0.012,-0.188 0.023,-0.355 0.027,-0.543 0.074,-4.566 -3,-8.328 -6.871,-8.398 -0.484,-0.008 -0.961,0.055 -1.418,0.156 m -0.02,0.008"
           id="path69"
           inkscape:connector-curvature="0"
           style="fill:#121919;fill-opacity:1;fill-rule:nonzero;stroke:none" />
        <path
           d="m 21.04,14.762 c -1.035,0.352 -1.813,1.465 -1.848,2.805 -0.027,1.16 0.496,2.176 1.301,2.691 -1.793,1.297 -3.02,3.602 -3.086,6.262 -0.109,4.164 2.652,7.602 6.164,7.691 3.508,0.086 6.441,-3.207 6.551,-7.371 0.082,-3.082 -1.418,-5.766 -3.617,-6.988 1.242,-0.145 2.195,-0.996 2.188,-2.01 -0.012,-1.109 -1.164,-1.98 -2.57,-1.965 -0.832,0.008 -1.563,0.32 -2.02,0.813 -0.316,-1.168 -1.215,-2.031 -2.316,-2.059 -0.266,-0.012 -0.508,0.031 -0.75,0.121 m 2.945,4.148 c 0.07,0.09 0.148,0.164 0.23,0.246 -0.09,-0.008 -0.172,-0.016 -0.258,-0.02 -0.023,0 -0.055,-0.004 -0.086,-0.008 0.039,-0.074 0.082,-0.141 0.113,-0.219 m 0,0"
           id="path71"
           inkscape:connector-curvature="0"
           style="fill:#ececec;fill-opacity:1;fill-rule:nonzero;stroke:none" />
        <path
           d="m 23.742,18.03 c 0.047,0.516 -0.207,0.961 -0.566,0.992 -0.363,0.031 -0.691,-0.363 -0.738,-0.883 -0.043,-0.523 0.211,-0.965 0.57,-0.996 0.359,-0.027 0.691,0.367 0.734,0.887 m 0,0"
           id="path73"
           inkscape:connector-curvature="0"
           style="fill:#2e3436;fill-opacity:1;fill-rule:nonzero;stroke:none" />
        <path
           d="m 25.496,18 c 0.047,0.352 -0.043,0.695 -0.234,0.895 -0.191,0.199 -0.453,0.223 -0.676,0.059 -0.223,-0.164 -0.375,-0.484 -0.391,-0.836 -0.047,-0.348 0.043,-0.691 0.234,-0.891 0.191,-0.199 0.453,-0.223 0.676,-0.063 0.227,0.164 0.375,0.488 0.391,0.836 m 0,0"
           id="path75"
           inkscape:connector-curvature="0"
           style="fill:#2e3436;fill-opacity:1;fill-rule:nonzero;stroke:none" />
        <path
           d="m 21.355,20.09 c 0,0 1.559,-0.871 2.668,-0.762 1.105,0.105 2.063,0.941 2.063,0.941 0,0 -0.906,2.902 -2.594,2.656 -1.688,-0.25 -2.141,-2.836 -2.141,-2.836 m 0.004,0"
           id="path77"
           inkscape:connector-curvature="0"
           style="fill:#ffb30a;fill-opacity:1;fill-rule:nonzero;stroke:none" />
        <path
           d="m 17.08,22.04 c 0,0 0.664,1.574 1.539,2.867 0.875,1.297 1.895,3.48 0.328,2.68 -1.559,-0.797 -2.645,-2.043 -2.426,-3.48 0.227,-1.438 0.566,-2.07 0.566,-2.07 m -0.008,0.004"
           id="path79"
           inkscape:connector-curvature="0"
           style="fill:#121919;fill-opacity:1;fill-rule:nonzero;stroke:none" />
        <path
           d="m 30.17,20.586 c 0,0 -0.871,2.051 -2.023,3.734 -1.145,1.688 -2.473,4.527 -0.438,3.492 2.031,-1.031 3.465,-2.652 3.172,-4.523 -0.293,-1.875 -0.727,-2.703 -0.727,-2.703 m 0.004,0"
           id="path81"
           inkscape:connector-curvature="0"
           style="fill:#121919;fill-opacity:1;fill-rule:nonzero;stroke:none" />
        <path
           d="m 17.941,33.3 c -0.465,1.109 0.262,2.277 1.621,2.609 1.359,0.328 2.84,-0.301 3.305,-1.414 0.465,-1.109 -0.262,-2.277 -1.621,-2.609 -1.359,-0.328 -2.84,0.305 -3.305,1.414 m 0,0"
           id="path83"
           inkscape:connector-curvature="0"
           style="fill:#ffb30a;fill-opacity:1;fill-rule:nonzero;stroke:none" />
        <path
           d="m 29.988,33.31 c 0.445,1 -0.25,2.059 -1.559,2.359 -1.305,0.297 -2.727,-0.273 -3.172,-1.277 -0.445,-1 0.254,-2.063 1.559,-2.359 1.305,-0.301 2.727,0.273 3.172,1.277 m 0,0"
           id="path85"
           inkscape:connector-curvature="0"
           style="fill:#ffb30a;fill-opacity:1;fill-rule:nonzero;stroke:none" />
      </g>
    </g>
  </g>
  <circle
     sodipodi:ry="5.6327376"
     sodipodi:rx="5.6327376"
     sodipodi:cy="6.8862224"
     sodipodi:cx="6.7733335"
     transform="matrix(2.0305128,0,0,2.0305128,15.797148,16.593333)"
     r="5.6327376"
     cy="6.8862224"
     cx="6.7733335"
     id="path4267"
     style="fill:url(#linearGradient3079);fill-opacity:1;stroke:none" />
  <circle
     sodipodi:ry="3.2596667"
     sodipodi:rx="3.2596667"
     sodipodi:cy="6.7733402"
     sodipodi:cx="6.7733335"
     transform="matrix(2.0305128,0,0,2.0305128,15.797148,16.593333)"
     r="3.2596667"
     cy="6.7733402"
     cx="6.7733335"
     id="path1325"
     style="fill:url(#linearGradient3081);fill-opacity:1;stroke:none" />
  <path
     id="path4264"
     d="m 29.550489,25.675946 a 4.8996272,4.8996272 0 0 0 -4.900075,4.900075 4.8996272,4.8996272 0 0 0 4.900075,4.900075 4.8996272,4.8996272 0 0 0 4.900075,-4.900075 4.8996272,4.8996272 0 0 0 -4.900075,-4.900075 z m 0,0.573056 a 4.3265713,4.3265713 0 0 1 4.32702,4.327019 4.3265713,4.3265713 0 0 1 -4.32702,4.327019 4.3265713,4.3265713 0 0 1 -4.327019,-4.327019 4.3265713,4.3265713 0 0 1 4.327019,-4.327019 z"
     style="fill:#1a1a1a;fill-opacity:0.23529412;stroke:none"
     inkscape:connector-curvature="0" />
  <path
     style="font-size:35px;font-style:normal;font-variant:normal;font-weight:normal;font-stretch:normal;line-height:125%;letter-spacing:0px;word-spacing:0px;fill:#ffffff;fill-opacity:1;stroke:none;font-family:Maven Pro;-inkscape-font-specification:Maven Pro"
     d="m 25.428845,24.791806 c -1.053303,0 -1.933125,0.258584 -2.623814,0.58642 l 0,1.260968 c 0.621622,-0.310893 1.449983,-0.604265 2.486018,-0.604265 1.761261,0 2.727873,0.655479 2.727873,1.864524 0,1.191265 -0.91516,1.847711 -2.590077,1.847711 l -1.311428,0 0,1.191715 1.260356,0 c 2.089328,0 3.228926,0.776977 3.228926,2.20969 0,1.433421 -1.122981,2.210591 -3.160511,2.210591 -1.225975,0 -2.20974,-0.362946 -2.917699,-0.759776 l 0,1.276944 c 0.777026,0.397668 1.813291,0.725891 3.073796,0.725891 3.125362,0 4.247429,-1.761194 4.247429,-3.419121 0,-2.123688 -2.071681,-2.952329 -2.071681,-2.952329 0,0 1.48486,-0.604523 1.48486,-2.331316 0,-1.502545 -1.002231,-3.107647 -3.834048,-3.107647 z m 9.686789,0.155189 -2.123709,1.347163 0,1.467693 2.297148,-1.520132 0,10.223026 1.243014,0 0,-11.51775 -1.416453,0 z"
     id="path4189"
     inkscape:connector-curvature="0" />
</svg>
