<?xml version="1.0" encoding="UTF-8" standalone="no"?>
<!-- Created with Inkscape (http://www.inkscape.org/) -->

<svg
   xmlns:dc="http://purl.org/dc/elements/1.1/"
   xmlns:cc="http://creativecommons.org/ns#"
   xmlns:rdf="http://www.w3.org/1999/02/22-rdf-syntax-ns#"
   xmlns:svg="http://www.w3.org/2000/svg"
   xmlns="http://www.w3.org/2000/svg"
   xmlns:xlink="http://www.w3.org/1999/xlink"
   xmlns:sodipodi="http://sodipodi.sourceforge.net/DTD/sodipodi-0.dtd"
   xmlns:inkscape="http://www.inkscape.org/namespaces/inkscape"
   width="48"
   height="48"
   id="svg5453"
   version="1.1"
   inkscape:version="0.48.4 r9939"
   sodipodi:docname="xfburn.svg">
  <defs
     id="defs5455">
    <linearGradient
       id="linearGradient4390">
      <stop
         style="stop-color:#f7f7f7;stop-opacity:1;"
         offset="0"
         id="stop4392" />
      <stop
         style="stop-color:#f9dce0;stop-opacity:1"
         offset="1"
         id="stop4394" />
    </linearGradient>
    <linearGradient
       gradientTransform="matrix(1.4285711,0,0,1.4285711,-163.67328,-235.91309)"
       inkscape:collect="always"
       xlink:href="#linearGradient4435"
       id="linearGradient4274"
       x1="400.57138"
       y1="545.79797"
       x2="400.57138"
       y2="517.79797"
       gradientUnits="userSpaceOnUse" />
    <linearGradient
       id="linearGradient4435">
      <stop
         id="stop4437"
         offset="0"
         style="stop-color:#e3e4fc;stop-opacity:1;" />
      <stop
         id="stop4439"
         offset="1"
         style="stop-color:#c3e5f1;stop-opacity:1;" />
    </linearGradient>
    <linearGradient
       inkscape:collect="always"
       xlink:href="#linearGradient3792"
       id="linearGradient3798"
       x1="14"
       y1="23.5"
       x2="35"
       y2="23.5"
       gradientUnits="userSpaceOnUse" />
    <linearGradient
       id="linearGradient3792">
      <stop
         style="stop-color:#e02323;stop-opacity:1;"
         offset="0"
         id="stop3794" />
      <stop
         style="stop-color:#ff3e3e;stop-opacity:1;"
         offset="1"
         id="stop3796" />
    </linearGradient>
    <linearGradient
       id="linearGradient3223">
      <stop
         id="stop3225"
         style="stop-color:#690000;stop-opacity:1;"
         offset="0" />
      <stop
         id="stop3227"
         style="stop-color:#ff1742;stop-opacity:1;"
         offset="1" />
    </linearGradient>
    <linearGradient
       id="linearGradient3172">
      <stop
         id="stop3174"
         style="stop-color:#005c9b;stop-opacity:1"
         offset="0" />
      <stop
         id="stop3176"
         style="stop-color:#55baff;stop-opacity:1"
         offset="1" />
    </linearGradient>
    <linearGradient
       id="linearGradient3176">
      <stop
         id="stop3178"
         style="stop-color:#005693;stop-opacity:1"
         offset="0" />
      <stop
         id="stop3365"
         style="stop-color:#1d96dc;stop-opacity:1"
         offset="0.64838707" />
      <stop
         id="stop3180"
         style="stop-color:#3cc1ff;stop-opacity:0.75539571"
         offset="1" />
    </linearGradient>
    <linearGradient
       inkscape:collect="always"
       xlink:href="#linearGradient3172"
       id="linearGradient4406"
       gradientUnits="userSpaceOnUse"
       gradientTransform="matrix(0.84215446,0,0,0.74669787,379.77375,499.16665)"
       x1="25.726885"
       y1="18.172169"
       x2="37.437656"
       y2="51.406189" />
    <linearGradient
       inkscape:collect="always"
       xlink:href="#linearGradient3223"
       id="linearGradient4408"
       gradientUnits="userSpaceOnUse"
       gradientTransform="matrix(0.84491429,0,0,0.73625276,379.70153,499.39714)"
       x1="34.100719"
       y1="45.622128"
       x2="34.100719"
       y2="20.249283" />
    <clipPath
       id="clipPath-277296371">
      <g
         transform="translate(0,-1004.3622)"
         id="g17">
        <path
           style="fill:#1890d0"
           inkscape:connector-curvature="0"
           d="m -24,13 c 0,1.105 -0.672,2 -1.5,2 -0.828,0 -1.5,-0.895 -1.5,-2 0,-1.105 0.672,-2 1.5,-2 0.828,0 1.5,0.895 1.5,2 z"
           transform="matrix(15.333333,0,0,11.5,414.99999,878.8622)"
           id="path19" />
      </g>
    </clipPath>
    <clipPath
       id="clipPath-267246273">
      <g
         transform="translate(0,-1004.3622)"
         id="g12">
        <path
           style="fill:#1890d0"
           inkscape:connector-curvature="0"
           d="m -24,13 c 0,1.105 -0.672,2 -1.5,2 -0.828,0 -1.5,-0.895 -1.5,-2 0,-1.105 0.672,-2 1.5,-2 0.828,0 1.5,0.895 1.5,2 z"
           transform="matrix(15.333333,0,0,11.5,414.99999,878.8622)"
           id="path14" />
      </g>
    </clipPath>
    <linearGradient
       inkscape:collect="always"
       xlink:href="#linearGradient3764"
       id="linearGradient3816"
       x1="4"
       y1="24"
       x2="44"
       y2="24"
       gradientUnits="userSpaceOnUse" />
    <linearGradient
       id="linearGradient3764"
       x1="1"
       x2="47"
       gradientUnits="userSpaceOnUse"
       gradientTransform="matrix(0,-1,1,0,-1.5e-6,47.999998)">
      <stop
         stop-color="#6b6b6b"
         stop-opacity="1"
         id="stop7" />
      <stop
         offset="1"
         stop-color="#757575"
         stop-opacity="1"
         id="stop9"
         style="stop-color:#939393;stop-opacity:1;" />
    </linearGradient>
  </defs>
  <sodipodi:namedview
     id="base"
     pagecolor="#ffffff"
     bordercolor="#666666"
     borderopacity="1.0"
     inkscape:pageopacity="0"
     inkscape:pageshadow="2"
     inkscape:zoom="16.25"
     inkscape:cx="18.155399"
     inkscape:cy="22.572177"
     inkscape:document-units="px"
     inkscape:current-layer="layer1"
     showgrid="true"
     fit-margin-top="0"
     fit-margin-left="0"
     fit-margin-right="0"
     fit-margin-bottom="0"
     inkscape:window-width="1871"
     inkscape:window-height="1056"
     inkscape:window-x="49"
     inkscape:window-y="24"
     inkscape:window-maximized="1"
     inkscape:showpageshadow="false"
     borderlayer="true"
     showguides="true">
    <inkscape:grid
       type="xygrid"
       id="grid4063" />
    <sodipodi:guide
       position="1.1650391e-05,43.999996"
       orientation="-2.5000018e-07,1"
       id="guide4148" />
    <sodipodi:guide
       position="48.000012,43.999996"
       orientation="-4,0"
       id="guide4150" />
    <sodipodi:guide
       position="48.000012,47.999996"
       orientation="0,-48"
       id="guide4152" />
    <sodipodi:guide
       position="1.1650391e-05,4.0000264"
       orientation="4,0"
       id="guide4154" />
    <sodipodi:guide
       position="1.1650391e-05,2.6367188e-05"
       orientation="0,48"
       id="guide4156" />
    <sodipodi:guide
       position="48.000012,2.6367188e-05"
       orientation="-4,0"
       id="guide4158" />
    <sodipodi:guide
       position="48.000012,4.0000264"
       orientation="0,-48"
       id="guide4160" />
    <sodipodi:guide
       position="48.000012,48.000026"
       orientation="0,-4"
       id="guide4162" />
    <sodipodi:guide
       position="44.000012,48.000026"
       orientation="48,0"
       id="guide4164" />
    <sodipodi:guide
       position="44.000012,2.6367188e-05"
       orientation="0,4"
       id="guide4166" />
    <sodipodi:guide
       position="48.000012,2.6367188e-05"
       orientation="-48,0"
       id="guide4168" />
    <sodipodi:guide
       position="4.0000422,48.000026"
       orientation="0,-4"
       id="guide4170" />
    <sodipodi:guide
       position="4.2167969e-05,48.000026"
       orientation="48,0"
       id="guide4172" />
    <sodipodi:guide
       position="4.2167969e-05,2.6367188e-05"
       orientation="0,4"
       id="guide4174" />
    <sodipodi:guide
       position="4.0000422,2.6367188e-05"
       orientation="-48,0"
       id="guide4176" />
    <sodipodi:guide
       position="16.000012,32.000026"
       orientation="16,0"
       id="guide4288" />
    <sodipodi:guide
       position="16.000012,16.000026"
       orientation="0,16"
       id="guide4290" />
    <sodipodi:guide
       position="32.000012,16.000026"
       orientation="-16,0"
       id="guide4292" />
    <sodipodi:guide
       position="32.000012,32.000026"
       orientation="0,-16"
       id="guide4294" />
  </sodipodi:namedview>
  <metadata
     id="metadata5458">
    <rdf:RDF>
      <cc:Work
         rdf:about="">
        <dc:format>image/svg+xml</dc:format>
        <dc:type
           rdf:resource="http://purl.org/dc/dcmitype/StillImage" />
        <dc:title />
      </cc:Work>
    </rdf:RDF>
  </metadata>
  <g
     inkscape:label="Capa 1"
     inkscape:groupmode="layer"
     id="layer1"
     transform="translate(-384.57143,-499.798)">
    <path
       style="fill:none;stroke:url(#linearGradient4406);stroke-width:1.09776294;stroke-linecap:round;stroke-linejoin:round;stroke-miterlimit:4;stroke-opacity:1;stroke-dasharray:none"
       id="path3369"
       inkscape:connector-curvature="0"
       d="m 411.21921,508.82913 c -25.24939,1.8634 -21.31314,30.61103 -1.49345,30.02838 17.62041,-0.53564 18.08242,-23.65866 1.01348,-23.03356" />
    <path
       style="fill:none;stroke:#1c94da;stroke-width:1.15215576px;stroke-linecap:round;stroke-linejoin:round;stroke-opacity:1"
       id="path3191"
       inkscape:connector-curvature="0"
       d="m 410.26656,515.89239 -1.12864,9.09167" />
    <path
       style="fill:none;stroke:url(#linearGradient4408);stroke-width:0.62025446;stroke-linecap:round;stroke-linejoin:round;stroke-miterlimit:4;stroke-opacity:1;stroke-dasharray:none"
       id="path3212"
       inkscape:connector-curvature="0"
       d="m 409.28577,524.91408 c 0.0276,-2.99191 4.72093,-2.76696 5.86748,-0.0301 1.17671,2.95605 -1.02013,5.78935 -4.28507,6.65151 -4.27853,1.1298 -8.22565,-1.70848 -9.35215,-5.37395 -1.40212,-4.56234 2.69151,-9.78242 8.93173,-10.43632" />
    <path
       style="fill:none;stroke:#53b8fd;stroke-width:1.166592px;stroke-linecap:round;stroke-linejoin:round;stroke-opacity:1"
       id="path3189"
       inkscape:connector-curvature="0"
       d="m 411.30347,508.57108 -0.9495,6.89719" />
    <rect
       style="opacity:1;fill:url(#linearGradient4274);fill-opacity:1;stroke:none"
       id="rect4179"
       width="39.999947"
       height="39.999947"
       x="388.57144"
       y="503.798"
       ry="19.999973" />
    <path
       inkscape:connector-curvature="0"
       style="opacity:1;fill:#2c2e31;fill-opacity:0.23529412;stroke:none"
       d="m 388.58311,523.29795 c -0.004,0.16654 -0.0117,0.33244 -0.0117,0.5 0,11.08 8.92,20 20,20 11.08,0 20,-8.92 20,-20 0,-0.16756 -0.008,-0.33346 -0.0117,-0.5 -0.26467,10.84613 -9.07616,19.5 -19.98828,19.5 -10.91212,0 -19.72361,-8.65387 -19.98828,-19.5 z"
       id="rect4409" />
    <path
       inkscape:connector-curvature="0"
       id="path1495"
       d="m 408.57143,517.8994 c -3.25457,0 -5.8985,2.644 -5.8985,5.8986 0,3.2544 2.64393,5.8986 5.8985,5.8986 3.25457,0 5.89849,-2.6442 5.89849,-5.8986 0,-3.2546 -2.64393,-5.8986 -5.89849,-5.8986 z m 0,3.7498 c 1.18348,0 2.14846,0.9651 2.14846,2.1488 0,1.1836 -0.96497,2.1486 -2.14846,2.1486 -1.18349,0 -2.14846,-0.965 -2.14846,-2.1486 0,-1.1837 0.96497,-2.1488 2.14846,-2.1488 z"
       style="fill:#9fa9b1;fill-opacity:1;stroke:none" />
    <path
       inkscape:connector-curvature="0"
       id="path1497"
       d="m 408.57143,519.1497 c -2.56421,0 -4.64848,2.0839 -4.64848,4.6483 0,2.5643 2.08427,4.6482 4.64848,4.6482 2.56421,0 4.64847,-2.0839 4.64847,-4.6482 0,-2.5644 -2.08427,-4.6483 -4.64847,-4.6483 z m 0,2.4995 c 1.18348,0 2.14846,0.9651 2.14846,2.1488 0,1.1836 -0.96497,2.1486 -2.14846,2.1486 -1.18349,0 -2.14846,-0.965 -2.14846,-2.1486 0,-1.1837 0.96497,-2.1488 2.14846,-2.1488 z"
       style="fill:#d4d4e6;fill-opacity:0.71489364;stroke:none" />
    <path
       inkscape:connector-curvature="0"
       id="path1532"
       d="m 408.57143,521.6331 c -1.09446,0 -1.98277,0.8445 -2.11311,1.9049 0.20087,-0.9778 1.07756,-1.6966 2.11311,-1.6966 1.03555,0 1.91224,0.7188 2.11312,1.6966 -0.13036,-1.0604 -1.01867,-1.9049 -2.11312,-1.9049 z m -5.86315,2.768 c 0.21771,3.0569 2.75112,5.4761 5.86315,5.4761 3.11202,0 5.64543,-2.4192 5.86316,-5.4761 -0.30239,2.972 -2.812,5.2976 -5.86316,5.2976 -3.05115,0 -5.56076,-2.3256 -5.86315,-5.2976 z"
       style="fill:#1a1a1a;fill-opacity:0.31372549;stroke:none" />
    <rect
       style="fill:#6f918a;fill-opacity:1;stroke:none"
       id="rect3040"
       width="13.907736"
       height="13.907736"
       x="413.98685"
       y="527.75177" />
    <g
       transform="matrix(0.34769339,0,0,0.34769339,412.59604,526.36106)"
       id="g35">
      <g
         clip-path="url(#clipPath-267246273)"
         id="g37">
        <g
           transform="translate(1,1)"
           id="g39">
          <g
             style="opacity:0.1"
             id="g41">
            <!-- color: #757575 -->
            <g
               id="g43">
              <path
                 style="fill:#000000;fill-opacity:1;fill-rule:nonzero;stroke:none"
                 inkscape:connector-curvature="0"
                 d="m 22.21,11.996 c 3.176,5.172 -0.891,5.098 -0.281,10.703 -0.793,-1.285 -0.824,-2.113 -2.617,-2.508 2.43,4.254 -2.898,3.777 -2.395,7.48 -0.652,-0.18 -1.254,-1.398 -0.758,-2.902 -1.711,2.109 -1.102,3.926 0.113,5.754 -1.215,-1.215 -1.215,-0.605 -1.82,-2.32 0.227,4.27 3.355,7.496 9.246,7.77 -2.605,-0.297 -4.387,-2.617 -4.387,-5.449 0,-3.039 3.109,-4.91 4.652,-7.05 0.648,-0.906 1.402,-2.652 0.211,-3.895 3.633,2.457 -0.605,7.293 1.813,9.113 -0.602,-1.215 0,-2.43 1.223,-3.035 -0.605,1.215 -0.605,2.426 -0.113,2.922 2.801,3.297 0.836,7.207 -2.582,7.406 l 0.457,0 c 4.02,0 8,-2.914 8.43,-5.828 -0.566,0.836 -1.328,1.578 -2.449,1.578 2.945,-2.43 3.543,-6.078 0.934,-9.57 0.195,2.277 -1.035,3.492 -2.109,4.273 1.684,-3.207 1.688,-6.863 -1.613,-10.08 0.262,0.789 0.465,1.406 0.285,2.125 0.18,-0.883 -2.445,-4.969 -6.23,-6.492 m -0.008,0.004"
                 id="path45" />
            </g>
          </g>
        </g>
      </g>
    </g>
    <g
       transform="matrix(0.34769339,0,0,0.34769339,412.59604,526.36106)"
       id="g47">
      <g
         clip-path="url(#clipPath-277296371)"
         id="g49">
        <!-- color: #757575 -->
        <g
           id="g51">
          <path
             style="fill:#ffffff;fill-opacity:1;fill-rule:nonzero;stroke:none"
             inkscape:connector-curvature="0"
             d="m 22.21,11.996 c 3.176,5.172 -0.891,5.098 -0.281,10.703 -0.793,-1.285 -0.824,-2.113 -2.617,-2.508 2.43,4.254 -2.898,3.777 -2.395,7.48 -0.652,-0.18 -1.254,-1.398 -0.758,-2.902 -1.711,2.109 -1.102,3.926 0.113,5.754 -1.215,-1.215 -1.215,-0.605 -1.82,-2.32 0.227,4.27 3.355,7.496 9.246,7.77 -2.605,-0.297 -4.387,-2.617 -4.387,-5.449 0,-3.039 3.109,-4.91 4.652,-7.05 0.648,-0.906 1.402,-2.652 0.211,-3.895 3.633,2.457 -0.605,7.293 1.813,9.113 -0.602,-1.215 0,-2.43 1.223,-3.035 -0.605,1.215 -0.605,2.426 -0.113,2.922 2.801,3.297 0.836,7.207 -2.582,7.406 l 0.457,0 c 4.02,0 8,-2.914 8.43,-5.828 -0.566,0.836 -1.328,1.578 -2.449,1.578 2.945,-2.43 3.543,-6.078 0.934,-9.57 0.195,2.277 -1.035,3.492 -2.109,4.273 1.684,-3.207 1.688,-6.863 -1.613,-10.08 0.262,0.789 0.465,1.406 0.285,2.125 0.18,-0.883 -2.445,-4.969 -6.23,-6.492 m -0.008,0.004"
             id="path53" />
        </g>
      </g>
    </g>
    <path
       style="opacity:0.35;fill:#000000;fill-opacity:1;stroke:none"
       d="m 413.98682,541.65957 13.90774,10e-5 c -6.95387,-0.34769 -6.95387,-0.34769 -13.90774,0 z"
       id="path3800"
       inkscape:connector-curvature="0"
       sodipodi:nodetypes="cccc" />
    <path
       sodipodi:nodetypes="cccc"
       inkscape:connector-curvature="0"
       id="path3804"
       d="m 413.98682,527.7519 13.90774,-7e-5 c -6.95387,0.3477 -6.95387,0.3477 -13.90774,0 z"
       style="opacity:0.75;fill:#ffffff;fill-opacity:1;stroke:none" />
  </g>
</svg>
