<?xml version="1.0" encoding="UTF-8" standalone="no"?>
<svg
   xmlns:dc="http://purl.org/dc/elements/1.1/"
   xmlns:cc="http://creativecommons.org/ns#"
   xmlns:rdf="http://www.w3.org/1999/02/22-rdf-syntax-ns#"
   xmlns:svg="http://www.w3.org/2000/svg"
   xmlns="http://www.w3.org/2000/svg"
   xmlns:sodipodi="http://sodipodi.sourceforge.net/DTD/sodipodi-0.dtd"
   xmlns:inkscape="http://www.inkscape.org/namespaces/inkscape"
   width="48"
   viewBox="0 0 48 48"
   height="48"
   id="svg2"
   version="1.1"
   inkscape:version="0.48.4 r9939"
   sodipodi:docname="wps-office-wps.svg">
  <metadata
     id="metadata44">
    <rdf:RDF>
      <cc:Work
         rdf:about="">
        <dc:format>image/svg+xml</dc:format>
        <dc:type
           rdf:resource="http://purl.org/dc/dcmitype/StillImage" />
      </cc:Work>
    </rdf:RDF>
  </metadata>
  <defs
     id="defs42" />
  <sodipodi:namedview
     pagecolor="#ffffff"
     bordercolor="#666666"
     borderopacity="1"
     objecttolerance="10"
     gridtolerance="10"
     guidetolerance="10"
     inkscape:pageopacity="0"
     inkscape:pageshadow="2"
     inkscape:window-width="640"
     inkscape:window-height="480"
     id="namedview40"
     showgrid="false"
     inkscape:zoom="2.4583334"
     inkscape:cx="25.000859"
     inkscape:cy="16.964435"
     inkscape:window-x="429"
     inkscape:window-y="197"
     inkscape:window-maximized="0"
     inkscape:current-layer="g8" />
  <path
     d="m8 1c-1.0286 0-2 0.9714-2 2v42c0 0.97143 1.0286 2 2 2h32c0.97143 0 2-1.0286 2-2v-31l-13-13z"
     fill="#3468ce"
     id="path4" />
  <path
     d="m29 12 0.062 0.062 0.157-0.062h-0.219zm2 2 11 11v-11h-11z"
     fill-opacity=".196"
     id="path6" />
  <g
     id="g8"
     fill="#fff">
    <path
       d="m29 1 13 13h-11c-0.97143 0-2-1.0286-2-2v-11z"
       id="path10"
       fill-opacity=".392" />
    <text
       xml:space="preserve"
       style="font-size:21.14803314px;font-style:normal;font-variant:normal;font-weight:normal;font-stretch:normal;text-align:start;line-height:125%;letter-spacing:0px;word-spacing:0px;writing-mode:lr-tb;text-anchor:start;fill:#ffffff;fill-opacity:1;stroke:none;font-family:Ubuntu;-inkscape-font-specification:Ubuntu"
       x="9.5314903"
       y="32.213772"
       id="text3043"
       sodipodi:linespacing="125%"><tspan
         sodipodi:role="line"
         id="tspan3045"
         x="9.5314903"
         y="32.213772">W</tspan></text>
  </g>
  <path
     d="m6 35v10c0 0.97143 1.0286 2 2 2h32c0.97143 0 2-1.0286 2-2v-10z"
     fill-opacity=".196"
     id="path30" />
  <g
     transform="scale(1.0601 .94328)"
     fill="#fff"
     id="g32">
    <path
       d="m16.79 42.284c0.03501 0.1663 0.08752 0.37198 0.15754 0.61704 0.07002 0.24507 0.14441 0.51639 0.22318 0.81397 0.08752 0.29758 0.17942 0.61704 0.2757 0.95838 0.10502 0.34134 0.20568 0.69144 0.30196 1.0503-0.000005-0.45512-0.0044-0.94087-0.01313-1.4573-0.0088-0.52514-0.01751-1.059-0.02626-1.6017-0.0088-0.54264-0.01751-1.0897-0.02626-1.6411-0.0088-0.56014-0.01313-1.0984-0.01313-1.6148h1.4966c-0.02626 0.66518-0.05252 1.3522-0.07877 2.0612-0.02626 0.70019-0.0569 1.4004-0.0919 2.1006-0.03501 0.69144-0.07878 1.3741-0.13128 2.048-0.04377 0.67393-0.09628 1.3129-0.15754 1.9168h-1.3391c-0.19256-0.5514-0.38511-1.1422-0.57766-1.7723-0.19256-0.63892-0.38511-1.2472-0.57765-1.8249-0.19256 0.5514-0.39386 1.1509-0.60391 1.7986-0.21006 0.64768-0.40261 1.2472-0.57766 1.7986h-1.3391c-0.07002-0.60391-0.13129-1.2428-0.1838-1.9168-0.05251-0.68268-0.10065-1.3697-0.14441-2.0612-0.03501-0.70018-0.06564-1.4004-0.0919-2.1006-0.02626-0.70893-0.04814-1.3916-0.06564-2.048h1.4966c-0.0088 0.5164-0.01751 1.0503-0.02626 1.6017-0.0088 0.5514-0.01751 1.1028-0.02626 1.6542-0.0088 0.54265-0.01751 1.0765-0.02626 1.6017-0.0088 0.51639-0.01313 1.0021-0.01313 1.4573 0.07877-0.28007 0.16629-0.5864 0.26257-0.919 0.10503-0.33258 0.2013-0.6608 0.28883-0.98464 0.09627-0.32383 0.1838-0.62141 0.26257-0.89274 0.07877-0.27132 0.14003-0.48575 0.1838-0.6433h1.1816"
       id="path34" />
    <path
       d="m22.409 39.317c1.0328 0.000008 1.8336 0.21444 2.4025 0.6433 0.5689 0.42012 0.85335 1.1116 0.85335 2.0743-0.000006 0.97151-0.28883 1.6761-0.86648 2.1137-0.56891 0.42887-1.3785 0.6433-2.4288 0.6433h-0.57766v2.7439h-1.6148v-8.0215c0.15754-0.035 0.33259-0.06563 0.52514-0.0919 0.2013-0.02625 0.40261-0.04375 0.60391-0.05251 0.2013-0.0175 0.39823-0.03063 0.59078-0.03939 0.19255-0.0087 0.36322-0.01312 0.51201-0.01313m0.1838 1.4048c-0.09628 0.000007-0.23194 0.0044-0.40698 0.01313-0.1663 0.000007-0.29758 0.0088-0.39386 0.02626v2.6257h0.65643c0.51638 0.000004 0.90586-0.10065 1.1684-0.30196 0.26256-0.21005 0.39385-0.56452 0.39386-1.0634-0.000005-0.47262-0.13129-0.80521-0.39386-0.99777-0.25382-0.2013-0.59516-0.30195-1.024-0.30196"
       id="path36" />
    <path
       d="m29.078 46.353c0.27132 0.000001 0.4945-0.02626 0.66955-0.07877 0.1838-0.06126 0.32821-0.14004 0.43324-0.23631 0.10502-0.10503 0.17504-0.21881 0.21006-0.34134 0.04376-0.13128 0.06564-0.26257 0.06564-0.39386-0.000005-0.16629-0.04814-0.31508-0.14441-0.44637-0.09628-0.13128-0.21881-0.24506-0.3676-0.34134-0.14879-0.10502-0.31509-0.19692-0.49888-0.2757-0.1838-0.08752-0.3676-0.16629-0.5514-0.23631-0.24507-0.08752-0.49888-0.18817-0.76145-0.30196-0.26257-0.11378-0.50326-0.25819-0.72207-0.43324-0.21006-0.17504-0.3851-0.38947-0.52514-0.6433-0.14004-0.26256-0.21006-0.5864-0.21006-0.97151-0.000001-0.76145 0.24506-1.3566 0.7352-1.7855 0.49888-0.42886 1.1816-0.64329 2.048-0.6433 0.49888 0.000008 0.93212 0.0569 1.2997 0.17067 0.37635 0.11379 0.69143 0.2407 0.94525 0.38073l-0.47263 1.2472c-0.21881-0.12253-0.46388-0.22755-0.7352-0.31508-0.26257-0.08752-0.56891-0.13128-0.919-0.13128-0.85773 0.000007-1.2866 0.31072-1.2866 0.93212-0.000002 0.15755 0.04376 0.29759 0.13128 0.42011 0.08752 0.11378 0.19692 0.21881 0.32821 0.31508 0.14003 0.08753 0.2932 0.1663 0.4595 0.23631 0.17504 0.07002 0.34571 0.13567 0.51201 0.19693 0.25381 0.09628 0.51638 0.20568 0.78771 0.32821 0.28007 0.11378 0.53389 0.27133 0.76145 0.47263 0.23631 0.19256 0.42886 0.43762 0.57765 0.7352 0.14878 0.28883 0.22318 0.65643 0.22318 1.1028-0.000006 0.76146-0.24945 1.3522-0.74832 1.7723-0.49014 0.41136-1.2385 0.61704-2.245 0.61704-0.67393 0-1.2122-0.07002-1.6148-0.21006-0.40261-0.14879-0.70456-0.28445-0.90587-0.40698l0.47263-1.3129c0.23631 0.14004 0.51639 0.27132 0.84022 0.39386 0.33259 0.12253 0.73519 0.1838 1.2078 0.1838"
       id="path38" />
  </g>
</svg>
