<?xml version="1.0" encoding="UTF-8" standalone="no"?>
<!-- Created with Inkscape (http://www.inkscape.org/) -->

<svg
   xmlns:dc="http://purl.org/dc/elements/1.1/"
   xmlns:cc="http://creativecommons.org/ns#"
   xmlns:rdf="http://www.w3.org/1999/02/22-rdf-syntax-ns#"
   xmlns:svg="http://www.w3.org/2000/svg"
   xmlns="http://www.w3.org/2000/svg"
   xmlns:xlink="http://www.w3.org/1999/xlink"
   xmlns:sodipodi="http://sodipodi.sourceforge.net/DTD/sodipodi-0.dtd"
   xmlns:inkscape="http://www.inkscape.org/namespaces/inkscape"
   width="256"
   height="256"
   viewBox="0 0 67.733266 67.733333"
   version="1.1"
   id="svg24"
   inkscape:version="0.92.2 (5c3e80d, 2017-08-06)"
   sodipodi:docname="gbsd-local.svg">
  <defs
     id="defs18">
    <linearGradient
       inkscape:collect="always"
       xlink:href="#linearGradient13624"
       id="linearGradient13630-1-8-7"
       x1="1536.335"
       y1="2012.9987"
       x2="1647.3322"
       y2="2012.9987"
       gradientUnits="userSpaceOnUse"
       gradientTransform="translate(-1795.1231,-1406.2788)" />
    <linearGradient
       inkscape:collect="always"
       id="linearGradient13624">
      <stop
         style="stop-color:#00b9c5;stop-opacity:1;"
         offset="0"
         id="stop13626" />
      <stop
         style="stop-color:#00b9c5;stop-opacity:0;"
         offset="1"
         id="stop13628" />
    </linearGradient>
    <linearGradient
       inkscape:collect="always"
       xlink:href="#linearGradient13624"
       id="linearGradient54"
       gradientUnits="userSpaceOnUse"
       gradientTransform="translate(-1795.1231,-1406.2788)"
       x1="1536.335"
       y1="2012.9987"
       x2="1647.3322"
       y2="2012.9987" />
  </defs>
  <sodipodi:namedview
     id="base"
     pagecolor="#ffffff"
     bordercolor="#666666"
     borderopacity="1.0"
     inkscape:pageopacity="0.0"
     inkscape:pageshadow="2"
     inkscape:zoom="1.979899"
     inkscape:cx="38.899133"
     inkscape:cy="110.03066"
     inkscape:document-units="mm"
     inkscape:current-layer="layer1"
     showgrid="false"
     inkscape:pagecheckerboard="true"
     units="px"
     width="49px"
     inkscape:window-width="2560"
     inkscape:window-height="996"
     inkscape:window-x="0"
     inkscape:window-y="28"
     inkscape:window-maximized="1" />
  <metadata
     id="metadata21">
    <rdf:RDF>
      <cc:Work
         rdf:about="">
        <dc:format>image/svg+xml</dc:format>
        <dc:type
           rdf:resource="http://purl.org/dc/dcmitype/StillImage" />
        <dc:title></dc:title>
      </cc:Work>
    </rdf:RDF>
  </metadata>
  <g
     inkscape:label="Layer 1"
     inkscape:groupmode="layer"
     id="layer1"
     transform="translate(0,-229.26668)">
    <g
       id="g3755"
       transform="matrix(0.3885114,0,0,0.38692597,114.99627,29.577969)">
      <path
         style="fill:#333333;fill-opacity:1;stroke:none"
         d="m -121.63606,603.61774 a 87.185608,87.185608 0 0 1 -87.18561,87.1856 87.185608,87.185608 0 0 1 -87.18561,-87.1856 87.185608,87.185608 0 0 1 87.18561,-87.18561 87.185608,87.185608 0 0 1 87.18561,87.18561 z"
         id="path4795-4-4-0-8-5-1-5-2"
         inkscape:connector-curvature="0" />
      <g
         aria-label="G"
         style="font-style:normal;font-variant:normal;font-weight:normal;font-stretch:normal;line-height:0%;font-family:Yellowtail;-inkscape-font-specification:Yellowtail;letter-spacing:0px;word-spacing:0px;fill:#0079a2;fill-opacity:1;stroke:none"
         id="text2985-0-8-7-1-2-9-7-2-9-72-0-3-5-4-23-4-3-1-2-5">
        <path
           d="m -147.79092,552.33472 q 0,3.54913 -4.52339,8.55966 -4.5234,5.01053 -11.20411,9.53393 -6.61112,4.5234 -13.15265,7.16784 1.46141,-0.48713 2.9924,-0.48713 5.14972,0 6.81989,1.87895 0.41755,0.41754 0.41755,0.97427 0,0.55672 -1.87895,2.71404 -19.555,22.61699 -35.90882,44.88602 6.68071,-5.21931 11.83042,-9.95147 2.85322,-2.57486 6.95908,-2.57486 2.9924,0 3.68831,0.7655 0.6959,0.76549 0.6959,1.32222 0,0.48714 -0.90468,1.18304 -11.62165,10.16025 -37.92695,29.64565 -4.52339,5.08013 -22.82576,24.21758 -3.27076,3.34035 -7.23743,3.34035 -7.72457,0 -7.72457,-4.31462 0,-1.87895 2.9924,-5.9848 4.31462,-6.33276 21.08599,-19.13746 3.68831,-4.10585 12.7351,-13.91814 17.11932,-18.65032 20.66845,-23.93921 -9.46434,8.9772 -14.33569,12.66551 -4.87135,3.68831 -9.04679,6.40235 -4.10586,2.71404 -7.58539,4.38421 -16.84096,8.07253 -24.00881,0.0696 -3.61871,-3.96667 -3.61871,-11.62165 0,-7.72457 4.24503,-16.98014 4.24503,-9.25556 11.34329,-18.23277 7.09825,-9.04679 16.84096,-17.60645 9.7427,-8.55966 20.2509,-15.0316 10.5082,-6.47194 22.12985,-10.36902 11.62166,-3.96667 21.92108,-3.96667 3.54913,0 6.68071,1.18304 3.13159,1.18304 4.45381,2.50527 3.13158,3.13158 3.13158,10.71697 z m -40.22344,14.54446 -0.34795,1.39182 q 0,1.18304 1.60058,1.18304 4.24504,0 11.62166,-4.10585 7.37661,-4.10586 11.90001,-8.42048 4.5234,-4.31463 4.5234,-7.16785 0,-2.43567 -4.31463,-2.43567 -7.65498,0 -17.2585,3.75789 -9.53393,3.7579 -18.65031,9.74271 -9.11639,5.9848 -17.95441,13.77896 -8.83803,7.72457 -15.44915,15.51874 -6.54153,7.72457 -10.57779,15.17078 -4.03626,7.4462 -4.03626,12.7351 0,2.08772 1.18304,3.68831 1.25264,1.60059 3.61872,1.60059 7.30703,0 23.52167,-11.20411 16.28423,-11.20411 37.37022,-30.55033 0.27836,-0.27837 0.97427,-1.04387 1.531,-1.87895 3.13158,-2.71403 -5.70644,2.29649 -9.32515,2.29649 -3.61872,0 -5.98481,-1.60059 -2.36608,-1.60058 -2.36608,-4.31462 0,-2.78363 2.43567,-5.21931 2.43568,-2.43567 3.40995,-2.43567 0.97427,0 0.97427,0.34795 z"
           style="fill:#0079a2;fill-opacity:1"
           id="path438"
           inkscape:connector-curvature="0" />
      </g>
      <g
         aria-label="G"
         style="font-style:normal;font-variant:normal;font-weight:normal;font-stretch:normal;line-height:0%;font-family:Yellowtail;-inkscape-font-specification:Yellowtail;letter-spacing:0px;word-spacing:0px;fill:url(#linearGradient13630-1-8-7);fill-opacity:1;stroke:none"
         id="text2985-0-8-7-1-2-9-7-2-9-72-0-3-5-4-2-4-3-5-7-2-0">
        <path
           d="m -147.79092,552.33472 q 0,3.54913 -4.52339,8.55966 -4.5234,5.01053 -11.20411,9.53393 -6.61112,4.5234 -13.15265,7.16784 1.46141,-0.48713 2.9924,-0.48713 5.14972,0 6.81989,1.87895 0.41755,0.41754 0.41755,0.97427 0,0.55672 -1.87895,2.71404 -19.555,22.61699 -35.90882,44.88602 6.68071,-5.21931 11.83042,-9.95147 2.85322,-2.57486 6.95908,-2.57486 2.9924,0 3.68831,0.7655 0.6959,0.76549 0.6959,1.32222 0,0.48714 -0.90468,1.18304 -11.62165,10.16025 -37.92695,29.64565 -4.52339,5.08013 -22.82576,24.21758 -3.27076,3.34035 -7.23743,3.34035 -7.72457,0 -7.72457,-4.31462 0,-1.87895 2.9924,-5.9848 4.31462,-6.33276 21.08599,-19.13746 3.68831,-4.10585 12.7351,-13.91814 17.11932,-18.65032 20.66845,-23.93921 -9.46434,8.9772 -14.33569,12.66551 -4.87135,3.68831 -9.04679,6.40235 -4.10586,2.71404 -7.58539,4.38421 -16.84096,8.07253 -24.00881,0.0696 -3.61871,-3.96667 -3.61871,-11.62165 0,-7.72457 4.24503,-16.98014 4.24503,-9.25556 11.34329,-18.23277 7.09825,-9.04679 16.84096,-17.60645 9.7427,-8.55966 20.2509,-15.0316 10.5082,-6.47194 22.12985,-10.36902 11.62166,-3.96667 21.92108,-3.96667 3.54913,0 6.68071,1.18304 3.13159,1.18304 4.45381,2.50527 3.13158,3.13158 3.13158,10.71697 z m -40.22344,14.54446 -0.34795,1.39182 q 0,1.18304 1.60058,1.18304 4.24504,0 11.62166,-4.10585 7.37661,-4.10586 11.90001,-8.42048 4.5234,-4.31463 4.5234,-7.16785 0,-2.43567 -4.31463,-2.43567 -7.65498,0 -17.2585,3.75789 -9.53393,3.7579 -18.65031,9.74271 -9.11639,5.9848 -17.95441,13.77896 -8.83803,7.72457 -15.44915,15.51874 -6.54153,7.72457 -10.57779,15.17078 -4.03626,7.4462 -4.03626,12.7351 0,2.08772 1.18304,3.68831 1.25264,1.60059 3.61872,1.60059 7.30703,0 23.52167,-11.20411 16.28423,-11.20411 37.37022,-30.55033 0.27836,-0.27837 0.97427,-1.04387 1.531,-1.87895 3.13158,-2.71403 -5.70644,2.29649 -9.32515,2.29649 -3.61872,0 -5.98481,-1.60059 -2.36608,-1.60058 -2.36608,-4.31462 0,-2.78363 2.43567,-5.21931 2.43568,-2.43567 3.40995,-2.43567 0.97427,0 0.97427,0.34795 z"
           style="fill:url(#linearGradient54);fill-opacity:1"
           id="path442"
           inkscape:connector-curvature="0" />
      </g>
    </g>
  </g>
</svg>
