<?xml version="1.0" encoding="UTF-8" standalone="no"?>
<svg
   xmlns:dc="http://purl.org/dc/elements/1.1/"
   xmlns:cc="http://creativecommons.org/ns#"
   xmlns:rdf="http://www.w3.org/1999/02/22-rdf-syntax-ns#"
   xmlns:svg="http://www.w3.org/2000/svg"
   xmlns="http://www.w3.org/2000/svg"
   xmlns:sodipodi="http://sodipodi.sourceforge.net/DTD/sodipodi-0.dtd"
   xmlns:inkscape="http://www.inkscape.org/namespaces/inkscape"
   width="48"
   viewBox="0 0 48 48"
   height="48"
   id="svg2"
   version="1.1"
   inkscape:version="0.48.4 r9939"
   sodipodi:docname="application-rtf.svg">
  <metadata
     id="metadata44">
    <rdf:RDF>
      <cc:Work
         rdf:about="">
        <dc:format>image/svg+xml</dc:format>
        <dc:type
           rdf:resource="http://purl.org/dc/dcmitype/StillImage" />
      </cc:Work>
    </rdf:RDF>
  </metadata>
  <defs
     id="defs42" />
  <sodipodi:namedview
     pagecolor="#ffffff"
     bordercolor="#666666"
     borderopacity="1"
     objecttolerance="10"
     gridtolerance="10"
     guidetolerance="10"
     inkscape:pageopacity="0"
     inkscape:pageshadow="2"
     inkscape:window-width="640"
     inkscape:window-height="480"
     id="namedview40"
     showgrid="false"
     inkscape:zoom="4.9166667"
     inkscape:cx="24"
     inkscape:cy="24"
     inkscape:window-x="325"
     inkscape:window-y="148"
     inkscape:window-maximized="0"
     inkscape:current-layer="svg2" />
  <path
     d="m8 1c-1.0286 0-2 0.9714-2 2v42c0 0.97143 1.0286 2 2 2h32c0.97143 0 2-1.0286 2-2v-31l-13-13z"
     fill="#3468ce"
     id="path4" />
  <path
     d="m29 12 0.062 0.062 0.157-0.062h-0.219zm2 2 11 11v-11h-11z"
     fill-opacity=".196"
     id="path6" />
  <path
     fill="#fff"
     d="m29 1 13 13h-11c-0.97143 0-2-1.0286-2-2v-11z"
     fill-opacity=".392"
     id="path8" />
  <path
     d="m6 35v10c0 0.97143 1.0286 2 2 2h32c0.97143 0 2-1.0286 2-2v-10z"
     fill-opacity=".196"
     id="path30" />
  <g
     transform="scale(1.0618 .94175)"
     fill="#fff"
     id="g32">
    <path
       d="m15.356 39.288c0.47947 0.000009 0.9137 0.05429 1.3027 0.16284 0.389 0.10857 0.72373 0.27593 1.0042 0.50209 0.28044 0.22617 0.49304 0.51567 0.63779 0.86848 0.15379 0.34378 0.23068 0.75088 0.23069 1.2213-0.000006 0.48852-0.09952 0.93181-0.29854 1.3299-0.19903 0.39806-0.52923 0.70112-0.99061 0.90919 0.15379 0.23522 0.31663 0.49757 0.48852 0.78706 0.17188 0.28045 0.33924 0.57899 0.50209 0.89562 0.16283 0.30759 0.31663 0.6197 0.46138 0.93633 0.15379 0.30759 0.28496 0.6016 0.39353 0.88205h-1.7505c-0.20808-0.5428-0.45234-1.063-0.73278-1.5605-0.2714-0.50661-0.56542-1.0177-0.88205-1.5334h-0.86848v3.0939h-1.6691v-8.2777c0.16284-0.03618 0.33925-0.06784 0.52923-0.09499 0.19902-0.03618 0.39805-0.0588 0.59708-0.06785 0.19902-0.01808 0.389-0.03166 0.56994-0.04071 0.18093-0.009 0.33925-0.01356 0.47495-0.01357m1.4791 2.7411c-0.000005-0.44328-0.1357-0.76896-0.4071-0.97704-0.2714-0.20807-0.62874-0.3121-1.072-0.31211-0.06333 0.000007-0.14023 0.0045-0.23069 0.01357-0.09047 0.000007-0.18094 0.0091-0.2714 0.02714v2.524h0.36639c0.56993 0.000004 0.98156-0.10856 1.2349-0.32568 0.2533-0.22616 0.37995-0.54279 0.37996-0.9499"
       id="path34" />
    <path
       d="m25.682 39.383v1.3841h-2.2119v7.0157h-1.6827v-7.0157h-2.2119v-1.3841h6.1065"
       id="path36" />
    <path
       d="m26.877 47.783v-8.3998h5.143v1.3841h-3.4739v2.0355h3.0397v1.3841h-3.0397v3.596h-1.6691"
       id="path38" />
  </g>
  <text
     xml:space="preserve"
     style="font-size:21.14803314px;font-style:normal;font-variant:normal;font-weight:normal;font-stretch:normal;text-align:start;line-height:125%;letter-spacing:0px;word-spacing:0px;writing-mode:lr-tb;text-anchor:start;fill:#ffffff;fill-opacity:1;stroke:none;font-family:Ubuntu;-inkscape-font-specification:Ubuntu"
     x="9.5314903"
     y="32.213772"
     id="text3043"
     sodipodi:linespacing="125%"><tspan
       sodipodi:role="line"
       id="tspan3045"
       x="9.5314903"
       y="32.213772">W</tspan></text>
</svg>
