<?xml version="1.0" encoding="UTF-8" standalone="no"?>
<svg
   xmlns:dc="http://purl.org/dc/elements/1.1/"
   xmlns:cc="http://creativecommons.org/ns#"
   xmlns:rdf="http://www.w3.org/1999/02/22-rdf-syntax-ns#"
   xmlns:svg="http://www.w3.org/2000/svg"
   xmlns="http://www.w3.org/2000/svg"
   xmlns:sodipodi="http://sodipodi.sourceforge.net/DTD/sodipodi-0.dtd"
   xmlns:inkscape="http://www.inkscape.org/namespaces/inkscape"
   width="48"
   viewBox="0 0 48 48"
   height="48"
   id="svg2"
   version="1.1"
   inkscape:version="0.48.4 r9939"
   sodipodi:docname="wps-office-wpt.svg">
  <metadata
     id="metadata40">
    <rdf:RDF>
      <cc:Work
         rdf:about="">
        <dc:format>image/svg+xml</dc:format>
        <dc:type
           rdf:resource="http://purl.org/dc/dcmitype/StillImage" />
      </cc:Work>
    </rdf:RDF>
  </metadata>
  <defs
     id="defs38" />
  <sodipodi:namedview
     pagecolor="#ffffff"
     bordercolor="#666666"
     borderopacity="1"
     objecttolerance="10"
     gridtolerance="10"
     guidetolerance="10"
     inkscape:pageopacity="0"
     inkscape:pageshadow="2"
     inkscape:window-width="640"
     inkscape:window-height="480"
     id="namedview36"
     showgrid="false"
     inkscape:zoom="3.4766083"
     inkscape:cx="17.396259"
     inkscape:cy="28.013839"
     inkscape:window-x="325"
     inkscape:window-y="129"
     inkscape:window-maximized="0"
     inkscape:current-layer="svg2" />
  <path
     d="m8 1c-1.0286 0-2 0.9714-2 2v11 31c0 0.971 1.0286 2 2 2h32c0.971 0 2-1.029 2-2v-31-11c0-1.0286-0.971-2-2-2h-11-10-11z"
     fill="#3468ce"
     id="path4" />
  <path
     d="m6 35v10c0 0.97143 1.0286 2 2 2h32c0.97143 0 2-1.0286 2-2v-10z"
     fill-opacity=".196"
     id="path26" />
  <g
     transform="scale(1.0382 .96322)"
     fill="#fff"
     id="g28">
    <path
       d="m17.107 41.411c0.03538 0.16806 0.08845 0.37592 0.15921 0.62357 0.07076 0.24766 0.14594 0.52186 0.22555 0.82259 0.08845 0.30073 0.18132 0.62358 0.27862 0.96853 0.10614 0.34496 0.20785 0.69876 0.30515 1.0614-0.000005-0.45994-0.0044-0.95084-0.01327-1.4727-0.0088-0.5307-0.01769-1.0702-0.02653-1.6186-0.0088-0.54838-0.01769-1.1012-0.02653-1.6584-0.0089-0.56607-0.01327-1.11-0.01327-1.6319h1.5125c-0.02654 0.67223-0.05308 1.3666-0.07961 2.083-0.02654 0.70761-0.0575 1.4152-0.09287 2.1228-0.03539 0.69876-0.07961 1.3887-0.13268 2.0697-0.04423 0.68107-0.0973 1.3268-0.15921 1.9371h-1.3533c-0.195-0.558-0.389-1.155-0.584-1.792-0.194-0.646-0.389-1.26-0.584-1.844-0.19459 0.55724-0.39803 1.1631-0.6103 1.8176-0.21228 0.65453-0.40687 1.2604-0.58377 1.8176h-1.3533c-0.07076-0.6103-0.13268-1.256-0.18574-1.9371-0.05307-0.68991-0.10172-1.3842-0.14594-2.083-0.03538-0.7076-0.06634-1.4152-0.09287-2.1228-0.02653-0.71644-0.04865-1.4063-0.06634-2.0697h1.5125c-0.0088 0.52186-0.01769 1.0614-0.02653 1.6186-0.0088 0.55724-0.01769 1.1145-0.02654 1.6717-0.0088 0.5484-0.01769 1.0879-0.02653 1.6186-0.0088 0.52186-0.01327 1.0128-0.01327 1.4727 0.0796-0.28304 0.16805-0.59261 0.26535-0.92873 0.10614-0.33611 0.20343-0.66779 0.29188-0.99506 0.09729-0.32726 0.18574-0.62799 0.26535-0.90219 0.0796-0.27419 0.14152-0.49089 0.18575-0.65011h1.1941"
       id="path30" />
    <path
       d="m22.786 38.413c1.0437 0.000008 1.853 0.21671 2.428 0.65011 0.57492 0.42457 0.86238 1.1233 0.86239 2.0963-0.000006 0.9818-0.29189 1.6938-0.87566 2.1361-0.57493 0.43341-1.3931 0.65011-2.4545 0.65011h-0.58377v2.7729h-1.6319v-8.1064c0.15921-0.03537 0.33611-0.06633 0.5307-0.09287 0.20343-0.02653 0.40687-0.04422 0.6103-0.05307 0.20343-0.01768 0.40245-0.03095 0.59704-0.0398 0.19459-0.0088 0.36707-0.01326 0.51743-0.01327m0.18574 1.4196c-0.0973 0.000007-0.2344 0.0044-0.41129 0.01327-0.16806 0.000007-0.30073 0.0089-0.39803 0.02654v2.6535h0.66338c0.52185 0.000004 0.91546-0.10171 1.1808-0.30515 0.26535-0.21228 0.39802-0.5705 0.39802-1.0747-0.000004-0.47762-0.13268-0.81374-0.39802-1.0083-0.25651-0.20343-0.60146-0.30515-1.0349-0.30515"
       id="path32" />
    <path
       d="m32.75 38.506v1.3533h-2.1626v6.8593h-1.6452v-6.8593h-2.1626v-1.3533h5.9704"
       id="path34" />
  </g>
  <text
     xml:space="preserve"
     style="font-size:21.14803314px;font-style:normal;font-variant:normal;font-weight:normal;font-stretch:normal;text-align:start;line-height:125%;letter-spacing:0px;word-spacing:0px;writing-mode:lr-tb;text-anchor:start;fill:#ffffff;fill-opacity:1;stroke:none;font-family:Ubuntu;-inkscape-font-specification:Ubuntu"
     x="9.5314903"
     y="32.213772"
     id="text3043"
     sodipodi:linespacing="125%"><tspan
       sodipodi:role="line"
       id="tspan3045"
       x="9.5314903"
       y="32.213772">W</tspan></text>
</svg>
