<?xml version="1.0" encoding="UTF-8" standalone="no"?>
<svg
   xmlns:dc="http://purl.org/dc/elements/1.1/"
   xmlns:cc="http://creativecommons.org/ns#"
   xmlns:rdf="http://www.w3.org/1999/02/22-rdf-syntax-ns#"
   xmlns:svg="http://www.w3.org/2000/svg"
   xmlns="http://www.w3.org/2000/svg"
   xmlns:sodipodi="http://sodipodi.sourceforge.net/DTD/sodipodi-0.dtd"
   xmlns:inkscape="http://www.inkscape.org/namespaces/inkscape"
   width="48"
   viewBox="0 0 48 48"
   height="48"
   id="svg2"
   version="1.1"
   inkscape:version="0.48.4 r9939"
   sodipodi:docname="application-presentation-template.svg">
  <metadata
     id="metadata26">
    <rdf:RDF>
      <cc:Work
         rdf:about="">
        <dc:format>image/svg+xml</dc:format>
        <dc:type
           rdf:resource="http://purl.org/dc/dcmitype/StillImage" />
        <dc:title></dc:title>
      </cc:Work>
    </rdf:RDF>
  </metadata>
  <defs
     id="defs24" />
  <sodipodi:namedview
     pagecolor="#ffffff"
     bordercolor="#666666"
     borderopacity="1"
     objecttolerance="10"
     gridtolerance="10"
     guidetolerance="10"
     inkscape:pageopacity="0"
     inkscape:pageshadow="2"
     inkscape:window-width="640"
     inkscape:window-height="480"
     id="namedview22"
     showgrid="false"
     inkscape:zoom="4.9166667"
     inkscape:cx="24"
     inkscape:cy="24"
     inkscape:window-x="59"
     inkscape:window-y="34"
     inkscape:window-maximized="0"
     inkscape:current-layer="svg2" />
  <path
     d="m8 1c-1.0286 0-2 0.9714-2 2v11 31c0 0.971 1.0286 2 2 2h32c0.971 0 2-1.029 2-2v-31-11c0-1.0286-0.971-2-2-2h-11-10-11z"
     fill="#d24726"
     id="path4" />
  <g
     fill="#fff"
     id="g6">
    <g
       transform="matrix(3.2707 0 0 3.189 1.3846 2.4)"
       id="g8">
      <path
         d="m3.2456 3.9511h2.1402v1.5679h-2.1402z"
         id="path10" />
      <path
         d="m3.2456 6.4598h2.1402v1.5679h-2.1402z"
         id="path12" />
      <path
         d="m3.2456 8.9684h7.3378v0.62716h-7.3378z"
         id="path14" />
    </g>
    <g
       transform="matrix(3.2707 0 0 3.189 2.3077 2.4)"
       id="g16">
      <path
         d="m8.3256 3.9511v1.9756h1.9756c0-1.0911-0.88449-1.9756-1.9756-1.9756z"
         id="path18" />
      <path
         d="m8.0433 4.2333c-1.0911 0-1.9756 0.88449-1.9756 1.9756s0.88449 1.9756 1.9756 1.9756 1.9756-0.88449 1.9756-1.9756h-1.9756v-1.9756z"
         id="path20" />
    </g>
  </g>
</svg>
