<?xml version="1.0" encoding="UTF-8" standalone="no"?>
<svg
   xmlns:dc="http://purl.org/dc/elements/1.1/"
   xmlns:cc="http://creativecommons.org/ns#"
   xmlns:rdf="http://www.w3.org/1999/02/22-rdf-syntax-ns#"
   xmlns:svg="http://www.w3.org/2000/svg"
   xmlns="http://www.w3.org/2000/svg"
   xmlns:sodipodi="http://sodipodi.sourceforge.net/DTD/sodipodi-0.dtd"
   xmlns:inkscape="http://www.inkscape.org/namespaces/inkscape"
   width="48"
   viewBox="0 0 48 48"
   height="48"
   id="svg2"
   version="1.1"
   inkscape:version="0.48.4 r9939"
   sodipodi:docname="application-vnd.oasis.opendocument.text.svg">
  <metadata
     id="metadata44">
    <rdf:RDF>
      <cc:Work
         rdf:about="">
        <dc:format>image/svg+xml</dc:format>
        <dc:type
           rdf:resource="http://purl.org/dc/dcmitype/StillImage" />
      </cc:Work>
    </rdf:RDF>
  </metadata>
  <defs
     id="defs42" />
  <sodipodi:namedview
     pagecolor="#ffffff"
     bordercolor="#666666"
     borderopacity="1"
     objecttolerance="10"
     gridtolerance="10"
     guidetolerance="10"
     inkscape:pageopacity="0"
     inkscape:pageshadow="2"
     inkscape:window-width="640"
     inkscape:window-height="480"
     id="namedview40"
     showgrid="false"
     inkscape:zoom="6.9532167"
     inkscape:cx="22.629856"
     inkscape:cy="21.914998"
     inkscape:window-x="432"
     inkscape:window-y="130"
     inkscape:window-maximized="0"
     inkscape:current-layer="svg2" />
  <path
     d="m8 1c-1.0286 0-2 0.9714-2 2v42c0 0.97143 1.0286 2 2 2h32c0.97143 0 2-1.0286 2-2v-31l-13-13z"
     fill="#3468ce"
     id="path4" />
  <path
     d="m29 12 0.062 0.062 0.157-0.062h-0.219zm2 2 11 11v-11h-11z"
     fill-opacity=".196"
     id="path6" />
  <path
     fill="#fff"
     d="m29 1 13 13h-11c-0.97143 0-2-1.0286-2-2v-11z"
     fill-opacity=".392"
     id="path8" />
  <path
     d="m6 35v10c0 0.97143 1.0286 2 2 2h32c0.97143 0 2-1.0286 2-2v-10z"
     fill-opacity=".196"
     id="path30" />
  <g
     transform="matrix(.98658 0 0 .88456 -6.6397 7.4174)"
     fill="#fff"
     id="g32">
    <path
       d="m22.67 37.965c-0.000002 0.42 0.014 0.81667 0.042 1.19 0.03733 0.364 0.10266 0.68134 0.196 0.952 0.10266 0.27067 0.24266 0.48534 0.42 0.644 0.17733 0.15867 0.41533 0.238 0.714 0.238 0.28933 0.000002 0.52266-0.07933 0.7-0.238 0.18666-0.15866 0.32666-0.37333 0.42-0.644 0.10266-0.28 0.168-0.602 0.196-0.966 0.03733-0.364 0.05599-0.756 0.056-1.176-0.000005-0.42-0.01867-0.812-0.056-1.176-0.02801-0.37333-0.09334-0.69533-0.196-0.966-0.09334-0.27066-0.22867-0.48533-0.406-0.644-0.17734-0.15866-0.41534-0.23799-0.714-0.238-0.29867 0.000008-0.53667 0.07934-0.714 0.238-0.17734 0.15867-0.31734 0.37801-0.42 0.658-0.09334 0.27067-0.15867 0.58801-0.196 0.952-0.028 0.364-0.042 0.756-0.042 1.176m-1.75 0c-0.000001-1.4933 0.27533-2.618 0.826-3.374 0.55066-0.76532 1.316-1.148 2.296-1.148 1.0173 0.000009 1.792 0.38268 2.324 1.148 0.53199 0.75601 0.79799 1.8807 0.798 3.374-0.000007 1.4933-0.27067 2.6227-0.812 3.388-0.54134 0.756-1.3067 1.134-2.296 1.134-1.0173 0-1.7967-0.378-2.338-1.134-0.532-0.76533-0.798-1.8947-0.798-3.388"
       id="path34" />
    <path
       d="m30.02 40.905c0.04666 0.0093 0.098 0.014 0.154 0.014 0.056 0.000002 0.10733 0.000002 0.154 0 0.392 0.000002 0.71866-0.07466 0.98-0.224 0.27066-0.14933 0.48533-0.35466 0.644-0.616 0.168-0.26133 0.28466-0.56933 0.35-0.924 0.07466-0.364 0.112-0.76066 0.112-1.19-0.000005-0.37333-0.02801-0.73733-0.084-1.092-0.056-0.35466-0.154-0.66733-0.294-0.938-0.14-0.27066-0.33134-0.48533-0.574-0.644-0.24267-0.16799-0.55534-0.25199-0.938-0.252-0.07467 0.000007-0.15867 0.0047-0.252 0.014-0.09334 0.000007-0.17734 0.0093-0.252 0.028v5.824m4.144-2.94c-0.000007 0.80267-0.10267 1.4887-0.308 2.058-0.19601 0.56-0.47134 1.0173-0.826 1.372-0.35467 0.35467-0.77934 0.616-1.274 0.784-0.48534 0.15867-1.022 0.238-1.61 0.238-0.308 0-0.61134-0.01867-0.91-0.056-0.28934-0.028-0.602-0.07933-0.938-0.154v-8.456c0.392-0.08399 0.76066-0.13999 1.106-0.168 0.34533-0.02799 0.66733-0.04199 0.966-0.042 0.56933 0.000009 1.0873 0.08401 1.554 0.252 0.476 0.16801 0.87733 0.43401 1.204 0.798 0.32666 0.35467 0.57866 0.81201 0.756 1.372 0.18666 0.55067 0.27999 1.218 0.28 2.002"
       id="path36" />
    <path
       d="m41.192 33.639v1.428h-2.282v7.238h-1.736v-7.238h-2.282v-1.428h6.3"
       id="path38" />
  </g>
  <text
     xml:space="preserve"
     style="font-size:21.14803314px;font-style:normal;font-variant:normal;font-weight:normal;font-stretch:normal;text-align:start;line-height:125%;letter-spacing:0px;word-spacing:0px;writing-mode:lr-tb;text-anchor:start;fill:#ffffff;fill-opacity:1;stroke:none;font-family:Ubuntu;-inkscape-font-specification:Ubuntu"
     x="9.5314903"
     y="32.213772"
     id="text3043"
     sodipodi:linespacing="125%"><tspan
       sodipodi:role="line"
       id="tspan3045"
       x="9.5314903"
       y="32.213772">W</tspan></text>
</svg>
