<?xml version="1.0" encoding="UTF-8" standalone="no"?>
<svg
   xmlns:dc="http://purl.org/dc/elements/1.1/"
   xmlns:cc="http://creativecommons.org/ns#"
   xmlns:rdf="http://www.w3.org/1999/02/22-rdf-syntax-ns#"
   xmlns:svg="http://www.w3.org/2000/svg"
   xmlns="http://www.w3.org/2000/svg"
   xmlns:sodipodi="http://sodipodi.sourceforge.net/DTD/sodipodi-0.dtd"
   xmlns:inkscape="http://www.inkscape.org/namespaces/inkscape"
   width="48"
   viewBox="0 0 48 48"
   height="48"
   id="svg2"
   version="1.1"
   inkscape:version="0.48.4 r9939"
   sodipodi:docname="application-audio.svg">
  <metadata
     id="metadata18">
    <rdf:RDF>
      <cc:Work
         rdf:about="">
        <dc:format>image/svg+xml</dc:format>
        <dc:type
           rdf:resource="http://purl.org/dc/dcmitype/StillImage" />
      </cc:Work>
    </rdf:RDF>
  </metadata>
  <defs
     id="defs16" />
  <sodipodi:namedview
     pagecolor="#ffffff"
     bordercolor="#666666"
     borderopacity="1"
     objecttolerance="10"
     gridtolerance="10"
     guidetolerance="10"
     inkscape:pageopacity="0"
     inkscape:pageshadow="2"
     inkscape:window-width="745"
     inkscape:window-height="480"
     id="namedview14"
     showgrid="false"
     inkscape:zoom="3.4766083"
     inkscape:cx="16.222187"
     inkscape:cy="25.350782"
     inkscape:window-x="627"
     inkscape:window-y="208"
     inkscape:window-maximized="0"
     inkscape:current-layer="svg2" />
  <path
     d="m8 1c-1.0286 0-2 0.9714-2 2v42c0 0.97143 1.0286 2 2 2h32c0.97143 0 2-1.0286 2-2v-31l-13-13z"
     fill="#9b4a85"
     id="path4"
     style="fill:#2e4c7e;fill-opacity:1" />
  <path
     d="m29 12 0.062 0.062 0.157-0.062h-0.219zm2 2 11 11v-11h-11z"
     fill-opacity=".196"
     id="path6" />
  <path
     fill="#fff"
     d="m29 1 13 13h-11c-0.97143 0-2-1.0286-2-2v-11z"
     fill-opacity=".392"
     id="path8" />
  <g
     transform="translate(16 -1016.4)"
     fill="#fff"
     id="g10">
    <path
       d="m9.2023 1036.5c-1.1648 0.2929-2.143 1.3626-2.143 1.3626l0.029831 0.034 1.8658 6.9321c-1.3341-0.7236-3.2394-0.5419-4.8168 0.5981-2.0377 1.473-2.747 3.9837-1.567 5.6008 1.1801 1.6174 3.7833 1.7312 5.8211 0.2582 1.6063-1.161 2.5008-2.991 2.1778-4.4941-0.01001-0.047-0.02452-0.091-0.03688-0.137l-1.7905-6.9305c0.041606-0.061 0.56415-0.3008 2.2557-0.4161 1.7901-0.1206 3.0017-2.9883 3.0017-2.9883s-2.0127 0.7708-3.5972 0.2122c-0.39612-0.1396-0.81329-0.1327-1.2012-0.034z"
       id="path12" />
  </g>
</svg>
