<?xml version="1.0" encoding="UTF-8" standalone="no"?>
<svg
   xmlns:dc="http://purl.org/dc/elements/1.1/"
   xmlns:cc="http://creativecommons.org/ns#"
   xmlns:rdf="http://www.w3.org/1999/02/22-rdf-syntax-ns#"
   xmlns:svg="http://www.w3.org/2000/svg"
   xmlns="http://www.w3.org/2000/svg"
   xmlns:sodipodi="http://sodipodi.sourceforge.net/DTD/sodipodi-0.dtd"
   xmlns:inkscape="http://www.inkscape.org/namespaces/inkscape"
   width="48"
   viewBox="0 0 48 48"
   height="48"
   id="svg2"
   version="1.1"
   inkscape:version="0.48.4 r9939"
   sodipodi:docname="audio-x-smart-playlist.svg">
  <metadata
     id="metadata28">
    <rdf:RDF>
      <cc:Work
         rdf:about="">
        <dc:format>image/svg+xml</dc:format>
        <dc:type
           rdf:resource="http://purl.org/dc/dcmitype/StillImage" />
      </cc:Work>
    </rdf:RDF>
  </metadata>
  <defs
     id="defs26" />
  <sodipodi:namedview
     pagecolor="#ffffff"
     bordercolor="#666666"
     borderopacity="1"
     objecttolerance="10"
     gridtolerance="10"
     guidetolerance="10"
     inkscape:pageopacity="0"
     inkscape:pageshadow="2"
     inkscape:window-width="745"
     inkscape:window-height="480"
     id="namedview24"
     showgrid="false"
     inkscape:zoom="4.9166667"
     inkscape:cx="-11.79661"
     inkscape:cy="24"
     inkscape:window-x="544"
     inkscape:window-y="156"
     inkscape:window-maximized="0"
     inkscape:current-layer="svg2" />
  <path
     d="m8 1c-1.0286 0-2 0.9714-2 2v42c0 0.97143 1.0286 2 2 2h32c0.97143 0 2-1.0286 2-2v-31l-13-13z"
     fill="#9b4a85"
     id="path4"
     style="fill:#344c74;fill-opacity:1" />
  <path
     d="m29 12 0.062 0.062 0.157-0.062h-0.219zm2 2 11 11v-11h-11z"
     fill-opacity=".196"
     id="path6" />
  <path
     fill="#fff"
     d="m29 1 13 13h-11c-0.97143 0-2-1.0286-2-2v-11z"
     fill-opacity=".392"
     id="path8" />
  <g
     fill="#fff"
     id="g10">
    <g
       transform="translate(11 -1016.4)"
       id="g12">
      <path
         d="m9.2023 1036.5c-1.1648 0.2929-2.143 1.3626-2.143 1.3626l0.029831 0.034 1.8658 6.9321c-1.3341-0.7236-3.2394-0.5419-4.8168 0.5981-2.0377 1.473-2.747 3.9837-1.567 5.6008 1.1801 1.6174 3.7833 1.7312 5.8211 0.2582 1.6063-1.161 2.5008-2.991 2.1778-4.4941-0.01001-0.047-0.02452-0.091-0.03688-0.137l-1.7905-6.9305c0.041606-0.061 0.56415-0.3008 2.2557-0.4161 1.7901-0.1206 3.0017-2.9883 3.0017-2.9883s-2.0127 0.7708-3.5972 0.2122c-0.39612-0.1396-0.81329-0.1327-1.2012-0.034z"
         id="path14" />
    </g>
    <path
       d="m23 29v1h12v-1z"
       id="path16" />
    <path
       d="m23 32v1h12v-1z"
       id="path18" />
    <path
       d="m23 35v1h12v-1z"
       id="path20" />
    <path
       d="m30.667 20c-0.18467 0-0.33333 0.14867-0.33333 0.33333v0.75c-0.33514 0.07631-0.64496 0.20721-0.92708 0.38542l-0.532-0.53c-0.13058-0.13058-0.33817-0.13058-0.46875 0l-0.46875 0.46875c-0.13058 0.13058-0.13058 0.33817 0 0.46875l0.53125 0.53125c-0.17821 0.28213-0.3091 0.59195-0.38542 0.92708h-0.75c-0.184-0.001-0.333 0.148-0.333 0.333v0.66667c0 0.18467 0.14867 0.33333 0.33333 0.33333h0.75c0.07631 0.33514 0.20721 0.64496 0.38542 0.92708l-0.53 0.531c-0.13058 0.13058-0.13058 0.33817 0 0.46875l0.46875 0.46875c0.13058 0.13058 0.33817 0.13058 0.46875 0l0.53125-0.53125c0.28213 0.17821 0.59195 0.3091 0.92708 0.38542v0.75c-0.001 0.184 0.148 0.333 0.333 0.333h0.66667c0.18467 0 0.33333-0.14867 0.33333-0.33333v-0.75c0.33514-0.07631 0.64496-0.20721 0.92708-0.38542l0.531 0.53c0.13058 0.13058 0.33817 0.13058 0.46875 0l0.46875-0.46875c0.13058-0.13058 0.13058-0.33817 0-0.46875l-0.53125-0.53125c0.17821-0.28213 0.3091-0.59195 0.38542-0.92708h0.75c0.184 0.001 0.333-0.148 0.333-0.333v-0.66667c0-0.184-0.149-0.333-0.333-0.333h-0.75c-0.077-0.335-0.208-0.645-0.386-0.927l0.531-0.531c0.13058-0.13058 0.13058-0.33817 0-0.46875l-0.468-0.468c-0.13058-0.13058-0.33817-0.13058-0.46875 0l-0.53125 0.53125c-0.28213-0.17821-0.59195-0.3091-0.92708-0.38542v-0.75c0-0.185-0.149-0.334-0.334-0.334h-0.66667zm0.333 2.667c0.736 0 1.333 0.597 1.333 1.333s-0.597 1.333-1.333 1.333-1.333-0.597-1.333-1.333 0.597-1.333 1.333-1.333z"
       id="path22" />
  </g>
</svg>
